<svg id="Слой_1" xmlns="http://www.w3.org/2000/svg" viewBox="0 0 54.3 16.2"><style>.st0{fill:#010101}</style><path class="st0" d="M9.6 4.2c0 .3-.2.5-.4.6-3 .7-3.9 1.7-5 3.6-.2.2-.6.3-.8.1-.3-.1-.4-.5-.3-.8 1.2-2.1 2.4-3.3 5.7-4.1.4-.1.7.1.8.4v.2z"/><path class="st0" d="M54.3 8.1c0 1.3-1.1 2.3-2.4 2.3L22.4 10c-1.1 3.7-5.1 6.1-10.3 6.1-6.7.1-12.1-3.6-12.1-8C0 3.6 5.4 0 12.1 0c5.3 0 9.3 2.4 10.3 6.1l29.4-.4c1.4 0 2.5 1.1 2.5 2.4zm-53.1 0c0 3.7 5 6.9 10.9 6.9 4.9 0 8.6-2.2 9.3-5.6.1-.3.3-.5.6-.5l29.9.4c.7 0 1.3-.5 1.3-1.2s-.6-1.2-1.3-1.2L22 7.3c-.3 0-.5-.2-.6-.5-.7-3.4-4.4-5.6-9.3-5.6-5.9 0-10.9 3.1-10.9 6.9z"/></svg>