<svg id="Слой_1" xmlns="http://www.w3.org/2000/svg" viewBox="0 0 140.8 68.6"><style>.st0,.st1{fill:#3d3c2c}.st1{fill-rule:evenodd;clip-rule:evenodd}</style><path class="st0" d="M52.9 64l3.5-1.7.4.9-2.5 1.2.5 1 2.2-1.1.4.9-2.2 1.1.9 1.8-1 .5-2.2-4.6zm7.6-3.1l1-.3 3.4 4.4-1.1.3-.7-1-2.1.6-.2 1.2-1.1.3.8-5.5zm1.9 2.6l-1.1-1.4-.2 1.8 1.3-.4zm4.2-3.8h1.2l1.4 2.1 1.3-2.2h1.2l.2 5.1h-1.1l-.1-3.3-1.4 2.2-1.5-2.1.1 3.3h-1.1l-.2-5.1zm8.4.2l1.1.2-.7 5-1.1-.1.7-5.1zm4.3.8l1.1.3-1.2 3.9 2.4.7-.3 1-3.5-1 1.5-4.9zm5.3 5.2l-.4-3.6 1.2.6.2 2.4 2-1.3 1.1.6-3.1 1.9-.9 1.8-1-.5.9-1.9zM30.1 64c-.1-.1-.3-.2-.4-.2-.1-.1-.3-.1-.5-.1s-.3 0-.3.1c-.1.1-.1.1-.1.2s.1.1.1.2c.1 0 .1 0 .4.1h.3c.3 0 .5.1.7.2.1.1.2.3.2.5s-.1.4-.3.6c-.3.2-.6.2-.8.2-.3 0-.5 0-.7-.1-.2-.1-.4-.2-.5-.3l.3-.4c.1.1.3.2.5.3.2.1.3.1.6.1.2 0 .3 0 .4-.1.1-.1.2-.2.2-.3 0-.2-.1-.2-.2-.2-.1-.1-.2-.1-.4-.1h-.4c-.3 0-.6-.1-.7-.3-.1-.1-.1-.2-.1-.4 0-.3.1-.5.3-.6.1-.1.4-.2.8-.2.2 0 .4 0 .7.1.2.1.3.1.5.3l-.6.4z"/><path class="st0" d="M29.4 65.9c-.3 0-.5 0-.8-.1l-.6-.3h-.1l.4-.5.1.1c.1.1.3.2.4.3.2.1.3.1.5.1s.3 0 .4-.1c.1-.1.1-.2.1-.2 0-.1 0-.1-.1-.2-.1 0-.2-.1-.3-.1H29c-.4 0-.6-.1-.8-.3-.1-.1-.2-.3-.2-.4 0-.3.2-.5.3-.6.2-.2.5-.2.8-.2.3 0 .5 0 .7.1.2.1.4.1.5.3h.1l-.3.5H30c-.1-.1-.3-.2-.4-.2-.1-.1-.3-.1-.5-.1-.1 0-.2 0-.3.1-.1 0-.1.1-.1.1s0 .1.1.1c0 0 .1 0 .4.1h.3c.3 0 .6.1.7.3.1.1.3.3.3.6 0 .2 0 .4-.3.7-.2-.1-.6-.1-.8-.1zm-1.2-.5c.1.1.3.2.5.3.2.1.5.1.7.1.2 0 .5 0 .8-.2.2-.2.3-.4.3-.6 0-.2-.1-.4-.2-.4-.1-.1-.4-.2-.6-.2h-.3c-.3 0-.4 0-.4-.1-.2-.1-.2-.2-.2-.2 0-.1 0-.2.2-.3.1 0 .2-.1.4-.1s.4 0 .5.1c.1 0 .2.1.4.2l.2-.3c-.1-.1-.3-.2-.4-.2-.2-.1-.4-.1-.7-.1-.4 0-.6.1-.7.2-.1.1-.2.2-.2.5 0 .1 0 .2.1.3.1.1.3.2.7.2h.4c.1 0 .2 0 .3.1.2.1.2.2.2.3 0 .1 0 .2-.2.3-.1.1-.3.1-.5.1s-.4 0-.6-.1c-.2-.1-.3-.2-.4-.2l-.3.3zm3.6-2.1h.5v2.5h-.5v-2.5z"/><path class="st0" d="M32.4 65.9h-.7v-2.6h.7v2.6zm-.5-.2h.3v-2.3h-.3v2.3zm2.4-1.4v1.5h-.5v-2.5h.3l1.4 1.5v-1.5h.5v2.5h-.3l-1.4-1.5z"/><path class="st0" d="M36 65.9h-.4l-1.3-1.4v1.4h-.6v-2.6h.4l1.2 1.4v-1.4h.7v2.6zm-.3-.2h.2v-2.3h-.3v1.7L34 63.4h-.2v2.3h.3V64l1.6 1.7zm3.9-.5c-.1.2-.3.4-.4.5-.2.1-.4.2-.7.2-.3 0-.7-.1-.9-.4-.2-.2-.4-.5-.4-.9 0-.3.1-.7.4-1 .2-.2.5-.4.9-.4.3 0 .5.1.7.2.2.1.3.2.4.4l-.4.3-.3-.3c-.1-.1-.2-.1-.4-.1s-.4.1-.6.2c-.1.1-.2.3-.2.6s.1.5.2.6c.1.1.3.2.5.2s.3-.1.5-.1c.1-.1.2-.2.3-.4l.4.4z"/><path class="st0" d="M38.5 65.9c-.4 0-.7-.1-1-.4-.2-.2-.4-.6-.4-1s.1-.8.4-1c.1-.1.5-.4 1-.4.3 0 .5.1.7.2.2.1.3.3.5.4v.1l-.5.4v-.1l-.3-.3c-.1 0-.2-.1-.4-.1s-.4.1-.5.2c-.1.1-.2.3-.2.6 0 .2.1.4.2.6.1.1.3.2.5.2s.3 0 .4-.1l.3-.3v-.1l.5.4v.1c-.1.2-.3.4-.5.5-.2.1-.4.1-.7.1zm0-2.6c-.5 0-.8.2-.9.3-.2.2-.3.5-.3.9 0 .3.1.6.3.9.2.2.5.3.9.3.3 0 .5-.1.6-.2.2-.1.3-.2.4-.4l-.2-.1-.3.3c-.2.1-.3.2-.5.2s-.4-.1-.6-.2c-.2-.2-.3-.4-.3-.7 0-.4.2-.6.3-.7.2-.2.4-.2.6-.2.2 0 .3 0 .4.1.1.1.2.1.3.3l.3-.2c-.1-.1-.2-.2-.4-.3-.1-.2-.3-.3-.6-.3zm2.4 0h2v.5h-1.5v.5h.9v.5h-.9v.6H43v.5h-2.1v-2.6z"/><path class="st0" d="M43 65.9h-2.2v-2.6H43v.6h-1.5v.3h.9v.6h-.9v.5H43v.6zm-2.1-.2h1.9v-.3h-1.6v-.8h.9v-.3h-.9v-.6h1.5v-.3h-1.8v2.3zm57.1.1v-.4c0-.2 0-.4.2-.6.1-.1.3-.3.7-.4l.2-.1c.1 0 .2-.1.3-.1.1 0 .2-.1.2-.2 0 0 0-.1-.1-.2-.1 0-.2-.1-.3-.1-.2 0-.3 0-.5.1-.1.1-.3.2-.4.3l-.3-.4c.2-.2.4-.3.5-.3.2-.1.4-.2.7-.2.2 0 .5 0 .7.2.1.1.3.3.3.6 0 .2-.1.4-.2.4-.1.1-.3.2-.5.3l-.3.1c-.3.1-.5.2-.6.2-.1.1-.1.1-.1.2v.1h1.7v.5H98z"/><path class="st0" d="M100.2 65.9h-2.3v-.5c0-.2 0-.5.2-.7.1-.2.4-.3.7-.4l.2-.1c.1 0 .2-.1.3-.1.1 0 .1-.1.1-.1s0-.1-.1-.1H99c-.2 0-.3 0-.5.1-.1 0-.3.2-.4.3l-.1.1-.4-.5h.1c.2-.1.3-.2.5-.3.2-.1.4-.2.7-.2.3 0 .6.1.8.2.1.1.3.3.3.6 0 .2-.1.4-.2.5-.1.1-.4.2-.5.3l-.3-.1c-.2.1-.4.1-.5.2 0 0-.1.1-.1.2h1.7v.6zm-2.2-.2h2v-.3h-1.6v-.2c0-.1 0-.2.1-.3.1-.1.3-.1.5-.2l.4-.1c.1 0 .3-.2.4-.2.1-.1.2-.2.2-.4 0-.3-.1-.4-.2-.5-.2-.1-.4-.2-.7-.2-.3 0-.4 0-.7.1-.2.1-.3.2-.4.3l.2.3c.1-.1.3-.2.4-.2.2-.1.3-.1.5-.1.1 0 .2 0 .3.1.2.1.2.2.2.3 0 .2-.2.2-.2.3-.1.1-.2.1-.3.1l-.2.1c-.3.1-.5.2-.6.3-.3.1-.3.3-.3.5v.3zm3.3-1.1c0-.8.6-1.3 1.4-1.3.8 0 1.4.5 1.4 1.3s-.6 1.3-1.4 1.3c-.8 0-1.4-.6-1.4-1.3zm.5 0c0 .5.3.8.9.8.5 0 .9-.3.9-.8s-.3-.8-.9-.8c-.6-.1-.9.3-.9.8z"/><path class="st0" d="M102.7 65.9c-.8 0-1.4-.6-1.4-1.4 0-.8.6-1.4 1.4-1.4.8 0 1.4.6 1.4 1.4 0 .9-.6 1.4-1.4 1.4zm0-2.6c-.8 0-1.3.5-1.3 1.2s.5 1.2 1.3 1.2 1.3-.5 1.3-1.2c-.1-.7-.6-1.2-1.3-1.2zm0 2.2c-.5 0-.9-.4-.9-.9s.4-.9.9-.9c.6 0 .9.4.9.9s-.4.9-.9.9zm0-1.7c-.5 0-.8.3-.8.7 0 .4.3.7.8.7s.8-.3.8-.7c-.1-.4-.4-.7-.8-.7zm3.1-.5h.5v2.5h-.5v-2.5z"/><path class="st0" d="M106.3 65.9h-.7v-2.6h.7v2.6zm-.5-.2h.3v-2.3h-.3v2.3zm2.2-1.1c0-.8.6-1.3 1.4-1.3.8 0 1.4.5 1.4 1.3s-.6 1.3-1.4 1.3c-.8 0-1.4-.6-1.4-1.3zm.5 0c0 .5.3.8.9.8.5 0 .9-.3.9-.8s-.3-.8-.9-.8c-.6-.1-.9.3-.9.8z"/><path class="st0" d="M109.4 65.9c-.8 0-1.4-.6-1.4-1.4 0-.8.6-1.4 1.4-1.4.8 0 1.4.6 1.4 1.4 0 .9-.6 1.4-1.4 1.4zm0-2.6c-.7 0-1.3.5-1.3 1.2s.5 1.2 1.3 1.2 1.3-.5 1.3-1.2c-.1-.7-.6-1.2-1.3-1.2zm0 2.2c-.5 0-.9-.4-.9-.9s.4-.9.9-.9c.6 0 .9.4.9.9s-.4.9-.9.9zm0-1.7c-.5 0-.8.3-.8.7 0 .4.3.7.8.7s.8-.3.8-.7c-.1-.4-.4-.7-.8-.7zM72.6 13.1s0 .1 0 0c0 .1 0 .1 0 0z"/><path class="st1" d="M61.3 15.3c.2.2-.1.4.2.7-.3-.1-.2-.2-.5-.1.1-.3.1-.3 0-.6.1 0 .2.2.3 0zm-2.1 1.6h.2c-.1.3.2.3.2.6-.3.1-.3-.1-.6-.2.1-.1.2-.2.2-.4zm2.1 1.9c.1.1.4 0 .5.1-.3.2 0 .3-.1.5-.2-.1-.2 0-.5 0 .2-.3.1-.4.1-.6zm6.8 1.1c.3-.2.3.3.6.1.1.1 0 .2-.1.3-.2-.1-.5 0-.6-.2.1 0 .2-.2.1-.2zm-8.8.4c.3 0 .1.3.4.3 0 .1-.1.1-.1.2-.2 0-.3-.1-.5-.1.2-.2.2-.3.2-.4zm5.4.4c.4 0 .5.3.6.5-.2.1-.5-.1-.7-.2 0-.2.2-.1.1-.3zm3.6 1.1c0 .3-.3.3-.6.3 0-.2-.1-.2-.1-.3.2-.1.6 0 .7 0zm3 .7c-.1.2-.3.6-.6.4 0-.3.3-.7.6-.4zm-9.6 0c.2.1.2.4.5.3-.1.2 0 .1.1.3-.6.1-.8-.2-.6-.6zm13.4.3c0 .3-.8.5-.7.1.3 0 .4-.3.7-.1zm-10.9.9c.3 0 .4.1.6.2v.2c-.3 0-.3 0-.5-.1 0-.2-.1-.2-.1-.3zm13.2 0c.2.2.2.1.5 0 0 .1.1.2.1.4-.2.1-.4.1-.7.1.1-.2 0-.3.1-.5zm-10.9.2c.2.1.4.2.7.2-.1.1-.1.2-.1.3-.2-.1-.3-.1-.6-.1v-.4zm14.2.1h.2c.1.1.1.3.1.4-.2 0-.2.2-.5.2 0-.3-.2-.2-.1-.4.3.1.3 0 .3-.2zm-7.1 1.1c-.2.1-.4.2-.6.1.2-.2 0-.2 0-.4.3.1.6-.3.6.3zm8.1-3.9c-.1.2-.2.4-.4.4.1-.2-.1-.1-.2-.3.3 0 .3-.6.6-.1zm-19.6 4.1c.3 0 .4.1.6 0 0 .2.1.2.2.4-.3 0-.4 0-.6.1-.2-.3-.1-.3-.2-.5zm8.3 0h.2c.1.2 0 .2.2.3 0 .3-.5.1-.6.2 0-.1-.2-.3-.1-.4 0 .1.3.2.3-.1zm5.7 0c.1.2 0 .2.2.3-.1.2-.5.1-.8.2v-.3c.3 0 .3-.1.6-.2zm2.4.5v.3c-.2 0-.2.2-.5.2-.1-.1.1-.2-.2-.2.2-.3.5-.3.7-.3zm-13 .4c.3 0 .3.2.6.1.1.4-.3.3-.6.3 0-.2.1-.2 0-.4zm6.2.6c.2 0 .2.2.3.4-.2.1-.4.1-.6.1 0-.2-.1-.2-.1-.4.2.1.3 0 .4-.1zm-3 .2c.1.2 0 .2.2.3-.2.3-.3.1-.6.2 0-.2 0-.3-.1-.4.1-.1.2-.1.5-.1zm4.6 0c.2 0 .2.1.4 0 .1 0 0 .3.2.2-.1.3-.6.3-.6-.2z"/><path class="st1" d="M82.4 20.4c-.1-1-1.2-1.5-2.4-1.4-.2 0-.4.1-.6.2-.1.1-.2.1-.2.2-1 .9-.4 2.1-.4 2.2-.2 0-.3-.1-.5-.1 0-.1-.1-.2-.1-.3-.2-.4-.9-.8-1.5-.8s-1.1.3-1.2.3c-.2-.2-.4-.3-.6-.4-.5-.2-1.2-.2-2 .4-.7.6-.6 1.4-.5 1.7-.1 0-.2.1-.2.1.1-.1.3-.5 0-1.3-.3-1.1-1.6-.9-1.9-.9 0 0 .1-.1.1-.3 0-.1.1-.1.1-.2v-.5c0-1.4-1.4-1.7-2.4-1.4-1 .3-1.2 1.3-1.3 1.3-1-1.4-2.6-.5-2.8-.4.1-.3 0-.9-.3-1.3-.3-.3-.8-.5-.9-.5.7-.2 1.9-1.7.7-2.9-.7-.7-1.4-.6-2-.4-.8.2-1.4.8-1.3 1.8-2.1 0-2.1 2.9-.6 3.5-1.4.2-1.1 2.5 0 2.8-1.4.9-.4 3.3 1.4 2.9 0 1.5 2.2 2.1 3.2 1.1.2 1.2 1.6 1.8 2.7 1.1.4 1.1 2.4 1.5 3.1.4.4.7 2 .8 2.6.2.8.8 3 .6 2.8-1.1.7-.2.9.3 1.2.5 1.2.5 2.4-.6 2.6-1.6 2.2.5 3.1-2.1 1.7-3.1 1.1-.1 1.6-1.1 1.5-1.8zm-3.1 2.3c0 .8-.4 1.6-1.3 1.7-1.3.2-2.4-.9-1.9-2 .2-.4.9-.8 1.6-.8.8.1 1.5.2 1.6 1.1zm-10.5-.2c.2.2.3.6.6.7-.2.1-.4.3-.6.2.1-.3-.3-.7 0-.9zm-3.3 1.7c-.7.4-1.6 0-1.7-.8.4-.5.8-1 .6-2 .4.6 1.9.4 2.3.2 0 .2-.4.2-.5.2-.3.1-.5.3-.7.4-.5.6-.3 1.6 0 2zm1.8-5.2c.1-.4.5-.8 1.2-.9 2.1-.4 2.2 2.3.6 2.6-.9.2-2-.5-1.8-1.7zm-2.4-.1c1.8-.6 2.7 1.7 1.6 2.5-1.7 1.1-3.8-1.8-1.6-2.5zm-1.1-.7c0 .4 0 .6-.1 1-.4 1.4-2.8 1-3-.4-.1-1.8 2.5-2 3.1-.6zm-.2 2.4c-.2-.2-.5-.3-.8-.3.2-.2.5-.2.7-.4.1.2.1.5.1.7zm-.2.1c.1.1.5.4.6.8.4 1.4-1.2 2.6-2.4 1.7-.5-.4-.8-1.6-.2-2.3.2-.2.5-.3 1-.4.4 0 .7.1 1 .2zm3.4 1.3c.4.1.7.8 1.5.6 1.2 2-2.3 2.8-2.7.8-.3-.7.4-1.5 1.2-1.4zm.2-.3c-.2-.5.3-.8.3-1.4.5.4.9.8 1.7.7-.2.3-.3.7-.2 1.2-.7.4-1.6 0-1.8-.5zm2.2 1.1c-.6-.9 0-2 1.2-2.1 1-.1 1.7.4 1.6 1.3 0 1.3-2 1.9-2.8.8zm3.3-.1c.4.5.9.9 1.7 1 .7 2-2.2 2.2-2.7.8-.3-.8.4-1.4 1-1.8zm.2-1.1c.1-.5 1-1.2 1.8-1.2.9 0 1.5 1.1 1.2 2-.4 1.4-3.4 1.4-3-.8zm5.3-.2c-.7.1-1.5.1-1.8.6-.1-.5-.2-.9-.5-1.1.8-.6 2.1-.4 2.3.5zm-16.3-7.5c1.2-.3 2.1.6 1.9 1.9-.2 1.7-3 1.1-3.1-.3 0-.8.6-1.4 1.2-1.6zm-1.3 1.9c.2.6.6 1 1.3 1.2-.7.3-1.3.8-1.2 1.9-2 0-2.2-3.1-.1-3.1zm.2 3.3c.2.7.8.9 1.3 1.3-.7.1-1.1.6-1.2 1.3-2.1.5-2.2-3-.1-2.6zm-1 4.7c.2-.2.3.2.5.1-.1-.5-.5-.6-.5-.2-.5-.8.3-1.8 1.1-1.7.1.7.3 1.3 1 1.5-.2.3-.4.5-.5.9-.7.2-1.4-.2-1.6-.6zm3.3 2.2c-1.2-.1-2-1.5-.9-2.4.5.1 1 0 1.5-.1.1.6.6.9 1.2 1-.5.8-.8 1.6-1.8 1.5zm4.4-.5c-.1.3-.3.6-.3 1-.9.8-2.7.1-2.3-1.4.2-.4.7-.5 1-.8.5.5 1.9.7 2.5.3 0 .7-.6.6-.9.9zm2.5 1.6l-.6.6c-1.9.4-2.4-1.9-1-2.4.5.3.8 1 1.6 1.1 0 .2.1.4 0 .7zm-1.3-2.5c.1-.4.3-.4.4-.8.5-.6 1.6.1 2.3-.3-.3.5.2 1.1.2 1.5 0 1.8-3.2 1.2-2.9-.4zm1.6 1.8c.9 0 1.4-.5 1.6-1.2.3.1.5.4.9.4-.3.3-.4 1.2-.1 1.6-.7.7-2.4.4-2.4-.8zm2.8-.6c.3-.1.8 0 1-.2.4.3.7.8 1.3.8.4 2.2-3.7 1.3-2.3-.6zm1.3-.3c.3-.5.7-1.1.3-1.7.4-.2.9-.3 1.1-.6.2.8.6 1.4 1.4 1.5.6 1.6-2.2 1.8-2.8.8zm2.3.7c.6-.2 1-.6.9-1.5.5 0 .9-.1 1.2-.3 1.5 1.3-1.2 3.2-2.1 1.8zm2.9-1.3c-.1-.2-.1-.6-.4-.6.5-.4.7-1.3.6-2 2.6-.7 2.4 3.5-.2 2.6zm1.3-2.9h-.2c-.4 0-.9-.1-1.1-.4-1.3-1.4.9-3.1 2.3-2.1.2.2.4.5.4.9v.7c0 .1-.1.3-.2.4-.3.2-.7.5-1.2.5z"/><path class="st0" d="M74 28c-.5 0-1-.2-1.2-.4-.3.2-.7.3-1.2.3s-1.1-.1-1.4-.5c-.3.4-.8.6-1.4.6-.8 0-1.5-.4-1.8-1-.3.2-.6.3-1 .3-.9 0-1.6-.6-1.8-1.3-.3.3-.8.4-1.3.4-.6 0-1.2-.2-1.5-.6-.3-.3-.4-.6-.4-1h-.3c-.9 0-1.4-.7-1.6-1.3-.2-.7 0-1.3.5-1.7-.6-.2-.9-1-.9-1.7 0-.6.3-1 .8-1.2-.8-.4-1-1.4-.9-2.1.1-.7.6-1.4 1.6-1.4-.1-1.1.6-1.6 1.3-1.8.3-.1.5-.1.7-.1.5 0 .9.2 1.3.6.6.6.6 1.2.5 1.6-.2.6-.6 1.1-1.1 1.3.2.1.6.2.8.5.3.4.4.9.4 1.3.2-.1.7-.4 1.3-.4.6 0 1 .2 1.4.7.1-.3.5-1 1.3-1.2.2-.1.5-.1.7-.1.5 0 1 .2 1.3.5.3.3.4.6.4 1.1v.5c0 .1-.1.2-.1.2 0 .1 0 .1-.1.2h.4c.8 0 1.3.4 1.5 1 0 .1.1.3.1.4.1-.3.2-.6.6-.9.5-.4 1-.6 1.5-.6.2 0 .4 0 .6.1.2.1.4.2.5.3.2-.1.6-.3 1.2-.3s1.2.4 1.5.8c.1.1.1.2.1.3.1 0 .2.1.3.1-.1-.3-.5-1.4.4-2.2.1-.1.2-.1.3-.2.2-.1.4-.2.6-.2h.4c1.1 0 2 .6 2.1 1.5.1.6-.3 1.6-1.2 1.8.5.4.7 1.2.5 1.9-.2.6-.8 1.3-1.8 1.3-.2 0-.3 0-.5-.1-.2.8-1 1.7-2 1.7-.2 0-.5 0-.7-.1-.1-.1-.2-.1-.3-.2-.2-.1-.3-.3-.6-.3h-.2c0 .4-.1.8-.3 1.1-.2.3-.7.5-1.3.5zm-1.2-.6c.3.3.7.5 1.2.5s1-.2 1.2-.5c.2-.3.3-.6.3-1v-.1c.1 0 .2-.1.3-.1.3 0 .5.2.7.3.1.1.2.2.3.2.2.1.4.1.6.1.9 0 1.8-.9 1.9-1.7V25h.1c.2 0 .4.1.5.1.9 0 1.5-.6 1.6-1.2.2-.7 0-1.4-.5-1.8v.1h.2c.9-.1 1.3-1.1 1.2-1.7-.1-.8-.9-1.4-2-1.4H80c-.2 0-.3.1-.6.2-.1 0-.2.1-.2.2-1 .9-.4 2-.3 2.2l.1.1h-.1c-.2 0-.3-.1-.5-.1 0-.1-.1-.2-.1-.3-.2-.4-.9-.8-1.4-.8-.6 0-1 .3-1.1.3-.2-.1-.3-.3-.5-.3-.2-.1-.4-.1-.6-.1-.5 0-.9.2-1.4.6-.7.5-.6 1.4-.5 1.6v.1s-.1.1-.2.1l-.6-.1.2-.3c.1-.1.2-.5 0-1.3-.2-.7-.9-.9-1.4-.9h-.7l.1-.1s.1-.1.1-.2.1-.1.1-.2v-.5c0-.4-.1-.7-.3-1-.3-.3-.7-.5-1.3-.5-.2 0-.5 0-.7.1-.9.3-1.2 1.2-1.2 1.3v.1l-.1-.1c-.4-.5-.8-.7-1.4-.7-.6 0-1.2.3-1.3.4H64v-.1c.1-.3 0-.9-.3-1.3-.3-.3-.7-.5-.9-.5h-.2l.2-.1c.4-.1.9-.6 1.1-1.3.1-.4.1-.9-.4-1.5-.5-.5-1.2-.6-1.9-.4-.7.2-1.4.7-1.2 1.7v.1h-.1c-.8 0-1.4.5-1.5 1.3-.1.8.2 1.8 1 2.1l.2.1h.3v.1c-.3 0-.6.1-.8.4-.2.2-.3.5-.3.9 0 .3.1.7.3.9.2.3.5.4.9.4v.1c-.4 0-.7-.2-1-.5-.2-.3-.3-.6-.3-1s.1-.7.3-.9c.1-.1.2-.2.4-.3-.5.1-.9.5-.9 1.1 0 .6.3 1.4.9 1.6h.1l-.1.1c-.6.4-.7 1.1-.5 1.6.2.6.7 1.2 1.5 1.2h.5v.1c0 .4.1.7.4 1 .3.4.9.6 1.4.6.5 0 1-.2 1.2-.5l.1-.1v.1c.1.8.8 1.3 1.7 1.3.3 0 .7-.1 1-.3h.1v.1c.2.6.9 1 1.7 1 .6 0 1.1-.2 1.3-.7l.1-.1.1.1c.2.3.7.5 1.4.5.3 0 .7-.1 1-.4zm-4.1.4c-.8 0-1.3-.6-1.4-1.1-.1-.5.1-1.2.8-1.4.2.1.3.3.5.4.3.3.6.6 1.1.6h.1v.4c0 .1.1.3 0 .4-.2.2-.4.4-.7.6-.1.1-.2.1-.4.1zm-.6-2.4c-.6.2-.8.8-.7 1.3.1.5.5 1 1.3 1h.4c.2-.1.4-.3.6-.5v-.7c-.6 0-.9-.3-1.1-.6-.2-.3-.3-.4-.5-.5zm6 2.3c-.6 0-1.2-.3-1.5-.8-.1-.3-.2-.7.2-1.3h.3c.2 0 .5 0 .7-.2.1.1.2.2.3.2.3.3.5.5 1 .6.1.4 0 .8-.2 1 0 .4-.4.5-.8.5zM73 25.8c-.3.4-.3.8-.2 1.1.2.4.8.7 1.3.7.4 0 .7-.1.9-.3.2-.2.3-.5.2-.9-.5-.1-.8-.3-1.1-.6l-.2-.2c-.2.2-.5.2-.7.2H73zm-1.4 1.9c-.7 0-1.5-.4-1.5-1.3v-.1h.1c.8 0 1.3-.4 1.5-1.1v-.1h.1c.1 0 .2.1.3.2.2.1.3.2.6.2h.1l-.1.1c-.3.3-.4 1.2-.1 1.5-.3.4-.6.6-1 .6zm-1.4-1.2c0 .7.7 1.1 1.4 1.1.3 0 .7-.1.9-.3-.3-.4-.3-1.2 0-1.6-.2 0-.4-.1-.5-.2-.1-.1-.2-.1-.2-.1-.3.6-.8 1-1.6 1.1zM66 27c-.5 0-.9-.2-1.2-.5-.2-.2-.4-.6-.3-1.3.2-.4.5-.5.8-.7.1 0 .2-.1.3-.1.3.3.9.5 1.6.5.4 0 .7-.1.9-.2l.1-.1v.1c0 .4-.3.5-.5.6-.1.1-.3.1-.4.2 0 .1-.1.2-.1.3-.1.2-.2.4-.2.8-.3.2-.6.4-1 .4zm-.3-2.5c-.1 0-.2.1-.2.1-.3.1-.6.3-.7.6-.1.6.1.9.2 1.1.3.3.7.5 1.1.5.3 0 .6-.1.9-.3 0-.3.1-.5.2-.8 0-.1.1-.2.1-.3.1-.1.3-.2.4-.3.2-.1.4-.2.4-.4-.2.1-.5.2-.8.2-.7.1-1.3-.1-1.6-.4zm11.8 2.2c-.3 0-.7-.1-1-.5v-.1h.1c.6-.2.9-.7.9-1.4v-.1h.1c.4 0 .9-.1 1.2-.3.4.4.5.8.3 1.3-.3.7-1 1.1-1.6 1.1zm-.9-.5c.3.3.6.4.8.4.6 0 1.3-.5 1.5-1 .2-.4.1-.8-.3-1.1-.3.2-.7.2-1.2.3.1.7-.2 1.1-.8 1.4zm-.9 0c-.7 0-1.3-.3-1.5-.7.3-.5.6-1.1.3-1.7v-.1h.1c.1 0 .1-.1.2-.1.3-.1.7-.3.9-.5l.1-.1v.1c.2.9.6 1.3 1.3 1.5.1.4.1.8-.1 1-.3.4-.8.6-1.3.6zm-1.4-.7c.2.3.8.6 1.4.6.5 0 1-.2 1.2-.5.2-.2.2-.5.1-.9-.7-.1-1.2-.6-1.4-1.4-.2.2-.5.4-.8.5-.1 0-.1 0-.2.1.3.5-.1 1.1-.3 1.6zm-4.1.7c-.6 0-1.2-.3-1.5-.6-.2-.3-.3-.6-.3-.9 0-.2.1-.3.2-.4.1-.1.2-.2.2-.4.2-.3.5-.3.7-.3h1.1c.2 0 .4 0 .5-.1l.2-.1-.1.2c-.2.3 0 .6.1 1 .1.2.1.4.1.5 0 .3-.1.6-.3.8-.2.1-.5.3-.9.3zM69 23.8c-.1.2-.2.4-.2.5-.1.1-.1.2-.2.3-.1.3 0 .6.2.8.3.4.9.6 1.4.6.4 0 .7-.1.9-.3.2-.2.3-.4.3-.7 0-.1-.1-.3-.1-.5-.1-.3-.2-.6-.1-.9-.1 0-.3.1-.5.1h-1.1c-.3-.1-.5-.1-.6.1zm-6 2.3c-.1 0-.1 0 0 0-.7 0-1.3-.5-1.5-1.1-.2-.5 0-1 .5-1.4.1 0 .3.1.5.1.4 0 .7-.1 1-.2h.1v.1c.1.5.5.8 1.2 1h.1l-.1.2c-.5.6-.9 1.3-1.8 1.3zm-1-2.4c-.4.3-.6.8-.4 1.3.2.6.7 1 1.3 1 .9 0 1.3-.6 1.6-1.3-.4-.1-1-.4-1.2-1-.3.1-.6.2-.9.2-.1-.1-.3-.1-.4-.2zm11 1.8c-.6 0-1.3-.3-1.5-.9-.3-.9.4-1.5 1-1.9h.1v.1c.4.5.9.8 1.7 1 .2.6.1 1-.1 1.3-.3.2-.7.4-1.2.4zm-.5-2.7c-.5.4-1.2 1-.9 1.7.2.6.9.9 1.4.9.5 0 .9-.2 1.1-.5.2-.3.2-.7.1-1.1-.8-.2-1.3-.5-1.7-1zm7.5 2.3V25c.4 0 .8-.2 1-.4.2-.3.3-.6.3-1 0-.6-.4-1.3-1.2-1.3v-.1c.9 0 1.4.7 1.4 1.4 0 .4-.1.8-.4 1.1-.2.2-.6.4-1.1.4zm-13-.4c-.6 0-1.4-.3-1.6-1.2-.1-.4 0-.8.3-1.1.3-.3.7-.5 1.1-.4.2 0 .3.2.5.3.2.2.4.4.8.4h.2c.4.6.3 1.1.1 1.3-.2.4-.8.7-1.4.7zm-.4-2.6c-.3 0-.6.1-.8.4-.2.3-.3.6-.2 1 .2.8.9 1.1 1.4 1.1.6 0 1.1-.3 1.3-.6.2-.3.1-.7-.1-1.2h-.1c-.4 0-.6-.2-.9-.4-.2-.1-.3-.2-.4-.3h-.2zm-5.9 2.4c-.5 0-1-.4-1.2-.7-.2-.4-.2-.8 0-1.2.2-.4.7-.7 1.2-.6.1.7.3 1.3.9 1.5h.1l-.1.2c-.2.2-.4.5-.5.8h-.4zm-1-.7c.2.3.6.6 1.1.6.1 0 .3 0 .4-.1.1-.3.3-.6.5-.8-.6-.2-.8-.8-.9-1.5-.4-.1-.8.2-1 .6-.2.3-.2.6 0 .9.1-.2.2-.2.2-.2.2 0 .3.2.4.5 0 0-.1.1-.2.1s-.1 0-.2-.1h-.3zm0-.1c.1 0 .1 0 .2.1.1 0 .1.1.2.1-.1-.2-.2-.4-.3-.4-.1-.1-.2 0-.1.2-.1 0 0 0 0 0zm18 .8c-.7 0-1.3-.3-1.6-.8-.2-.4-.3-.9 0-1.3.2-.4.9-.8 1.6-.8.7 0 1.6.1 1.6 1.1.1.9-.5 1.6-1.3 1.8h-.3zm0-2.8c-.6.1-1.3.4-1.5.8-.2.4-.2.8 0 1.1.3.5 1.1.9 1.8.7.9-.1 1.3-.9 1.2-1.6 0-.8-.7-1-1.5-1zm-12.8 2.7c-.6 0-1.1-.4-1.2-1 .4-.5.7-1 .6-1.9v-.2l.1.2c.2.2.6.4 1.1.4.4 0 .9-.1 1.1-.2h.1v.2c-.1.1-.2.1-.3.1h-.2c-.2 0-.3 0-.4.1-.1.1-.2.2-.3.2-.4.5-.2 1.5 0 1.8v.1h-.1c-.1.1-.3.2-.5.2zm-1.1-1c.1.5.6.8 1.1.8.2 0 .4 0 .5-.1-.2-.4-.4-1.4 0-1.9.1 0 .2-.1.3-.2.1 0 .1-.1.2-.1h-.4c-.3 0-.8 0-1.1-.3.1.9-.3 1.4-.6 1.8zm5 .2s0-.1 0 0h-.1c.1-.2 0-.3 0-.5-.1-.2-.1-.4.1-.5.1.1.2.2.2.3.1.2.2.3.4.4l.1.1h-.1c-.1 0-.1.1-.2.1s-.3.1-.4.1zm0-1v.3c0 .1.1.3.1.5.1 0 .2-.1.2-.1l.1-.1c-.1-.1-.2-.2-.3-.4 0 0-.1-.1-.1-.2zm-6.3.9c-.3 0-.7-.1-.9-.3-.4-.2-.6-.6-.6-1.1-.1-.5.1-.9.3-1.2.2-.2.5-.3 1-.4h.3c.3 0 .5.1.8.2.2.1.6.4.7.8.1.5.1 1-.2 1.4-.4.4-.9.6-1.4.6zm.1-2.9h-.3c-.5.1-.8.1-1 .3-.2.3-.3.7-.3 1.1.1.5.3.9.5 1.1.3.2.6.3.9.3.5 0 1-.2 1.3-.7.3-.4.3-.8.2-1.2-.1-.3-.5-.6-.6-.7-.2-.1-.4-.2-.7-.2zm11.6 2.8c-.5 0-1-.2-1.3-.5-.3-.3-.4-.8-.3-1.3.1-.5 1.1-1.2 1.9-1.2.4 0 .8.2 1.1.6.3.4.4 1 .2 1.4-.2.7-.9 1-1.6 1zm.3-2.9c-.7 0-1.6.6-1.7 1.1-.1.5 0 .9.2 1.2.3.3.7.5 1.2.5.6 0 1.3-.3 1.5-.9.1-.4.1-.9-.2-1.3-.2-.4-.6-.6-1-.6zm-4.1 2.9c-.5 0-.9-.2-1.2-.6-.3-.4-.3-.9-.1-1.3.2-.5.7-.8 1.3-.9.6-.1 1.1.1 1.4.4.2.2.3.6.3 1 0 .9-.9 1.4-1.7 1.4zm.3-2.7h-.3c-.6.1-1 .4-1.2.8-.2.4-.1.8.1 1.2.2.4.6.6 1.1.6.7 0 1.6-.5 1.6-1.3 0-.4-.1-.7-.3-.9-.2-.3-.6-.4-1-.4zm-2.6 1.7c-.6 0-1.1-.3-1.2-.7-.1-.3 0-.5.1-.8.1-.2.2-.4.2-.6v-.1l.1.1c.1 0 .1.1.2.1.4.3.8.6 1.5.6h.1v.1c-.2.3-.3.7-.2 1.2-.3.1-.5.1-.8.1zm-.8-2c0 .2-.1.4-.2.6-.1.2-.2.4-.1.7.1.4.6.6 1.1.6.2 0 .4 0 .6-.1 0-.5.1-.8.2-1.1-.7 0-1.1-.4-1.6-.7.1 0 0 0 0 0zm8.9 1.8V22c0-.4-.2-.8-.5-1.1h.1c.3-.2.6-.3 1-.3.6 0 1.2.4 1.4.9v.1H78c-.7.1-1.4.1-1.6.6h-.2zm-.3-1.3c.2.3.4.6.4 1 .3-.4 1-.5 1.6-.5h.1c-.2-.4-.7-.7-1.2-.7-.4-.1-.7 0-.9.2zm4.6 1.2c-.1 0-.1 0 0 0-.5 0-1-.2-1.2-.4-.4-.5-.5-1-.3-1.5.3-.6 1-1 1.7-1 .4 0 .7.1 1 .3.3.2.4.5.5.9v.6c0 .1-.1.3-.2.4-.2.3-.6.6-1.2.6h-.1l-.2.1zm.1-2.8c-.7 0-1.4.4-1.6 1-.2.4-.1.9.3 1.3.2.3.6.4 1.1.4h.2c.5-.1.9-.3 1.1-.6.1-.1.2-.2.2-.4s.1-.4 0-.6c0-.4-.2-.6-.4-.8-.2-.2-.5-.3-.9-.3zm-15 2.4c-.9 0-1.6-.8-1.7-1.5-.1-.6.2-1.2 1-1.4.2-.1.4-.1.6-.1.8 0 1.3.6 1.5 1.2.2.6 0 1.3-.5 1.6-.3.1-.6.2-.9.2zm-.1-2.9c-.2 0-.4 0-.6.1-.7.2-1 .7-.9 1.3.1.7.8 1.4 1.6 1.4.3 0 .6-.1.8-.3.4-.3.6-.9.4-1.4-.1-.5-.6-1.1-1.3-1.1zm3.4 2c-.5 0-1-.2-1.4-.6-.3-.3-.4-.7-.3-1.2.1-.4.5-.8 1.3-1h.4c.9 0 1.3.6 1.4 1.2.1.7-.3 1.4-1.1 1.6h-.3zm0-2.7h-.4c-.7.1-1.1.5-1.2.9-.1.5.1.9.2 1.1.3.4.8.6 1.3.6h.3c.7-.1 1.1-.9 1-1.4 0-.6-.3-1.2-1.2-1.2zm-5.1 2.7l-.2-.1c-.2-.1-.4-.3-.8-.3h-.1l.1-.1c.1-.1.2-.2.4-.2.1 0 .2-.1.3-.2l.1-.1v.1c.1.1.1.3.1.4v.3l.1.2zm-.8-.5c.2 0 .4.1.6.2V20c-.1.1-.2.1-.3.2-.2 0-.3 0-.3.1zm-.5-.2c-.8 0-1.6-.5-1.7-1.4 0-.4.1-.8.3-1.1.3-.3.8-.5 1.3-.5.6 0 1.3.2 1.6.9 0 .4 0 .7-.1 1-.2.8-.8 1.1-1.4 1.1zm-.2-2.8c-.5 0-.9.2-1.2.5-.2.3-.3.6-.3 1 .1.8.9 1.3 1.6 1.3.6 0 1.1-.3 1.2-.9.1-.3.1-.5.1-1-.2-.6-.9-.9-1.4-.9zm-1.8 1.6c-1.1 0-1.6-.9-1.6-1.7 0-.4.1-.8.4-1 .3-.3.7-.5 1.2-.5v.1c-.4 0-.8.1-1.1.4-.2.2-.3.6-.3.9 0 .7.5 1.5 1.5 1.5v.3zm1.8-2c-.8 0-1.8-.5-1.8-1.4-.1-.9.5-1.5 1.2-1.6.7-.2 1.3 0 1.6.4.3.4.4.9.4 1.5-.1.7-.6 1.1-1.4 1.1zm-.1-3c-.1 0-.3 0-.5.1-.6.1-1.2.7-1.1 1.5.1.8 1 1.3 1.7 1.3s1.2-.4 1.2-1c.1-.6 0-1.1-.3-1.4-.2-.3-.6-.5-1-.5z"/><path class="st1" d="M86.2 10.7c-.5-.2-1.1-.2-1.7-.3-.1 0-.3 0-.3-.1s.2-.1.2-.2v-.2l.2-.2c.4-.4.5-.9.8-1.3.1-.1.2-.1.2-.2s-.3-.1-.4-.2c-.5-.1-1.1-.2-1.6-.2-.8-.1-1.6 0-2.3.1-1.2.3-2.1 1-2.3 2.3 0 .1 0 .2-.2.1-.1 0-.1-.3-.1-.4V8.5c.1-.5.3-1.1.5-1.5.4-.9 1-1.6 1.6-2.3.6-.7 1.2-1.4 1.9-2 .5-.5 1-1 1.4-1.5.1-.2.3-.4.4-.6V.5c.1-.1.2-.1.2-.2-.1-.1-.2-.1-.3-.1-.1 0-.3-.1-.4-.1-.1 0-.2.1-.3.1-.3.1-.6.4-.8.5-.2.1-.4.2-.6.4-.2.1-.4.3-.6.4-.1.1-.3.1-.4.1-.6.2-1 .5-1.5.8-.2.1-.4.3-.7.3-.1.3-.2.3-.3.3-.1 0-.2.1-.3.1-.4.2-.8.5-1.3.6-.1 0-.2.1-.4.1s-.4 0-.4-.1c0 0 0-.2.1-.2.2-.5 0-1-.2-1.4l-.6-.9-.3-.3c-.9-.4-1.8-1-3.1-1h-.1c-.4 0-.8.1-1.2.2-.1 0-.3 0-.4.1 0 .1.1.1.1.2.4.3.5.9.7 1.3.3.5.7.9 1.1 1.2.4.3.8.7 1.3 1 .4.2.9.3 1.5.3h.5c0 .1-.1.1-.1.1l-2.4.9c-.1 0-.3.1-.4.1-.1 0-.1-.1-.1-.1-.2-.2-.5-.3-.8-.4l-.1-.1c0-.1 0-.2.1-.2.1-.2.1-.5.1-.8-.1-1-.8-1.6-1.5-2.1-.4-.3-1-.6-1.5-.9-.4-.2-.8-.3-1.3-.4-.1 0-.4-.1-.5 0v.2c.1.4.1.9 0 1.3V2c.3 1.1.9 1.8 1.6 2.5.3.3.7.7 1.2.8.3.1.6.1.9.1.2 0 .4-.1.6-.2 0 0 .1-.1.2-.1s.2.1.2.1c.2.1.3.1.4.2.1 0 .2.1.2.1 0 .1-.4.1-.4.2-1 .3-2 .5-3.2.7-.1 0-.2.1-.3 0v-.1c-.4-.2-.7-.3-1-.4-.1 0-.2-.1-.2-.1l.1-.2c.2-.5.2-1 0-1.5 0-.1-.1-.3-.2-.2-.1-.2-.3-.3-.4-.5-.4-.5-.8-1-1.3-1.4-.3-.2-.7-.5-1.2-.6-.3-.1-.8-.1-1.2-.2-.1 0-.3-.1-.3-.1-.1 0 0 .3 0 .4.1.4.1.9.1 1.3.1.6.3 1 .6 1.3.5.6 1.1 1.1 1.6 1.7-.1.1 0 .2.1.2.2.1.6.2.9.1.3-.1.6-.2.9-.1.2 0 .4.3.6.4 0 0 .1 0 .1.1s-.2.1-.3.1c-.7.1-1.4.1-2.2.1H65l-.1-.1c-.1-.1-.3-.2-.5-.2-.2-.1-.5-.2-.6-.3.1-1.2-.6-1.9-1.2-2.4s-1.2-.9-2-1.2c-.1 0-.2-.1-.3-.1h-.2c-.5 0-1 0-1.4-.1-.1 0-.1-.1-.2 0s0 .4.1.5c.3 1.2.7 2.2 1.5 3 .2.2.5.4.7.5.3.2.6.3.9.4.3.1.7.2 1.1.2.3 0 .5-.1.7-.2.1 0 .1-.1.2-.1s.2.1.3.1c0 0 .2 0 .2.1s-.2.1-.3.1c-1.4.1-2.5.7-3.5 1.2-.1 0-.2.1-.2.1s-.1 0-.2-.1c-.2-.1-.4-.1-.6-.1-.3 0-.5.1-.8.2-.3.1-.6.3-.9.5-.1.1-.2.1-.3.2-.1.1-.1.3-.2.4-.4.8-.9 1.4-1.2 2.3 0 .1-.1.2-.1.3 0 .1 0 0-.1.1v.2c0 .4.1.8.2 1.2 0 .1 0 .4.1.5.1 0 .2 0 .3-.1.7-.2 1.3-.6 1.8-1s1-.9 1.4-1.5c0 0 .1-.2.2-.2s0 .2.1.3v.6c0 .1-.1.2-.1.2 0 .1.4.1.6.1h.6c.4 0 .7-.2 1-.3.7-.3 1.2-.6 1.7-.9.2-.2.5-.4.7-.6.2-.2.4-.5.6-.7.3-.6.1-1.4-.2-1.8 0 0-.1-.1-.1-.2s.1-.1.1-.2c.1-.1.3-.5.4-.5.2-.1.5 0 .8 0 .7 0 1.4-.1 2.1-.2h.2c0 .1 0 .1-.1.2 0 0-.1.1-.2.1h-.2c-.5.1-.9.3-1.3.7-.2.3-.5.7-.8 1.1 0 .1-.1.1-.1.2v.2l-.1.1c-.4.5-.7 1.3-.5 2.2 0 .2.1.4.1.6 0 .1 0 .2.1.2.1.1.2 0 .3 0 .1 0 .2-.1.2-.2 1.6-.1 2.3-1.2 3.1-2.1.1-.1.1-.1.1-.2v-.3c0-.1.1-.1.2-.2.4-.5.2-1.4-.1-1.9 0-.1-.1-.2-.2-.2 0 0-.1-.1-.2-.1 0 0-.2 0-.2-.1s.1-.1.2-.2v-.2c1.3-.3 2.4-.5 3.4-.8.1 0 .3-.1.4-.1 0 .1-.1.3-.1.4-.8.1-1.6.3-1.8 1.1v.2c0 .1-.1.1-.1.2-.3.4-.6.9-.7 1.5-.2.7-.1 1.6.3 2.1 0 .1 0 .2.1.3 0 .1 0 .2.1.2s.2-.1.3-.1c.6-.3 1.2-.4 1.6-.9.1-.1.1-.2.2-.3l.1-.1c.1-.1.2-.1.2-.2l.1-.1c0 .1-.1.2-.1.3-.2.3-.3.6-.5.8-.2.4-.5.7-.8 1-1.2 1.2-2.6 2.2-4.5 2.7l-1.5.3c-.3 0-.5 0-.8-.1-.2-.1-.5-.2-.7-.2.1.3.2.5.3.8.1 0 .1.1.2.1l.2.1c0 .1-.2.2-.3.3-.3.3-.6.6-.8.9.1.1.2.2.4.3 0 0 0 .1.1.1l.2-.2c.1-.1.2-.2.3-.2 0 0 .1-.1.2-.1.1.1 0 .3 0 .4-.1.1-.5 1.2-.5 1.3.2.1.5 0 .7.1.1-.4.4-1.8.5-2.2.3-.3.8-.4 1.4-.6.1 0 .1-.1.2-.1s.3 0 .4.1c0 .6-.1 1.1-.4 1.5-.3.4-.6.8-1 1 .5.2.6.3 1.1.5.2-.6.9-1.3 1-1.9.1-.3.1-.7.2-1 .1-.3.2-.5.5-.7.5-.3 1.1-.5 1.6-.8.5-.3.8-.6 1.2-1 0 0 .1-.1.2-.1.1.1 0 .1 0 .2-.3 1.9-1.2 3.3-2.6 4.1-.1.1-.2.1-.3.2h.5c.1 0 .2.1.3.1.1 0 .2-.1.2-.2.2-.2.7-.3 1-.1.1.1.2.3.3.5v.5c0 .8-.2 1.6-.2 1.6v.1h.3v.1h.3s-.1-1.8.1-1.6c.1.1.4.6.6.9-.2 0-.2 0-.2.1.1.5 0 .9 0 .9v.3c.2-.1.4.6.5.6 0-.1-.2-1.1-.1-1.2.1 0 .2.1.2.1.1 0 .1.1.1.2.2-.1.3-.2.5-.2 0 0-.6-.3-.7-.7-.1-.4 0-.7.6-.2.6.5.5.7.5.7h-.1c.2-.1.5-.2.7-.3l-.3-.3c-.4-.5-1-.7-1.7-1-.1-.1-.2-.1-.3-.2-.1-.1-.2-.2-.3-.2 0-.1 0-.1-.1-.2-.1-.4-.4-.6-.6-1 0-.1-.1-.1-.1-.2s.1-.2.1-.2c.6-1 .9-2.4 1.2-3.7 0-.1 0-.2.1-.3.1 0 .1.1.1.2l.9 1.5c.2.3.3.5.5.8.2.3.4.5.6.8.2.3.4.5.5.8.1.3.1.8.1 1.2-.1.7-.4 1.4-.3 2.3.2.1.5.1.7.1.1-.4 0-.8.1-1.2 0-.1 0-.3.1-.4.1 0 .2.2.2.3.1.5-.1.8-.1 1.2.1 0 .2-.1.4-.1 0-.1 0-.2.1-.3 0-.1.1-.2.1-.2.1 0 .1.1.2.2 0 .1.1.2.1.3.2 0 .3.1.5.1h.2l.1-.1c0-.1.1-.1.1-.1.1-.1.2-.2.3-.2.1 0 .1.1.2.1s.1-.1.2-.1c.3-.3.6-.5.8-.7l.3-.3c.6-.7 1.1-1.4 1.4-2.4.1-.3.2-.7.1-1.1-.1-.5-.3-1-.6-1.3 0 0-.1-.1-.1-.2l-.2-.1v-.3c0-.1.1-.3.2-.2.4.4.9.7 1.3 1.1 0 0 .2.1.2.2s-.1.2-.1.2c-.1.2-.2.5-.3.8-.1.4 0 .9.2 1.2.1.1.2.3.3.4.7.8 1.4 1.6 2.5 2.1.1 0 .2.1.3.1h.1c.1 0 .1 0 .2.1.4.1 1 0 1.5.1.1 0 .2 0 .3-.1 0-.1-.1-.2-.1-.3-.1-.3-.1-.8-.1-1.1-.1-.5-.2-.9-.4-1.2-.3-.6-.8-1.1-1.2-1.7-.1-.1-.1-.2-.2-.3-.1-.1-.2-.1-.3-.1-.5-.2-1.2-.5-2-.4h-.4c-.1 0-.1-.1-.2-.2-.4-.3-.7-.5-1.1-.8-.1-.1-.4-.2-.4-.4 0-.1.1-.1.2-.1s.2-.1.3-.1c0 0 .1.1.2.1.4.2.9.4 1.5.5.2 0 .5 0 .7-.1 1.5-.2 2.7-.8 3.4-1.8 0-.1.1-.2.2-.2V11c0-.2-.2-.3-.4-.3zM69.7 1.5c.1-.1.2 0 .3.1.2.1.5.3.6.6.1.2.1.5.1.8v.6c0 .1 0 .2-.1.2s-.2-.1-.2-.2c-.2-.2-.2-.3-.4-.5l-.2-.2c-.1-.2-.1-.4-.1-.6v-.8zM68 .7c.1 0 .3.1.4.1.4.2.7.3 1.1.5v.9c-.1 0-.2-.1-.2-.1-.3-.1-.5-.3-.6-.6-.1-.2-.3-.4-.5-.6-.1 0-.2-.1-.2-.2zm-.5.2c0-.1-.1-.2-.1-.3.1-.1.2.1.3.2.2.2.4.3.5.5.1.1.2.2.2.3h-.2c-.1 0-.3 0-.5-.1-.1 0-.2 0-.2-.1.1-.2 0-.3 0-.5zm.2 1.6c-.1-.1-.1-.4-.1-.7 0-.1 0-.2.1-.2.3 0 .7 0 .9.1.2.2.3.3.4.5 0 .1.1.1.2.2 0 .1.2.2.2.2 0 .1-.3.1-.3.1-.5.1-1.3.1-1.4-.2zm.8 1.3c-.2-.2-.3-.4-.4-.6 0-.1-.1-.1-.1-.2h.8c.2 0 .5 0 .7-.1h.1c.1 0 .2.2.2.3.2.2.3.4.6.7l.1.1c0 .1-.4.1-.5.1-.7.1-1.2 0-1.5-.3zM71 5c-.2.1-.4.1-.6.1-.3-.1-.7-.3-.9-.4-.1-.1-.1-.1-.2-.3.1-.1.2 0 .3 0 .3 0 .6-.1.9-.1.1 0 .2.1.3.1l.3.3s.1.1.1.2c.1 0-.2 0-.2.1zm.6-.8c0 .1 0 .3-.1.3s-.2-.1-.2-.1c-.1-.1-.4-.2-.5-.3 0-.1 0-.2.1-.3V2.7c.1-.1.3.1.4.2.2.2.3.4.3.9v.4zm-6.3-2c.2.1.5.3.6.6.1.3.2.7.2 1 0 .3.1.6.1.9V5c-.1 0-.1-.1-.2-.1-.3-.2-.7-.5-.9-1-.1-.1-.1-.3-.1-.4 0-.5-.1-1-.1-1.4.2-.1.3 0 .4.1zm-1.9-.7c.4 0 .7.1 1 .2.1 0 .2.1.2.1 0 .1.1.3.1.4.1.3.1.5.1.8v.4c-.1 0-.2-.2-.2-.2-.4-.5-.7-.9-1.1-1.4 0 0-.1-.1-.1-.3 0 .1 0 0 0 0zM63.3 3c-.1-.3-.1-.6-.1-.8v-.4c.1-.1.1 0 .1.1l1.2 1.5c.1.1.2.2.2.3 0 .2-.3.1-.5.1s-.3-.1-.5-.1c-.1-.2-.3-.4-.4-.7zm.8 1.2S64 4.1 64 4c.3 0 .5.1.8.1h.1c.1-.1.1 0 .2 0l.3.3s.1.1.1.2-.2 0-.3 0c-.6.1-.9-.1-1.1-.4zm2.2 1.5c-.1 0-.2.1-.4.1-.1 0-.2-.1-.2-.1-.1 0-.2-.1-.2-.1-.2-.1-.5-.2-.5-.5h.5c.2 0 .3 0 .4.1 0-.2.1-.1.2 0 0 0 .3.2.3.3.1.1-.1.1-.1.2zm1-.5c0 .1 0 .1-.1.2l-.1.1c-.1 0-.2 0-.2-.1-.1-.1-.3-.2-.4-.3-.1-.2-.1-.6-.1-.9v-.9c.1 0 .2.2.2.2.1.1.1.2.2.2.1.1.3.3.4.5.1.3.2.7.1 1zm-7.2-2.4c.1 0 .4.1.5.2.2.1.3.2.4.3.3.2.5.6.6 1 .1.2.2.4.2.6.1.2.2.4.2.6-.2.1-.3-.1-.4-.1-.3-.4-.6-.7-.8-1-.2-.2-.3-.4-.4-.7 0-.1-.1-.3-.1-.4-.2-.2-.2-.4-.2-.5zm-1-.3c.2.1.5.1.7.2.1.2.2.5.2.7 0 .1.1.2 0 .3-.1 0-.1-.1-.2-.1-.3-.3-.7-.6-1-.9 0-.1-.1-.1-.1-.2.2-.1.3-.1.4 0zm0 1c0-.1-.1-.2-.1-.3 0-.1-.1-.2-.1-.3 0-.1.1.1.1.1l.9.9.2.2c0 .1-.2.1-.3 0-.5 0-.6-.3-.7-.6zm1.8 2.3c-.2 0-.3-.1-.5-.2-.3-.3-.6-.6-.8-.9 0-.1-.1-.1-.1-.2.8 0 1.3.4 1.8.8l.2.2c.1.1.2.1.2.2s-.3.2-.4.2c-.1-.1-.3-.1-.4-.1zm2.2.5c-.5.2-1 0-1.4-.2-.1 0-.3 0-.3-.1s.2-.1.3-.2c.1 0 .2-.1.4-.1s.5.1.6.1c.1.2.2.2.3.2.1 0 .2.1.3.1 0 .2-.2.2-.2.2zm.3-.5c-.3-.1-.5-.1-.8-.2-.1 0-.2 0-.2-.1 0 0 0-.2-.1-.3-.1-.5-.3-.9-.5-1.4 0-.1-.1-.2-.1-.2.2 0 .4.2.6.3.2.1.3.3.4.4.3.3.6.6.6 1.1.2.2.1.4.1.4zM57.7 9c.3-.4.8-.7 1.3-.8.1 0 .5 0 .5.1s-.1.1-.1.2c-.2.1-.3.3-.5.4l-.6.6c-.2 0-.4 0-.6-.1-.2-.1 0-.3 0-.4zm-1.1 1.9c.1-.4.3-.7.6-.9.1-.1.3-.3.5-.3h.3c0 .1 0 .2-.1.2-.2.5-.5.9-.8 1.4-.3 0-.4.2-.7.1.1-.1.2-.3.2-.5zm-.1 2.2c-.1 0-.1-.1-.2-.2-.1-.3-.1-.9.1-1.1.1-.1.3-.1.5-.1 0 .1-.1.3-.1.4-.1.2-.2.5-.2.7.1 0 0 .2-.1.3zm1 0c-.2.1-.3.2-.5.3-.1 0-.2.1-.3 0 0-.1.1-.3.1-.4.1-.3.2-.5.3-.8 0-.1.1-.3.1-.4.1-.1.1.1.2.2.1.2.1.4.2.6 0 .1.1.2.1.3l-.2.2zm1.1-.9c-.2.2-.4.3-.5.5l-.1.1c-.1 0-.1-.2-.1-.4-.1-.3-.1-.5-.2-.7 0-.1-.1-.3-.1-.4 0-.1.1-.3.2-.3.2-.3.4-.7.5-1 .1-.1.1.1.2.2.1.2.2.5.3.8.1.3.1.6.2.8 0 .1.1.2.1.3-.3 0-.4.1-.5.1zm1.4-2c-.2.5-.4.9-.8 1.3-.1.1-.1.1-.2.1s-.1-.3-.2-.4l-.3-.9c-.1-.2-.2-.6-.1-.9 0-.1.1-.2.2-.3.3-.1.4-.2.5-.3.2-.2.5-.3.7-.4.1 0 .2.3.2.4.1.2.1.3.1.5.1.3 0 .6-.1.9zm.5 1.5c-.1 0-.1-.3-.1-.4 0-.4.1-.6.2-.8.1-.2.2-.3.3-.5.1-.1.3-.1.6-.1h.6c.1 0 .2 0 .2.1s-.2.2-.2.2c-.5.5-1 .9-1.5 1.4 0 0 0 .1-.1.1zm2-1.3c0 .6-.1 1-.4 1.2-.3.2-.8.3-1.3.4h-.2c0-.1.1-.1.1-.1.6-.5 1.1-1.1 1.7-1.7h.1v.2zm0-.7h-1.2c0-.1.2-.2.2-.3l.2-.2c.2-.2.3-.3.6-.4.2-.1.4-.1.6-.1.1 0 .4 0 .5.1 0 .1-.1.1-.1.1-.2 0-.3.1-.4.3-.1.1-.2.3-.3.4l-.1.1zm.9 1.2c-.2.1-.4.3-.6.4-.1 0-.1.1-.2.1 0-.2 0-.5.1-.8v-.4c0-.1 0-.3.1-.4 0-.1.1-.2.2-.3 0 0 0-.1.1-.2.1-.2.3-.5.5-.6h.1V9c0 .8.1 1.6-.3 1.9zm.3-2.6h-1.1c0-.1.1-.2.2-.2.2-.1.5-.2.8-.2h.6c0 .1-.2.2-.2.2-.2.1-.2.2-.3.2zm1.1.2c.1.3 0 .9-.1 1.1-.1.2-.3.4-.5.5-.1.1-.1.1-.2.1V8.3c.1-.1.3-.2.5-.3.1-.1.2.1.3.2-.1.1 0 .2 0 .3zm-.2-1.2c-.3.3-.9.2-1.5.3-.2 0-.4.1-.5.1-.1 0-.2.2-.2.2-.5.5-1.1 1-1.6 1.5l-.1.1v-.3c0-.2-.1-.4-.1-.6 0-.1-.1-.2-.1-.3 0-.1.1-.1.2-.1 1-.5 1.9-1.1 3.3-1.2h.5c.1 0 .4 0 .4.1-.2.1-.3.2-.3.2zm1.8 1.4c.1-.2.2-.3.4-.5s.4-.5.6-.6h.6c0 .2-.1.3-.2.4-.1.1-.1.3-.2.4 0 .1-.1.2-.2.2s-.2 0-.3.1c-.2 0-.4.1-.5.1-.1 0-.2.1-.2.1-.1-.1 0-.2 0-.2zm-.4.6c.3-.3.6-.4 1.1-.5h.1c.1.1-.1.2-.1.3-.2.3-.3.4-.4.7 0 .1 0 .1-.1.1 0 0-.2.1-.3.1-.2.1-.4.1-.6.1-.1 0-.2.1-.3.1.1-.3.4-.6.6-.9zm-.4 2.5c0 .1-.1.2-.1.2-.1 0-.1-.2-.1-.2-.1-.3-.1-.7 0-1 .2-.1.5-.2.8-.3.1 0 .2-.1.3-.1 0 .1 0 .2-.1.2-.3.4-.5.8-.8 1.2zm1.1-.1c-.1.1-.3.1-.4.2-.1.1-.3.2-.4.1 0-.1.1-.2.1-.4.1-.1.1-.2.2-.3.1-.2.3-.4.4-.6.1-.1.2.2.2.2 0 .3-.1.6-.1.8zm.7-.5c-.1 0-.1.1-.2.1s-.1.1-.2.1c0-.1-.1-.3-.1-.4v-.5c0-.2 0-.4.1-.5.1-.1.2-.2.2-.3.1-.1.2-.2.2-.3.1-.1.1.1.2.2.1.3.2.6.2.9.1.5-.2.6-.4.7zM68.9 8c.2.4 0 1-.1 1.4-.1.3-.3.6-.5.8-.1.1-.1.2-.2.2s-.1-.2-.1-.3c0-.1-.1-.2-.1-.3-.1-.4-.3-.8-.1-1.2.1-.4.3-.7.5-1 .3.1.5.2.6.4zm15 10.5v.3c-.1 0-.2-.1-.2-.1-.1 0-.1-.1-.2-.1-.1-.1-.3-.2-.4-.3-.2-.3-.3-1-.2-1.5 0-.2.1-.4.1-.5.1-.1.1.1.2.1.1.2.3.3.4.5.2.2.4.4.5.7-.2.1-.2.6-.2.9zm1.6.8c-.4 0-.8 0-1.1-.2-.1 0-.2-.2-.3-.2v-.3c0-.3-.1-.7 0-1 .1-.1.2.1.3.2l.6.6c.2.2.4.5.6.7.1.1.2.1.2.2-.1.1-.2 0-.3 0zm.2-1.8c.1.5.3.9.4 1.3 0 .1.1.2 0 .2s-.1 0-.2-.1c-.3-.2-.6-.5-.9-.7-.2-.2-.4-.5-.6-.7-.1-.1-.2-.2-.2-.3.1-.1.2 0 .3-.1.3 0 .6-.1.8 0 .1 0 .2 0 .2.1.2.1.2.3.2.3zm-1-1.6c.1 0 .2.2.2.3.2.2.3.4.4.6.1.1.1.2.2.3h-.3c-.3 0-.7.1-1 0-.1 0-.2 0-.3-.1-.1 0-.2-.2-.2-.2l-.7-.7c0-.1-.1-.1 0-.2h1.5c.1 0 .2-.1.2 0zm-2.1-1h.9c.2 0 .3 0 .4.1.2.1.3.3.5.4 0 .1.1.1.1.2-.2.1-.4.1-.6.1h-.6c-.3 0-.6-.1-.8-.3-.1-.1-.2-.2-.2-.3.1-.2.2-.2.3-.2zm-.8.3c.5 0 .8.5.8 1 0 .4 0 .7-.1 1 0 .1 0 .3-.1.3s-.2-.1-.2-.2c-.2-.2-.4-.5-.5-.8-.2-.3-.2-.7-.1-1.1.1 0 .2-.1.2-.2zm2.7-4.4c.1-.1.1-.1.2-.1.3 0 .5 0 .8.1.1 0 .2 0 .3.1.1 0 .2 0 .2.1s-.1.1-.2.1c-.5.1-.9.2-1.5.2H84c0-.1.1-.1.1-.2.2-.1.3-.2.4-.3zm-.4-.1c0 .1-.2.3-.2.3l-.3.3c-.1.1-.2.1-.3.1-.3.1-.6.2-.9.2-.1 0-.1.1-.2 0 0-.1 0-.2.1-.2.1-.2.2-.4.5-.5.3-.1.7-.2 1.1-.3 0 .1.2 0 .2.1zm-3-.6c-.1 0-.3-.1-.4-.1 0-.1.1-.1.2-.2.2-.1.3-.2.5-.2.1 0 .2-.1.3-.1h.1c.5 0 .9.3 1.4.4.1 0 .4.1.4.1 0 .1-.2.2-.2.3-.1.1-.2.1-.3.2-.3.1-.6 0-.9 0-.3-.2-.7-.3-1.1-.4zm1.1 1c0 .1-.1.3-.2.4-.1.1-.1.2-.2.3-.2.1-.4.2-.6.2-.1 0-.1.1-.2 0 0-.1.1-.1.1-.2.2-.3.6-.7 1-.8l.1.1zm2.2-2c0 .1-.1.3-.2.4-.3.3-1 .1-1.4-.1-.1 0-.2-.1-.2-.2s.2-.1.2-.1c.3-.1.5-.2.9-.2.2 0 .4 0 .5.1.2 0 .2 0 .2.1zm-1.1-.9h.4c.1 0 .3 0 .4.1 0 .2-.1.3-.3.4-.3.1-.7.2-1 .3-.1 0-.3.1-.4 0 0-.2.1-.3.2-.4.2-.3.4-.4.7-.4zm-1.8.1c.1 0 .1 0 .2-.1h.6c.1 0 .2 0 .2.1s-.1.3-.2.3c-.1.1-.1.2-.2.3-.1.1-.3.3-.5.4-.2.1-.5.1-.7.2-.1 0-.1.1-.2.1v-.2c.2-.4.4-.9.8-1.1zm-2 1.3c.1-.1.2-.3.3-.4.2-.2.6-.4.9-.5h.1c0 .1-.1.2-.1.3-.1.3-.3.5-.4.8-.1.1-.3.1-.5.2-.2 0-.3.1-.5.1 0-.2.1-.4.2-.5zm-.8 3v-.8c.1-.1.1.1.2.1.2.4.5.7.8 1.1 0 0 .1.1.1.2s-.1.1-.1.1c-.1.1-.1.3-.1.5-.5.1-.9.3-1.3.6 0 0-.1.1-.2.1 0-.1 0-.2.1-.3.1-.5.4-1 .5-1.6zm-1.6 3.7c.1.2 0 .5-.1.7 0 .1 0 .2-.1.2s-.1-.1-.1-.1c-.3-.2-.5-.4-.8-.6l-.1-.1c0-.1.2-.2.3-.2.3-.2.7-.4.9-.6h.1c0 .1 0 .3-.1.4 0 .1-.1.1-.1.2.1 0 .1.1.1.1zm.4-4.7c-.1.2-.2.4-.4.5-.2.2-.5.4-.9.5-.1 0-.2.1-.3.1l-.1.1c-.1-.1 0-.2.1-.3.1-.3.2-.6.4-.8.2-.2.5-.3.8-.4h.5c0 .1-.1.3-.1.3zm.5.1c.1 0 .2.1.2.2.1.2.1.3.1.6 0 .1-.1.3-.1.4 0 .1-.1.4-.2.4s-.1-.1-.1-.2c-.1-.2-.2-.5-.3-.7-.1-.3.2-.6.4-.7zm-1.6 1.1c.1 0 .2-.1.3-.1h.1c0 .1-.1.2-.1.3-.3.6-.6 1.3-1.4 1.3v-.2c0-.3.2-.7.3-.8.2-.3.5-.4.8-.5zm-.2 1.9c.1-.2.2-.3.2-.5.1 0 .1.1.2.2.1.2.1.4.2.6 0 .1.1.2.1.3 0 .1-.3.2-.3.3-.1.1-.1.1-.2.1 0 0-.1.1-.2.1s-.2-.3-.2-.4c0-.2.1-.4.2-.7zm.9.4c-.1 0-.2-.2-.2-.3-.1-.1-.1-.2-.1-.4-.1-.2-.1-.7 0-.9.1-.2.2-.3.3-.5.1-.1.2-.3.3-.4.1 0 .2.1.2.2.1.3.3.6.3 1 0 .3-.1.6-.2.8 0 .1-.1.2-.2.3-.1.1-.3.2-.4.2zm.6.8c.2-.9.9-1.5 1.7-1.7h.1c0 .1-.1.2-.1.4-.1.2-.2.5-.3.6-.3.4-.6.7-1 1-.1.1-.2.2-.3.2-.2-.2-.2-.3-.1-.5zm-.9-11c.1-.1.1-.2.1-.4 1.4-.5 2.6-1.2 4-1.8.2-.1.4-.1.7-.2h.2c0 .1 0 .1-.1.2-1.1 1.3-2.1 2.9-3.6 3.9-.1.1-.2.2-.3.2 0-.2-.1-.4-.1-.6-.1-.4-.4-.7-.8-1-.1 0-.2-.1-.2-.1-.1 0 .1-.2.1-.2zm-.4 1.2c0-.2 0-.4.1-.5.1 0 .3.1.4.2l.2.2c.2.2.2.5.2.8 0 .3-.1.5-.2.7 0 .1-.1.2-.1.2-.1 0-.2-.1-.2-.2-.1-.1-.1-.2-.2-.4-.1-.1-.2-.3-.2-.4-.1-.2 0-.4 0-.6zm-1.7 1.8c.3-.3.7-.5 1.1-.7h.1c0 .1 0 .2-.1.3l-.3.9-.9.6c-.1 0-.2.2-.3.2-.1 0-.1-.3-.1-.4.2-.5.3-.7.5-.9zm0-.8c0-.3.1-.7.2-.9.1-.1.3-.2.4-.3.2-.2.5-.4.9-.4v.6c0 .2 0 .4-.1.5-.1.2-.4.4-.6.6-.1.1-.3.1-.4.2-.1.1-.3.1-.4.1v-.4zm.1 2.2c.1-.1.2-.1.3-.2.2-.2.3-.3.5-.4h.1c-.1.6-.4 1.1-.6 1.7 0 .1 0 .2-.1.2s-.1-.2-.1-.3c-.1-.2-.1-.4-.2-.6 0-.1-.1-.2-.1-.3-.1 0 .1-.1.2-.1zm.6.8c.1-.4.3-.9.4-1.3.1-.1.2.1.3.2.1.1.1.2.1.3v.4s-.1.1-.1.2c-.1.3-.3.5-.5.7-.1.1-.2.2-.3.2 0-.4.1-.5.1-.7zm.8-1.3c-.1-.1-.2-.3-.2-.6 0-.2.1-.4.1-.5.1-.2.1-.4.2-.5.1-.1.2.1.3.2.2.2.4.6.3 1.1 0 .1-.1.3-.2.4-.1.1-.2.3-.3.3 0 0-.2-.3-.2-.4zm-1-7.3c.1 0 .2 0 .2.1.2.1.3.3.5.5.2.3.3.6.2 1 0 .1 0 .2-.1.2s-.3-.2-.3-.3l-.3-.3c-.1-.3-.2-.7-.2-1.2zM73.6.7c.5 0 .9.4 1.2.6.1.3.2.6.2.9 0 .1.1.2 0 .3-.1 0-.1 0-.2-.1-.4-.3-.9-.5-1.1-.9-.1-.1-.1-.3-.1-.4 0-.1-.1-.2 0-.4zm-2-.1c0-.2.3-.1.4-.1.4 0 .9.1 1.2.2.1.2.2.5.3.7 0 .1.1.2.1.3-.1 0-.2 0-.3-.1-.5-.2-1-.5-1.5-.7-.1-.2-.2-.3-.2-.3zm.8 1.8c-.1 0-.2-.1-.3-.2-.2-.2-.3-.5-.4-.7 0-.1-.1-.1-.1-.2s.1-.1.2-.1c.2 0 .4.1.6.1.3.1.6.2.9.4.1.1.4.1.4.3 0 .1-.2.1-.2.1-.3.1-.6.3-.8.3h-.3zm.9.8c-.2-.1-.3-.2-.4-.4 0-.1-.1-.1-.1-.2s.2-.1.3-.1c.3-.1.7-.2 1-.3.1 0 .2.1.3.2.2.1.3.2.6.4.1 0 .3.1.2.2 0 0-.2 0-.3.1-.1 0-.2.1-.3.1-.2.1-.4.2-.7.2-.3-.1-.5-.1-.6-.2zm2.3.7h-.5c-.3 0-.6 0-.8-.1-.1 0-.3-.1-.3-.2s.2-.1.3-.1c.1 0 .2-.1.3-.1.2-.1.5-.2.7-.2.1 0 .2.1.3.2.2 0 .4.1.4.2s-.1.1-.2.2c0 0-.1.1-.2.1zm-4.8 3.6c.1-.2.2-.5.4-.6.3-.1.7-.2 1-.3h.1c0 .1 0 .2-.1.2 0 .2-.1.4-.2.5 0 .1-.1.2-.1.2-.1 0-.2.1-.3.1-.1 0-.2.1-.3.1-.2.1-.3.3-.6.3 0-.2.1-.4.1-.5zm-.6 1.4c.1-.2.2-.4.3-.5.3-.1.5-.3.8-.4.1 0 .2-.1.3-.1h.1c0 .2-.1.4-.1.5-.1.2-.1.4-.2.5-.1.1-.2.1-.3.2l-.6.3c-.1.1-.2.1-.4.1 0-.2 0-.4.1-.6zm.1 2.2c-.1 0-.1-.3-.2-.4 0-.2-.1-.4-.1-.6 0-.1.1-.2.2-.3.1-.1.2-.2.3-.2.1-.1.3-.1.4-.1h.1c-.1.3-.2.6-.3.8-.1.1-.1.3-.2.4 0 .2 0 .4-.2.4zm1.5-.5c-.1.2-.3.3-.5.4-.1.1-.3.2-.5.2 0 0-.1.1-.2 0 0-.2.1-.3.1-.4.1-.1.1-.3.2-.4.1-.3.2-.6.4-.8 0-.1.2.1.2.1.1.1.3.4.3.6.1.1.1.2 0 .3zm.9-1.2c-.1.2-.2.4-.4.6 0 .1-.1.2-.2.2s-.1-.2-.2-.2c-.2-.3-.4-.5-.3-1 0-.1.1-.2.1-.2.1-.3.2-.6.3-.8.1-.1.1 0 .2.1.1.2.3.3.4.5.1.2.2.6.1.8zm.2-.7c-.1 0-.2-.2-.2-.3-.2-.3-.3-.5-.4-.7 0 0-.1-.1-.1-.2s.1-.1.1-.2c.1-.2.2-.5.3-.6.4.1.6.4.7.8 0 .4-.1.7-.2 1-.1.1-.1.2-.2.2zm.3.8c-.1-.1 0-.1 0-.2.2-.3.3-.7.5-1 0-.1.1-.1.1-.1v-.3c-.1-.5-.2-.8-.4-1.2-.1-.1-.2-.3-.3-.4-.1 0-.1 0-.2-.1 0-.1.1-.3.1-.4 0 0 0-.1.1-.1 0 0 .3-.1.4-.1.9-.3 2-.6 2.8-.9h.1c0 .1-.1.1-.1.2s-.1.1-.1.2c-.9.2-1.4.6-1.7 1.4-.1.2-.1.4-.1.7v.2c0 .1-.1.2-.1.3-.1.2-.1.4-.1.6 0 .1 0 .2-.1.3l-.1.1c-.2.2-.4.5-.6.8-.1 0-.2.1-.2 0zm1.6 4.9v.4c0 .1 0 .3-.1.4-.1 0-.2-.2-.2-.2-.5-.6-.9-1.3-1.1-2.2-.1-.5-.1-1.1.1-1.6.1-.3.3-.6.5-.9 0-.1.1-.3.2-.3s.1.2.2.3c.1.2.2.3.3.6 0 .1.1.3.1.3.1 0 .2-.1.3-.1 1.3-.6 2-1.8 2.4-3.2 0-.1.1-.2.1-.3.1 0 .3 0 .3.1-.1.9-.1 1.9.1 2.6 0 .1.1.2.1.3 0 .1-.1.1-.1.2s-.1.2-.1.2c-.2 0-.3-.1-.6-.1-.2 0-.5.1-.6.2-1.2.6-1.6 1.7-1.9 3.3zm.5 1.4c-.1 0-.2-.3-.2-.5V15c0-.1 0-.2.1-.3 0 0 .1-.1.2-.1l.6-.3h.1c-.1.5-.2.9-.5 1.2 0 0-.1.1-.2.1 0 .1-.1.2-.1.2zm.3 1.5c-.1-.1-.1-.3-.1-.4 0 0 .1-.1.2-.1s.2.1.3.2c.1 0 .3.2.3.3 0 .1-.1 0-.2 0h-.2c-.2-.1-.2 0-.3 0zm.2.9c0-.2.1-.4.1-.6.5.1.8.3 1.2.4v.4c-.2 0-.4-.1-.6-.2-.3.1-.5.1-.7 0zm1.4 1.8l-.1.1-.1.1c-.1 0-.1-.1-.1-.2l-.6-.9c-.2-.1-.3-.2-.3-.4.5 0 1 .2 1.3.6.1.1.2.3.2.4 0 .1-.2.2-.3.3zm.8-1.6v.4c0 .3 0 .5-.1.7-.2 0-.2-.2-.3-.3-.1-.2-.1-.3-.1-.5 0-.4.2-.5.4-.7h.1c.1.2 0 .3 0 .4zm0-.6l-.2.2c-.1 0-.2.2-.2.2-.1 0-.1-.2-.1-.3 0-.4 0-.8.2-1 .2-.3.6-.6.9-.8h.1c0 .1 0 .2-.1.3l-.3.9c-.1.2-.2.3-.3.5zm.9 1.1c-.1.2-.2.3-.4.5-.1.1-.1.2-.3.1v-.4c0-.5.1-.9.2-1.2.1-.1.2.1.2.2.1.1.2.3.3.4 0 .1.1.2.1.2.1 0 0 .1-.1.2zm.7-.9c0 .1-.1.1-.2.2 0 0-.1.2-.2.2s-.1-.1-.2-.2c-.2-.2-.4-.4-.4-.6-.2-.5.1-1 .2-1.4 0-.1.1-.3.1-.4.1 0 .2.2.3.3.1.1.2.2.3.4.2.2.3.5.3.9.1.3-.1.4-.2.6zm.7-2.8v.7c0 .2 0 .5-.1.7 0 .1-.1.2-.1.2l-.1-.1-.6-.9c-.1-.2-.2-.4-.1-.7 0-.1.1-.3.2-.4.1-.1.1-.3.2-.4.1 0 .2.1.2.2.1.2.3.4.4.7zm.5-3.5c-.1.2-.2.5-.2.9-.1 0-.1 0-.2.1-.1 0-.2.1-.2.1-.1 0-.2.1-.2.1-.1 0-.1-.1-.2-.2-.3-.5-.7-.9-.9-1.5 0-.1-.1-.2-.1-.3.4 0 .6.2.9.4.3.1.5.3.9.3h.2c.1 0 .1 0 0 .1zm-1-.8c-.1 0-.1-.1-.2-.1s-.2-.1-.2-.2.2-.1.2-.2c.2-.1.5-.3.7-.4.1 0 .2 0 .2.1.3.2.7.3 1.2.4.1 0 .2 0 .2.1s-.1.1-.2.2c-.2.1-.5.2-.8.3-.3 0-.8 0-1.1-.2zm3.2 2.3h-.6c-.2 0-.4 0-.6-.1-.1 0-.3-.1-.4-.2-.1 0-.1-.1-.2-.1s-.2-.1-.2-.1c0-.1.2-.2.3-.2.1-.1.2-.1.3-.1.6-.1 1 .3 1.4.5.1 0 .4.1.4.2 0 0-.3.1-.4.1zm2-.7c-.2.1-.4.1-.6.2-.1 0-.2.1-.3.1-.1 0-.2 0-.3-.1-.5-.1-.8-.2-1.2-.5 0 0-.1-.1-.2-.1s-.2-.1-.2-.1c0-.1.2-.1.2-.1.3-.1.5-.2.8-.3.4 0 .8.1 1.1.2.2.1.4.2.7.3.1 0 .2.1.2.1.1.2-.1.3-.2.3zm1.1-.9c-.1.2-.1.3-.2.4 0 0-.1.1-.2.1s-.3 0-.4-.1c-.3-.1-.4-.2-.7-.3-.1 0-.3-.1-.3-.2s.2-.1.3-.1c.1 0 .3 0 .4-.1.3 0 .5-.1.8-.1h.5c0 .2-.1.3-.2.4zm54.6 32.6c.1-3.1-2.2-4.6-4.9-5-2.6-.4-5.9 0-8.8-.1v.1c0 .2.2.1.3.1 1 0 2.2-.1 2.6.5v8.3c-.4.6-1.5.4-2.5.5-.2 0-.4-.1-.4.2 0 .2.1.1.3.1h6.6c3.9 0 6.7-1.3 6.9-5-.1.4-.1.4-.1.3 0 .1 0 .1 0 0 0 .1 0 .1 0 0 0 .1 0 .1 0 0 0 .1 0 .1 0 0 0 .1 0 .1 0 0zm-5.7-4.5c2 .3 2.9 1.4 3.1 3.5 0 .4.1.8 0 1.2 0 1.4-.3 2.7-.9 3.4-.5.6-1.5.9-2.5 1-.8.1-1.8.1-2.4-.3v-8.6c.4-.5 1.9-.3 2.7-.2zM9 43.8c.7-.1 1.3-.3 1.7-.8.4-.4.5-1 .5-1.6 0-.4-.1-.7-.3-1-.7-1.5-3-1.4-5.3-1.4H0v.1c.8.2 2.7-.2 2.9.6v8.2c-.5.7-1.5.4-2.5.5-.3.5-.4.4-.4.6 0 .2.3.1.7.1h5.6c2.7 0 5.7-.2 5.6-3-.1-1.5-1.3-2-2.9-2.3zm-.3-2.5c0 1.7-1.2 2.7-3.3 2.4v-4.1c1.7-.3 3.1.2 3.3 1.7zm-.2 3.4c.5.4.8 1.2.8 2 0 .5-.2 1-.5 1.4-.6.8-2 1-3.5.8v-4.6c1.1-.2 2.5-.2 3.2.4zm18.4.9c-.2-.1-.2.2-.3.4-.5 1.4-1.1 2.8-2.8 2.9-1 .1-1.7 0-2.8 0v-4.1c1.6-.3 2.3.7 2.5 1.7 0 .2 0 .5.2.6.2 0 .2-.1.2-.3v-4.4c0-.2 0-.4-.2-.3-.1 0-.1.1-.1.1v.1c-.2 1.4-.7 2.4-2.5 2.1V40c.8 0 1.2-.1 1.9 0 1.7.2 2.3 1.6 2.9 2.9.1.2.1.7.4.5 0 0 .1-.1.1-.2 0-.3-.2-.7-.2-.8-.3-1.2-.5-2.3-.7-3.5h-.3c-.3.4-1 .6-1.6.6-1.1.1-2.6 0-3.9 0-1 0-2.5-.1-3.5 0-.2 0-.4-.1-.3.2 0 .2.1.1.3.1h1.4c.4 0 1.1.2 1.2.5v8.2c-.3.6-1.5.4-2.5.5-.2 0-.4-.1-.4.2 0 .2.2.1.4.1h3.9c1.5 0 3.2-.1 4.4 0 .6 0 1 .2 1.3.7.1.1.2.5.4.4.2-.1.2-.9.2-1.2.1-1 .3-2 .5-2.9 0-.1.1-.3.1-.4-.1-.2-.1-.3-.2-.3zM45 47.7c-.2-.2-.5.3-.9.4-.3.1-.7.2-1.2.1-1.8-.2-2.7-2.1-3.4-3.5 1.3-.4 2.6-.9 2.7-2.4v-.4c0-.9-.4-1.4-.9-1.8-2.1-1.6-7.7-.6-11-.9v.1c.5.1 1.1 0 1.7 0 .4 0 1.1.2 1.2.5V48c-.4.5-1.1.5-2 .5-.3 0-.6-.1-.6.2 0 .2.1.1.3.1 1.2.1 2.4 0 3.5 0s2.3.1 3.5 0c.2 0 .4 0 .3-.2 0-.2-.4-.1-.6-.1-.7 0-1.8 0-2-.5v-3.6c.6 0 1.1.1 1.8.1.6 2 1.4 4.1 3.4 4.6 1.6.4 2.9-.3 3.6-1.1.2-.2.5-.4.4-.5.2.3.2.3.2.2 0 .1 0 .1 0 0zM35.7 42s0-.1 0 0c0-.1 0-.1 0 0 0-.1 0-.1 0 0 0-.1 0-.1 0 0v-1.2c0-.4 0-.7.1-1 .1 0 .1-.1.2-.1 1.3-.2 2.5 0 3.1.6.4.4.6 1.1.6 1.7 0 .7-.2 1.3-.6 1.7-.7.8-2 .8-3.4.6V42zm25.4 5.7c-.2-.2-.5.3-.9.4-.3.1-.7.2-1.2.1-1.8-.2-2.7-2.1-3.4-3.5 1.3-.4 2.6-.9 2.7-2.4v-.4c0-.9-.4-1.4-.9-1.8-2.1-1.6-7.7-.6-11-.9v.1c.5.1 1.1 0 1.7 0 .4 0 1.1.2 1.2.5V48c-.3 1-1 1-1.9 1-.3 0-.6-.1-.6.2 0 .2.1.1.3.1 1.2.1 2.4 0 3.5 0s2.3.1 3.5 0c.2 0 .4 0 .3-.2 0-.2-.4-.1-.6-.1-.7 0-1.8 0-2-.5v-3.6c.6 0 1.1.1 1.8.1.6 2 1.4 4.1 3.4 4.6 1.6.4 2.9-.3 3.6-1.1.2-.2.5-.4.4-.5.2-.2.2-.2.1-.3.1.1.1.1 0 0zM51.9 42s0-.1 0 0c0-.1 0-.1 0 0 0-.1 0-.1 0 0 0-.1 0-.1 0 0v-1.2c0-.4 0-.7.1-1 .1 0 .1-.1.2-.1 1.3-.2 2.5 0 3.1.6.4.4.6 1.1.6 1.7 0 .7-.2 1.3-.6 1.7-.7.8-2 .8-3.4.6V42zm22-2.9H70c-.3 0-.5-.1-.5.2 0 .2.2.1.5.1.6 0 1.2 0 1.3.4-.1.4-.5.9-.7 1.1-.8 1.2-1.5 2.4-2.3 3.5-.7-1.2-1.4-2.3-2.1-3.5-.1-.2-.6-.7-.6-1.1.1-.3.7-.3 1.2-.3.3 0 .6.1.5-.2 0-.2-.1-.1-.3-.1-2.2-.2-4.4.1-6.4 0v.1c.9 0 1.8.1 2.1.6.3.4.6.9.9 1.4.6 1 1.1 1.9 1.7 2.9.2.4.8 1.1.9 1.5 0 .2.1.4.1.6 0 .5-.1.9-.1 1.4v.5c-.3.5-1.1.5-2 .5-.3 0-.6-.1-.6.2 0 .2.2.1.3.1 1.3.1 2.3 0 3.5 0 1 0 2.3.1 3.5 0 .2 0 .4.1.3-.2 0-.2-.4-.1-.6-.1-.7 0-1.8 0-2-.5v-3.3c.5-.7 1-1.6 1.6-2.4.6-.8 1.1-1.8 1.6-2.4.4-.5 1-.6 1.9-.6.3 0 .5.1.5-.2.2-.3 0-.2-.3-.2zm19.6-.1h-4.1c-.3 0-.6-.1-.6.2 0 .2.2.1.4.1.7 0 1.5 0 1.8.3-.6 2.1-1.4 4.1-2.1 6.1-.9-2.1-1.8-4.3-2.7-6.4-.5.2-1 .5-1.6.7-.7 2-1.5 3.9-2.2 5.8-.6-1.6-1.2-3.1-1.9-4.7-.1-.2-.5-1-.6-1.4.1-.4.8-.3 1.4-.3.3 0 .6.1.6-.2 0-.2-.1-.1-.3-.1-2.3-.2-4.6.1-6.8 0v.1c.9 0 1.8 0 2.3.4.6.5.9 1.6 1.2 2.3 1 2.3 1.9 4.5 2.9 6.8.1.2.1.5.3.6.2-.1.2-.3.3-.4 1-2.4 1.8-4.8 2.8-7.1 1 2.4 2.1 4.8 3.1 7.1.1.1.1.4.3.4.2-.1.2-.4.2-.6 1-2.5 2-5.2 2.9-7.8.2-.4.2-.9.4-1.2.3-.4 1.2-.4 1.9-.4.2 0 .5 0 .5-.2.2-.2-.1-.1-.4-.1zm12 .9c-1.1-.6-2.5-.9-4.3-.8-1 0-1.9.2-2.7.6-.8.3-1.4.7-1.9 1.3-.7.7-1.3 2.1-1.2 3.5 0 .5.1 1 .2 1.5.6 1.7 2 2.8 3.8 3.3 1.9.5 4.2.4 5.9-.5 1.6-.8 2.6-2.2 2.7-4.3.1-2.4-1.1-3.9-2.5-4.6zm-2.1 8.8c-1 .6-2.5.5-3.5 0-1.4-.8-2-2.7-1.9-4.6.1-1.9.9-3.8 2.2-4.5.2-.1.5-.2.9-.2 1.8-.2 3 .6 3.6 1.7.5.8.7 1.9.7 3-.1 2-.7 3.9-2 4.6zm18.2-8.8c-1.1-.6-2.5-.9-4.3-.8-1 0-1.9.2-2.7.6-.8.3-1.4.7-1.9 1.3-.7.7-1.3 2.1-1.2 3.5 0 .5.1 1 .2 1.5.6 1.7 2 2.8 3.8 3.3 1.9.5 4.2.4 5.9-.5 1.6-.8 2.6-2.2 2.7-4.3.2-2.4-1-3.9-2.5-4.6zm-2 8.8c-1 .6-2.5.5-3.5 0-1.4-.8-2-2.7-1.9-4.6.1-1.9.9-3.8 2.2-4.5.2-.1.5-.2.9-.2 1.8-.2 3 .6 3.6 1.7.5.8.7 1.9.7 3-.1 2-.8 3.9-2 4.6z"/></svg>