<svg xmlns="http://www.w3.org/2000/svg" viewBox="211.5 32.8 424.3 407.2"><path d="M572.5 63.7h-31V45.1c0-6.7-5.7-12.4-12.4-12.4s-12.4 5.7-12.4 12.4v18.6H329.6V45.1c0-6.7-5.7-12.4-12.4-12.4s-12.4 5.7-12.4 12.4v18.6h-31c-34.3 0-62.4 28.1-62.4 62.4v251.4c0 34.3 28.1 62.4 62.4 62.4h299.5c34.3 0 62.4-28.1 62.4-62.4V126.1c-.8-34.3-28.9-62.4-63.2-62.4zm-336.7 62.4c0-20.5 16.7-37.6 37.6-37.6h31V118c0 6.7 5.7 12.4 12.4 12.4s12.4-5.7 12.4-12.4V88.5h187.2V118c0 6.7 5.7 12.4 12.4 12.4s12.4-5.7 12.4-12.4V88.5h31c20.5 0 37.6 16.7 37.6 37.6v28.6h-374v-28.6zm374.3 251.5c0 20.5-16.7 37.6-37.6 37.6H273.4c-20.5 0-37.6-16.7-37.6-37.6V179.4h374.3v198.2z"/><path d="M418.2 250.9h9.5c8.1 0 14.3-6.2 14.3-14.3v-9.5c0-8.1-6.2-14.3-14.3-14.3h-9.5c-8.1 0-14.3 6.2-14.3 14.3v9.5c0 8.1 6.7 14.3 14.3 14.3zm72.4 0h9.5c8.1 0 14.3-6.2 14.3-14.3v-9.5c0-8.1-6.2-14.3-14.3-14.3h-9.5c-8.1 0-14.3 6.2-14.3 14.3v9.5c0 8.1 6.2 14.3 14.3 14.3zm71.9 0h9.5c8.1 0 14.3-6.2 14.3-14.3v-9.5c0-8.1-6.2-14.3-14.3-14.3h-9.5c-8.1 0-14.3 6.2-14.3 14.3v9.5c0 8.1 6.7 14.3 14.3 14.3zM273.9 308h9.5c8.1 0 14.3-6.2 14.3-14.3v-9.5c0-8.1-6.2-14.3-14.3-14.3h-9.5c-8.1 0-14.3 6.2-14.3 14.3v9.5c0 8.1 6.7 14.3 14.3 14.3zm72.4 0h9.5c8.1 0 14.3-6.2 14.3-14.3v-9.5c0-8.1-6.2-14.3-14.3-14.3h-9.5c-8.1 0-14.3 6.2-14.3 14.3v9.5c0 8.1 6.2 14.3 14.3 14.3zm71.9 0h9.5c8.1 0 14.3-6.2 14.3-14.3v-9.5c0-8.1-6.2-14.3-14.3-14.3h-9.5c-8.1 0-14.3 6.2-14.3 14.3v9.5c0 8.1 6.7 14.3 14.3 14.3zm72.4 0h9.5c8.1 0 14.3-6.2 14.3-14.3v-9.5c0-8.1-6.2-14.3-14.3-14.3h-9.5c-8.1 0-14.3 6.2-14.3 14.3v9.5c0 8.1 6.2 14.3 14.3 14.3zm71.9 0h9.5c8.1 0 14.3-6.2 14.3-14.3v-9.5c0-8.1-6.2-14.3-14.3-14.3h-9.5c-8.1 0-14.3 6.2-14.3 14.3v9.5c0 8.1 6.7 14.3 14.3 14.3zm-288.6 61.9h9.5c8.1 0 14.3-6.2 14.3-14.3v-9.5c0-8.1-6.2-14.3-14.3-14.3h-9.5c-8.1 0-14.3 6.2-14.3 14.3v9.5c0 8.1 6.7 14.3 14.3 14.3zm72.4 0h9.5c8.1 0 14.3-6.2 14.3-14.3v-9.5c0-8.1-6.2-14.3-14.3-14.3h-9.5c-8.1 0-14.3 6.2-14.3 14.3v9.5c0 8.1 6.2 14.3 14.3 14.3zm71.9 0h9.5c8.1 0 14.3-6.2 14.3-14.3v-9.5c0-8.1-6.2-14.3-14.3-14.3h-9.5c-8.1 0-14.3 6.2-14.3 14.3v9.5c0 8.1 6.7 14.3 14.3 14.3z"/></svg>