<svg id="Logo" xmlns="http://www.w3.org/2000/svg" viewBox="-37 169 20.2 20.1"><style>.st0{fill:#292421}</style><path class="st0" d="M-26.9 170.8c2.7 0 3 0 4.1.1 1 0 1.5.2 1.9.3.5.2.8.4 1.2.7.4.4.6.7.7 1.2.1.4.3.9.3 1.9 0 1.1.1 1.4.1 4.1 0 2.7 0 3-.1 4.1 0 1-.2 1.5-.3 1.9-.2.5-.4.8-.7 1.2-.4.4-.7.6-1.2.7-.4.1-.9.3-1.9.3-1.1 0-1.4.1-4.1.1s-3 0-4.1-.1c-1 0-1.5-.2-1.9-.3-.5-.2-.8-.4-1.2-.7-.4-.4-.6-.7-.7-1.2-.1-.4-.3-.9-.3-1.9 0-1.1-.1-1.4-.1-4.1 0-2.7 0-3 .1-4.1 0-1 .2-1.5.3-1.9.3-.5.5-.8.8-1.2.4-.4.7-.6 1.2-.7.3-.1.9-.3 1.9-.4h4m0-1.8c-2.7 0-3.1 0-4.1.1-1.1 0-1.8.2-2.4.5-.7.2-1.3.5-1.8 1.1-.6.5-.9 1.1-1.2 1.7-.2.7-.4 1.4-.5 2.5 0 1.1-.1 1.4-.1 4.1s0 3.1.1 4.1c0 1.1.2 1.8.5 2.4.3.7.6 1.2 1.2 1.8.6.6 1.1.9 1.8 1.2.6.2 1.4.4 2.4.5 1.1 0 1.4.1 4.1.1s3.1 0 4.1-.1c1.1 0 1.8-.2 2.4-.5.7-.3 1.2-.6 1.8-1.2.6-.6.9-1.1 1.2-1.8.2-.6.4-1.4.5-2.4 0-1.1.1-1.4.1-4.1s0-3.1-.1-4.1c0-1.1-.2-1.8-.5-2.4-.3-.7-.6-1.2-1.2-1.8-.6-.6-1.1-.9-1.8-1.2-.6-.2-1.4-.4-2.4-.5h-4.1z"/><path class="st0" d="M-26.9 173.9c-2.8 0-5.1 2.3-5.1 5.1s2.3 5.1 5.1 5.1 5.1-2.3 5.1-5.1-2.3-5.1-5.1-5.1zm0 8.4c-1.8 0-3.3-1.5-3.3-3.3s1.5-3.3 3.3-3.3 3.3 1.5 3.3 3.3-1.5 3.3-3.3 3.3z"/><circle class="st0" cx="-21.5" cy="173.7" r="1.2"/></svg>