<svg id="Слой_1" xmlns="http://www.w3.org/2000/svg" xmlns:xlink="http://www.w3.org/1999/xlink" viewBox="0 0 96.1 62.9"><style>.st0{fill:#fff}.st0,.st1,.st2{clip-path:url(#SVGID_2_)}.st1{stroke:#04d959;stroke-width:1.9;stroke-linecap:round;stroke-linejoin:round;stroke-miterlimit:10;fill:none}.st2{fill:#04d959}.st3{stroke-width:2}.st3,.st4,.st5{clip-path:url(#SVGID_2_);fill:none;stroke:#04d959;stroke-linecap:round;stroke-linejoin:round;stroke-miterlimit:10}.st5{stroke:#fff}</style><defs><path id="SVGID_1_" d="M0 0h96.1v62.9H0z"/></defs><clipPath id="SVGID_2_"><use xlink:href="#SVGID_1_" overflow="visible"/></clipPath><path class="st0" d="M22.9 19.5c0-.3.1-.6.2-.8.1-.1.1-.3.2-.4.2-.3.2-.7.5-.9l.6-.6c.5-.4 1.1-.6 1.7-.8.8-.2 1.6-.3 2.5-.4 1.2-.1 2.4-.1 3.7-.1.6 0 1.2 0 1.8.1.5 0 1 0 1.5.1.5 0 1.1.1 1.6.1.4 0 .9.1 1.3.1.5.1 1 .1 1.6.2.5.1 1 .1 1.5.2.7.1 1.3.2 2 .3.8.1 1.5.2 2.3.3 1 .2 2.1.3 3.1.5 1.7.3 3.3.7 5 1 .8.2 1.6.4 2.4.5l2.4.6 2.1.6c.8.2 1.5.4 2.3.7.7.2 1.5.5 2.2.7 1.3.5 2.5 1 3.7 1.6.8.4 1.6.9 2.3 1.6.6.7 1 1.4 1.1 2.3v.9c-.1.6-.2 1.2-.4 1.8-.1.6-.3 1.1-.5 1.7-.3.8-.6 1.5-.9 2.3-.8 1.8-1.7 3.5-2.9 5.1-.7 1-1.5 1.9-2.4 2.8-.9.9-1.9 1.8-3 2.6-1.2.9-2.4 1.6-3.7 2.3-1.4.7-2.9 1.3-4.4 1.7-1.4.4-2.8.6-4.3.8-1.2.1-2.4.2-3.6.1-.6 0-1.1-.1-1.7-.1-.3 0-.5-.1-.8-.1-.4-.1-.8-.2-1.3-.2h-.1c-.3-.1-.7-.1-1-.2-.6-.2-1.2-.3-1.8-.5-.8-.3-1.5-.6-2.3-.9-1.3-.6-2.6-1.3-3.8-2.1-1.2-.8-2.4-1.8-3.4-2.8-.9-.9-1.8-1.9-2.6-3-.8-1.2-1.6-2.4-2.2-3.7-.7-1.5-1.4-3-1.8-4.6-.4-1.6-.7-3.1-.8-4.8-.1-1.2-.1-2.3-.1-3.5 0-.6.1-1.2.1-1.8.1-.8.1-1.1.1-1.3M54.6 9c.1-.5.4-1.1.6-1.7.5-1.3 1.5-2.3 2.5-3.2.7-.6 1.4-1 2.3-1.3.2-.1.5-.1.7-.1h.3c.2 0 .4.1.6.1.2.1.4.1.6.2.5.2.8.6 1 1 .1.1.1.2.2.4.2.3.1.6.2.9v.2c.1.4-.1.7-.2 1-.2.5-.5.8-.8 1.1-.1.1-.3.2-.5.3-.5.2-.9.5-1.3.9-.2.2-.4.5-.5.8-.1.3-.2.6-.2.9-.1.6.1 1.2.3 1.8.1.4.3.8.5 1.1.2.4.3.8.3 1.2v.7c0 .2-.2.4-.2.6-.1.5-.5.8-.8 1.1-.4.3-.8.5-1.4.5-.3 0-.6.1-.8 0-.6-.2-1.2-.5-1.6-1-.2-.3-.3-.6-.5-.9-.3-.6-.6-1.3-.8-2-.3-.8-.4-1.7-.4-2.5-.2-.7-.2-1.3-.1-2.1"/><path class="st0" d="M56.1 4.6c-.1.3-.2.5-.3.8-.2.5-.6.9-1.1 1.1-.4.2-.9.5-1.3.8-.5.4-.8.9-.9 1.5-.1.5 0 1 .1 1.5.2.7.4 1.3.8 1.9.1.3.2.5.2.8v.4c.1.4-.1.7-.2 1.1-.2.5-.5.8-.9 1.1-.4.3-.8.5-1.4.5-.3 0-.5.1-.8 0-.7-.2-1.3-.5-1.7-1.1-.2-.3-.4-.7-.5-1-.4-.9-.8-1.8-1-2.7-.1-.7-.2-1.3-.2-2s0-1.4.2-2.1c.2-.5.4-.9.5-1.4.4-1.1 1.2-1.9 2-2.7.8-.7 1.7-1.3 2.7-1.7.2-.1.5-.1.8-.1h.4c.3 0 .5.1.7.2.1 0 .2.1.3.1.5.2.8.6 1.1 1.1.2.4.3.9.3 1.4.2.2.2.3.2.5"/><path class="st0" d="M43 14.8c-.3-.1-.5-.2-.8-.3-.5-.2-.8-.6-1.1-1-.5-.9-.9-1.9-1.2-2.9-.2-.7-.3-1.5-.3-2.2 0-.7 0-1.4.1-2.1.1-.5.3-.9.5-1.4.3-.6.5-1.2.9-1.7.5-.7 1.2-1.3 1.9-1.9.6-.4 1.2-.8 1.9-1.1.4-.2.7-.2 1-.2h.3c.3 0 .5.1.7.2.1 0 .2.1.3.1.4.2.7.5 1 .9.1.2.2.3.2.5.1.3.1.6.1.8v.2c0 .3 0 .5-.1.7-.1.2-.1.4-.2.5-.2.5-.6.8-1.1 1.1-.3.4-.7.7-1.1 1-.5.4-.8.9-.9 1.6-.1.6 0 1.2.2 1.8l.6 1.5c.1.3.2.5.2.8v.4c.1.4-.2.8-.3 1.2-.2.6-.7.9-1.2 1.2-.4.2-.9.2-1.3.3H43"/><path class="st1" d="M25.6 19.3c-2.2 12.2 5.9 24 18.2 26.2 12.2 2.2 24-5.9 26.2-18.2M45.9 3s-6.2 2.3-2.5 9.2m10-7.9s-6.2 2.3-2.5 9.2m10-7.9s-6.2 2.3-2.5 9.2"/><path class="st2" d="M41.7 33.8c-.2 1.1-.9 1.9-1.6 1.8-.7-.1-1-1.1-.8-2.2.2-1.1.9-1.9 1.6-1.8.6.1 1 1.1.8 2.2m-5.1 2.1c-.1.4.3.7.9.8.6.1 1.1-.1 1.2-.5.1-.4-.3-.7-.9-.8-.6 0-1.1.2-1.2.5m15.8 2.9c-.1.4.3.7.9.8.6.1 1.1-.1 1.2-.5.1-.4-.3-.7-.9-.8-.7-.1-1.2.1-1.2.5"/><path class="st3" d="M47.6 38.4s-.4 1.6-1.8 1.5c-.9 0-1.6-.9-1.5-1.8l3.3.3z"/><path class="st4" d="M43.1 28.7s-1.8-1.4-4-.1m13.8 6.3l-3.1.3 2.9 1.3"/><ellipse transform="rotate(10.177 47.735 23.245)" class="st1" cx="47.7" cy="23.2" rx="22.5" ry="3.4"/><path class="st0" d="M92.7 25.9c.3-.2.6-.4.9-.5.4-.2.9-.2 1.3-.2.2 0 .5 0 .7.1.2.1.4.3.5.5-1.1.9-2.2 1.7-3.4 2.6-1 .8-2.3 1.9-3.5 2.4-.8.3-1.5-.4-1.4-1.2 0-.8.8-1.4 1.3-1.9 1.1-.8 2.4-1.1 3.6-1.8m-22.8 32c.7.8.7 1.8-.4 1.9-.7.1-1.7-.9-2.8-2.2-.8-1-1-1.2-1.7-2.4-.4-.7-.9-1.8.4-1.2 1.4.7 2.6 1.7 4.5 3.9"/><path class="st5" d="M23.5 30.1L14 32.6l-8.7-4.8"/><path class="st0" d="M5 29.5c.3 0 .7-.1.9-.3.1-.2.2-.5.2-.7.1-.6.1-1.3-.2-1.9-.3-.5-.8-.8-1.2-1.1-1.5-.9-4.4-2.4-4.6-2-.2.2 0 .6.2.8.2.2.5.3.8.4.4.1.7.3 1.1.4.2.1.5.2.6.5.2.4 0 .9-.2 1.3-1.1 2.1.7 2.7 2.4 2.6"/><path class="st5" d="M49 47.6c2.1 4.4 11 8.9 15.9 6.7"/><path class="st0" d="M57.7 61.1c.5.9.3 1.9-.8 1.8-.7-.1-1.5-1.3-2.3-2.7-.6-1.1-.8-1.4-1.1-2.7-.2-.7-.5-1.9.6-1.1 1.3 1 2.2 2.2 3.6 4.7"/><path class="st5" d="M39.4 46.8c1.1 4.7 8.9 11 14.1 9.8m17.2-24.5c6-.3 12-.9 17.9-2"/></svg>