<svg id="Слой_1" xmlns="http://www.w3.org/2000/svg" xmlns:xlink="http://www.w3.org/1999/xlink" viewBox="0 0 91.1 67"><style>.st0{clip-path:url(#SVGID_2_);fill:#fff}.st1{fill:none;stroke:#04d959;stroke-width:1.9;stroke-linecap:round;stroke-linejoin:round;stroke-miterlimit:10}.st1,.st2,.st3,.st4,.st5{clip-path:url(#SVGID_2_)}.st2{stroke:#04d959;stroke-width:2;stroke-linecap:round;stroke-linejoin:round;stroke-miterlimit:10;fill:none}.st3{fill:#04d959}.st4,.st5{fill:none;stroke-linecap:round;stroke-miterlimit:10}.st4{stroke-linejoin:round;stroke:#04d959}.st5{stroke:#fff}</style><defs><path id="SVGID_1_" d="M0 0h91.1v67H0z"/></defs><clipPath id="SVGID_2_"><use xlink:href="#SVGID_1_" overflow="visible"/></clipPath><path class="st0" d="M64.1 18.9c-2-5.4-6-9.3-9-11.8-3.9-3.3-9.2-5.6-16.3-6.8-7.8-1.4-11.7 4.6-12.7 8-1 3-8.7 26.5-9.6 31.1-1 5.2 0 8.2.2 8.7l.6 1.5 1.7.4c.7.2 1.6.3 2.7.3 4.8-.3 13.9-4 32.3-12.9 1.9-.9 3.4-1.6 4.4-2.1 6.6-3 8.6-8.5 5.7-16.4"/><circle class="st1" cx="38.4" cy="33.9" r=".3"/><path class="st1" d="M52.9 9.7c2.5 2.1 6.2 5.6 7.9 10.3 1.7 4.7 2.1 9.4-3.9 12.1-6 2.8-32.3 16.1-36.8 14.5 0 0-.9-2.3-.1-6.8s9.5-30.7 9.5-30.7 1.9-6.8 8.7-5.6C45 4.9 49.7 7 52.9 9.7z"/><path class="st1" d="M24.4 39.3c3 1 6.2-.6 7.2-3.6s-.6-6.2-3.6-7.2"/><path class="st2" d="M44.8 21.6s-1.2 1-2.3.2c-.7-.6-.8-1.6-.2-2.3l2.5 2.1z"/><path class="st3" d="M36.9 14.3c-.2.3 0 .8.4 1.2.5.4 1 .4 1.2.1.2-.3 0-.8-.4-1.2-.4-.3-.9-.4-1.2-.1m12.5 10c-.2.3 0 .8.4 1.2.5.4 1 .4 1.2.1.2-.3 0-.8-.4-1.2-.4-.3-.9-.4-1.2-.1"/><path class="st1" d="M57.2 22.3c-1.7 4-5.5 6.9-10.1 7.2-6.6.5-12.3-4.5-12.7-11-.3-3.6 1.1-7 3.5-9.3"/><path class="st4" d="M40.4 14.4l2.8 1.3-1.7-2.7m9.1 9.5l-2-2.4 3.1 1"/><path class="st5" d="M26.3 12.3C17.3 18.4 8.7 25.4 6 29.2"/><path class="st0" d="M3.8 30.3c.6-.9 1.8-3.4 3.1-2.8.7.3.9.8.8 1.4.3.7.4 1.5.4 2.3 0 .1 0 .3-.1.4-.1.3-.5.5-.8.6l-.9.3c-.2.4-.5.8-.8 1.1-.2.2-.4.3-.6.4-.3.1-.7 0-1-.2-.3-.2-.6-.4-.8-.7-.3-.4-.3-1-.1-1.5.2-.5.5-.9.8-1.3"/><path class="st5" d="M59.4 34.3S73 29.2 86.6 21.6"/><path class="st0" d="M84.6 20.2c-.5-4.8 6.6-2.7 6.5-.2-.1 1.6-2 2.6-3.4 2.8-2.4.4-2.9-.6-3.1-2.6"/><path class="st5" d="M11.2 46.4l-7.3 8.9m4.2 2.9L.5 66.5m11.7-12.7l-1 1m8.5-.5L8 64.9"/></svg>