<svg id="Слой_1" xmlns="http://www.w3.org/2000/svg" viewBox="0 0 46.7 29.8"><style>.st0{fill:#010101}</style><path class="st0" d="M27.3 16.6c-.2 0-.3.1-.4.2 0 0-1.4 1.3-3.6 1.3s-3.6-1.3-3.6-1.3c-.1-.1-.3-.2-.4-.2-2.7 0-4.8.9-6.3 2.6-3.1 3.6-2.3 9.7-2.3 10 .1.3.3.6.6.6h24c.3 0 .6-.3.6-.6.1-.3.9-6.3-2.3-10-1.4-1.7-3.6-2.6-6.3-2.6zm-1.4 2.2L23.4 24l-2.5-5.2c.7.3 1.5.5 2.5.5s1.8-.2 2.5-.5zm8.9 9.7H11.9c-.1-1.5-.3-5.8 2.1-8.4 1.2-1.4 2.9-2.1 5-2.2l3.8 7.9c.2.4.9.4 1.1 0l3.8-7.9c2.1.1 3.8.8 5 2.2 2.3 2.6 2.2 6.9 2.1 8.4zM23.3 15.1c3.8 0 6.9-3.1 6.9-6.9s-3.1-6.9-6.9-6.9-6.9 3.1-6.9 6.9 3.1 6.9 6.9 6.9zm0-12.5c3.1 0 5.7 2.5 5.7 5.7S26.5 14 23.3 14s-5.7-2.5-5.7-5.7 2.6-5.7 5.7-5.7z"/><path class="st0" d="M44.9 12.7c-1.1-1.3-2.6-1.9-4.6-1.9-.1 0-.1 0-.2.1H40c-.1 0-.1.1-.2.1-.1.1-.9.9-2.4.9S35 11.1 35 11c0 0-.1 0-.1-.1h-.1c-.1 0-.1-.1-.2-.1-3 0-5 1.5-5.9 4.3-.1.3.1.7.4.8.3.1.7-.1.8-.4.7-2.1 2.1-3.3 4.3-3.4l2.6 5.5c.2.4.9.4 1.1 0l2.6-5.5c1.4.1 2.5.6 3.3 1.4 1.5 1.7 1.5 4.5 1.4 5.7h-9c-.4 0-.6.3-.6.6s.3.6.6.6H46c.3 0 .6-.3.6-.6 0 0 .6-4.4-1.7-7.1zm-7.4 3.2l-1.4-3c.4.1.9.2 1.4.2.6 0 1-.1 1.4-.2l-1.4 3zm0-5.7c2.8 0 5.1-2.3 5.1-5.1S40.3 0 37.5 0s-5.1 2.3-5.1 5.1 2.3 5.1 5.1 5.1zm0-8.9c2.1 0 3.8 1.7 3.8 3.8S39.6 9 37.5 9c-2.1 0-3.8-1.8-3.8-3.8s1.7-3.9 3.8-3.9zM10.8 19.9c0-.4-.3-.6-.6-.6H1.3c-.1-1.2-.1-4 1.4-5.7.8-.9 1.9-1.4 3.3-1.4l2.6 5.5c.2.4.9.4 1.1 0l2.6-5.5c2.2.1 3.6 1.3 4.3 3.4.1.3.4.5.8.4.3-.1.5-.4.4-.8-.9-2.8-2.9-4.3-5.9-4.3-.1 0-.1 0-.2.1h-.1c-.1 0-.1.1-.1.1s-.9.9-2.4.9-2.1-.8-2.2-.9l-.1-.1h-.1c-.1 0-.1-.1-.2-.1-1.9 0-3.5.6-4.6 1.9C-.5 15.4.1 19.8.1 20c.1.3.3.6.6.6h9.5c.3-.1.6-.4.6-.7zm-.2-7l-1.4 3-1.4-3c.4.1.9.2 1.4.2.5.1 1 0 1.4-.2zm-1.4-2.7c2.8 0 5.1-2.3 5.1-5.1S12 0 9.2 0 4.1 2.3 4.1 5.1s2.3 5.1 5.1 5.1zm0-8.9c2 0 3.8 1.7 3.8 3.8S11.3 9 9.2 9 5.3 7.3 5.3 5.1s1.8-3.8 3.9-3.8z"/></svg>