<?xml version="1.0" encoding="utf-8"?>
<!-- Generator: Adobe Illustrator 19.0.0, SVG Export Plug-In . SVG Version: 6.00 Build 0)  -->
<svg version="1.1" id="Слой_1" xmlns="http://www.w3.org/2000/svg" xmlns:xlink="http://www.w3.org/1999/xlink" x="0px" y="0px"
	 viewBox="0 0 140.8 68.6" style="enable-background:new 0 0 140.8 68.6;" xml:space="preserve">
<style type="text/css">
	.st0{fill:#3D3C2C;}
	.st1{fill-rule:evenodd;clip-rule:evenodd;fill:#3D3C2C;}
</style>
<g>
	<g>
		<path class="st0" d="M52.9,64l3.5-1.7l0.4,0.9l-2.5,1.2l0.5,1l2.2-1.1l0.4,0.9l-2.2,1.1l0.9,1.8l-1,0.5L52.9,64z"/>
		<path class="st0" d="M60.5,60.9l1-0.3l3.4,4.4l-1.1,0.3l-0.7-1L61,64.9l-0.2,1.2l-1.1,0.3L60.5,60.9z M62.4,63.5l-1.1-1.4
			l-0.2,1.8L62.4,63.5z"/>
		<path class="st0" d="M66.6,59.7l1.2,0l1.4,2.1l1.3-2.2l1.2,0l0.2,5.1l-1.1,0l-0.1-3.3l-1.4,2.2l0,0l-1.5-2.1l0.1,3.3l-1.1,0
			L66.6,59.7z"/>
		<path class="st0" d="M75,59.9l1.1,0.2l-0.7,5L74.3,65L75,59.9z"/>
		<path class="st0" d="M79.3,60.7l1.1,0.3l-1.2,3.9l2.4,0.7l-0.3,1l-3.5-1L79.3,60.7z"/>
		<path class="st0" d="M84.6,65.9l-0.4-3.6l1.2,0.6l0.2,2.4l2-1.3l1.1,0.6l-3.1,1.9l-0.9,1.8l-1-0.5L84.6,65.9z"/>
	</g>
	<g>
		<g>
			<g>
				<path class="st0" d="M30.1,64c-0.1-0.1-0.3-0.2-0.4-0.2c-0.1-0.1-0.3-0.1-0.5-0.1c-0.2,0-0.3,0-0.3,0.1
					c-0.1,0.1-0.1,0.1-0.1,0.2c0,0.1,0.1,0.1,0.1,0.2c0.1,0,0.1,0,0.4,0.1l0.3,0c0.3,0,0.5,0.1,0.7,0.2c0.1,0.1,0.2,0.3,0.2,0.5
					c0,0.2-0.1,0.4-0.3,0.6c-0.3,0.2-0.6,0.2-0.8,0.2c-0.3,0-0.5,0-0.7-0.1c-0.2-0.1-0.4-0.2-0.5-0.3l0.3-0.4
					c0.1,0.1,0.3,0.2,0.5,0.3c0.2,0.1,0.3,0.1,0.6,0.1c0.2,0,0.3,0,0.4-0.1c0.1-0.1,0.2-0.2,0.2-0.3c0-0.2-0.1-0.2-0.2-0.2
					c-0.1-0.1-0.2-0.1-0.4-0.1l-0.4,0c-0.3,0-0.6-0.1-0.7-0.3c-0.1-0.1-0.1-0.2-0.1-0.4c0-0.3,0.1-0.5,0.3-0.6
					c0.1-0.1,0.4-0.2,0.8-0.2c0.2,0,0.4,0,0.7,0.1c0.2,0.1,0.3,0.1,0.5,0.3L30.1,64z"/>
				<path class="st0" d="M29.4,65.9c-0.3,0-0.5,0-0.8-0.1c-0.2-0.1-0.4-0.2-0.6-0.3l-0.1,0l0.4-0.5l0.1,0.1c0.1,0.1,0.3,0.2,0.4,0.3
					c0.2,0.1,0.3,0.1,0.5,0.1c0.2,0,0.3,0,0.4-0.1c0.1-0.1,0.1-0.2,0.1-0.2c0-0.1,0-0.1-0.1-0.2c-0.1,0-0.2-0.1-0.3-0.1l-0.4,0
					c-0.4,0-0.6-0.1-0.8-0.3c-0.1-0.1-0.2-0.3-0.2-0.4c0-0.3,0.2-0.5,0.3-0.6c0.2-0.2,0.5-0.2,0.8-0.2c0.3,0,0.5,0,0.7,0.1
					c0.2,0.1,0.4,0.1,0.5,0.3l0.1,0l-0.3,0.5l-0.1,0c-0.1-0.1-0.3-0.2-0.4-0.2c-0.1-0.1-0.3-0.1-0.5-0.1c-0.1,0-0.2,0-0.3,0.1
					c-0.1,0-0.1,0.1-0.1,0.1c0,0,0,0.1,0.1,0.1c0,0,0.1,0,0.4,0.1l0.3,0c0.3,0,0.6,0.1,0.7,0.3c0.1,0.1,0.3,0.3,0.3,0.6
					c0,0.2,0,0.4-0.3,0.7C30,65.9,29.6,65.9,29.4,65.9z M28.2,65.4c0.1,0.1,0.3,0.2,0.5,0.3c0.2,0.1,0.5,0.1,0.7,0.1
					c0.2,0,0.5,0,0.8-0.2c0.2-0.2,0.3-0.4,0.3-0.6c0-0.2-0.1-0.4-0.2-0.4c-0.1-0.1-0.4-0.2-0.6-0.2l-0.3,0c-0.3,0-0.4,0-0.4-0.1
					c-0.2-0.1-0.2-0.2-0.2-0.2c0-0.1,0-0.2,0.2-0.3c0.1,0,0.2-0.1,0.4-0.1c0.2,0,0.4,0,0.5,0.1c0.1,0,0.2,0.1,0.4,0.2l0.2-0.3
					c-0.1-0.1-0.3-0.2-0.4-0.2c-0.2-0.1-0.4-0.1-0.7-0.1c-0.4,0-0.6,0.1-0.7,0.2c-0.1,0.1-0.2,0.2-0.2,0.5c0,0.1,0,0.2,0.1,0.3
					c0.1,0.1,0.3,0.2,0.7,0.2l0.4,0c0.1,0,0.2,0,0.3,0.1c0.2,0.1,0.2,0.2,0.2,0.3c0,0.1,0,0.2-0.2,0.3c-0.1,0.1-0.3,0.1-0.5,0.1
					c-0.2,0-0.4,0-0.6-0.1c-0.2-0.1-0.3-0.2-0.4-0.2L28.2,65.4z"/>
			</g>
			<g>
				<path class="st0" d="M31.8,63.3h0.5v2.5h-0.5V63.3z"/>
				<path class="st0" d="M32.4,65.9h-0.7v-2.6h0.7V65.9z M31.9,65.7h0.3v-2.3h-0.3V65.7z"/>
			</g>
			<g>
				<path class="st0" d="M34.3,64.3v1.5h-0.5v-2.5h0.3l1.4,1.5v-1.5h0.5v2.5h-0.3L34.3,64.3z"/>
				<path class="st0" d="M36,65.9h-0.4l-1.3-1.4v1.4h-0.6v-2.6h0.4l1.2,1.4v-1.4H36V65.9z M35.7,65.7h0.2v-2.3h-0.3v1.7L34,63.4
					h-0.2v2.3h0.3V64L35.7,65.7z"/>
			</g>
			<g>
				<path class="st0" d="M39.6,65.2c-0.1,0.2-0.3,0.4-0.4,0.5c-0.2,0.1-0.4,0.2-0.7,0.2c-0.3,0-0.7-0.1-0.9-0.4
					c-0.2-0.2-0.4-0.5-0.4-0.9c0-0.3,0.1-0.7,0.4-1c0.2-0.2,0.5-0.4,0.9-0.4c0.3,0,0.5,0.1,0.7,0.2c0.2,0.1,0.3,0.2,0.4,0.4
					l-0.4,0.3c-0.1-0.1-0.2-0.2-0.3-0.3c-0.1-0.1-0.2-0.1-0.4-0.1c-0.2,0-0.4,0.1-0.6,0.2c-0.1,0.1-0.2,0.3-0.2,0.6
					c0,0.3,0.1,0.5,0.2,0.6c0.1,0.1,0.3,0.2,0.5,0.2c0.2,0,0.3-0.1,0.5-0.1c0.1-0.1,0.2-0.2,0.3-0.4L39.6,65.2z"/>
				<path class="st0" d="M38.5,65.9c-0.4,0-0.7-0.1-1-0.4c-0.2-0.2-0.4-0.6-0.4-1c0-0.4,0.1-0.8,0.4-1c0.1-0.1,0.5-0.4,1-0.4
					c0.3,0,0.5,0.1,0.7,0.2c0.2,0.1,0.3,0.3,0.5,0.4l0,0.1l-0.5,0.4l0-0.1c-0.1-0.1-0.2-0.2-0.3-0.3c-0.1,0-0.2-0.1-0.4-0.1
					c-0.2,0-0.4,0.1-0.5,0.2c-0.1,0.1-0.2,0.3-0.2,0.6c0,0.2,0.1,0.4,0.2,0.6c0.1,0.1,0.3,0.2,0.5,0.2c0.2,0,0.3,0,0.4-0.1
					c0.1-0.1,0.2-0.2,0.3-0.3l0-0.1l0.5,0.4l0,0.1c-0.1,0.2-0.3,0.4-0.5,0.5C39,65.9,38.8,65.9,38.5,65.9z M38.5,63.3
					c-0.5,0-0.8,0.2-0.9,0.3c-0.2,0.2-0.3,0.5-0.3,0.9c0,0.3,0.1,0.6,0.3,0.9c0.2,0.2,0.5,0.3,0.9,0.3c0.3,0,0.5-0.1,0.6-0.2
					c0.2-0.1,0.3-0.2,0.4-0.4L39.3,65c-0.1,0.1-0.2,0.2-0.3,0.3c-0.2,0.1-0.3,0.2-0.5,0.2c-0.2,0-0.4-0.1-0.6-0.2
					c-0.2-0.2-0.3-0.4-0.3-0.7c0-0.4,0.2-0.6,0.3-0.7c0.2-0.2,0.4-0.2,0.6-0.2c0.2,0,0.3,0,0.4,0.1c0.1,0.1,0.2,0.1,0.3,0.3l0.3-0.2
					c-0.1-0.1-0.2-0.2-0.4-0.3C39,63.4,38.8,63.3,38.5,63.3z"/>
			</g>
			<g>
				<path class="st0" d="M40.9,63.3h2v0.5h-1.5v0.5h0.9v0.5h-0.9v0.6H43v0.5h-2.1V63.3z"/>
				<path class="st0" d="M43,65.9h-2.2v-2.6h2.2v0.6h-1.5v0.3h0.9v0.6h-0.9v0.5H43V65.9z M40.9,65.7h1.9v-0.3h-1.6v-0.8h0.9v-0.3
					h-0.9v-0.6h1.5v-0.3h-1.8V65.7z"/>
			</g>
		</g>
		<g>
			<g>
				<path class="st0" d="M98,65.8L98,65.8c0-0.2,0-0.3,0-0.4c0-0.2,0-0.4,0.2-0.6c0.1-0.1,0.3-0.3,0.7-0.4l0.2-0.1
					c0.1,0,0.2-0.1,0.3-0.1c0.1,0,0.2-0.1,0.2-0.2c0,0,0-0.1-0.1-0.2c-0.1,0-0.2-0.1-0.3-0.1c-0.2,0-0.3,0-0.5,0.1
					c-0.1,0.1-0.3,0.2-0.4,0.3l-0.3-0.4c0.2-0.2,0.4-0.3,0.5-0.3c0.2-0.1,0.4-0.2,0.7-0.2c0.2,0,0.5,0,0.7,0.2
					c0.1,0.1,0.3,0.3,0.3,0.6c0,0.2-0.1,0.4-0.2,0.4c-0.1,0.1-0.3,0.2-0.5,0.3l-0.3,0.1c-0.3,0.1-0.5,0.2-0.6,0.2
					c-0.1,0.1-0.1,0.1-0.1,0.2c0,0,0,0.1,0,0.1h1.7v0.5H98z"/>
				<path class="st0" d="M100.2,65.9h-2.3l0-0.2c0-0.1,0-0.3,0-0.3c0-0.2,0-0.5,0.2-0.7c0.1-0.2,0.4-0.3,0.7-0.4l0.2-0.1
					c0.1,0,0.2-0.1,0.3-0.1c0.1,0,0.1-0.1,0.1-0.1c0,0,0-0.1-0.1-0.1c-0.1,0-0.2,0-0.3,0c-0.2,0-0.3,0-0.5,0.1
					c-0.1,0-0.3,0.2-0.4,0.3l-0.1,0.1l-0.4-0.5l0.1,0c0.2-0.1,0.3-0.2,0.5-0.3c0.2-0.1,0.4-0.2,0.7-0.2c0.3,0,0.6,0.1,0.8,0.2
					c0.1,0.1,0.3,0.3,0.3,0.6c0,0.2-0.1,0.4-0.2,0.5c-0.1,0.1-0.4,0.2-0.5,0.3L99,64.9c-0.2,0.1-0.4,0.1-0.5,0.2
					c0,0-0.1,0.1-0.1,0.2h1.7V65.9z M98,65.7h2v-0.3h-1.6l0-0.1c0,0,0-0.1,0-0.1c0-0.1,0-0.2,0.1-0.3c0.1-0.1,0.3-0.1,0.5-0.2
					l0.4-0.1c0.1,0,0.3-0.2,0.4-0.2c0.1-0.1,0.2-0.2,0.2-0.4c0-0.3-0.1-0.4-0.2-0.5c-0.2-0.1-0.4-0.2-0.7-0.2c-0.3,0-0.4,0-0.7,0.1
					c-0.2,0.1-0.3,0.2-0.4,0.3l0.2,0.3c0.1-0.1,0.3-0.2,0.4-0.2c0.2-0.1,0.3-0.1,0.5-0.1c0.1,0,0.2,0,0.3,0.1
					c0.2,0.1,0.2,0.2,0.2,0.3c0,0.2-0.2,0.2-0.2,0.3c-0.1,0.1-0.2,0.1-0.3,0.1l-0.2,0.1c-0.3,0.1-0.5,0.2-0.6,0.3
					C98,65,98,65.2,98,65.4C98,65.5,98,65.6,98,65.7L98,65.7z"/>
			</g>
			<g>
				<path class="st0" d="M101.3,64.6c0-0.8,0.6-1.3,1.4-1.3c0.8,0,1.4,0.5,1.4,1.3c0,0.8-0.6,1.3-1.4,1.3
					C101.9,65.9,101.3,65.3,101.3,64.6z M101.8,64.6c0,0.5,0.3,0.8,0.9,0.8c0.5,0,0.9-0.3,0.9-0.8c0-0.5-0.3-0.8-0.9-0.8
					C102.1,63.7,101.8,64.1,101.8,64.6z"/>
				<path class="st0" d="M102.7,65.9c-0.8,0-1.4-0.6-1.4-1.4c0-0.8,0.6-1.4,1.4-1.4c0.8,0,1.4,0.6,1.4,1.4
					C104.1,65.4,103.5,65.9,102.7,65.9z M102.7,63.3c-0.8,0-1.3,0.5-1.3,1.2c0,0.7,0.5,1.2,1.3,1.2c0.8,0,1.3-0.5,1.3-1.2
					C103.9,63.8,103.4,63.3,102.7,63.3z M102.7,65.5c-0.5,0-0.9-0.4-0.9-0.9c0-0.5,0.4-0.9,0.9-0.9c0.6,0,0.9,0.4,0.9,0.9
					C103.6,65.1,103.2,65.5,102.7,65.5z M102.7,63.8c-0.5,0-0.8,0.3-0.8,0.7c0,0.4,0.3,0.7,0.8,0.7c0.5,0,0.8-0.3,0.8-0.7
					C103.4,64.1,103.1,63.8,102.7,63.8z"/>
			</g>
			<g>
				<path class="st0" d="M105.8,63.3h0.5v2.5h-0.5V63.3z"/>
				<path class="st0" d="M106.3,65.9h-0.7v-2.6h0.7V65.9z M105.8,65.7h0.3v-2.3h-0.3V65.7z"/>
			</g>
			<g>
				<path class="st0" d="M108,64.6c0-0.8,0.6-1.3,1.4-1.3c0.8,0,1.4,0.5,1.4,1.3c0,0.8-0.6,1.3-1.4,1.3
					C108.6,65.9,108,65.3,108,64.6z M108.5,64.6c0,0.5,0.3,0.8,0.9,0.8c0.5,0,0.9-0.3,0.9-0.8c0-0.5-0.3-0.8-0.9-0.8
					C108.8,63.7,108.5,64.1,108.5,64.6z"/>
				<path class="st0" d="M109.4,65.9c-0.8,0-1.4-0.6-1.4-1.4c0-0.8,0.6-1.4,1.4-1.4c0.8,0,1.4,0.6,1.4,1.4
					C110.8,65.4,110.2,65.9,109.4,65.9z M109.4,63.3c-0.7,0-1.3,0.5-1.3,1.2c0,0.7,0.5,1.2,1.3,1.2c0.8,0,1.3-0.5,1.3-1.2
					C110.6,63.8,110.1,63.3,109.4,63.3z M109.4,65.5c-0.5,0-0.9-0.4-0.9-0.9c0-0.5,0.4-0.9,0.9-0.9c0.6,0,0.9,0.4,0.9,0.9
					C110.3,65.1,109.9,65.5,109.4,65.5z M109.4,63.8c-0.5,0-0.8,0.3-0.8,0.7c0,0.4,0.3,0.7,0.8,0.7c0.5,0,0.8-0.3,0.8-0.7
					C110.1,64.1,109.8,63.8,109.4,63.8z"/>
			</g>
		</g>
	</g>
	<path class="st0" d="M72.6,13.1L72.6,13.1C72.6,13.1,72.6,13.2,72.6,13.1C72.6,13.2,72.6,13.2,72.6,13.1z"/>
	<g>
		<g>
			<path class="st1" d="M61.3,15.3c0.2,0.2-0.1,0.4,0.2,0.7c-0.3-0.1-0.2-0.2-0.5-0.1c0.1-0.3,0.1-0.3,0-0.6
				C61.1,15.3,61.2,15.5,61.3,15.3z"/>
			<path class="st1" d="M59.2,16.9c0.1,0,0.1,0,0.2,0c-0.1,0.3,0.2,0.3,0.2,0.6c-0.3,0.1-0.3-0.1-0.6-0.2
				C59.1,17.2,59.2,17.1,59.2,16.9z"/>
			<path class="st1" d="M61.3,18.8c0.1,0.1,0.4,0,0.5,0.1c-0.3,0.2,0,0.3-0.1,0.5c-0.2-0.1-0.2,0-0.5,0C61.4,19.1,61.3,19,61.3,18.8
				z"/>
			<path class="st1" d="M68.1,19.9c0.3-0.2,0.3,0.3,0.6,0.1c0.1,0.1,0,0.2-0.1,0.3c-0.2-0.1-0.5,0-0.6-0.2
				C68.1,20.1,68.2,19.9,68.1,19.9z"/>
			<path class="st1" d="M59.3,20.3c0.3,0,0.1,0.3,0.4,0.3c0,0.1-0.1,0.1-0.1,0.2c-0.2,0-0.3-0.1-0.5-0.1
				C59.3,20.5,59.3,20.4,59.3,20.3z"/>
			<path class="st1" d="M64.7,20.7c0.4,0,0.5,0.3,0.6,0.5c-0.2,0.1-0.5-0.1-0.7-0.2C64.6,20.8,64.8,20.9,64.7,20.7z"/>
			<path class="st1" d="M68.3,21.8c0,0.3-0.3,0.3-0.6,0.3c0-0.2-0.1-0.2-0.1-0.3C67.8,21.7,68.2,21.8,68.3,21.8z"/>
			<path class="st1" d="M71.3,22.5c-0.1,0.2-0.3,0.6-0.6,0.4C70.7,22.6,71,22.2,71.3,22.5z"/>
			<path class="st1" d="M61.7,22.5c0.2,0.1,0.2,0.4,0.5,0.3c-0.1,0.2,0,0.1,0.1,0.3C61.7,23.2,61.5,22.9,61.7,22.5z"/>
			<path class="st1" d="M75.1,22.8c0,0.3-0.8,0.5-0.7,0.1C74.7,22.9,74.8,22.6,75.1,22.8z"/>
			<path class="st1" d="M64.2,23.7c0.3,0,0.4,0.1,0.6,0.2c0,0.1,0,0.2,0,0.2c-0.3,0-0.3,0-0.5-0.1C64.3,23.8,64.2,23.8,64.2,23.7z"
				/>
			<path class="st1" d="M77.4,23.7c0.2,0.2,0.2,0.1,0.5,0c0,0.1,0.1,0.2,0.1,0.4c-0.2,0.1-0.4,0.1-0.7,0.1
				C77.4,24,77.3,23.9,77.4,23.7z"/>
			<path class="st1" d="M66.5,23.9c0.2,0.1,0.4,0.2,0.7,0.2c-0.1,0.1-0.1,0.2-0.1,0.3c-0.2-0.1-0.3-0.1-0.6-0.1
				C66.5,24.2,66.5,24,66.5,23.9z"/>
			<path class="st1" d="M80.7,24c0.1,0,0.1,0,0.2,0c0.1,0.1,0.1,0.3,0.1,0.4c-0.2,0-0.2,0.2-0.5,0.2c0-0.3-0.2-0.2-0.1-0.4
				C80.7,24.3,80.7,24.2,80.7,24z"/>
			<path class="st1" d="M73.6,25.1c-0.2,0.1-0.4,0.2-0.6,0.1c0.2-0.2,0-0.2,0-0.4C73.3,24.9,73.6,24.5,73.6,25.1z"/>
			<path class="st1" d="M81.7,21.2c-0.1,0.2-0.2,0.4-0.4,0.4c0.1-0.2-0.1-0.1-0.2-0.3C81.4,21.3,81.4,20.7,81.7,21.2z"/>
			<path class="st1" d="M62.1,25.3c0.3,0,0.4,0.1,0.6,0c0,0.2,0.1,0.2,0.2,0.4c-0.3,0-0.4,0-0.6,0.1C62.1,25.5,62.2,25.5,62.1,25.3z
				"/>
			<path class="st1" d="M70.4,25.3c0.1,0,0.1,0,0.2,0c0.1,0.2,0,0.2,0.2,0.3c0,0.3-0.5,0.1-0.6,0.2c0-0.1-0.2-0.3-0.1-0.4
				C70.1,25.5,70.4,25.6,70.4,25.3z"/>
			<path class="st1" d="M76.1,25.3c0.1,0.2,0,0.2,0.2,0.3c-0.1,0.2-0.5,0.1-0.8,0.2c0-0.1,0-0.2,0-0.3
				C75.8,25.5,75.8,25.4,76.1,25.3z"/>
			<path class="st1" d="M78.5,25.8c0,0.1,0,0.2,0,0.3c-0.2,0-0.2,0.2-0.5,0.2c-0.1-0.1,0.1-0.2-0.2-0.2C78,25.8,78.3,25.8,78.5,25.8
				z"/>
			<path class="st1" d="M65.5,26.2c0.3,0,0.3,0.2,0.6,0.1c0.1,0.4-0.3,0.3-0.6,0.3C65.5,26.4,65.6,26.4,65.5,26.2z"/>
			<path class="st1" d="M71.7,26.8c0.2,0,0.2,0.2,0.3,0.4c-0.2,0.1-0.4,0.1-0.6,0.1c0-0.2-0.1-0.2-0.1-0.4
				C71.5,27,71.6,26.9,71.7,26.8z"/>
			<path class="st1" d="M68.7,27c0.1,0.2,0,0.2,0.2,0.3c-0.2,0.3-0.3,0.1-0.6,0.2c0-0.2,0-0.3-0.1-0.4C68.3,27,68.4,27,68.7,27z"/>
			<path class="st1" d="M73.3,27c0.2,0,0.2,0.1,0.4,0c0.1,0,0,0.3,0.2,0.2C73.8,27.5,73.3,27.5,73.3,27z"/>
			<g>
				<path class="st1" d="M82.4,20.4c-0.1-1-1.2-1.5-2.4-1.4c-0.2,0-0.4,0.1-0.6,0.2c-0.1,0.1-0.2,0.1-0.2,0.2
					c-1,0.9-0.4,2.1-0.4,2.2c0,0,0,0,0,0c-0.2,0-0.3-0.1-0.5-0.1c0-0.1-0.1-0.2-0.1-0.3c-0.2-0.4-0.9-0.8-1.5-0.8
					c-0.6,0-1.1,0.3-1.2,0.3c-0.2-0.2-0.4-0.3-0.6-0.4c-0.5-0.2-1.2-0.2-2,0.4c-0.7,0.6-0.6,1.4-0.5,1.7c-0.1,0-0.2,0.1-0.2,0.1
					c0.1-0.1,0.3-0.5,0-1.3c-0.3-1.1-1.6-0.9-1.9-0.9c0,0,0,0,0,0c0,0,0.1-0.1,0.1-0.3c0-0.1,0.1-0.1,0.1-0.2c0-0.2,0-0.4,0-0.5
					c0-1.4-1.4-1.7-2.4-1.4c-1,0.3-1.2,1.3-1.3,1.3c-1-1.4-2.6-0.5-2.8-0.4c0,0,0,0,0,0c0.1-0.3,0-0.9-0.3-1.3
					c-0.3-0.3-0.8-0.5-0.9-0.5c0,0,0,0,0,0c0,0,0,0,0,0c0.7-0.2,1.9-1.7,0.7-2.9c-0.7-0.7-1.4-0.6-2-0.4c-0.8,0.2-1.4,0.8-1.3,1.8
					c-2.1,0-2.1,2.9-0.6,3.5c-1.4,0.2-1.1,2.5,0,2.8c-1.4,0.9-0.4,3.3,1.4,2.9c0,1.5,2.2,2.1,3.2,1.1c0.2,1.2,1.6,1.8,2.7,1.1
					c0.4,1.1,2.4,1.5,3.1,0.4c0.4,0.7,2,0.8,2.6,0.2c0.8,0.8,3,0.6,2.8-1.1c0.7-0.2,0.9,0.3,1.2,0.5c1.2,0.5,2.4-0.6,2.6-1.6
					c2.2,0.5,3.1-2.1,1.7-3.1C82,22.1,82.5,21.1,82.4,20.4z M79.3,22.7c0,0.8-0.4,1.6-1.3,1.7c-1.3,0.2-2.4-0.9-1.9-2
					c0.2-0.4,0.9-0.8,1.6-0.8C78.5,21.7,79.2,21.8,79.3,22.7z M68.8,22.5c0.2,0.2,0.3,0.6,0.6,0.7c-0.2,0.1-0.4,0.3-0.6,0.2
					C68.9,23.1,68.5,22.7,68.8,22.5z M65.5,24.2c-0.7,0.4-1.6,0-1.7-0.8c0.4-0.5,0.8-1,0.6-2c0.4,0.6,1.9,0.4,2.3,0.2
					c0,0.2-0.4,0.2-0.5,0.2c-0.3,0.1-0.5,0.3-0.7,0.4C65,22.8,65.2,23.8,65.5,24.2z M67.3,19c0.1-0.4,0.5-0.8,1.2-0.9
					c2.1-0.4,2.2,2.3,0.6,2.6C68.2,20.9,67.1,20.2,67.3,19z M64.9,18.9c1.8-0.6,2.7,1.7,1.6,2.5C64.8,22.5,62.7,19.6,64.9,18.9z
					 M63.8,18.2c0,0.4,0,0.6-0.1,1c-0.4,1.4-2.8,1-3-0.4C60.6,17,63.2,16.8,63.8,18.2z M63.6,20.6c-0.2-0.2-0.5-0.3-0.8-0.3
					c0.2-0.2,0.5-0.2,0.7-0.4C63.6,20.1,63.6,20.4,63.6,20.6z M63.4,20.7c0.1,0.1,0.5,0.4,0.6,0.8c0.4,1.4-1.2,2.6-2.4,1.7
					c-0.5-0.4-0.8-1.6-0.2-2.3c0.2-0.2,0.5-0.3,1-0.4C62.8,20.5,63.1,20.6,63.4,20.7z M66.8,22c0.4,0.1,0.7,0.8,1.5,0.6
					c1.2,2-2.3,2.8-2.7,0.8C65.3,22.7,66,21.9,66.8,22z M67,21.7c-0.2-0.5,0.3-0.8,0.3-1.4c0.5,0.4,0.9,0.8,1.7,0.7
					c-0.2,0.3-0.3,0.7-0.2,1.2C68.1,22.6,67.2,22.2,67,21.7z M69.2,22.8c-0.6-0.9,0-2,1.2-2.1c1-0.1,1.7,0.4,1.6,1.3
					C72,23.3,70,23.9,69.2,22.8z M72.5,22.7c0.4,0.5,0.9,0.9,1.7,1c0.7,2-2.2,2.2-2.7,0.8C71.2,23.7,71.9,23.1,72.5,22.7z
					 M72.7,21.6c0.1-0.5,1-1.2,1.8-1.2c0.9,0,1.5,1.1,1.2,2C75.3,23.8,72.3,23.8,72.7,21.6z M78,21.4c-0.7,0.1-1.5,0.1-1.8,0.6
					c0,0,0,0,0,0c0,0,0,0,0,0c-0.1-0.5-0.2-0.9-0.5-1.1C76.5,20.3,77.8,20.5,78,21.4z M61.7,13.9c1.2-0.3,2.1,0.6,1.9,1.9
					c-0.2,1.7-3,1.1-3.1-0.3C60.5,14.7,61.1,14.1,61.7,13.9z M60.4,15.8c0.2,0.6,0.6,1,1.3,1.2c-0.7,0.3-1.3,0.8-1.2,1.9
					C58.5,18.9,58.3,15.8,60.4,15.8z M60.6,19.1c0.2,0.7,0.8,0.9,1.3,1.3c-0.7,0.1-1.1,0.6-1.2,1.3C58.6,22.2,58.5,18.7,60.6,19.1z
					 M59.6,23.8c0.2-0.2,0.3,0.2,0.5,0.1c-0.1-0.5-0.5-0.6-0.5-0.2c-0.5-0.8,0.3-1.8,1.1-1.7c0.1,0.7,0.3,1.3,1,1.5
					c-0.2,0.3-0.4,0.5-0.5,0.9C60.5,24.6,59.8,24.2,59.6,23.8z M62.9,26c-1.2-0.1-2-1.5-0.9-2.4c0.5,0.1,1,0,1.5-0.1
					c0.1,0.6,0.6,0.9,1.2,1C64.2,25.3,63.9,26.1,62.9,26z M67.3,25.5c-0.1,0.3-0.3,0.6-0.3,1c-0.9,0.8-2.7,0.1-2.3-1.4
					c0.2-0.4,0.7-0.5,1-0.8c0.5,0.5,1.9,0.7,2.5,0.3C68.2,25.3,67.6,25.2,67.3,25.5z M69.8,27.1c-0.2,0.2-0.4,0.4-0.6,0.6
					c-1.9,0.4-2.4-1.9-1-2.4c0.5,0.3,0.8,1,1.6,1.1C69.8,26.6,69.9,26.8,69.8,27.1z M68.5,24.6c0.1-0.4,0.3-0.4,0.4-0.8
					c0.5-0.6,1.6,0.1,2.3-0.3c-0.3,0.5,0.2,1.1,0.2,1.5C71.4,26.8,68.2,26.2,68.5,24.6z M70.1,26.4c0.9,0,1.4-0.5,1.6-1.2
					c0.3,0.1,0.5,0.4,0.9,0.4c-0.3,0.3-0.4,1.2-0.1,1.6C71.8,27.9,70.1,27.6,70.1,26.4z M72.9,25.8c0.3-0.1,0.8,0,1-0.2
					c0.4,0.3,0.7,0.8,1.3,0.8C75.6,28.6,71.5,27.7,72.9,25.8z M74.2,25.5c0.3-0.5,0.7-1.1,0.3-1.7c0.4-0.2,0.9-0.3,1.1-0.6
					c0.2,0.8,0.6,1.4,1.4,1.5C77.6,26.3,74.8,26.5,74.2,25.5z M76.5,26.2c0.6-0.2,1-0.6,0.9-1.5c0.5,0,0.9-0.1,1.2-0.3
					C80.1,25.7,77.4,27.6,76.5,26.2z M79.4,24.9c-0.1-0.2-0.1-0.6-0.4-0.6c0.5-0.4,0.7-1.3,0.6-2C82.2,21.6,82,25.8,79.4,24.9z
					 M80.7,22c0,0-0.1,0-0.1,0c0,0,0,0,0,0c0,0-0.1,0-0.1,0c-0.4,0-0.9-0.1-1.1-0.4c-1.3-1.4,0.9-3.1,2.3-2.1
					c0.2,0.2,0.4,0.5,0.4,0.9c0,0.2,0,0.4,0,0.6c0,0,0,0,0,0.1c0,0,0,0,0,0l0,0c0,0.1-0.1,0.3-0.2,0.4C81.6,21.7,81.2,22,80.7,22z"
					/>
				<path class="st0" d="M74,28c-0.5,0-1-0.2-1.2-0.4c-0.3,0.2-0.7,0.3-1.2,0.3c-0.5,0-1.1-0.1-1.4-0.5c-0.3,0.4-0.8,0.6-1.4,0.6
					c-0.8,0-1.5-0.4-1.8-1c-0.3,0.2-0.6,0.3-1,0.3c-0.9,0-1.6-0.6-1.8-1.3c-0.3,0.3-0.8,0.4-1.3,0.4c-0.6,0-1.2-0.2-1.5-0.6
					c-0.3-0.3-0.4-0.6-0.4-1c-0.1,0-0.2,0-0.3,0c-0.9,0-1.4-0.7-1.6-1.3c-0.2-0.7,0-1.3,0.5-1.7c-0.6-0.2-0.9-1-0.9-1.7
					c0-0.6,0.3-1,0.8-1.2c-0.8-0.4-1-1.4-0.9-2.1c0.1-0.7,0.6-1.4,1.6-1.4c-0.1-1.1,0.6-1.6,1.3-1.8c0.3-0.1,0.5-0.1,0.7-0.1
					c0.5,0,0.9,0.2,1.3,0.6c0.6,0.6,0.6,1.2,0.5,1.6c-0.2,0.6-0.6,1.1-1.1,1.3c0.2,0.1,0.6,0.2,0.8,0.5c0.3,0.4,0.4,0.9,0.4,1.3
					c0.2-0.1,0.7-0.4,1.3-0.4c0.6,0,1,0.2,1.4,0.7c0.1-0.3,0.5-1,1.3-1.2c0.2-0.1,0.5-0.1,0.7-0.1c0.5,0,1,0.2,1.3,0.5
					c0.3,0.3,0.4,0.6,0.4,1.1c0,0.2,0,0.3,0,0.5c0,0.1-0.1,0.2-0.1,0.2c0,0.1,0,0.1-0.1,0.2c0.1,0,0.2,0,0.4,0c0.8,0,1.3,0.4,1.5,1
					c0,0.1,0.1,0.3,0.1,0.4c0.1-0.3,0.2-0.6,0.6-0.9c0.5-0.4,1-0.6,1.5-0.6c0.2,0,0.4,0,0.6,0.1c0.2,0.1,0.4,0.2,0.5,0.3
					c0.2-0.1,0.6-0.3,1.2-0.3l0,0c0.6,0,1.2,0.4,1.5,0.8c0.1,0.1,0.1,0.2,0.1,0.3c0.1,0,0.2,0.1,0.3,0.1c-0.1-0.3-0.5-1.4,0.4-2.2
					c0.1-0.1,0.2-0.1,0.3-0.2c0.2-0.1,0.4-0.2,0.6-0.2c0.1,0,0.2,0,0.4,0c1.1,0,2,0.6,2.1,1.5c0.1,0.6-0.3,1.6-1.2,1.8
					c0.5,0.4,0.7,1.2,0.5,1.9c-0.2,0.6-0.8,1.3-1.8,1.3l0,0c-0.2,0-0.3,0-0.5-0.1c-0.2,0.8-1,1.7-2,1.7c-0.2,0-0.5,0-0.7-0.1
					c-0.1-0.1-0.2-0.1-0.3-0.2c-0.2-0.1-0.3-0.3-0.6-0.3c-0.1,0-0.2,0-0.2,0c0,0.4-0.1,0.8-0.3,1.1C75.1,27.8,74.6,28,74,28z
					 M72.8,27.4L72.8,27.4c0.3,0.3,0.7,0.5,1.2,0.5c0.5,0,1-0.2,1.2-0.5c0.2-0.3,0.3-0.6,0.3-1l0-0.1l0,0c0.1,0,0.2-0.1,0.3-0.1
					c0.3,0,0.5,0.2,0.7,0.3c0.1,0.1,0.2,0.2,0.3,0.2c0.2,0.1,0.4,0.1,0.6,0.1c0.9,0,1.8-0.9,1.9-1.7l0-0.1l0.1,0
					c0.2,0,0.4,0.1,0.5,0.1l0,0c0.9,0,1.5-0.6,1.6-1.2c0.2-0.7,0-1.4-0.5-1.8L81,22.2l0.2,0c0.9-0.1,1.3-1.1,1.2-1.7
					c-0.1-0.8-0.9-1.4-2-1.4c-0.1,0-0.2,0-0.4,0c-0.2,0-0.3,0.1-0.6,0.2c-0.1,0-0.2,0.1-0.2,0.2c-1,0.9-0.4,2-0.3,2.2l0.1,0.1
					l-0.1,0c-0.2,0-0.3-0.1-0.5-0.1l0,0l0,0c0-0.1-0.1-0.2-0.1-0.3c-0.2-0.4-0.9-0.8-1.4-0.8l0,0c-0.6,0-1,0.3-1.1,0.3l0,0l0,0
					c-0.2-0.1-0.3-0.3-0.5-0.3c-0.2-0.1-0.4-0.1-0.6-0.1c-0.5,0-0.9,0.2-1.4,0.6c-0.7,0.5-0.6,1.4-0.5,1.6l0,0.1l0,0
					c0,0-0.1,0.1-0.2,0.1L72,22.8l0.2-0.3c0.1-0.1,0.2-0.5,0-1.3c-0.2-0.7-0.9-0.9-1.4-0.9c-0.2,0-0.4,0-0.5,0h0l-0.2,0l0.1-0.1
					c0,0,0.1-0.1,0.1-0.2c0-0.1,0.1-0.1,0.1-0.2c0-0.2,0-0.3,0-0.5c0-0.4-0.1-0.7-0.3-1c-0.3-0.3-0.7-0.5-1.3-0.5
					c-0.2,0-0.5,0-0.7,0.1c-0.9,0.3-1.2,1.2-1.2,1.3l0,0.1l-0.1-0.1c-0.4-0.5-0.8-0.7-1.4-0.7c-0.6,0-1.2,0.3-1.3,0.4l-0.1,0l0-0.1
					l0,0c0.1-0.3,0-0.9-0.3-1.3c-0.3-0.3-0.7-0.5-0.9-0.5l-0.2,0l0.2-0.1c0.4-0.1,0.9-0.6,1.1-1.3c0.1-0.4,0.1-0.9-0.4-1.5
					c-0.5-0.5-1.2-0.6-1.9-0.4c-0.7,0.2-1.4,0.7-1.2,1.7l0,0.1l-0.1,0c-0.8,0-1.4,0.5-1.5,1.3c-0.1,0.8,0.2,1.8,1,2.1l0.2,0.1
					c0.1,0,0.2,0,0.3,0v0.1c-0.3,0-0.6,0.1-0.8,0.4c-0.2,0.2-0.3,0.5-0.3,0.9c0,0.3,0.1,0.7,0.3,0.9c0.2,0.3,0.5,0.4,0.9,0.4h0v0.1
					h0c-0.4,0-0.7-0.2-1-0.5c-0.2-0.3-0.3-0.6-0.3-1c0-0.4,0.1-0.7,0.3-0.9c0.1-0.1,0.2-0.2,0.4-0.3c-0.5,0.1-0.9,0.5-0.9,1.1
					c0,0.6,0.3,1.4,0.9,1.6l0.1,0l-0.1,0.1c-0.6,0.4-0.7,1.1-0.5,1.6c0.2,0.6,0.7,1.2,1.5,1.2c0.1,0,0.3,0,0.4,0l0.1,0l0,0.1
					c0,0.4,0.1,0.7,0.4,1c0.3,0.4,0.9,0.6,1.4,0.6c0.5,0,1-0.2,1.2-0.5l0.1-0.1l0,0.1c0.1,0.8,0.8,1.3,1.7,1.3c0.3,0,0.7-0.1,1-0.3
					l0.1,0l0,0.1c0.2,0.6,0.9,1,1.7,1c0.6,0,1.1-0.2,1.3-0.7l0.1-0.1l0.1,0.1c0.2,0.3,0.7,0.5,1.4,0.5
					C72.1,27.8,72.5,27.7,72.8,27.4L72.8,27.4z M68.7,27.8c-0.8,0-1.3-0.6-1.4-1.1c-0.1-0.5,0.1-1.2,0.8-1.4l0,0l0,0
					c0.2,0.1,0.3,0.3,0.5,0.4c0.3,0.3,0.6,0.6,1.1,0.6l0.1,0l0,0.1c0,0.1,0,0.2,0,0.3c0,0.1,0.1,0.3,0,0.4l0,0
					c-0.2,0.2-0.4,0.4-0.7,0.6l0,0C69,27.8,68.9,27.8,68.7,27.8z M68.1,25.4c-0.6,0.2-0.8,0.8-0.7,1.3c0.1,0.5,0.5,1,1.3,1
					c0.1,0,0.3,0,0.4,0c0.2-0.1,0.4-0.3,0.6-0.5c0-0.2,0-0.3,0-0.4c0-0.1,0-0.2,0-0.3c-0.6,0-0.9-0.3-1.1-0.6
					C68.4,25.6,68.3,25.5,68.1,25.4z M74.1,27.7c-0.6,0-1.2-0.3-1.5-0.8c-0.1-0.3-0.2-0.7,0.2-1.3l0,0l0,0c0.1,0,0.2,0,0.3,0
					c0.2,0,0.5,0,0.7-0.2l0,0l0,0c0.1,0.1,0.2,0.2,0.3,0.2c0.3,0.3,0.5,0.5,1,0.6l0,0l0,0c0.1,0.4,0,0.8-0.2,1
					C74.9,27.6,74.5,27.7,74.1,27.7z M73,25.8c-0.3,0.4-0.3,0.8-0.2,1.1c0.2,0.4,0.8,0.7,1.3,0.7c0.4,0,0.7-0.1,0.9-0.3
					c0.2-0.2,0.3-0.5,0.2-0.9c-0.5-0.1-0.8-0.3-1.1-0.6c-0.1-0.1-0.1-0.1-0.2-0.2c-0.2,0.2-0.5,0.2-0.7,0.2
					C73.1,25.8,73,25.8,73,25.8z M71.6,27.7c-0.7,0-1.5-0.4-1.5-1.3v-0.1l0.1,0c0.8,0,1.3-0.4,1.5-1.1l0-0.1l0.1,0
					c0.1,0,0.2,0.1,0.3,0.2c0.2,0.1,0.3,0.2,0.6,0.2l0.1,0l-0.1,0.1c-0.3,0.3-0.4,1.2-0.1,1.5l0,0l0,0C72.3,27.5,72,27.7,71.6,27.7z
					 M70.2,26.5c0,0.7,0.7,1.1,1.4,1.1c0.3,0,0.7-0.1,0.9-0.3c-0.3-0.4-0.3-1.2,0-1.6c-0.2,0-0.4-0.1-0.5-0.2
					c-0.1-0.1-0.2-0.1-0.2-0.1C71.5,26,71,26.4,70.2,26.5z M66,27c-0.5,0-0.9-0.2-1.2-0.5c-0.2-0.2-0.4-0.6-0.3-1.3
					c0.2-0.4,0.5-0.5,0.8-0.7c0.1,0,0.2-0.1,0.3-0.1l0,0l0,0c0.3,0.3,0.9,0.5,1.6,0.5c0.4,0,0.7-0.1,0.9-0.2l0.1-0.1l0,0.1
					c0,0.4-0.3,0.5-0.5,0.6c-0.1,0.1-0.3,0.1-0.4,0.2c0,0.1-0.1,0.2-0.1,0.3c-0.1,0.2-0.2,0.4-0.2,0.8l0,0l0,0
					C66.7,26.8,66.4,27,66,27z M65.7,24.5c-0.1,0-0.2,0.1-0.2,0.1c-0.3,0.1-0.6,0.3-0.7,0.6c-0.1,0.6,0.1,0.9,0.2,1.1
					c0.3,0.3,0.7,0.5,1.1,0.5c0.3,0,0.6-0.1,0.9-0.3c0-0.3,0.1-0.5,0.2-0.8c0-0.1,0.1-0.2,0.1-0.3l0,0c0.1-0.1,0.3-0.2,0.4-0.3
					c0.2-0.1,0.4-0.2,0.4-0.4c-0.2,0.1-0.5,0.2-0.8,0.2C66.6,25,66,24.8,65.7,24.5z M77.5,26.7c-0.3,0-0.7-0.1-1-0.5l0-0.1l0.1,0
					c0.6-0.2,0.9-0.7,0.9-1.4l0-0.1l0.1,0c0.4,0,0.9-0.1,1.2-0.3l0,0l0,0c0.4,0.4,0.5,0.8,0.3,1.3C78.8,26.3,78.1,26.7,77.5,26.7z
					 M76.6,26.2c0.3,0.3,0.6,0.4,0.8,0.4c0.6,0,1.3-0.5,1.5-1c0.2-0.4,0.1-0.8-0.3-1.1c-0.3,0.2-0.7,0.2-1.2,0.3
					C77.5,25.5,77.2,25.9,76.6,26.2z M75.7,26.2c-0.7,0-1.3-0.3-1.5-0.7l0,0l0,0c0.3-0.5,0.6-1.1,0.3-1.7l0-0.1l0.1,0
					c0.1,0,0.1-0.1,0.2-0.1c0.3-0.1,0.7-0.3,0.9-0.5l0.1-0.1l0,0.1c0.2,0.9,0.6,1.3,1.3,1.5l0,0l0,0c0.1,0.4,0.1,0.8-0.1,1
					C76.7,26,76.2,26.2,75.7,26.2z M74.3,25.5c0.2,0.3,0.8,0.6,1.4,0.6c0.5,0,1-0.2,1.2-0.5c0.2-0.2,0.2-0.5,0.1-0.9
					c-0.7-0.1-1.2-0.6-1.4-1.4c-0.2,0.2-0.5,0.4-0.8,0.5c-0.1,0-0.1,0-0.2,0.1C74.9,24.4,74.5,25,74.3,25.5z M70.2,26.2
					c-0.6,0-1.2-0.3-1.5-0.6c-0.2-0.3-0.3-0.6-0.3-0.9c0-0.2,0.1-0.3,0.2-0.4c0.1-0.1,0.2-0.2,0.2-0.4l0,0c0.2-0.3,0.5-0.3,0.7-0.3
					c0.2,0,0.3,0,0.5,0c0.2,0,0.4,0,0.6,0c0.2,0,0.4,0,0.5-0.1l0.2-0.1l-0.1,0.2c-0.2,0.3,0,0.6,0.1,1c0.1,0.2,0.1,0.4,0.1,0.5
					c0,0.3-0.1,0.6-0.3,0.8C70.9,26,70.6,26.2,70.2,26.2z M69,23.8c-0.1,0.2-0.2,0.4-0.2,0.5c-0.1,0.1-0.1,0.2-0.2,0.3
					c-0.1,0.3,0,0.6,0.2,0.8c0.3,0.4,0.9,0.6,1.4,0.6c0.4,0,0.7-0.1,0.9-0.3c0.2-0.2,0.3-0.4,0.3-0.7c0-0.1-0.1-0.3-0.1-0.5
					c-0.1-0.3-0.2-0.6-0.1-0.9c-0.1,0-0.3,0.1-0.5,0.1c-0.2,0-0.4,0-0.6,0c-0.2,0-0.4,0-0.5,0C69.3,23.6,69.1,23.6,69,23.8z
					 M63,26.1C62.9,26.1,62.9,26.1,63,26.1c-0.7,0-1.3-0.5-1.5-1.1c-0.2-0.5,0-1,0.5-1.4l0,0l0,0c0.1,0,0.3,0.1,0.5,0.1
					c0.4,0,0.7-0.1,1-0.2l0.1,0l0,0.1c0.1,0.5,0.5,0.8,1.2,1l0.1,0l-0.1,0.2C64.3,25.4,63.9,26.1,63,26.1z M62,23.7
					c-0.4,0.3-0.6,0.8-0.4,1.3c0.2,0.6,0.7,1,1.3,1c0.9,0,1.3-0.6,1.6-1.3l0,0c-0.4-0.1-1-0.4-1.2-1c-0.3,0.1-0.6,0.2-0.9,0.2
					C62.3,23.8,62.1,23.8,62,23.7z M73,25.5c-0.6,0-1.3-0.3-1.5-0.9c-0.3-0.9,0.4-1.5,1-1.9l0.1,0l0,0.1c0.4,0.5,0.9,0.8,1.7,1l0,0
					l0,0c0.2,0.6,0.1,1-0.1,1.3C73.9,25.3,73.5,25.5,73,25.5z M72.5,22.8c-0.5,0.4-1.2,1-0.9,1.7c0.2,0.6,0.9,0.9,1.4,0.9
					c0.5,0,0.9-0.2,1.1-0.5c0.2-0.3,0.2-0.7,0.1-1.1C73.4,23.6,72.9,23.3,72.5,22.8z M80,25.1V25c0.4,0,0.8-0.2,1-0.4
					c0.2-0.3,0.3-0.6,0.3-1c0-0.6-0.4-1.3-1.2-1.3v-0.1c0.9,0,1.4,0.7,1.4,1.4c0,0.4-0.1,0.8-0.4,1.1C80.9,24.9,80.5,25.1,80,25.1z
					 M67,24.7c-0.6,0-1.4-0.3-1.6-1.2c-0.1-0.4,0-0.8,0.3-1.1c0.3-0.3,0.7-0.5,1.1-0.4c0.2,0,0.3,0.2,0.5,0.3
					c0.2,0.2,0.4,0.4,0.8,0.4c0.1,0,0.1,0,0.2,0l0,0l0,0c0.4,0.6,0.3,1.1,0.1,1.3C68.2,24.4,67.6,24.7,67,24.7z M66.6,22.1
					c-0.3,0-0.6,0.1-0.8,0.4c-0.2,0.3-0.3,0.6-0.2,1c0.2,0.8,0.9,1.1,1.4,1.1c0.6,0,1.1-0.3,1.3-0.6c0.2-0.3,0.1-0.7-0.1-1.2
					c0,0-0.1,0-0.1,0c-0.4,0-0.6-0.2-0.9-0.4c-0.2-0.1-0.3-0.2-0.4-0.3C66.7,22.1,66.7,22.1,66.6,22.1z M60.7,24.5
					c-0.5,0-1-0.4-1.2-0.7l0,0l0,0c0,0,0,0,0,0l0,0c-0.2-0.4-0.2-0.8,0-1.2c0.2-0.4,0.7-0.7,1.2-0.6l0,0l0,0
					c0.1,0.7,0.3,1.3,0.9,1.5l0.1,0l-0.1,0.2c-0.2,0.2-0.4,0.5-0.5,0.8l0,0l0,0C61,24.5,60.9,24.5,60.7,24.5z M59.7,23.8
					c0.2,0.3,0.6,0.6,1.1,0.6c0.1,0,0.3,0,0.4-0.1c0.1-0.3,0.3-0.6,0.5-0.8l0,0c-0.6-0.2-0.8-0.8-0.9-1.5c-0.4-0.1-0.8,0.2-1,0.6
					c-0.2,0.3-0.2,0.6,0,0.9c0.1-0.2,0.2-0.2,0.2-0.2c0.2,0,0.3,0.2,0.4,0.5l0,0l0,0c0,0-0.1,0.1-0.2,0.1c-0.1,0-0.1,0-0.2-0.1
					C59.7,23.8,59.7,23.8,59.7,23.8C59.7,23.8,59.7,23.8,59.7,23.8z M59.7,23.7c0.1,0,0.1,0,0.2,0.1c0.1,0,0.1,0.1,0.2,0.1
					c-0.1-0.2-0.2-0.4-0.3-0.4C59.7,23.4,59.6,23.5,59.7,23.7L59.7,23.7C59.6,23.7,59.7,23.7,59.7,23.7z M77.7,24.5
					c-0.7,0-1.3-0.3-1.6-0.8c-0.2-0.4-0.3-0.9,0-1.3c0.2-0.4,0.9-0.8,1.6-0.8l0,0c0.7,0,1.6,0.1,1.6,1.1c0.1,0.9-0.5,1.6-1.3,1.8
					C77.9,24.5,77.8,24.5,77.7,24.5z M77.7,21.7L77.7,21.7c-0.6,0.1-1.3,0.4-1.5,0.8c-0.2,0.4-0.2,0.8,0,1.1
					c0.3,0.5,1.1,0.9,1.8,0.7c0.9-0.1,1.3-0.9,1.2-1.6C79.2,21.9,78.5,21.7,77.7,21.7L77.7,21.7z M64.9,24.4c-0.6,0-1.1-0.4-1.2-1
					l0,0l0,0c0.4-0.5,0.7-1,0.6-1.9l0-0.2l0.1,0.2c0.2,0.2,0.6,0.4,1.1,0.4c0.4,0,0.9-0.1,1.1-0.2l0.1,0l0,0.1c0,0.1,0,0.1,0,0.1
					c-0.1,0.1-0.2,0.1-0.3,0.1c-0.1,0-0.2,0-0.2,0C66,22,65.9,22,65.8,22.1c-0.1,0.1-0.2,0.2-0.3,0.2c-0.4,0.5-0.2,1.5,0,1.8l0,0.1
					l-0.1,0C65.3,24.3,65.1,24.4,64.9,24.4z M63.8,23.4c0.1,0.5,0.6,0.8,1.1,0.8c0.2,0,0.4,0,0.5-0.1c-0.2-0.4-0.4-1.4,0-1.9l0,0
					l0,0c0.1,0,0.2-0.1,0.3-0.2c0.1,0,0.1-0.1,0.2-0.1c-0.1,0-0.3,0-0.4,0c-0.3,0-0.8,0-1.1-0.3C64.5,22.5,64.1,23,63.8,23.4z
					 M68.8,23.6C68.8,23.6,68.8,23.5,68.8,23.6l-0.1,0l0,0c0.1-0.2,0-0.3,0-0.5c-0.1-0.2-0.1-0.4,0.1-0.5l0,0l0,0
					c0.1,0.1,0.2,0.2,0.2,0.3c0.1,0.2,0.2,0.3,0.4,0.4l0.1,0.1l-0.1,0c-0.1,0-0.1,0.1-0.2,0.1C69.1,23.5,68.9,23.6,68.8,23.6z
					 M68.8,22.6c0,0.1,0,0.2,0,0.3c0,0.1,0.1,0.3,0.1,0.5c0.1,0,0.2-0.1,0.2-0.1c0,0,0.1-0.1,0.1-0.1c-0.1-0.1-0.2-0.2-0.3-0.4
					C68.9,22.8,68.8,22.7,68.8,22.6z M62.5,23.5c-0.3,0-0.7-0.1-0.9-0.3C61.2,23,61,22.6,61,22.1c-0.1-0.5,0.1-0.9,0.3-1.2
					c0.2-0.2,0.5-0.3,1-0.4c0.1,0,0.2,0,0.3,0c0.3,0,0.5,0.1,0.8,0.2c0.2,0.1,0.6,0.4,0.7,0.8c0.1,0.5,0.1,1-0.2,1.4
					C63.5,23.3,63,23.5,62.5,23.5z M62.6,20.6c-0.1,0-0.2,0-0.3,0c-0.5,0.1-0.8,0.1-1,0.3c-0.2,0.3-0.3,0.7-0.3,1.1
					c0.1,0.5,0.3,0.9,0.5,1.1c0.3,0.2,0.6,0.3,0.9,0.3c0.5,0,1-0.2,1.3-0.7c0.3-0.4,0.3-0.8,0.2-1.2c-0.1-0.3-0.5-0.6-0.6-0.7
					C63.1,20.7,62.9,20.6,62.6,20.6z M74.2,23.4c-0.5,0-1-0.2-1.3-0.5c-0.3-0.3-0.4-0.8-0.3-1.3c0.1-0.5,1.1-1.2,1.9-1.2
					c0.4,0,0.8,0.2,1.1,0.6c0.3,0.4,0.4,1,0.2,1.4C75.6,23.1,74.9,23.4,74.2,23.4z M74.5,20.5c-0.7,0-1.6,0.6-1.7,1.1
					c-0.1,0.5,0,0.9,0.2,1.2c0.3,0.3,0.7,0.5,1.2,0.5c0.6,0,1.3-0.3,1.5-0.9c0.1-0.4,0.1-0.9-0.2-1.3C75.3,20.7,74.9,20.5,74.5,20.5
					C74.5,20.5,74.5,20.5,74.5,20.5z M70.4,23.4c-0.5,0-0.9-0.2-1.2-0.6c-0.3-0.4-0.3-0.9-0.1-1.3c0.2-0.5,0.7-0.8,1.3-0.9
					c0.6-0.1,1.1,0.1,1.4,0.4c0.2,0.2,0.3,0.6,0.3,1C72.1,22.9,71.2,23.4,70.4,23.4z M70.7,20.7c-0.1,0-0.2,0-0.3,0
					c-0.6,0.1-1,0.4-1.2,0.8c-0.2,0.4-0.1,0.8,0.1,1.2c0.2,0.4,0.6,0.6,1.1,0.6c0.7,0,1.6-0.5,1.6-1.3c0-0.4-0.1-0.7-0.3-0.9
					C71.5,20.8,71.1,20.7,70.7,20.7z M68.1,22.4c-0.6,0-1.1-0.3-1.2-0.7c-0.1-0.3,0-0.5,0.1-0.8c0.1-0.2,0.2-0.4,0.2-0.6l0-0.1
					l0.1,0.1c0.1,0,0.1,0.1,0.2,0.1c0.4,0.3,0.8,0.6,1.5,0.6l0.1,0l0,0.1c-0.2,0.3-0.3,0.7-0.2,1.2l0,0l0,0
					C68.6,22.4,68.4,22.4,68.1,22.4z M67.3,20.4c0,0.2-0.1,0.4-0.2,0.6c-0.1,0.2-0.2,0.4-0.1,0.7c0.1,0.4,0.6,0.6,1.1,0.6
					c0.2,0,0.4,0,0.6-0.1c0-0.5,0.1-0.8,0.2-1.1C68.2,21.1,67.8,20.7,67.3,20.4C67.4,20.4,67.3,20.4,67.3,20.4z M76.2,22.2L76.2,22
					l0,0c0-0.4-0.2-0.8-0.5-1.1l0,0l0.1,0c0.3-0.2,0.6-0.3,1-0.3c0.6,0,1.2,0.4,1.4,0.9l0,0.1l-0.2,0c-0.7,0.1-1.4,0.1-1.6,0.6
					L76.2,22.2z M75.9,20.9c0.2,0.3,0.4,0.6,0.4,1c0.3-0.4,1-0.5,1.6-0.5l0.1,0c-0.2-0.4-0.7-0.7-1.2-0.7
					C76.4,20.6,76.1,20.7,75.9,20.9z M80.5,22.1C80.4,22.1,80.4,22.1,80.5,22.1c-0.5,0-1-0.2-1.2-0.4c-0.4-0.5-0.5-1-0.3-1.5
					c0.3-0.6,1-1,1.7-1c0.4,0,0.7,0.1,1,0.3c0.3,0.2,0.4,0.5,0.5,0.9c0,0.2,0,0.4,0,0.6c0,0,0,0,0,0l0,0c0,0.1-0.1,0.3-0.2,0.4
					c-0.2,0.3-0.6,0.6-1.2,0.6c0,0-0.1,0-0.1,0C80.5,22.1,80.5,22.1,80.5,22.1z M80.6,19.3c-0.7,0-1.4,0.4-1.6,1
					c-0.2,0.4-0.1,0.9,0.3,1.3c0.2,0.3,0.6,0.4,1.1,0.4c0.1,0,0.1,0,0.1,0c0,0,0.1,0,0.1,0c0.5-0.1,0.9-0.3,1.1-0.6
					c0.1-0.1,0.2-0.2,0.2-0.4l0,0c0,0,0,0,0,0c0-0.2,0.1-0.4,0-0.6c0-0.4-0.2-0.6-0.4-0.8C81.3,19.4,81,19.3,80.6,19.3z M65.6,21.7
					c-0.9,0-1.6-0.8-1.7-1.5c-0.1-0.6,0.2-1.2,1-1.4c0.2-0.1,0.4-0.1,0.6-0.1c0.8,0,1.3,0.6,1.5,1.2c0.2,0.6,0,1.3-0.5,1.6
					C66.2,21.6,65.9,21.7,65.6,21.7z M65.5,18.8c-0.2,0-0.4,0-0.6,0.1c-0.7,0.2-1,0.7-0.9,1.3c0.1,0.7,0.8,1.4,1.6,1.4
					c0.3,0,0.6-0.1,0.8-0.3c0.4-0.3,0.6-0.9,0.4-1.4C66.7,19.4,66.2,18.8,65.5,18.8z M68.9,20.8c-0.5,0-1-0.2-1.4-0.6
					c-0.3-0.3-0.4-0.7-0.3-1.2c0.1-0.4,0.5-0.8,1.3-1c0.1,0,0.3,0,0.4,0c0.9,0,1.3,0.6,1.4,1.2c0.1,0.7-0.3,1.4-1.1,1.6
					C69.1,20.8,69,20.8,68.9,20.8z M68.9,18.1c-0.1,0-0.2,0-0.4,0c-0.7,0.1-1.1,0.5-1.2,0.9c-0.1,0.5,0.1,0.9,0.2,1.1
					c0.3,0.4,0.8,0.6,1.3,0.6c0.1,0,0.2,0,0.3,0c0.7-0.1,1.1-0.9,1-1.4C70.1,18.7,69.8,18.1,68.9,18.1z M63.8,20.8l-0.2-0.1
					c-0.2-0.1-0.4-0.3-0.8-0.3l-0.1,0l0.1-0.1c0.1-0.1,0.2-0.2,0.4-0.2c0.1,0,0.2-0.1,0.3-0.2l0.1-0.1l0,0.1
					c0.1,0.1,0.1,0.3,0.1,0.4c0,0.1,0,0.2,0,0.3L63.8,20.8z M63,20.3c0.2,0,0.4,0.1,0.6,0.2c0-0.1,0-0.1,0-0.2c0-0.1,0-0.2,0-0.3
					c-0.1,0.1-0.2,0.1-0.3,0.2C63.1,20.2,63,20.2,63,20.3z M62.5,20.1c-0.8,0-1.6-0.5-1.7-1.4c0-0.4,0.1-0.8,0.3-1.1
					c0.3-0.3,0.8-0.5,1.3-0.5c0.6,0,1.3,0.2,1.6,0.9l0,0c0,0.4,0,0.7-0.1,1C63.7,19.8,63.1,20.1,62.5,20.1z M62.3,17.3
					c-0.5,0-0.9,0.2-1.2,0.5c-0.2,0.3-0.3,0.6-0.3,1c0.1,0.8,0.9,1.3,1.6,1.3c0.6,0,1.1-0.3,1.2-0.9c0.1-0.3,0.1-0.5,0.1-1
					C63.5,17.6,62.8,17.3,62.3,17.3z M60.5,18.9c-1.1,0-1.6-0.9-1.6-1.7c0-0.4,0.1-0.8,0.4-1c0.3-0.3,0.7-0.5,1.2-0.5v0.1
					c-0.4,0-0.8,0.1-1.1,0.4c-0.2,0.2-0.3,0.6-0.3,0.9c0,0.7,0.5,1.5,1.5,1.5V18.9z M62.3,16.9c-0.8,0-1.8-0.5-1.8-1.4
					c-0.1-0.9,0.5-1.5,1.2-1.6c0.7-0.2,1.3,0,1.6,0.4c0.3,0.4,0.4,0.9,0.4,1.5C63.6,16.5,63.1,16.9,62.3,16.9z M62.2,13.9
					c-0.1,0-0.3,0-0.5,0.1c-0.6,0.1-1.2,0.7-1.1,1.5c0.1,0.8,1,1.3,1.7,1.3c0.7,0,1.2-0.4,1.2-1c0.1-0.6,0-1.1-0.3-1.4
					C63,14.1,62.6,13.9,62.2,13.9z"/>
			</g>
		</g>
		<path class="st1" d="M86.2,10.7c-0.5-0.2-1.1-0.2-1.7-0.3c-0.1,0-0.3,0-0.3-0.1c0-0.1,0.2-0.1,0.2-0.2c0-0.1,0-0.1,0-0.2
			c0,0,0.1-0.1,0.2-0.2c0.4-0.4,0.5-0.9,0.8-1.3c0.1-0.1,0.2-0.1,0.2-0.2c0-0.1-0.3-0.1-0.4-0.2c-0.5-0.1-1.1-0.2-1.6-0.2
			c-0.8-0.1-1.6,0-2.3,0.1c-1.2,0.3-2.1,1-2.3,2.3c0,0.1,0,0.2-0.2,0.1c-0.1,0-0.1-0.3-0.1-0.4c0-0.5,0-1,0-1.4
			c0.1-0.5,0.3-1.1,0.5-1.5c0.4-0.9,1-1.6,1.6-2.3c0.6-0.7,1.2-1.4,1.9-2c0.5-0.5,1-1,1.4-1.5c0.1-0.2,0.3-0.4,0.4-0.6
			c0,0,0-0.1,0-0.1c0.1-0.1,0.2-0.1,0.2-0.2c-0.1-0.1-0.2-0.1-0.3-0.1c-0.1,0-0.3-0.1-0.4-0.1c-0.1,0-0.2,0.1-0.3,0.1
			c-0.3,0.1-0.6,0.4-0.8,0.5c-0.2,0.1-0.4,0.2-0.6,0.4c-0.2,0.1-0.4,0.3-0.6,0.4c-0.1,0.1-0.3,0.1-0.4,0.1c-0.6,0.2-1,0.5-1.5,0.8
			c-0.2,0.1-0.4,0.3-0.7,0.3C79,3,78.9,3,78.8,3c-0.1,0-0.2,0.1-0.3,0.1c-0.4,0.2-0.8,0.5-1.3,0.6c-0.1,0-0.2,0.1-0.4,0.1
			c-0.2,0-0.4,0-0.4-0.1c0,0,0-0.2,0.1-0.2c0.2-0.5,0-1-0.2-1.4c-0.2-0.3-0.4-0.6-0.6-0.9c-0.1-0.1-0.2-0.2-0.3-0.3
			c-0.9-0.4-1.8-1-3.1-1v0h-0.1c-0.4,0-0.8,0.1-1.2,0.2c-0.1,0-0.3,0-0.4,0.1c0,0.1,0.1,0.1,0.1,0.2c0.4,0.3,0.5,0.9,0.7,1.3
			c0.3,0.5,0.7,0.9,1.1,1.2c0.4,0.3,0.8,0.7,1.3,1c0.4,0.2,0.9,0.3,1.5,0.3c0.1,0,0.2,0,0.3,0c0.1,0,0.2,0,0.2,0
			c0,0.1-0.1,0.1-0.1,0.1c-0.8,0.3-1.6,0.6-2.4,0.9c-0.1,0-0.3,0.1-0.4,0.1c-0.1,0-0.1-0.1-0.1-0.1c-0.2-0.2-0.5-0.3-0.8-0.4
			c0,0-0.1-0.1-0.1-0.1c0-0.1,0-0.2,0.1-0.2c0.1-0.2,0.1-0.5,0.1-0.8c-0.1-1-0.8-1.6-1.5-2.1c-0.4-0.3-1-0.6-1.5-0.9
			c-0.4-0.2-0.8-0.3-1.3-0.4c-0.1,0-0.4-0.1-0.5,0c0,0.1,0,0.1,0,0.2c0.1,0.4,0.1,0.9,0,1.3c0,0.1,0,0.2,0,0.2
			c0.3,1.1,0.9,1.8,1.6,2.5c0.3,0.3,0.7,0.7,1.2,0.8c0.3,0.1,0.6,0.1,0.9,0.1c0.2,0,0.4-0.1,0.6-0.2c0,0,0.1-0.1,0.2-0.1
			c0.1,0,0.2,0.1,0.2,0.1c0.2,0.1,0.3,0.1,0.4,0.2c0.1,0,0.2,0.1,0.2,0.1c0,0.1-0.4,0.1-0.4,0.2c-1,0.3-2,0.5-3.2,0.7
			c-0.1,0-0.2,0.1-0.3,0c0,0,0,0,0-0.1C68.3,6.1,68,6,67.7,5.9c-0.1,0-0.2-0.1-0.2-0.1c0,0,0.1-0.2,0.1-0.2c0.2-0.5,0.2-1,0-1.5
			c0-0.1-0.1-0.3-0.2-0.2c-0.1-0.2-0.3-0.3-0.4-0.5c-0.4-0.5-0.8-1-1.3-1.4c-0.3-0.2-0.7-0.5-1.2-0.6c-0.3-0.1-0.8-0.1-1.2-0.2
			c-0.1,0-0.3-0.1-0.3-0.1c-0.1,0,0,0.3,0,0.4c0.1,0.4,0.1,0.9,0.1,1.3c0.1,0.6,0.3,1,0.6,1.3c0.5,0.6,1.1,1.1,1.6,1.7
			C65.2,5.9,65.3,6,65.4,6c0.2,0.1,0.6,0.2,0.9,0.1c0.3-0.1,0.6-0.2,0.9-0.1c0.2,0,0.4,0.3,0.6,0.4c0,0,0.1,0,0.1,0.1
			c0,0.1-0.2,0.1-0.3,0.1c-0.7,0.1-1.4,0.1-2.2,0.1c-0.1,0-0.3,0-0.4,0c0,0-0.1-0.1-0.1-0.1c-0.1-0.1-0.3-0.2-0.5-0.2
			c-0.2-0.1-0.5-0.2-0.6-0.3c0.1-1.2-0.6-1.9-1.2-2.4c-0.6-0.5-1.2-0.9-2-1.2c-0.1,0-0.2-0.1-0.3-0.1c-0.1,0-0.2,0-0.2,0
			c-0.5,0-1,0-1.4-0.1c-0.1,0-0.1-0.1-0.2,0c-0.1,0.1,0,0.4,0.1,0.5c0.3,1.2,0.7,2.2,1.5,3c0.2,0.2,0.5,0.4,0.7,0.5
			c0.3,0.2,0.6,0.3,0.9,0.4c0.3,0.1,0.7,0.2,1.1,0.2c0.3,0,0.5-0.1,0.7-0.2c0.1,0,0.1-0.1,0.2-0.1c0.1,0,0.2,0.1,0.3,0.1
			c0,0,0.2,0,0.2,0.1c0,0.1-0.2,0.1-0.3,0.1c-1.4,0.1-2.5,0.7-3.5,1.2c-0.1,0-0.2,0.1-0.2,0.1c0,0-0.1,0-0.2-0.1
			c-0.2-0.1-0.4-0.1-0.6-0.1c-0.3,0-0.5,0.1-0.8,0.2c-0.3,0.1-0.6,0.3-0.9,0.5c-0.1,0.1-0.2,0.1-0.3,0.2c0,0,0,0,0,0
			c-0.1,0.1-0.1,0.3-0.2,0.4c-0.4,0.8-0.9,1.4-1.2,2.3c0,0.1-0.1,0.2-0.1,0.3c0,0.1,0,0-0.1,0.1V12c0,0,0,0,0,0c0,0,0,0.2,0,0.2
			c0,0.4,0.1,0.8,0.2,1.2c0,0.1,0,0.4,0.1,0.5c0.1,0,0.2,0,0.3-0.1c0.7-0.2,1.3-0.6,1.8-1c0.5-0.4,1-0.9,1.4-1.5
			c0,0,0.1-0.2,0.2-0.2c0.1,0,0,0.2,0.1,0.3c0,0.2,0,0.4,0,0.6c0,0.1-0.1,0.2-0.1,0.2c0,0.1,0.4,0.1,0.6,0.1c0.2,0,0.4,0,0.6,0
			c0.4,0,0.7-0.2,1-0.3c0.7-0.3,1.2-0.6,1.7-0.9c0.2-0.2,0.5-0.4,0.7-0.6c0.2-0.2,0.4-0.5,0.6-0.7c0.3-0.6,0.1-1.4-0.2-1.8
			c0,0-0.1-0.1-0.1-0.2c0-0.1,0.1-0.1,0.1-0.2c0.1-0.1,0.3-0.5,0.4-0.5c0.2-0.1,0.5,0,0.8,0c0.7,0,1.4-0.1,2.1-0.2
			c0.1,0,0.1,0,0.2,0c0,0.1,0,0.1-0.1,0.2c0,0-0.1,0.1-0.2,0.1c-0.1,0-0.2,0-0.2,0c-0.5,0.1-0.9,0.3-1.3,0.7C66.3,8.2,66,8.6,65.7,9
			c0,0.1-0.1,0.1-0.1,0.2c0,0.1,0,0.1,0,0.2c0,0-0.1,0.1-0.1,0.1c-0.4,0.5-0.7,1.3-0.5,2.2c0,0.2,0.1,0.4,0.1,0.6
			c0,0.1,0,0.2,0.1,0.2c0.1,0.1,0.2,0,0.3,0c0.1,0,0.2-0.1,0.2-0.2c1.6-0.1,2.3-1.2,3.1-2.1c0.1-0.1,0.1-0.1,0.1-0.2
			c0-0.1,0-0.2,0-0.3c0-0.1,0.1-0.1,0.2-0.2c0.4-0.5,0.2-1.4-0.1-1.9c0-0.1-0.1-0.2-0.2-0.2c0,0-0.1-0.1-0.2-0.1c0,0-0.2,0-0.2-0.1
			c0-0.1,0.1-0.1,0.2-0.2c0-0.1,0-0.1,0-0.2C69.9,6.5,71,6.3,72,6c0.1,0,0.3-0.1,0.4-0.1c0,0.1-0.1,0.3-0.1,0.4
			c-0.8,0.1-1.6,0.3-1.8,1.1c0,0,0,0.1,0,0.2c0,0.1-0.1,0.1-0.1,0.2c-0.3,0.4-0.6,0.9-0.7,1.5c-0.2,0.7-0.1,1.6,0.3,2.1
			c0,0.1,0,0.2,0.1,0.3c0,0.1,0,0.2,0.1,0.2c0.1,0,0.2-0.1,0.3-0.1c0.6-0.3,1.2-0.4,1.6-0.9c0.1-0.1,0.1-0.2,0.2-0.3
			c0,0,0.1-0.1,0.1-0.1c0.1-0.1,0.2-0.1,0.2-0.2c0,0,0.1-0.1,0.1-0.1c0,0.1-0.1,0.2-0.1,0.3c-0.2,0.3-0.3,0.6-0.5,0.8
			c-0.2,0.4-0.5,0.7-0.8,1c-1.2,1.2-2.6,2.2-4.5,2.7c-0.5,0.1-1,0.2-1.5,0.3c-0.3,0-0.5,0-0.8-0.1c-0.2-0.1-0.5-0.2-0.7-0.2
			c0.1,0.3,0.2,0.5,0.3,0.8c0.1,0,0.1,0.1,0.2,0.1c0,0,0.2,0.1,0.2,0.1c0,0.1-0.2,0.2-0.3,0.3c-0.3,0.3-0.6,0.6-0.8,0.9
			c0.1,0.1,0.2,0.2,0.4,0.3c0,0,0,0.1,0.1,0.1c0,0,0.2-0.2,0.2-0.2c0.1-0.1,0.2-0.2,0.3-0.2c0,0,0.1-0.1,0.2-0.1
			c0.1,0.1,0,0.3,0,0.4c-0.1,0.1-0.5,1.2-0.5,1.3c0.2,0.1,0.5,0,0.7,0.1c0.1-0.4,0.4-1.8,0.5-2.2c0.3-0.3,0.8-0.4,1.4-0.6
			c0.1,0,0.1-0.1,0.2-0.1c0.1,0,0.3,0,0.4,0.1c0,0.6-0.1,1.1-0.4,1.5c-0.3,0.4-0.6,0.8-1,1c0.5,0.2,0.6,0.3,1.1,0.5
			c0.2-0.6,0.9-1.3,1-1.9c0.1-0.3,0.1-0.7,0.2-1c0.1-0.3,0.2-0.5,0.5-0.7c0.5-0.3,1.1-0.5,1.6-0.8c0.5-0.3,0.8-0.6,1.2-1
			c0,0,0.1-0.1,0.2-0.1c0.1,0.1,0,0.1,0,0.2c-0.3,1.9-1.2,3.3-2.6,4.1c-0.1,0.1-0.2,0.1-0.3,0.2c0.2,0,0.3,0,0.5,0
			c0.1,0,0.2,0.1,0.3,0.1c0.1,0,0.2-0.1,0.2-0.2c0.2-0.2,0.7-0.3,1-0.1c0.1,0.1,0.2,0.3,0.3,0.5c0,0.2,0,0.3,0,0.5
			c0,0.8-0.2,1.6-0.2,1.6l0,0c0,0,0,0,0,0.1c0,0,0,0,0,0c0,0,0.1,0,0.1,0c0.1,0,0.1,0,0.2,0c0,0,0,0,0,0c0,0.1,0,0.1,0,0.1
			c0,0,0.3,0,0.3,0s-0.1-1.8,0.1-1.6c0.1,0.1,0.4,0.6,0.6,0.9C72,20,72,20,72,20.1c0.1,0.5,0,0.9,0,0.9s0,0,0,0c0,0.1,0,0.2,0,0.3
			c0.2-0.1,0.4,0.6,0.5,0.6c0-0.1-0.2-1.1-0.1-1.2c0.1,0,0.2,0.1,0.2,0.1c0.1,0,0.1,0.1,0.1,0.2c0.2-0.1,0.3-0.2,0.5-0.2
			c0,0,0,0,0,0l0,0c0,0-0.6-0.3-0.7-0.7c-0.1-0.4,0-0.7,0.6-0.2c0.6,0.5,0.5,0.7,0.5,0.7l-0.1,0c0,0,0,0,0,0
			c0.2-0.1,0.5-0.2,0.7-0.3c-0.1-0.1-0.2-0.2-0.3-0.3c-0.4-0.5-1-0.7-1.7-1c-0.1-0.1-0.2-0.1-0.3-0.2c-0.1-0.1-0.2-0.2-0.3-0.2
			c0-0.1,0-0.1-0.1-0.2c-0.1-0.4-0.4-0.6-0.6-1c0-0.1-0.1-0.1-0.1-0.2c0-0.1,0.1-0.2,0.1-0.2c0.6-1,0.9-2.4,1.2-3.7
			c0-0.1,0-0.2,0.1-0.3c0.1,0,0.1,0.1,0.1,0.2c0.3,0.5,0.6,1,0.9,1.5c0.2,0.3,0.3,0.5,0.5,0.8c0.2,0.3,0.4,0.5,0.6,0.8
			c0.2,0.3,0.4,0.5,0.5,0.8c0.1,0.3,0.1,0.8,0.1,1.2c-0.1,0.7-0.4,1.4-0.3,2.3c0.2,0.1,0.5,0.1,0.7,0.1c0.1-0.4,0-0.8,0.1-1.2
			c0-0.1,0-0.3,0.1-0.4c0.1,0,0.2,0.2,0.2,0.3c0.1,0.5-0.1,0.8-0.1,1.2c0.1,0,0.2-0.1,0.4-0.1c0-0.1,0-0.2,0.1-0.3
			c0-0.1,0.1-0.2,0.1-0.2c0.1,0,0.1,0.1,0.2,0.2c0,0.1,0.1,0.2,0.1,0.3c0.2,0,0.3,0.1,0.5,0.1c0,0,0.1,0,0.2,0c0,0,0.1-0.1,0.1-0.1
			c0-0.1,0.1-0.1,0.1-0.1c0.1-0.1,0.2-0.2,0.3-0.2c0.1,0,0.1,0.1,0.2,0.1c0.1,0,0.1-0.1,0.2-0.1c0.3-0.3,0.6-0.5,0.8-0.7
			c0.1-0.1,0.2-0.2,0.3-0.3c0.6-0.7,1.1-1.4,1.4-2.4c0.1-0.3,0.2-0.7,0.1-1.1c-0.1-0.5-0.3-1-0.6-1.3c0,0-0.1-0.1-0.1-0.2
			c0,0-0.2-0.1-0.2-0.1c0-0.1,0-0.2,0-0.3c0-0.1,0.1-0.3,0.2-0.2c0.4,0.4,0.9,0.7,1.3,1.1c0,0,0.2,0.1,0.2,0.2
			c0,0.1-0.1,0.2-0.1,0.2c-0.1,0.2-0.2,0.5-0.3,0.8c-0.1,0.4,0,0.9,0.2,1.2c0.1,0.1,0.2,0.3,0.3,0.4c0.7,0.8,1.4,1.6,2.5,2.1
			c0.1,0,0.2,0.1,0.3,0.1c0.1,0,0.1,0,0.1,0c0.1,0,0.1,0,0.2,0.1c0.4,0.1,1,0,1.5,0.1c0.1,0,0.2,0,0.3-0.1c0-0.1-0.1-0.2-0.1-0.3
			c-0.1-0.3-0.1-0.8-0.1-1.1c-0.1-0.5-0.2-0.9-0.4-1.2c-0.3-0.6-0.8-1.1-1.2-1.7c-0.1-0.1-0.1-0.2-0.2-0.3c-0.1-0.1-0.2-0.1-0.3-0.1
			c-0.5-0.2-1.2-0.5-2-0.4c0,0-0.1,0-0.2,0c-0.1,0-0.1,0-0.2,0c-0.1,0-0.1-0.1-0.2-0.2c-0.4-0.3-0.7-0.5-1.1-0.8
			c-0.1-0.1-0.4-0.2-0.4-0.4c0-0.1,0.1-0.1,0.2-0.1c0.1,0,0.2-0.1,0.3-0.1c0,0,0.1,0.1,0.2,0.1c0.4,0.2,0.9,0.4,1.5,0.5c0,0,0,0,0,0
			c0.2,0,0.5,0,0.7-0.1c1.5-0.2,2.7-0.8,3.4-1.8c0-0.1,0.1-0.2,0.2-0.2v-0.6C86.6,10.8,86.4,10.7,86.2,10.7z M69.7,1.5
			c0.1-0.1,0.2,0,0.3,0.1c0.2,0.1,0.5,0.3,0.6,0.6c0.1,0.2,0.1,0.5,0.1,0.8c0,0.2,0,0.4,0,0.6c0,0.1,0,0.2-0.1,0.2
			c-0.1,0-0.2-0.1-0.2-0.2c-0.2-0.2-0.2-0.3-0.4-0.5C69.9,3,69.9,3,69.8,2.9c-0.1-0.2-0.1-0.4-0.1-0.6c0-0.1,0-0.2,0-0.4
			C69.7,1.8,69.7,1.6,69.7,1.5z M68,0.7C68,0.7,68,0.7,68,0.7c0.1,0,0.3,0.1,0.4,0.1c0.4,0.2,0.7,0.3,1.1,0.5c0,0.2,0,0.5,0,0.7
			c0,0.1,0,0.2,0,0.2c-0.1,0-0.2-0.1-0.2-0.1C69,2,68.8,1.8,68.7,1.5c-0.1-0.2-0.3-0.4-0.5-0.6C68.1,0.9,68,0.8,68,0.7z M67.5,0.9
			c0-0.1-0.1-0.2-0.1-0.3c0.1-0.1,0.2,0.1,0.3,0.2c0.2,0.2,0.4,0.3,0.5,0.5c0.1,0.1,0.2,0.2,0.2,0.3c-0.1,0-0.1,0-0.2,0
			c-0.1,0-0.3,0-0.5-0.1c-0.1,0-0.2,0-0.2-0.1C67.6,1.2,67.5,1.1,67.5,0.9z M67.7,2.5c-0.1-0.1-0.1-0.4-0.1-0.7c0-0.1,0-0.2,0.1-0.2
			c0,0,0,0,0,0c0.3,0,0.7,0,0.9,0.1C68.8,1.9,68.9,2,69,2.2c0,0.1,0.1,0.1,0.2,0.2c0,0.1,0.2,0.2,0.2,0.2c0,0.1-0.3,0.1-0.3,0.1
			C68.6,2.8,67.8,2.8,67.7,2.5z M68.5,3.8c-0.2-0.2-0.3-0.4-0.4-0.6C68.1,3.1,68,3.1,68,3c0.1,0,0.1,0,0.2,0c0.2,0,0.4,0,0.6,0
			C69,3,69.3,3,69.5,2.9c0,0,0,0,0.1,0c0.1,0,0.2,0.2,0.2,0.3c0.2,0.2,0.3,0.4,0.6,0.7c0,0,0.1,0.1,0.1,0.1c0,0.1-0.4,0.1-0.5,0.1
			C69.3,4.2,68.8,4.1,68.5,3.8z M71,5c-0.2,0.1-0.4,0.1-0.6,0.1c-0.3-0.1-0.7-0.3-0.9-0.4c-0.1-0.1-0.1-0.1-0.2-0.3
			c0.1-0.1,0.2,0,0.3,0c0.3,0,0.6-0.1,0.9-0.1c0.1,0,0.2,0.1,0.3,0.1c0.1,0.1,0.2,0.2,0.3,0.3c0,0,0.1,0.1,0.1,0.2
			C71.3,4.9,71,4.9,71,5z M71.6,4.2c0,0.1,0,0.3-0.1,0.3c-0.1,0-0.2-0.1-0.2-0.1c-0.1-0.1-0.4-0.2-0.5-0.3c0-0.1,0-0.2,0.1-0.3
			c0-0.3,0-0.8,0-1.1c0.1-0.1,0.3,0.1,0.4,0.2c0.2,0.2,0.3,0.4,0.3,0.9C71.6,3.9,71.6,4,71.6,4.2z M65.3,2.2
			c0.2,0.1,0.5,0.3,0.6,0.6c0,0,0,0,0,0c0.1,0.3,0.2,0.7,0.2,1c0,0.3,0.1,0.6,0.1,0.9c0,0.1,0,0.2,0,0.3c-0.1,0-0.1-0.1-0.2-0.1
			c-0.3-0.2-0.7-0.5-0.9-1c-0.1-0.1-0.1-0.3-0.1-0.4c0-0.5-0.1-1-0.1-1.4C65.1,2,65.2,2.1,65.3,2.2z M63.4,1.5c0.4,0,0.7,0.1,1,0.2
			c0.1,0,0.2,0.1,0.2,0.1c0,0.1,0.1,0.3,0.1,0.4c0.1,0.3,0.1,0.5,0.1,0.8c0,0.1,0,0.4,0,0.4c-0.1,0-0.2-0.2-0.2-0.2
			c-0.4-0.5-0.7-0.9-1.1-1.4C63.5,1.8,63.4,1.7,63.4,1.5C63.4,1.6,63.4,1.5,63.4,1.5z M63.3,3c-0.1-0.3-0.1-0.6-0.1-0.8
			c0-0.1,0-0.3,0-0.4c0.1-0.1,0.1,0,0.1,0.1c0.4,0.5,0.8,1,1.2,1.5c0.1,0.1,0.2,0.2,0.2,0.3c0,0.2-0.3,0.1-0.5,0.1
			c-0.2,0-0.3-0.1-0.5-0.1C63.6,3.5,63.4,3.3,63.3,3z M64.1,4.2C64.1,4.2,64,4.1,64,4c0,0,0,0,0,0c0.3,0,0.5,0.1,0.8,0.1
			c0,0,0.1,0,0.1,0C65,4,65,4.1,65.1,4.1c0.1,0.1,0.2,0.2,0.3,0.3c0,0,0.1,0.1,0.1,0.2c0,0.1-0.2,0-0.3,0
			C64.6,4.7,64.3,4.5,64.1,4.2z M66.3,5.7c-0.1,0-0.2,0.1-0.4,0.1c-0.1,0-0.2-0.1-0.2-0.1c-0.1,0-0.2-0.1-0.2-0.1
			c-0.2-0.1-0.5-0.2-0.5-0.5c0.1,0,0.3,0,0.5,0c0.2,0,0.3,0,0.4,0.1C65.9,5,66,5.1,66.1,5.2c0,0,0.3,0.2,0.3,0.3
			C66.5,5.6,66.3,5.6,66.3,5.7z M67.3,5.2c0,0.1,0,0.1-0.1,0.2c0,0-0.1,0.1-0.1,0.1c-0.1,0-0.2,0-0.2-0.1c-0.1-0.1-0.3-0.2-0.4-0.3
			c-0.1-0.2-0.1-0.6-0.1-0.9c0-0.3,0-0.6,0-0.9c0,0,0,0,0,0c0.1,0,0.2,0.2,0.2,0.2c0.1,0.1,0.1,0.2,0.2,0.2c0.1,0.1,0.3,0.3,0.4,0.5
			C67.3,4.5,67.4,4.9,67.3,5.2z M60.1,2.8c0.1,0,0.4,0.1,0.5,0.2c0.2,0.1,0.3,0.2,0.4,0.3c0.3,0.2,0.5,0.6,0.6,1
			c0.1,0.2,0.2,0.4,0.2,0.6c0.1,0.2,0.2,0.4,0.2,0.6c-0.2,0.1-0.3-0.1-0.4-0.1C61.3,5,61,4.7,60.8,4.4c-0.2-0.2-0.3-0.4-0.4-0.7
			c0-0.1-0.1-0.3-0.1-0.4C60.1,3.1,60.1,2.9,60.1,2.8C60.1,2.8,60.1,2.8,60.1,2.8z M59.1,2.5c0.2,0.1,0.5,0.1,0.7,0.2
			C59.9,2.9,60,3.2,60,3.4c0,0.1,0.1,0.2,0,0.3c-0.1,0-0.1-0.1-0.2-0.1c-0.3-0.3-0.7-0.6-1-0.9c0-0.1-0.1-0.1-0.1-0.2
			C58.9,2.4,59,2.4,59.1,2.5z M59.1,3.5c0-0.1-0.1-0.2-0.1-0.3c0-0.1-0.1-0.2-0.1-0.3C58.9,2.8,59,3,59,3c0.3,0.3,0.6,0.6,0.9,0.9
			C60,4,60.1,4.1,60.1,4.1c0,0.1-0.2,0.1-0.3,0C59.3,4.1,59.2,3.8,59.1,3.5z M60.9,5.8c-0.2,0-0.3-0.1-0.5-0.2
			c-0.3-0.3-0.6-0.6-0.8-0.9c0-0.1-0.1-0.1-0.1-0.2c0,0,0,0,0,0c0.8,0,1.3,0.4,1.8,0.8c0.1,0.1,0.1,0.1,0.2,0.2
			c0.1,0.1,0.2,0.1,0.2,0.2c0,0.1-0.3,0.2-0.4,0.2C61.2,5.8,61,5.8,60.9,5.8z M63.1,6.3c-0.5,0.2-1,0-1.4-0.2c-0.1,0-0.3,0-0.3-0.1
			c0-0.1,0.2-0.1,0.3-0.2c0.1,0,0.2-0.1,0.4-0.1c0.2,0,0.5,0.1,0.6,0.1C62.8,6,62.9,6,63,6c0.1,0,0.2,0.1,0.3,0.1
			C63.3,6.3,63.1,6.3,63.1,6.3z M63.4,5.8c-0.3-0.1-0.5-0.1-0.8-0.2c-0.1,0-0.2,0-0.2-0.1c0,0,0-0.2-0.1-0.3
			c-0.1-0.5-0.3-0.9-0.5-1.4c0-0.1-0.1-0.2-0.1-0.2c0,0,0,0,0,0c0.2,0,0.4,0.2,0.6,0.3c0.2,0.1,0.3,0.3,0.4,0.4
			c0.3,0.3,0.6,0.6,0.6,1.1C63.5,5.6,63.4,5.8,63.4,5.8z M57.7,9C58,8.6,58.5,8.3,59,8.2c0.1,0,0.5,0,0.5,0.1c0,0.1-0.1,0.1-0.1,0.2
			c-0.2,0.1-0.3,0.3-0.5,0.4c-0.2,0.2-0.4,0.4-0.6,0.6c-0.2,0-0.4,0-0.6-0.1C57.5,9.3,57.7,9.1,57.7,9z M56.6,10.9
			c0.1-0.4,0.3-0.7,0.6-0.9c0.1-0.1,0.3-0.3,0.5-0.3c0.1,0,0.2,0,0.3,0c0,0.1,0,0.2-0.1,0.2c-0.2,0.5-0.5,0.9-0.8,1.4
			c-0.3,0-0.4,0.2-0.7,0.1C56.5,11.3,56.6,11.1,56.6,10.9z M56.5,13.1c-0.1,0-0.1-0.1-0.2-0.2c-0.1-0.3-0.1-0.9,0.1-1.1
			c0.1-0.1,0.3-0.1,0.5-0.1c0,0.1-0.1,0.3-0.1,0.4c-0.1,0.2-0.2,0.5-0.2,0.7C56.7,12.8,56.6,13,56.5,13.1z M57.5,13.1
			c-0.2,0.1-0.3,0.2-0.5,0.3c-0.1,0-0.2,0.1-0.3,0c0-0.1,0.1-0.3,0.1-0.4c0.1-0.3,0.2-0.5,0.3-0.8c0-0.1,0.1-0.3,0.1-0.4
			c0.1-0.1,0.1,0.1,0.2,0.2c0.1,0.2,0.1,0.4,0.2,0.6c0,0.1,0.1,0.2,0.1,0.3C57.7,12.9,57.6,13,57.5,13.1z M58.6,12.2
			c-0.2,0.2-0.4,0.3-0.5,0.5c0,0-0.1,0.1-0.1,0.1c-0.1,0-0.1-0.2-0.1-0.4c-0.1-0.3-0.1-0.5-0.2-0.7c0-0.1-0.1-0.3-0.1-0.4
			c0-0.1,0.1-0.3,0.2-0.3c0.2-0.3,0.4-0.7,0.5-1c0.1-0.1,0.1,0.1,0.2,0.2c0.1,0.2,0.2,0.5,0.3,0.8c0.1,0.3,0.1,0.6,0.2,0.8
			c0,0.1,0.1,0.2,0.1,0.3C58.8,12.1,58.7,12.2,58.6,12.2z M60,10.2c-0.2,0.5-0.4,0.9-0.8,1.3c-0.1,0.1-0.1,0.1-0.2,0.1
			c-0.1,0-0.1-0.3-0.2-0.4c-0.1-0.3-0.2-0.6-0.3-0.9c-0.1-0.2-0.2-0.6-0.1-0.9c0-0.1,0.1-0.2,0.2-0.3C58.9,9,59,8.9,59.1,8.8
			c0.2-0.2,0.5-0.3,0.7-0.4c0,0,0,0,0,0c0,0,0,0,0,0c0.1,0,0.2,0.3,0.2,0.4c0.1,0.2,0.1,0.3,0.1,0.5C60.2,9.6,60.1,9.9,60,10.2z
			 M60.5,11.7c-0.1,0-0.1-0.3-0.1-0.4c0-0.4,0.1-0.6,0.2-0.8c0.1-0.2,0.2-0.3,0.3-0.5c0.1-0.1,0.3-0.1,0.6-0.1c0.2,0,0.4,0,0.6,0
			c0.1,0,0.2,0,0.2,0.1c0,0.1-0.2,0.2-0.2,0.2c-0.5,0.5-1,0.9-1.5,1.4C60.6,11.6,60.6,11.7,60.5,11.7z M62.5,10.4
			c0,0.6-0.1,1-0.4,1.2c-0.3,0.2-0.8,0.3-1.3,0.4c-0.1,0-0.1,0-0.2,0c0-0.1,0.1-0.1,0.1-0.1c0.6-0.5,1.1-1.1,1.7-1.7c0,0,0,0,0.1,0
			C62.5,10.3,62.5,10.3,62.5,10.4z M62.5,9.7c-0.1,0-0.2,0-0.3,0c-0.3,0-0.5,0-0.8,0c0,0-0.1,0-0.1,0c0-0.1,0.2-0.2,0.2-0.3
			c0.1-0.1,0.2-0.2,0.2-0.2c0.2-0.2,0.3-0.3,0.6-0.4c0.2-0.1,0.4-0.1,0.6-0.1c0.1,0,0.4,0,0.5,0.1c0,0.1-0.1,0.1-0.1,0.1
			C63.1,8.9,63,9,62.9,9.2c-0.1,0.1-0.2,0.3-0.3,0.4C62.6,9.6,62.5,9.7,62.5,9.7z M63.4,10.9c-0.2,0.1-0.4,0.3-0.6,0.4
			c-0.1,0-0.1,0.1-0.2,0.1c0-0.2,0-0.5,0.1-0.8c0-0.1,0-0.3,0-0.4c0-0.1,0-0.3,0.1-0.4c0-0.1,0.1-0.2,0.2-0.3
			C63,9.5,63,9.4,63.1,9.3c0.1-0.2,0.3-0.5,0.5-0.6c0,0,0,0,0.1,0c0,0.1,0,0.2,0,0.3C63.7,9.8,63.8,10.6,63.4,10.9z M63.7,8.3
			c-0.4,0-0.8,0-1.1,0c0-0.1,0.1-0.2,0.2-0.2C63,8,63.3,7.9,63.6,7.9c0.1,0,0.6,0,0.6,0C64.2,8,64,8.1,64,8.1
			C63.8,8.2,63.8,8.3,63.7,8.3z M64.8,8.5c0.1,0.3,0,0.9-0.1,1.1c-0.1,0.2-0.3,0.4-0.5,0.5c-0.1,0.1-0.1,0.1-0.2,0.1
			c0-0.1,0-0.1,0-0.2c0-0.5,0-1.1,0-1.7c0.1-0.1,0.3-0.2,0.5-0.3c0.1-0.1,0.2,0.1,0.3,0.2C64.7,8.3,64.8,8.4,64.8,8.5z M64.6,7.3
			c-0.3,0.3-0.9,0.2-1.5,0.3c-0.2,0-0.4,0.1-0.5,0.1c-0.1,0-0.2,0.2-0.2,0.2c-0.5,0.5-1.1,1-1.6,1.5c0,0-0.1,0.1-0.1,0.1
			c0-0.1,0-0.2,0-0.3c0-0.2-0.1-0.4-0.1-0.6c0-0.1-0.1-0.2-0.1-0.3c0-0.1,0.1-0.1,0.2-0.1c1-0.5,1.9-1.1,3.3-1.2c0.1,0,0.3,0,0.5,0
			c0.1,0,0.4,0,0.4,0.1C64.7,7.2,64.6,7.3,64.6,7.3z M66.4,8.7c0.1-0.2,0.2-0.3,0.4-0.5C67,8,67.2,7.7,67.4,7.6c0.1,0,0.1,0,0.2,0
			c0.1,0,0.3,0,0.4,0c0,0.2-0.1,0.3-0.2,0.4c-0.1,0.1-0.1,0.3-0.2,0.4c0,0.1-0.1,0.2-0.2,0.2c-0.1,0-0.2,0-0.3,0.1
			c-0.2,0-0.4,0.1-0.5,0.1c-0.1,0-0.2,0.1-0.2,0.1C66.3,8.8,66.4,8.7,66.4,8.7z M66,9.3c0.3-0.3,0.6-0.4,1.1-0.5c0.1,0,0.1,0,0.1,0
			c0.1,0.1-0.1,0.2-0.1,0.3c-0.2,0.3-0.3,0.4-0.4,0.7c0,0.1,0,0.1-0.1,0.1c0,0-0.2,0.1-0.3,0.1c-0.2,0.1-0.4,0.1-0.6,0.1
			c-0.1,0-0.2,0.1-0.3,0.1C65.5,9.9,65.8,9.6,66,9.3z M65.6,11.8c0,0.1-0.1,0.2-0.1,0.2c-0.1,0-0.1-0.2-0.1-0.2
			c-0.1-0.3-0.1-0.7,0-1c0.2-0.1,0.5-0.2,0.8-0.3c0.1,0,0.2-0.1,0.3-0.1c0,0.1,0,0.2-0.1,0.2C66.1,11,65.9,11.4,65.6,11.8z
			 M66.7,11.7c-0.1,0.1-0.3,0.1-0.4,0.2C66.2,12,66,12.1,65.9,12c0-0.1,0.1-0.2,0.1-0.4c0.1-0.1,0.1-0.2,0.2-0.3
			c0.1-0.2,0.3-0.4,0.4-0.6c0.1-0.1,0.2,0.2,0.2,0.2C66.8,11.2,66.7,11.5,66.7,11.7z M67.4,11.2c-0.1,0-0.1,0.1-0.2,0.1
			c-0.1,0-0.1,0.1-0.2,0.1c0-0.1-0.1-0.3-0.1-0.4c0-0.2,0-0.3,0-0.5c0-0.2,0-0.4,0.1-0.5c0.1-0.1,0.2-0.2,0.2-0.3
			c0.1-0.1,0.2-0.2,0.2-0.3c0.1-0.1,0.1,0.1,0.2,0.2c0.1,0.3,0.2,0.6,0.2,0.9C67.9,11,67.6,11.1,67.4,11.2z M68.9,8
			c0.2,0.4,0,1-0.1,1.4c-0.1,0.3-0.3,0.6-0.5,0.8c-0.1,0.1-0.1,0.2-0.2,0.2c-0.1,0-0.1-0.2-0.1-0.3c0-0.1-0.1-0.2-0.1-0.3
			c-0.1-0.4-0.3-0.8-0.1-1.2c0.1-0.4,0.3-0.7,0.5-1c0,0,0,0,0,0C68.6,7.7,68.8,7.8,68.9,8z M83.9,18.5c0,0.1,0,0.2,0,0.3
			c-0.1,0-0.2-0.1-0.2-0.1c-0.1,0-0.1-0.1-0.2-0.1c-0.1-0.1-0.3-0.2-0.4-0.3c-0.2-0.3-0.3-1-0.2-1.5c0-0.2,0.1-0.4,0.1-0.5
			c0.1-0.1,0.1,0.1,0.2,0.1c0.1,0.2,0.3,0.3,0.4,0.5c0.2,0.2,0.4,0.4,0.5,0.7C83.9,17.7,83.9,18.2,83.9,18.5z M85.5,19.3
			c-0.4,0-0.8,0-1.1-0.2c-0.1,0-0.2-0.2-0.3-0.2c0-0.1,0-0.2,0-0.3c0-0.3-0.1-0.7,0-1c0.1-0.1,0.2,0.1,0.3,0.2
			c0.2,0.2,0.4,0.4,0.6,0.6c0.2,0.2,0.4,0.5,0.6,0.7c0.1,0.1,0.2,0.1,0.2,0.2C85.7,19.4,85.6,19.3,85.5,19.3z M85.7,17.5
			c0.1,0.5,0.3,0.9,0.4,1.3c0,0.1,0.1,0.2,0,0.2c-0.1,0-0.1,0-0.2-0.1c-0.3-0.2-0.6-0.5-0.9-0.7c-0.2-0.2-0.4-0.5-0.6-0.7
			c-0.1-0.1-0.2-0.2-0.2-0.3c0.1-0.1,0.2,0,0.3-0.1c0.3,0,0.6-0.1,0.8,0c0.1,0,0.2,0,0.2,0.1C85.7,17.3,85.7,17.5,85.7,17.5z
			 M84.7,15.9c0.1,0,0.2,0.2,0.2,0.3c0.2,0.2,0.3,0.4,0.4,0.6c0.1,0.1,0.1,0.2,0.2,0.3c-0.1,0-0.2,0-0.3,0c-0.3,0-0.7,0.1-1,0
			c-0.1,0-0.2,0-0.3-0.1c-0.1,0-0.2-0.2-0.2-0.2c-0.2-0.2-0.5-0.5-0.7-0.7c0-0.1-0.1-0.1,0-0.2c0,0,0,0,0,0c0.5,0,1,0,1.5,0
			C84.6,15.9,84.7,15.8,84.7,15.9z M82.6,14.9c0.3,0,0.6,0,0.9,0c0.2,0,0.3,0,0.4,0.1c0.2,0.1,0.3,0.3,0.5,0.4
			c0,0.1,0.1,0.1,0.1,0.2c-0.2,0.1-0.4,0.1-0.6,0.1c-0.2,0-0.4,0-0.6,0c-0.3,0-0.6-0.1-0.8-0.3c-0.1-0.1-0.2-0.2-0.2-0.3
			C82.4,14.9,82.5,14.9,82.6,14.9z M81.8,15.2c0.5,0,0.8,0.5,0.8,1c0,0.4,0,0.7-0.1,1c0,0.1,0,0.3-0.1,0.3c-0.1,0-0.2-0.1-0.2-0.2
			c-0.2-0.2-0.4-0.5-0.5-0.8c-0.2-0.3-0.2-0.7-0.1-1.1C81.7,15.4,81.8,15.3,81.8,15.2z M84.5,10.8c0.1-0.1,0.1-0.1,0.2-0.1
			c0.3,0,0.5,0,0.8,0.1c0.1,0,0.2,0,0.3,0.1c0.1,0,0.2,0,0.2,0.1c0,0.1-0.1,0.1-0.2,0.1c-0.5,0.1-0.9,0.2-1.5,0.2
			c-0.1,0-0.2,0-0.3,0c0-0.1,0.1-0.1,0.1-0.2C84.3,11,84.4,10.9,84.5,10.8z M84.1,10.7c0,0.1-0.2,0.3-0.2,0.3
			c-0.1,0.1-0.2,0.2-0.3,0.3c-0.1,0.1-0.2,0.1-0.3,0.1c-0.3,0.1-0.6,0.2-0.9,0.2c-0.1,0-0.1,0.1-0.2,0c0-0.1,0-0.2,0.1-0.2
			c0.1-0.2,0.2-0.4,0.5-0.5c0.3-0.1,0.7-0.2,1.1-0.3C83.9,10.7,84.1,10.6,84.1,10.7z M81.1,10.1c-0.1,0-0.3-0.1-0.4-0.1
			c0-0.1,0.1-0.1,0.2-0.2c0.2-0.1,0.3-0.2,0.5-0.2c0.1,0,0.2-0.1,0.3-0.1c0,0,0.1,0,0.1,0c0.5,0,0.9,0.3,1.4,0.4
			c0.1,0,0.4,0.1,0.4,0.1c0,0.1-0.2,0.2-0.2,0.3c-0.1,0.1-0.2,0.1-0.3,0.2c-0.3,0.1-0.6,0-0.9,0C81.9,10.3,81.5,10.2,81.1,10.1z
			 M82.2,11.1c0,0.1-0.1,0.3-0.2,0.4c-0.1,0.1-0.1,0.2-0.2,0.3c-0.2,0.1-0.4,0.2-0.6,0.2c-0.1,0-0.1,0.1-0.2,0
			c0-0.1,0.1-0.1,0.1-0.2c0.2-0.3,0.6-0.7,1-0.8C82.2,11.1,82.2,11.1,82.2,11.1z M84.4,9.1c0,0.1-0.1,0.3-0.2,0.4
			c-0.3,0.3-1,0.1-1.4-0.1c-0.1,0-0.2-0.1-0.2-0.2c0-0.1,0.2-0.1,0.2-0.1c0.3-0.1,0.5-0.2,0.9-0.2c0.2,0,0.4,0,0.5,0.1
			C84.4,9,84.4,9,84.4,9.1z M83.3,8.2c0.1,0,0.3,0,0.4,0c0.1,0,0.3,0,0.4,0.1c0,0.2-0.1,0.3-0.3,0.4c-0.3,0.1-0.7,0.2-1,0.3
			c-0.1,0-0.3,0.1-0.4,0c0-0.2,0.1-0.3,0.2-0.4C82.8,8.3,83,8.2,83.3,8.2z M81.5,8.3c0.1,0,0.1,0,0.2-0.1c0.1,0,0.1,0,0.2,0
			c0.1,0,0.3,0,0.4,0c0.1,0,0.2,0,0.2,0.1c0,0.1-0.1,0.3-0.2,0.3c-0.1,0.1-0.1,0.2-0.2,0.3C82,9,81.8,9.2,81.6,9.3
			c-0.2,0.1-0.5,0.1-0.7,0.2c-0.1,0-0.1,0.1-0.2,0.1c0-0.1,0-0.1,0-0.2C80.9,9,81.1,8.5,81.5,8.3z M79.5,9.6
			c0.1-0.1,0.2-0.3,0.3-0.4C80,9,80.4,8.8,80.7,8.7c0,0,0.1,0,0.1,0c0,0.1-0.1,0.2-0.1,0.3c-0.1,0.3-0.3,0.5-0.4,0.8
			C80.2,9.9,80,9.9,79.8,10c-0.2,0-0.3,0.1-0.5,0.1C79.3,9.9,79.4,9.7,79.5,9.6z M78.7,12.6c0-0.2,0-0.4,0-0.6c0-0.1,0-0.1,0-0.2
			c0.1-0.1,0.1,0.1,0.2,0.1c0.2,0.4,0.5,0.7,0.8,1.1c0,0,0.1,0.1,0.1,0.2c0,0.1-0.1,0.1-0.1,0.1c-0.1,0.1-0.1,0.3-0.1,0.5
			c-0.5,0.1-0.9,0.3-1.3,0.6c0,0-0.1,0.1-0.2,0.1c0,0,0,0,0,0c0-0.1,0-0.2,0.1-0.3C78.3,13.7,78.6,13.2,78.7,12.6z M77.1,16.3
			c0.1,0.2,0,0.5-0.1,0.7c0,0.1,0,0.2-0.1,0.2c-0.1,0-0.1-0.1-0.1-0.1c-0.3-0.2-0.5-0.4-0.8-0.6c0,0-0.1-0.1-0.1-0.1
			c0-0.1,0.2-0.2,0.3-0.2c0.3-0.2,0.7-0.4,0.9-0.6c0,0,0,0,0.1,0c0,0.1,0,0.3-0.1,0.4c0,0.1-0.1,0.1-0.1,0.2
			C77.1,16.2,77.1,16.3,77.1,16.3z M77.5,11.6c-0.1,0.2-0.2,0.4-0.4,0.5c-0.2,0.2-0.5,0.4-0.9,0.5c-0.1,0-0.2,0.1-0.3,0.1
			c0,0-0.1,0.1-0.1,0.1c-0.1-0.1,0-0.2,0.1-0.3c0.1-0.3,0.2-0.6,0.4-0.8c0.2-0.2,0.5-0.3,0.8-0.4c0.1,0,0.3,0,0.4,0c0,0,0.1,0,0.1,0
			C77.6,11.4,77.5,11.6,77.5,11.6z M78,11.7C78,11.7,78,11.7,78,11.7c0.1,0,0.2,0.1,0.2,0.2c0.1,0.2,0.1,0.3,0.1,0.6
			c0,0.1-0.1,0.3-0.1,0.4c0,0.1-0.1,0.4-0.2,0.4c-0.1,0-0.1-0.1-0.1-0.2c-0.1-0.2-0.2-0.5-0.3-0.7C77.5,12.1,77.8,11.8,78,11.7z
			 M76.4,12.8c0.1,0,0.2-0.1,0.3-0.1c0,0,0.1,0,0.1,0c0,0.1-0.1,0.2-0.1,0.3c-0.3,0.6-0.6,1.3-1.4,1.3c0-0.1,0-0.2,0-0.2
			c0-0.3,0.2-0.7,0.3-0.8C75.8,13,76.1,12.9,76.4,12.8z M76.2,14.7c0.1-0.2,0.2-0.3,0.2-0.5c0,0,0,0,0,0c0.1,0,0.1,0.1,0.2,0.2
			c0.1,0.2,0.1,0.4,0.2,0.6c0,0.1,0.1,0.2,0.1,0.3c0,0.1-0.3,0.2-0.3,0.3c-0.1,0.1-0.1,0.1-0.2,0.1c0,0-0.1,0.1-0.2,0.1
			c-0.1,0-0.2-0.3-0.2-0.4C76,15.2,76.1,15,76.2,14.7z M77.1,15.1c-0.1,0-0.2-0.2-0.2-0.3c-0.1-0.1-0.1-0.2-0.1-0.4
			c-0.1-0.2-0.1-0.7,0-0.9c0.1-0.2,0.2-0.3,0.3-0.5c0.1-0.1,0.2-0.3,0.3-0.4c0,0,0,0,0,0c0.1,0,0.2,0.1,0.2,0.2
			c0.1,0.3,0.3,0.6,0.3,1c0,0.3-0.1,0.6-0.2,0.8c0,0.1-0.1,0.2-0.2,0.3C77.4,15,77.2,15.1,77.1,15.1z M77.7,15.9
			c0.2-0.9,0.9-1.5,1.7-1.7c0,0,0.1,0,0.1,0c0,0.1-0.1,0.2-0.1,0.4c-0.1,0.2-0.2,0.5-0.3,0.6c-0.3,0.4-0.6,0.7-1,1
			c-0.1,0.1-0.2,0.2-0.3,0.2C77.6,16.2,77.6,16.1,77.7,15.9z M76.8,4.9c0.1-0.1,0.1-0.2,0.1-0.4c1.4-0.5,2.6-1.2,4-1.8
			c0.2-0.1,0.4-0.1,0.7-0.2c0.1,0,0.2,0,0.2,0c0,0.1,0,0.1-0.1,0.2c-1.1,1.3-2.1,2.9-3.6,3.9c-0.1,0.1-0.2,0.2-0.3,0.2
			c0-0.2-0.1-0.4-0.1-0.6c-0.1-0.4-0.4-0.7-0.8-1c-0.1,0-0.2-0.1-0.2-0.1C76.6,5.1,76.8,4.9,76.8,4.9z M76.4,6.1
			c0-0.2,0-0.4,0.1-0.5c0,0,0,0,0,0c0.1,0,0.3,0.1,0.4,0.2C76.9,5.8,77,5.9,77.1,6c0.2,0.2,0.2,0.5,0.2,0.8c0,0.3-0.1,0.5-0.2,0.7
			c0,0.1-0.1,0.2-0.1,0.2c-0.1,0-0.2-0.1-0.2-0.2c-0.1-0.1-0.1-0.2-0.2-0.4c-0.1-0.1-0.2-0.3-0.2-0.4C76.3,6.5,76.4,6.3,76.4,6.1z
			 M74.7,7.9c0.3-0.3,0.7-0.5,1.1-0.7c0,0,0.1,0,0.1,0c0,0.1,0,0.2-0.1,0.3c-0.1,0.3-0.2,0.6-0.3,0.9c-0.3,0.2-0.6,0.4-0.9,0.6
			c-0.1,0-0.2,0.2-0.3,0.2c-0.1,0-0.1-0.3-0.1-0.4C74.4,8.3,74.5,8.1,74.7,7.9z M74.7,7.1c0-0.3,0.1-0.7,0.2-0.9
			C75,6.1,75.2,6,75.3,5.9c0.2-0.2,0.5-0.4,0.9-0.4c0,0.2,0,0.4,0,0.6c0,0.2,0,0.4-0.1,0.5C76,6.8,75.7,7,75.5,7.2
			c-0.1,0.1-0.3,0.1-0.4,0.2c-0.1,0.1-0.3,0.1-0.4,0.1C74.7,7.4,74.7,7.2,74.7,7.1z M74.8,9.3c0.1-0.1,0.2-0.1,0.3-0.2
			c0.2-0.2,0.3-0.3,0.5-0.4c0,0,0,0,0.1,0c-0.1,0.6-0.4,1.1-0.6,1.7c0,0.1,0,0.2-0.1,0.2c-0.1,0-0.1-0.2-0.1-0.3
			c-0.1-0.2-0.1-0.4-0.2-0.6c0-0.1-0.1-0.2-0.1-0.3C74.5,9.4,74.7,9.3,74.8,9.3z M75.4,10.1c0.1-0.4,0.3-0.9,0.4-1.3
			C75.9,8.7,76,8.9,76.1,9c0.1,0.1,0.1,0.2,0.1,0.3c0,0,0,0.1,0,0.2c0,0.1,0,0.1,0,0.2c0,0-0.1,0.1-0.1,0.2
			c-0.1,0.3-0.3,0.5-0.5,0.7c-0.1,0.1-0.2,0.2-0.3,0.2C75.3,10.4,75.4,10.3,75.4,10.1z M76.2,8.8C76.1,8.7,76,8.5,76,8.2
			c0-0.2,0.1-0.4,0.1-0.5c0.1-0.2,0.1-0.4,0.2-0.5c0.1-0.1,0.2,0.1,0.3,0.2C76.8,7.6,77,8,76.9,8.5c0,0.1-0.1,0.3-0.2,0.4
			c-0.1,0.1-0.2,0.3-0.3,0.3C76.4,9.2,76.2,8.9,76.2,8.8z M75.2,1.5c0.1,0,0.2,0,0.2,0.1c0.2,0.1,0.3,0.3,0.5,0.5
			c0.2,0.3,0.3,0.6,0.2,1c0,0.1,0,0.2-0.1,0.2c-0.1,0-0.3-0.2-0.3-0.3c-0.1-0.1-0.2-0.2-0.3-0.3C75.3,2.4,75.2,2,75.2,1.5z
			 M73.6,0.7c0.5,0,0.9,0.4,1.2,0.6c0.1,0.3,0.2,0.6,0.2,0.9c0,0.1,0.1,0.2,0,0.3c-0.1,0-0.1,0-0.2-0.1c-0.4-0.3-0.9-0.5-1.1-0.9
			c-0.1-0.1-0.1-0.3-0.1-0.4C73.6,1,73.5,0.9,73.6,0.7C73.6,0.7,73.6,0.7,73.6,0.7z M71.6,0.6c0-0.2,0.3-0.1,0.4-0.1
			c0.4,0,0.9,0.1,1.2,0.2c0.1,0.2,0.2,0.5,0.3,0.7c0,0.1,0.1,0.2,0.1,0.3c-0.1,0-0.2,0-0.3-0.1c-0.5-0.2-1-0.5-1.5-0.7
			C71.7,0.7,71.6,0.6,71.6,0.6z M72.4,2.4c-0.1,0-0.2-0.1-0.3-0.2c-0.2-0.2-0.3-0.5-0.4-0.7c0-0.1-0.1-0.1-0.1-0.2
			c0-0.1,0.1-0.1,0.2-0.1c0.2,0,0.4,0.1,0.6,0.1c0.3,0.1,0.6,0.2,0.9,0.4c0.1,0.1,0.4,0.1,0.4,0.3c0,0.1-0.2,0.1-0.2,0.1
			c-0.3,0.1-0.6,0.3-0.8,0.3C72.6,2.4,72.4,2.4,72.4,2.4z M73.3,3.2C73.1,3.1,73,3,72.9,2.8c0-0.1-0.1-0.1-0.1-0.2
			c0-0.1,0.2-0.1,0.3-0.1c0.3-0.1,0.7-0.2,1-0.3c0,0,0,0,0,0c0.1,0,0.2,0.1,0.3,0.2c0.2,0.1,0.3,0.2,0.6,0.4c0.1,0,0.3,0.1,0.2,0.2
			C75.2,3,75,3,74.9,3.1c-0.1,0-0.2,0.1-0.3,0.1c-0.2,0.1-0.4,0.2-0.7,0.2C73.6,3.3,73.4,3.3,73.3,3.2z M75.6,3.9
			c-0.1,0-0.3,0-0.5,0c-0.3,0-0.6,0-0.8-0.1c-0.1,0-0.3-0.1-0.3-0.2c0-0.1,0.2-0.1,0.3-0.1c0.1,0,0.2-0.1,0.3-0.1
			c0.2-0.1,0.5-0.2,0.7-0.2c0.1,0,0.2,0.1,0.3,0.2C75.8,3.4,76,3.5,76,3.6c0,0.1-0.1,0.1-0.2,0.2C75.8,3.8,75.7,3.9,75.6,3.9z
			 M70.8,7.5C70.9,7.3,71,7,71.2,6.9c0.3-0.1,0.7-0.2,1-0.3c0,0,0.1,0,0.1,0c0,0.1,0,0.2-0.1,0.2C72.2,7,72.1,7.2,72,7.3
			c0,0.1-0.1,0.2-0.1,0.2c-0.1,0-0.2,0.1-0.3,0.1c-0.1,0-0.2,0.1-0.3,0.1C71.1,7.8,71,8,70.7,8C70.7,7.8,70.8,7.6,70.8,7.5z
			 M70.2,8.9c0.1-0.2,0.2-0.4,0.3-0.5C70.8,8.3,71,8.1,71.3,8c0.1,0,0.2-0.1,0.3-0.1c0,0,0.1,0,0.1,0c0,0.2-0.1,0.4-0.1,0.5
			c-0.1,0.2-0.1,0.4-0.2,0.5c-0.1,0.1-0.2,0.1-0.3,0.2c-0.2,0.1-0.4,0.2-0.6,0.3c-0.1,0.1-0.2,0.1-0.4,0.1
			C70.1,9.3,70.1,9.1,70.2,8.9z M70.3,11.1c-0.1,0-0.1-0.3-0.2-0.4c0-0.2-0.1-0.4-0.1-0.6c0-0.1,0.1-0.2,0.2-0.3
			c0.1-0.1,0.2-0.2,0.3-0.2c0.1-0.1,0.3-0.1,0.4-0.1c0,0,0.1,0,0.1,0c-0.1,0.3-0.2,0.6-0.3,0.8c-0.1,0.1-0.1,0.3-0.2,0.4
			C70.5,10.9,70.5,11.1,70.3,11.1z M71.8,10.6c-0.1,0.2-0.3,0.3-0.5,0.4c-0.1,0.1-0.3,0.2-0.5,0.2c0,0-0.1,0.1-0.2,0
			c0-0.2,0.1-0.3,0.1-0.4c0.1-0.1,0.1-0.3,0.2-0.4c0.1-0.3,0.2-0.6,0.4-0.8c0-0.1,0.2,0.1,0.2,0.1c0.1,0.1,0.3,0.4,0.3,0.6
			C71.9,10.4,71.9,10.5,71.8,10.6z M72.7,9.4c-0.1,0.2-0.2,0.4-0.4,0.6c0,0.1-0.1,0.2-0.2,0.2c-0.1,0-0.1-0.2-0.2-0.2
			c-0.2-0.3-0.4-0.5-0.3-1c0-0.1,0.1-0.2,0.1-0.2C71.8,8.5,71.9,8.2,72,8c0.1-0.1,0.1,0,0.2,0.1c0.1,0.2,0.3,0.3,0.4,0.5
			C72.7,8.8,72.8,9.2,72.7,9.4z M72.9,8.7c-0.1,0-0.2-0.2-0.2-0.3c-0.2-0.3-0.3-0.5-0.4-0.7c0,0-0.1-0.1-0.1-0.2
			c0-0.1,0.1-0.1,0.1-0.2c0.1-0.2,0.2-0.5,0.3-0.6c0,0,0,0,0,0c0.4,0.1,0.6,0.4,0.7,0.8c0,0.4-0.1,0.7-0.2,1C73,8.6,73,8.7,72.9,8.7
			z M73.2,9.5c-0.1-0.1,0-0.1,0-0.2c0.2-0.3,0.3-0.7,0.5-1c0-0.1,0.1-0.1,0.1-0.1c0-0.1,0-0.2,0-0.3c-0.1-0.5-0.2-0.8-0.4-1.2
			c-0.1-0.1-0.2-0.3-0.3-0.4c-0.1,0-0.1,0-0.2-0.1c0-0.1,0.1-0.3,0.1-0.4c0,0,0-0.1,0.1-0.1c0,0,0.3-0.1,0.4-0.1
			c0.9-0.3,2-0.6,2.8-0.9c0,0,0.1,0,0.1,0c0,0.1-0.1,0.1-0.1,0.2c0,0.1-0.1,0.1-0.1,0.2c-0.9,0.2-1.4,0.6-1.7,1.4
			c-0.1,0.2-0.1,0.4-0.1,0.7c0,0.1,0,0.1,0,0.2c0,0.1-0.1,0.2-0.1,0.3c-0.1,0.2-0.1,0.4-0.1,0.6c0,0.1,0,0.2-0.1,0.3
			c0,0-0.1,0.1-0.1,0.1c-0.2,0.2-0.4,0.5-0.6,0.8C73.3,9.5,73.2,9.6,73.2,9.5z M74.8,14.4c0,0.1,0,0.2,0,0.4c0,0.1,0,0.3-0.1,0.4
			c-0.1,0-0.2-0.2-0.2-0.2c-0.5-0.6-0.9-1.3-1.1-2.2c-0.1-0.5-0.1-1.1,0.1-1.6c0.1-0.3,0.3-0.6,0.5-0.9c0-0.1,0.1-0.3,0.2-0.3
			c0.1,0,0.1,0.2,0.2,0.3c0.1,0.2,0.2,0.3,0.3,0.6c0,0.1,0.1,0.3,0.1,0.3c0.1,0,0.2-0.1,0.3-0.1c1.3-0.6,2-1.8,2.4-3.2
			c0-0.1,0.1-0.2,0.1-0.3c0,0,0,0,0,0c0.1,0,0.3,0,0.3,0.1c-0.1,0.9-0.1,1.9,0.1,2.6c0,0.1,0.1,0.2,0.1,0.3c0,0.1-0.1,0.1-0.1,0.2
			c0,0.1-0.1,0.2-0.1,0.2c-0.2,0-0.3-0.1-0.6-0.1c-0.2,0-0.5,0.1-0.6,0.2C75.5,11.7,75.1,12.8,74.8,14.4z M75.3,15.8
			c-0.1,0-0.2-0.3-0.2-0.5c0-0.1,0-0.2,0-0.3c0-0.1,0-0.2,0.1-0.3c0,0,0.1-0.1,0.2-0.1c0.2-0.1,0.4-0.2,0.6-0.3c0,0,0.1,0,0.1,0
			c-0.1,0.5-0.2,0.9-0.5,1.2c0,0-0.1,0.1-0.2,0.1C75.4,15.7,75.3,15.8,75.3,15.8z M75.6,17.3c-0.1-0.1-0.1-0.3-0.1-0.4
			c0,0,0.1-0.1,0.2-0.1c0.1,0,0.2,0.1,0.3,0.2c0.1,0,0.3,0.2,0.3,0.3c0,0.1-0.1,0-0.2,0c-0.1,0-0.1,0-0.2,0
			C75.7,17.2,75.7,17.3,75.6,17.3z M75.8,18.2c0-0.2,0.1-0.4,0.1-0.6c0,0,0,0,0,0c0.5,0.1,0.8,0.3,1.2,0.4c0,0.1,0,0.3,0,0.4
			c-0.2,0-0.4-0.1-0.6-0.2C76.2,18.3,76,18.3,75.8,18.2z M77.2,20c0,0-0.1,0.1-0.1,0.1c0,0-0.1,0.1-0.1,0.1c-0.1,0-0.1-0.1-0.1-0.2
			c-0.2-0.3-0.4-0.6-0.6-0.9C76.1,19,76,18.9,76,18.7c0,0,0,0,0,0c0.5,0,1,0.2,1.3,0.6c0.1,0.1,0.2,0.3,0.2,0.4
			C77.5,19.8,77.3,19.9,77.2,20z M78,18.4c0,0.1,0,0.3,0,0.4c0,0.3,0,0.5-0.1,0.7c-0.2,0-0.2-0.2-0.3-0.3c-0.1-0.2-0.1-0.3-0.1-0.5
			c0-0.4,0.2-0.5,0.4-0.7c0,0,0,0,0.1,0C78.1,18.2,78,18.3,78,18.4z M78,17.8c-0.1,0.1-0.1,0.1-0.2,0.2c-0.1,0-0.2,0.2-0.2,0.2
			c-0.1,0-0.1-0.2-0.1-0.3c0-0.4,0-0.8,0.2-1c0.2-0.3,0.6-0.6,0.9-0.8c0,0,0.1,0,0.1,0c0,0.1,0,0.2-0.1,0.3
			c-0.1,0.3-0.2,0.6-0.3,0.9C78.2,17.5,78.1,17.6,78,17.8z M78.9,18.9c-0.1,0.2-0.2,0.3-0.4,0.5c-0.1,0.1-0.1,0.2-0.3,0.1
			c0-0.1,0-0.3,0-0.4c0-0.5,0.1-0.9,0.2-1.2c0.1-0.1,0.2,0.1,0.2,0.2c0.1,0.1,0.2,0.3,0.3,0.4c0,0.1,0.1,0.2,0.1,0.2
			C79.1,18.7,79,18.8,78.9,18.9z M79.6,18c0,0.1-0.1,0.1-0.2,0.2c0,0-0.1,0.2-0.2,0.2c-0.1,0-0.1-0.1-0.2-0.2
			c-0.2-0.2-0.4-0.4-0.4-0.6c-0.2-0.5,0.1-1,0.2-1.4c0-0.1,0.1-0.3,0.1-0.4c0,0,0,0,0,0c0.1,0,0.2,0.2,0.3,0.3
			c0.1,0.1,0.2,0.2,0.3,0.4c0.2,0.2,0.3,0.5,0.3,0.9C79.9,17.7,79.7,17.8,79.6,18z M80.3,15.2c0,0.2,0,0.5,0,0.7
			c0,0.2,0,0.5-0.1,0.7c0,0.1-0.1,0.2-0.1,0.2c0,0-0.1-0.1-0.1-0.1c-0.2-0.3-0.4-0.6-0.6-0.9c-0.1-0.2-0.2-0.4-0.1-0.7
			c0-0.1,0.1-0.3,0.2-0.4c0.1-0.1,0.1-0.3,0.2-0.4c0,0,0,0,0,0c0.1,0,0.2,0.1,0.2,0.2C80,14.7,80.2,14.9,80.3,15.2z M80.8,11.7
			c-0.1,0.2-0.2,0.5-0.2,0.9c-0.1,0-0.1,0-0.2,0.1c-0.1,0-0.2,0.1-0.2,0.1c-0.1,0-0.2,0.1-0.2,0.1c-0.1,0-0.1-0.1-0.2-0.2
			c-0.3-0.5-0.7-0.9-0.9-1.5c0-0.1-0.1-0.2-0.1-0.3c0,0,0,0,0,0c0.4,0,0.6,0.2,0.9,0.4c0.3,0.1,0.5,0.3,0.9,0.3c0.1,0,0.2,0,0.2,0
			C80.9,11.6,80.9,11.6,80.8,11.7z M79.8,10.9c-0.1,0-0.1-0.1-0.2-0.1c-0.1,0-0.2-0.1-0.2-0.2c0-0.1,0.2-0.1,0.2-0.2
			c0.2-0.1,0.5-0.3,0.7-0.4c0,0,0,0,0,0c0.1,0,0.2,0,0.2,0.1c0.3,0.2,0.7,0.3,1.2,0.4c0.1,0,0.2,0,0.2,0.1c0,0.1-0.1,0.1-0.2,0.2
			c-0.2,0.1-0.5,0.2-0.8,0.3C80.6,11.1,80.1,11.1,79.8,10.9z M83,13.2c-0.2,0-0.4,0-0.6,0c-0.2,0-0.4,0-0.6-0.1
			c-0.1,0-0.3-0.1-0.4-0.2c-0.1,0-0.1-0.1-0.2-0.1c-0.1,0-0.2-0.1-0.2-0.1c0-0.1,0.2-0.2,0.3-0.2c0.1-0.1,0.2-0.1,0.3-0.1
			c0.6-0.1,1,0.3,1.4,0.5c0.1,0,0.4,0.1,0.4,0.2C83.4,13.1,83.1,13.2,83,13.2z M85,12.5c-0.2,0.1-0.4,0.1-0.6,0.2
			c-0.1,0-0.2,0.1-0.3,0.1c-0.1,0-0.2,0-0.3-0.1c-0.5-0.1-0.8-0.2-1.2-0.5c0,0-0.1-0.1-0.2-0.1c-0.1,0-0.2-0.1-0.2-0.1
			c0-0.1,0.2-0.1,0.2-0.1c0.3-0.1,0.5-0.2,0.8-0.3c0.4,0,0.8,0.1,1.1,0.2c0.2,0.1,0.4,0.2,0.7,0.3c0.1,0,0.2,0.1,0.2,0.1
			C85.3,12.4,85.1,12.5,85,12.5z M86.1,11.6C86,11.8,86,11.9,85.9,12c0,0-0.1,0.1-0.2,0.1c-0.1,0-0.3,0-0.4-0.1
			c-0.3-0.1-0.4-0.2-0.7-0.3c-0.1,0-0.3-0.1-0.3-0.2c0-0.1,0.2-0.1,0.3-0.1c0.1,0,0.3,0,0.4-0.1c0.3,0,0.5-0.1,0.8-0.1
			c0.1,0,0.4,0,0.5,0C86.3,11.4,86.2,11.5,86.1,11.6z"/>
	</g>
	<g>
		<path class="st1" d="M140.7,44.2C140.7,44.2,140.7,44.2,140.7,44.2c0.1-3.1-2.2-4.6-4.9-5c-2.6-0.4-5.9,0-8.8-0.1c0,0,0,0,0,0.1
			c0,0,0,0,0,0c0,0,0,0,0,0c0,0,0,0,0,0c0,0,0,0,0,0c0,0,0,0,0,0c0,0,0,0,0,0c0,0,0,0,0,0c0,0,0,0,0,0c0,0,0,0,0,0c0,0,0,0,0,0
			c0,0,0,0,0,0c0,0,0,0,0,0c0,0,0,0,0,0c0,0.2,0.2,0.1,0.3,0.1c1,0,2.2-0.1,2.6,0.5c0,0.7,0,1.3,0,2c0,0,0,0,0,0c0,0,0,0,0,0
			c0,0,0,0,0,0c0,0,0,0,0,0c0,0,0,0,0,0c0,0.7,0,1.4,0,2.1c0,1.4,0,2.8,0,4.2c-0.4,0.6-1.5,0.4-2.5,0.5c-0.2,0-0.4-0.1-0.4,0.2
			c0,0,0,0,0,0c0,0,0,0,0,0c0,0,0,0,0,0c0,0,0,0,0,0c0,0,0,0,0,0c0,0,0,0,0,0c0,0,0,0,0,0c0,0,0,0,0,0c0,0,0,0,0,0c0,0,0,0,0,0
			c0,0,0,0,0,0c0,0,0,0,0,0c0,0.2,0.1,0.1,0.3,0.1c0.1,0,0.4,0,0.4,0c2.1,0,4.2,0,6.2,0c3.9,0,6.7-1.3,6.9-5c0,0,0,0,0,0
			c0,0,0,0,0,0C140.7,44.3,140.7,44.3,140.7,44.2C140.7,44.3,140.7,44.3,140.7,44.2C140.7,44.3,140.7,44.3,140.7,44.2L140.7,44.2
			C140.7,44.3,140.7,44.3,140.7,44.2C140.7,44.3,140.7,44.3,140.7,44.2C140.7,44.3,140.7,44.3,140.7,44.2L140.7,44.2
			C140.7,44.2,140.7,44.2,140.7,44.2z M135,39.7c2,0.3,2.9,1.4,3.1,3.5c0,0.4,0.1,0.8,0,1.2c0,1.4-0.3,2.7-0.9,3.4
			c-0.5,0.6-1.5,0.9-2.5,1c-0.8,0.1-1.8,0.1-2.4-0.3c0-1.4,0-2.8,0-4.3c0-1.4,0-2.9,0-4.3C132.7,39.4,134.2,39.6,135,39.7z"/>
		<path class="st1" d="M9,43.8c0.7-0.1,1.3-0.3,1.7-0.8c0.4-0.4,0.5-1,0.5-1.6c0,0,0,0,0,0c0,0,0,0,0,0c0,0,0,0,0,0c0,0,0,0,0,0
			c0,0,0,0,0,0c0-0.4-0.1-0.7-0.3-1C10.2,38.9,7.9,39,5.6,39c-2,0-4,0-5.6,0c0,0,0,0,0,0.1c0,0,0,0,0,0c0,0,0,0,0,0c0,0,0,0,0,0
			c0,0,0,0,0,0c0,0,0,0,0,0c0,0,0,0,0,0c0,0,0,0,0,0c0,0,0,0,0,0c0,0,0,0,0,0c0,0,0,0,0,0c0,0,0,0,0,0c0,0,0,0,0,0c0,0,0,0,0,0
			c0.8,0.2,2.7-0.2,2.9,0.6c0,0.1,0,0.1,0,0.2c0,0.2,0,0.5,0,0.7c0,0,0,0,0,0c0,0,0,0,0,0c0,0,0,0,0,0c0,0,0,0,0,0c0,0,0,0,0,0
			c0,0,0,0,0,0c0,2.4,0,5,0,7.3c-0.5,0.7-1.5,0.4-2.5,0.5C0.1,48.9,0,48.8,0,49c0,0,0,0,0,0c0,0,0,0,0,0c0,0,0,0,0,0c0,0,0,0,0,0
			c0,0,0,0,0,0c0,0,0,0,0,0c0,0,0,0,0,0c0,0,0,0,0,0c0,0,0,0,0,0c0,0,0,0,0,0c0,0,0,0,0,0c0,0,0,0,0,0c0,0.2,0.3,0.1,0.7,0.1
			c1.9,0,3.9,0,5.6,0c2.7,0,5.7-0.2,5.6-3c0,0,0,0,0,0c0,0,0,0,0,0c0,0,0,0,0,0c0,0,0,0,0,0v0c0,0,0,0,0,0c0,0,0,0,0,0c0,0,0,0,0,0
			v0c0,0,0,0,0,0c0,0,0,0,0,0c0,0,0,0,0,0C11.8,44.6,10.6,44.1,9,43.8z M8.7,41.3C8.7,43,7.5,44,5.4,43.7c0-1.4,0-2.7,0-4.1
			C7.1,39.3,8.5,39.8,8.7,41.3z M8.5,44.7c0.5,0.4,0.8,1.2,0.8,2c0,0.5-0.2,1-0.5,1.4c-0.6,0.8-2,1-3.5,0.8c0-1.5,0-3,0-4.6
			C6.4,44.1,7.8,44.1,8.5,44.7z"/>
		<path class="st1" d="M26.9,45.6c-0.2-0.1-0.2,0.2-0.3,0.4c-0.5,1.4-1.1,2.8-2.8,2.9c-1,0.1-1.7,0-2.8,0c0-1.4,0-2.7,0-4.1
			c1.6-0.3,2.3,0.7,2.5,1.7c0,0.2,0,0.5,0.2,0.6c0.2,0,0.2-0.1,0.2-0.3c0,0,0,0,0,0c0,0,0,0,0,0c0,0,0,0,0,0c0,0,0,0,0,0
			c0,0,0,0,0,0c0-0.1,0-0.1,0-0.2c0-0.7,0-1.4,0-2c0,0,0,0,0,0c0,0,0,0,0,0c0,0,0,0,0,0c0,0,0,0,0,0c0,0,0,0,0,0c0-0.7,0-1.3,0-2
			c0-0.1,0-0.1,0-0.2c0,0,0,0,0,0c0,0,0,0,0,0c0,0,0,0,0,0c0,0,0,0,0,0c0,0,0,0,0,0c0-0.2,0-0.4-0.2-0.3c-0.1,0-0.1,0.1-0.1,0.1
			c0,0,0,0,0,0c0,0,0,0,0,0c0,0,0,0,0,0c0,0,0,0,0,0c0,0,0,0,0,0c0,0,0,0,0,0.1c-0.2,1.4-0.7,2.4-2.5,2.1c0-1.5,0-3,0-4.4
			c0.8,0,1.2-0.1,1.9,0c1.7,0.2,2.3,1.6,2.9,2.9c0.1,0.2,0.1,0.7,0.4,0.5c0,0,0.1-0.1,0.1-0.2c0,0,0,0,0,0c0,0,0,0,0,0c0,0,0,0,0,0
			c0,0,0,0,0,0c0,0,0,0,0,0c0-0.3-0.2-0.7-0.2-0.8c-0.3-1.2-0.5-2.3-0.7-3.5c-0.1,0-0.2,0-0.3,0c-0.3,0.4-1,0.6-1.6,0.6
			c-1.1,0.1-2.6,0-3.9,0c-1,0-2.5-0.1-3.5,0c-0.2,0-0.4-0.1-0.3,0.2c0,0,0,0,0,0c0,0,0,0,0,0c0,0,0,0,0,0c0,0,0,0,0,0c0,0,0,0,0,0
			c0,0,0,0,0,0c0,0,0,0,0,0c0,0,0,0,0,0c0,0,0,0,0,0c0,0,0,0,0,0c0,0,0,0,0,0c0,0,0,0,0,0c0,0.2,0.1,0.1,0.3,0.1c0.4,0,1.2,0,1.4,0
			c0.4,0,1.1,0.2,1.2,0.5c0,0.1,0,0.1,0,0.2c0,0.2,0,0.5,0,0.7c0,0,0,0,0,0c0,0,0,0,0,0c0,0,0,0,0,0c0,0,0,0,0,0c0,0,0,0,0,0
			s0,0,0,0c0,2.5,0,4.8,0,7.3c-0.3,0.6-1.5,0.4-2.5,0.5c-0.2,0-0.4-0.1-0.4,0.2c0,0,0,0,0,0c0,0,0,0,0,0c0,0,0,0,0,0c0,0,0,0,0,0
			c0,0,0,0,0,0c0,0,0,0,0,0c0,0,0,0,0,0c0,0,0,0,0,0c0,0,0,0,0,0c0,0,0,0,0,0c0,0,0,0,0,0c0,0,0,0,0,0c0,0.2,0.2,0.1,0.4,0.1
			c1.2,0,2.8,0,3.9,0c1.5,0,3.2-0.1,4.4,0c0.6,0,1,0.2,1.3,0.7c0.1,0.1,0.2,0.5,0.4,0.4c0.2-0.1,0.2-0.9,0.2-1.2
			c0.1-1,0.3-2,0.5-2.9c0-0.1,0.1-0.3,0.1-0.4c0,0,0,0,0,0c0,0,0,0,0,0c0,0,0,0,0,0c0,0,0,0,0,0c0,0,0,0,0,0
			C27,45.7,27,45.6,26.9,45.6z"/>
		<path class="st1" d="M45,47.7c-0.2-0.2-0.5,0.3-0.9,0.4c-0.3,0.1-0.7,0.2-1.2,0.1c-1.8-0.2-2.7-2.1-3.4-3.5
			c1.3-0.4,2.6-0.9,2.7-2.4c0-0.1,0-0.3,0-0.4c0,0,0,0,0,0c0,0,0,0,0,0c0,0,0,0,0,0c0,0,0,0,0,0c0,0,0,0,0,0c0-0.9-0.4-1.4-0.9-1.8
			c-2.1-1.6-7.7-0.6-11-0.9c0,0,0,0,0,0.1c0,0,0,0,0,0c0,0,0,0,0,0c0,0,0,0,0,0c0,0,0,0,0,0c0,0,0,0,0,0c0,0,0,0,0,0c0,0,0,0,0,0
			c0,0,0,0,0,0c0,0,0,0,0,0c0,0,0,0,0,0c0,0,0,0,0,0c0,0,0,0,0,0c0,0,0,0,0,0c0.5,0.1,1.1,0,1.7,0c0.4,0,1.1,0.2,1.2,0.5
			c0,0.1,0,0.1,0,0.2c0,0.2,0,0.5,0,0.7c0,0,0,0,0,0c0,0,0,0,0,0c0,0,0,0,0,0c0,0,0,0,0,0c0,0,0,0,0,0c0,0,0,0,0,0c0,2.4,0,5,0,7.3
			c-0.4,0.5-1.1,0.5-2,0.5c-0.3,0-0.6-0.1-0.6,0.2c0,0,0,0,0,0c0,0,0,0,0,0c0,0,0,0,0,0c0,0,0,0,0,0c0,0,0,0,0,0c0,0,0,0,0,0
			c0,0,0,0,0,0c0,0,0,0,0,0c0,0,0,0,0,0c0,0,0,0,0,0c0,0,0,0,0,0c0,0,0,0,0,0c0,0.2,0.1,0.1,0.3,0.1c1.2,0.1,2.4,0,3.5,0
			c1.1,0,2.3,0.1,3.5,0c0.2,0,0.4,0,0.3-0.2c0,0,0,0,0,0c0,0,0,0,0,0c0,0,0,0,0,0c0,0,0,0,0,0c0,0,0,0,0,0c0,0,0,0,0,0c0,0,0,0,0,0
			c0,0,0,0,0,0c0,0,0,0,0,0c0,0,0,0,0,0c0,0,0,0,0,0c0,0,0,0,0,0c0-0.2-0.4-0.1-0.6-0.1c-0.7,0-1.8,0-2-0.5c0,0,0-0.1,0-0.2
			c0-0.2,0-0.4,0-0.6c0,0,0,0,0,0c0,0,0,0,0,0c0,0,0,0,0,0c0,0,0,0,0,0c0,0,0,0,0,0v0c0,0,0,0,0,0c0,0,0,0,0,0c0,0,0,0,0,0v0
			c0,0,0,0,0,0c0,0,0,0,0,0c0-0.5,0-0.9,0-1.4c0-0.5,0-0.9,0-1.4c0.6,0,1.1,0.1,1.8,0.1c0.6,2,1.4,4.1,3.4,4.6
			c1.6,0.4,2.9-0.3,3.6-1.1c0.2-0.2,0.5-0.4,0.4-0.5c0,0,0,0,0,0c0,0,0,0,0,0c0,0,0,0,0,0c0,0,0,0,0,0C45,47.8,45,47.8,45,47.7
			C45,47.8,45,47.8,45,47.7z M35.7,42C35.7,42,35.7,41.9,35.7,42C35.7,41.9,35.7,41.9,35.7,42C35.7,41.9,35.7,41.9,35.7,42
			C35.7,41.9,35.7,41.9,35.7,42c0-0.1,0-0.1,0-0.1c0-0.4,0-0.7,0-1.1c0-0.4,0-0.7,0.1-1c0.1,0,0.1-0.1,0.2-0.1
			c1.3-0.2,2.5,0,3.1,0.6c0.4,0.4,0.6,1.1,0.6,1.7c0,0.7-0.2,1.3-0.6,1.7c-0.7,0.8-2,0.8-3.4,0.6C35.7,43.6,35.7,42.8,35.7,42
			C35.7,42,35.7,42,35.7,42z"/>
		<path class="st1" d="M61.1,47.7c-0.2-0.2-0.5,0.3-0.9,0.4c-0.3,0.1-0.7,0.2-1.2,0.1c-1.8-0.2-2.7-2.1-3.4-3.5
			c1.3-0.4,2.6-0.9,2.7-2.4c0-0.1,0-0.3,0-0.4c0,0,0,0,0,0c0,0,0,0,0,0c0,0,0,0,0,0c0,0,0,0,0,0c0,0,0,0,0,0c0-0.9-0.4-1.4-0.9-1.8
			c-2.1-1.6-7.7-0.6-11-0.9c0,0,0,0,0,0.1c0,0,0,0,0,0c0,0,0,0,0,0c0,0,0,0,0,0c0,0,0,0,0,0c0,0,0,0,0,0c0,0,0,0,0,0c0,0,0,0,0,0
			c0,0,0,0,0,0c0,0,0,0,0,0c0,0,0,0,0,0c0,0,0,0,0,0c0,0,0,0,0,0c0,0,0,0,0,0c0.5,0.1,1.1,0,1.7,0c0.4,0,1.1,0.2,1.2,0.5
			c0,0.1,0,0.1,0,0.2c0,0.2,0,0.5,0,0.7c0,0,0,0,0,0c0,0,0,0,0,0c0,0,0,0,0,0c0,0,0,0,0,0c0,0,0,0,0,0c0,0,0,0,0,0c0,2.4,0,5,0,7.3
			C49,49,48.3,49,47.4,49c-0.3,0-0.6-0.1-0.6,0.2c0,0,0,0,0,0c0,0,0,0,0,0c0,0,0,0,0,0c0,0,0,0,0,0c0,0,0,0,0,0c0,0,0,0,0,0
			c0,0,0,0,0,0c0,0,0,0,0,0c0,0,0,0,0,0c0,0,0,0,0,0c0,0,0,0,0,0c0,0,0,0,0,0c0,0.2,0.1,0.1,0.3,0.1c1.2,0.1,2.4,0,3.5,0
			c1.1,0,2.3,0.1,3.5,0c0.2,0,0.4,0,0.3-0.2c0,0,0,0,0,0c0,0,0,0,0,0c0,0,0,0,0,0c0,0,0,0,0,0c0,0,0,0,0,0c0,0,0,0,0,0c0,0,0,0,0,0
			c0,0,0,0,0,0c0,0,0,0,0,0c0,0,0,0,0,0s0,0,0,0c0,0,0,0,0,0c0-0.2-0.4-0.1-0.6-0.1c-0.7,0-1.8,0-2-0.5c0,0,0-0.1,0-0.2
			c0-0.2,0-0.4,0-0.6c0,0,0,0,0,0c0,0,0,0,0,0c0,0,0,0,0,0c0,0,0,0,0,0c0,0,0,0,0,0v0c0,0,0,0,0,0c0,0,0,0,0,0c0,0,0,0,0,0v0
			c0,0,0,0,0,0c0,0,0,0,0,0c0-0.5,0-0.9,0-1.4c0-0.5,0-0.9,0-1.4c0.6,0,1.1,0.1,1.8,0.1c0.6,2,1.4,4.1,3.4,4.6
			c1.6,0.4,2.9-0.3,3.6-1.1c0.2-0.2,0.5-0.4,0.4-0.5c0,0,0,0,0,0c0,0,0,0,0,0c0,0,0,0,0,0c0,0,0,0,0,0
			C61.2,47.8,61.2,47.8,61.1,47.7C61.2,47.8,61.2,47.8,61.1,47.7z M51.9,42C51.9,42,51.9,41.9,51.9,42C51.9,41.9,51.9,41.9,51.9,42
			C51.9,41.9,51.9,41.9,51.9,42C51.9,41.9,51.9,41.9,51.9,42c0-0.1,0-0.1,0-0.1c0-0.4,0-0.7,0-1.1c0-0.4,0-0.7,0.1-1
			c0.1,0,0.1-0.1,0.2-0.1c1.3-0.2,2.5,0,3.1,0.6c0.4,0.4,0.6,1.1,0.6,1.7c0,0.7-0.2,1.3-0.6,1.7c-0.7,0.8-2,0.8-3.4,0.6
			C51.9,43.6,51.9,42.8,51.9,42C51.9,42,51.9,42,51.9,42z"/>
		<path class="st1" d="M73.9,39.1c-1.4,0-2.6,0-3.9,0c-0.3,0-0.5-0.1-0.5,0.2c0,0,0,0,0,0c0,0,0,0,0,0c0,0,0,0,0,0c0,0,0,0,0,0
			c0,0,0,0,0,0c0,0,0,0,0,0c0,0,0,0,0,0c0,0,0,0,0,0c0,0,0,0,0,0c0,0,0,0,0,0c0,0,0,0,0,0c0,0,0,0,0,0c0,0.2,0.2,0.1,0.5,0.1
			c0.6,0,1.2,0,1.3,0.4c-0.1,0.4-0.5,0.9-0.7,1.1c-0.8,1.2-1.5,2.4-2.3,3.5c-0.7-1.2-1.4-2.3-2.1-3.5c-0.1-0.2-0.6-0.7-0.6-1.1
			c0,0,0,0,0,0c0.1-0.3,0.7-0.3,1.2-0.3c0.3,0,0.6,0.1,0.5-0.2c0,0,0,0,0,0c0,0,0,0,0,0c0,0,0,0,0,0c0,0,0,0,0,0c0,0,0,0,0,0
			c0,0,0,0,0,0c0,0,0,0,0,0c0,0,0,0,0,0c0,0,0,0,0,0c0,0,0,0,0,0c0,0,0,0,0,0c0,0,0,0,0,0c0-0.2-0.1-0.1-0.3-0.1
			c-2.2-0.2-4.4,0.1-6.4,0c0,0,0,0,0,0.1c0,0,0,0,0,0c0,0,0,0,0,0c0,0,0,0,0,0c0,0,0,0,0,0c0,0,0,0,0,0c0,0,0,0,0,0c0,0,0,0,0,0
			c0,0,0,0,0,0c0,0,0,0,0,0c0,0,0,0,0,0c0,0,0,0,0,0c0,0,0,0,0,0s0,0,0,0c0.9,0,1.8,0.1,2.1,0.6c0.3,0.4,0.6,0.9,0.9,1.4
			c0.6,1,1.1,1.9,1.7,2.9c0.2,0.4,0.8,1.1,0.9,1.5c0,0.2,0.1,0.4,0.1,0.6c0,0.5-0.1,0.9-0.1,1.4c0,0,0,0,0,0c0,0,0,0,0,0
			c0,0,0,0,0,0c0,0,0,0,0,0c0,0,0,0,0,0c0,0.2,0,0.3,0,0.5c-0.3,0.5-1.1,0.5-2,0.5c-0.3,0-0.6-0.1-0.6,0.2c0,0,0,0,0,0c0,0,0,0,0,0
			c0,0,0,0,0,0c0,0,0,0,0,0c0,0,0,0,0,0c0,0,0,0,0,0c0,0,0,0,0,0c0,0,0,0,0,0c0,0,0,0,0,0c0,0,0,0,0,0c0,0,0,0,0,0c0,0,0,0,0,0
			c0,0.2,0.2,0.1,0.3,0.1c1.3,0.1,2.3,0,3.5,0c1,0,2.3,0.1,3.5,0c0.2,0,0.4,0.1,0.3-0.2c0,0,0,0,0,0c0,0,0,0,0,0c0,0,0,0,0,0
			c0,0,0,0,0,0l0,0c0,0,0,0,0,0c0,0,0,0,0,0c0,0,0,0,0,0c0,0,0,0,0,0c0,0,0,0,0,0s0,0,0,0c0,0,0,0,0,0c0-0.2-0.4-0.1-0.6-0.1
			c-0.7,0-1.8,0-2-0.5c0,0,0-0.1,0-0.2c0-0.2,0-0.4,0-0.5c0,0,0,0,0,0s0,0,0,0c0,0,0,0,0,0c0,0,0,0,0,0c0,0,0,0,0,0c0,0,0,0,0,0
			c0-0.9,0-1.6,0-2.6c0.5-0.7,1-1.6,1.6-2.4c0.6-0.8,1.1-1.8,1.6-2.4c0.4-0.5,1-0.6,1.9-0.6c0.3,0,0.5,0.1,0.5-0.2c0,0,0,0,0,0
			c0,0,0,0,0,0c0,0,0,0,0,0c0,0,0,0,0,0c0,0,0,0,0,0c0,0,0,0,0,0c0,0,0,0,0,0c0,0,0,0,0,0c0,0,0,0,0,0c0,0,0,0,0,0c0,0,0,0,0,0
			c0,0,0,0,0,0C74.4,39,74.2,39.1,73.9,39.1z"/>
		<path class="st1" d="M93.5,39c-1.5,0-2.7,0-4.1,0c-0.3,0-0.6-0.1-0.6,0.2c0,0,0,0,0,0c0,0,0,0,0,0c0,0,0,0,0,0c0,0,0,0,0,0
			c0,0,0,0,0,0c0,0,0,0,0,0c0,0,0,0,0,0c0,0,0,0,0,0c0,0,0,0,0,0c0,0,0,0,0,0c0,0,0,0,0,0c0,0,0,0,0,0c0,0.2,0.2,0.1,0.4,0.1
			c0.7,0,1.5,0,1.8,0.3c-0.6,2.1-1.4,4.1-2.1,6.1c-0.9-2.1-1.8-4.3-2.7-6.4c-0.5,0.2-1,0.5-1.6,0.7c-0.7,2-1.5,3.9-2.2,5.8
			c-0.6-1.6-1.2-3.1-1.9-4.7c-0.1-0.2-0.5-1-0.6-1.4c0,0,0,0,0,0c0.1-0.4,0.8-0.3,1.4-0.3c0.3,0,0.6,0.1,0.6-0.2c0,0,0,0,0,0
			c0,0,0,0,0,0c0,0,0,0,0,0c0,0,0,0,0,0c0,0,0,0,0,0c0,0,0,0,0,0c0,0,0,0,0,0c0,0,0,0,0,0c0,0,0,0,0,0c0,0,0,0,0,0c0,0,0,0,0,0
			c0,0,0,0,0,0c0-0.2-0.1-0.1-0.3-0.1c-2.3-0.2-4.6,0.1-6.8,0c0,0,0,0,0,0.1c0,0,0,0,0,0c0,0,0,0,0,0c0,0,0,0,0,0c0,0,0,0,0,0
			c0,0,0,0,0,0c0,0,0,0,0,0c0,0,0,0,0,0c0,0,0,0,0,0c0,0,0,0,0,0c0,0,0,0,0,0c0,0,0,0,0,0c0,0,0,0,0,0c0,0,0,0,0,0
			c0.9,0,1.8,0,2.3,0.4c0.6,0.5,0.9,1.6,1.2,2.3c1,2.3,1.9,4.5,2.9,6.8c0.1,0.2,0.1,0.5,0.3,0.6c0.2-0.1,0.2-0.3,0.3-0.4
			c1-2.4,1.8-4.8,2.8-7.1c1,2.4,2.1,4.8,3.1,7.1c0.1,0.1,0.1,0.4,0.3,0.4c0.2-0.1,0.2-0.4,0.2-0.6c1-2.5,2-5.2,2.9-7.8
			c0.2-0.4,0.2-0.9,0.4-1.2c0.3-0.4,1.2-0.4,1.9-0.4c0.2,0,0.5,0,0.5-0.2c0,0,0,0,0,0c0,0,0,0,0,0c0,0,0,0,0,0c0,0,0,0,0,0
			c0,0,0,0,0,0c0,0,0,0,0,0c0,0,0,0,0,0c0,0,0,0,0,0c0,0,0,0,0,0c0,0,0,0,0,0c0,0,0,0,0,0c0,0,0,0,0,0C94.1,38.9,93.8,39,93.5,39z"
			/>
		<path class="st1" d="M105.5,39.9c-1.1-0.6-2.5-0.9-4.3-0.8c-1,0-1.9,0.2-2.7,0.6c-0.8,0.3-1.4,0.7-1.9,1.3
			c-0.7,0.7-1.3,2.1-1.2,3.5c0,0,0,0,0,0c0,0,0,0,0,0c0,0,0,0,0,0c0,0,0,0,0,0c0,0,0,0,0,0c0,0.5,0.1,1,0.2,1.5
			c0.6,1.7,2,2.8,3.8,3.3c1.9,0.5,4.2,0.4,5.9-0.5c1.6-0.8,2.6-2.2,2.7-4.3c0,0,0,0,0,0c0,0,0,0,0,0c0,0,0,0,0,0c0,0,0,0,0,0
			c0,0,0,0,0,0c0,0,0,0,0,0c0,0,0,0,0,0c0,0,0,0,0,0c0,0,0,0,0,0c0,0,0,0,0,0c0,0,0,0,0,0c0,0,0,0,0,0
			C108.1,42.1,106.9,40.6,105.5,39.9z M103.4,48.7c-1,0.6-2.5,0.5-3.5,0c-1.4-0.8-2-2.7-1.9-4.6c0.1-1.9,0.9-3.8,2.2-4.5
			c0.2-0.1,0.5-0.2,0.9-0.2c1.8-0.2,3,0.6,3.6,1.7c0.5,0.8,0.7,1.9,0.7,3C105.3,46.1,104.7,48,103.4,48.7z"/>
		<path class="st1" d="M121.6,39.9c-1.1-0.6-2.5-0.9-4.3-0.8c-1,0-1.9,0.2-2.7,0.6c-0.8,0.3-1.4,0.7-1.9,1.3
			c-0.7,0.7-1.3,2.1-1.2,3.5c0,0,0,0,0,0c0,0,0,0,0,0c0,0,0,0,0,0c0,0,0,0,0,0c0,0,0,0,0,0c0,0.5,0.1,1,0.2,1.5
			c0.6,1.7,2,2.8,3.8,3.3c1.9,0.5,4.2,0.4,5.9-0.5c1.6-0.8,2.6-2.2,2.7-4.3c0,0,0,0,0,0c0,0,0,0,0,0c0,0,0,0,0,0c0,0,0,0,0,0
			c0,0,0,0,0,0c0,0,0,0,0,0c0,0,0,0,0,0c0,0,0,0,0,0c0,0,0,0,0,0c0,0,0,0,0,0c0,0,0,0,0,0c0,0,0,0,0,0
			C124.3,42.1,123.1,40.6,121.6,39.9z M119.6,48.7c-1,0.6-2.5,0.5-3.5,0c-1.4-0.8-2-2.7-1.9-4.6c0.1-1.9,0.9-3.8,2.2-4.5
			c0.2-0.1,0.5-0.2,0.9-0.2c1.8-0.2,3,0.6,3.6,1.7c0.5,0.8,0.7,1.9,0.7,3C121.5,46.1,120.8,48,119.6,48.7z"/>
	</g>
</g>
</svg>
