<?xml version="1.0" encoding="utf-8"?>
<!-- Generator: Adobe Illustrator 19.0.0, SVG Export Plug-In . SVG Version: 6.00 Build 0)  -->
<svg version="1.1" id="Слой_1" xmlns="http://www.w3.org/2000/svg" xmlns:xlink="http://www.w3.org/1999/xlink" x="0px" y="0px"
	 viewBox="0 0 91.1 67" style="enable-background:new 0 0 91.1 67;" xml:space="preserve">
<style type="text/css">
	.st0{clip-path:url(#SVGID_2_);fill:#FFFFFF;}
	
		.st1{clip-path:url(#SVGID_2_);fill:none;stroke:#04D959;stroke-width:1.9;stroke-linecap:round;stroke-linejoin:round;stroke-miterlimit:10;}
	
		.st2{clip-path:url(#SVGID_2_);fill:none;stroke:#04D959;stroke-width:2;stroke-linecap:round;stroke-linejoin:round;stroke-miterlimit:10;}
	.st3{clip-path:url(#SVGID_2_);fill:#04D959;}
	.st4{clip-path:url(#SVGID_2_);fill:none;stroke:#04D959;stroke-linecap:round;stroke-linejoin:round;stroke-miterlimit:10;}
	.st5{clip-path:url(#SVGID_2_);fill:none;stroke:#FFFFFF;stroke-linecap:round;stroke-miterlimit:10;}
</style>
<g>
	<defs>
		<rect id="SVGID_1_" y="0" width="91.1" height="67"/>
	</defs>
	<clipPath id="SVGID_2_">
		<use xlink:href="#SVGID_1_"  style="overflow:visible;"/>
	</clipPath>
	<path class="st0" d="M64.1,18.9c-2-5.4-6-9.3-9-11.8h0c-3.9-3.3-9.2-5.6-16.3-6.8c-7.8-1.4-11.7,4.6-12.7,8c-1,3-8.7,26.5-9.6,31.1
		c-1,5.2,0,8.2,0.2,8.7l0.6,1.5L19,50c0.7,0.2,1.6,0.3,2.7,0.3c4.8-0.3,13.9-4,32.3-12.9c1.9-0.9,3.4-1.6,4.4-2.1
		C65,32.3,67,26.8,64.1,18.9"/>
	<circle class="st1" cx="38.4" cy="33.9" r="0.3"/>
	<path class="st1" d="M52.9,9.7c2.5,2.1,6.2,5.6,7.9,10.3c1.7,4.7,2.1,9.4-3.9,12.1c-6,2.8-32.3,16.1-36.8,14.5c0,0-0.9-2.3-0.1-6.8
		c0.8-4.5,9.5-30.7,9.5-30.7s1.9-6.8,8.7-5.6C45,4.9,49.7,7,52.9,9.7z"/>
	<path class="st1" d="M24.4,39.3c3,1,6.2-0.6,7.2-3.6c1-3-0.6-6.2-3.6-7.2"/>
	<path class="st2" d="M44.8,21.6c0,0-1.2,1-2.3,0.2c-0.7-0.6-0.8-1.6-0.2-2.3L44.8,21.6z"/>
	<path class="st3" d="M36.9,14.3c-0.2,0.3,0,0.8,0.4,1.2c0.5,0.4,1,0.4,1.2,0.1c0.2-0.3,0-0.8-0.4-1.2C37.7,14.1,37.2,14,36.9,14.3"
		/>
	<path class="st3" d="M49.4,24.3c-0.2,0.3,0,0.8,0.4,1.2c0.5,0.4,1,0.4,1.2,0.1c0.2-0.3,0-0.8-0.4-1.2C50.2,24.1,49.7,24,49.4,24.3"
		/>
	<path class="st1" d="M57.2,22.3c-1.7,4-5.5,6.9-10.1,7.2C40.5,30,34.8,25,34.4,18.5c-0.3-3.6,1.1-7,3.5-9.3"/>
	<polyline class="st4" points="40.4,14.4 43.2,15.7 41.5,13 	"/>
	<polyline class="st4" points="50.6,22.5 48.6,20.1 51.7,21.1 	"/>
	<path class="st5" d="M26.3,12.3C17.3,18.4,8.7,25.4,6,29.2"/>
	<path class="st0" d="M3.8,30.3c0.6-0.9,1.8-3.4,3.1-2.8c0.7,0.3,0.9,0.8,0.8,1.4c0.3,0.7,0.4,1.5,0.4,2.3c0,0.1,0,0.3-0.1,0.4
		c-0.1,0.3-0.5,0.5-0.8,0.6c-0.3,0.1-0.6,0.2-0.9,0.3c-0.2,0.4-0.5,0.8-0.8,1.1c-0.2,0.2-0.4,0.3-0.6,0.4c-0.3,0.1-0.7,0-1-0.2
		c-0.3-0.2-0.6-0.4-0.8-0.7c-0.3-0.4-0.3-1-0.1-1.5C3.2,31.1,3.5,30.7,3.8,30.3"/>
	<path class="st5" d="M59.4,34.3c0,0,13.6-5.1,27.2-12.7"/>
	<path class="st0" d="M84.6,20.2c-0.5-4.8,6.6-2.7,6.5-0.2c-0.1,1.6-2,2.6-3.4,2.8C85.3,23.2,84.8,22.2,84.6,20.2"/>
	<line class="st5" x1="11.2" y1="46.4" x2="3.9" y2="55.3"/>
	<line class="st5" x1="8.1" y1="58.2" x2="0.5" y2="66.5"/>
	<line class="st5" x1="12.2" y1="53.8" x2="11.2" y2="54.8"/>
	<line class="st5" x1="19.7" y1="54.3" x2="8" y2="64.9"/>
</g>
</svg>
