<?xml version="1.0" encoding="utf-8"?>
<!-- Generator: Adobe Illustrator 19.0.0, SVG Export Plug-In . SVG Version: 6.00 Build 0)  -->
<svg version="1.1" id="Слой_1" xmlns="http://www.w3.org/2000/svg" xmlns:xlink="http://www.w3.org/1999/xlink" x="0px" y="0px"
	 viewBox="0 0 43.6 58.6" style="enable-background:new 0 0 43.6 58.6;" xml:space="preserve">
<style type="text/css">
	.st0{clip-path:url(#SVGID_2_);fill:#FFFFFF;}
	
		.st1{clip-path:url(#SVGID_2_);fill:none;stroke:#04D959;stroke-width:1.9;stroke-linecap:round;stroke-linejoin:round;stroke-miterlimit:10;}
	
		.st2{clip-path:url(#SVGID_2_);fill:none;stroke:#04D959;stroke-width:1.304;stroke-linecap:round;stroke-linejoin:round;stroke-miterlimit:10;}
	.st3{clip-path:url(#SVGID_2_);fill:#04D959;}
	.st4{clip-path:url(#SVGID_2_);fill:none;stroke:#04D959;stroke-width:1.192;stroke-linejoin:round;stroke-miterlimit:10;}
	.st5{clip-path:url(#SVGID_2_);fill:none;stroke:#04D959;stroke-width:1.197;stroke-linejoin:round;stroke-miterlimit:10;}
	
		.st6{clip-path:url(#SVGID_2_);fill:none;stroke:#04D959;stroke-width:1.106;stroke-linecap:round;stroke-linejoin:round;stroke-miterlimit:10;}
	.st7{clip-path:url(#SVGID_2_);fill:none;stroke:#FFFFFF;stroke-linecap:round;stroke-linejoin:round;stroke-miterlimit:10;}
	.st8{clip-path:url(#SVGID_2_);fill:none;stroke:#FFFFFF;stroke-linecap:round;stroke-miterlimit:10;}
</style>
<g>
	<defs>
		<rect id="SVGID_1_" y="0" width="43.6" height="58.6"/>
	</defs>
	<clipPath id="SVGID_2_">
		<use xlink:href="#SVGID_1_"  style="overflow:visible;"/>
	</clipPath>
	<path class="st0" d="M38.4,0H7.6C5.8,0,4.3,1.5,4.3,3.3v1.5c0,1.7,1.2,3,2.8,3.3C7,8.4,7,8.6,7,8.9l3.4,35.9c0.2,1.7,1.6,3,3.3,3
		h19.1c1.7,0,3.2-1.3,3.3-3.1l2.8-35.9c0-0.3,0-0.5,0-0.8c1.6-0.3,2.8-1.6,2.8-3.3V3.3C41.7,1.5,40.2,0,38.4,0"/>
	<polygon class="st1" points="9.9,9.4 36,9.4 33.1,45.2 13.4,45.2 	"/>
	<line class="st1" x1="12.1" y1="18.3" x2="34.8" y2="18.3"/>
	<line class="st1" x1="12.8" y1="36.6" x2="33.2" y2="36.6"/>
	<polyline class="st1" points="7.1,5.5 7.1,2.7 38.9,2.7 38.9,5.5 	"/>
	<path class="st2" d="M25.3,30.4c0,0.9-0.8,1.6-1.7,1.6c-0.5,0-0.9-0.2-1.2-0.5"/>
	<polygon class="st3" points="21.2,27.1 15.3,27.1 14.1,22.8 22.1,23.4 	"/>
	<polygon class="st4" points="21.2,27.1 15.3,27.1 14.1,22.8 22.1,23.4 	"/>
	<polygon class="st3" points="25.1,27.1 31.1,27.1 32.3,22.8 24.3,23.4 	"/>
	<polygon class="st5" points="25.1,27.1 31.1,27.1 32.3,22.8 24.3,23.4 	"/>
	<line class="st6" x1="21.2" y1="23.5" x2="25.3" y2="23.5"/>
	<path class="st7" d="M9.2,22.7c-0.2,0.8-6,11.9-6,11.9L2.5,23.1"/>
	<path class="st0" d="M0.4,21.2C-0.2,20,0,17.5,0.2,16.3C0.5,15,2.1,13,1.8,15.2c1.6-1.1,0.2,3.2,0.2,3.6c0.7-1,1.2-1.6,2.4-1.6
		c0.5,0,1.9-0.1,1.7,0.8C6,19.1,4.5,18.5,4,18.8c-1.2,0.9-0.4,1.6,0.6,1.4c0.8-0.2,0.7-2.5,2.1-2C7.8,18.6,3.4,26.4,0.4,21.2"/>
	<path class="st0" d="M40.2,35.6c0,0.2-0.1,0.4,0.1,0.6c0.1,0.2,0.3,0.2,0.5,0.3c0.7,0.2,1.4,0.5,2,0.7c0.1,0,0.2,0.1,0.2,0.1
		c0.1,0.2-0.1,0.4-0.2,0.5c-1,0.6-2.3,0.3-3.5-0.1c-1-0.4-2-0.8-2.5-1.7c-0.3-0.6-0.4-1.4-0.3-2.1c0.1-0.5,0.2-1,0.6-1.3
		c0.3-0.3,0.7-0.4,1.1-0.5c0.5-0.1,2.6-0.5,2.8,0.2c0.1,0.3-0.4,1.2-0.5,1.5C40.4,34.4,40.3,35,40.2,35.6"/>
	<path class="st8" d="M36.6,24c0,0,12.5,4.8,2.9,9.5"/>
	<path class="st0" d="M1.6,14.2c0.8,0,2.2,0.3,2.6,1c0.4,0.8-0.7,1.6-0.9,2.4c-0.2,0.6-0.5,1.4-1,1.8c-0.4,0.4-1.3,0.3-1.6-0.2"/>
	<line class="st8" x1="28.1" y1="47.2" x2="27.3" y2="57.1"/>
	<path class="st0" d="M35.1,58.6c1.3-0.1,2.3-0.9,1.4-1.9C36,55.9,34.2,55.9,32,56c-1.6,0.1-2,0.1-3.7,0.5c-1,0.2-2.5,0.8-0.8,1.3
		C29.5,58.5,31.4,58.7,35.1,58.6"/>
	<line class="st8" x1="19.6" y1="47.2" x2="20.4" y2="57.1"/>
	<path class="st0" d="M12.6,58.6c-1.3-0.1-2.3-0.9-1.4-1.9c0.6-0.7,2.4-0.7,4.5-0.6c1.6,0.1,2,0.1,3.7,0.5c1,0.2,2.5,0.8,0.8,1.3
		C18.2,58.5,16.3,58.7,12.6,58.6"/>
</g>
</svg>
