<?xml version="1.0" encoding="utf-8"?>
<!-- Generator: Adobe Illustrator 19.0.0, SVG Export Plug-In . SVG Version: 6.00 Build 0)  -->
<svg version="1.1" id="Слой_1" xmlns="http://www.w3.org/2000/svg" xmlns:xlink="http://www.w3.org/1999/xlink" x="0px" y="0px"
	 viewBox="0 0 362.9 66.3" style="enable-background:new 0 0 362.9 66.3;" xml:space="preserve">
<style type="text/css">
	.st0{fill:#04D959;stroke:#FFFFFF;stroke-width:4;stroke-miterlimit:10;}
	.st1{fill:#FFFFFF;}
	.st2{fill:#000001;}
</style>
<path class="st0" d="M64.3,33.2c0,17.2-14,31.2-31.2,31.2C16,64.3,2,50.4,2,33.2C2,16,16,2,33.2,2C50.4,2,64.3,16,64.3,33.2"/>
<path class="st1" d="M47.5,18.1L47.5,18.1H24.3c-3,0-5.5,2.5-5.5,5.5v23.2c0,2.2,1.3,4.2,3.4,5c0.7,0.3,1.4,0.4,2.1,0.4
	c1.5,0,2.8-0.6,3.9-1.6l6.1-6.1h5.5c3,0,5.5-2.5,5.5-5.5v-5.5l6.1-6.1c1.1-1,1.7-2.5,1.7-3.9C52.9,20.6,50.5,18.1,47.5,18.1
	 M39.7,40.8h-7L25.6,48c-0.3,0.3-0.8,0.5-1.3,0.5c-0.2,0-0.5,0-0.7-0.1c-0.7-0.3-1.1-0.9-1.1-1.7V23.6c0-0.4,0.2-0.8,0.4-1.1
	l18.5,17.3C41.1,40.4,40.4,40.8,39.7,40.8 M48.7,24.9l-6.8,6.8l-18.7-9.5c0.3-0.3,0.7-0.4,1.1-0.4h23.2h0c1,0,1.8,0.8,1.8,1.8
	C49.3,24.1,49,24.6,48.7,24.9"/>
<path class="st2" d="M101.5,24.2c-0.6-0.6-1.2-1-1.9-1.2c-0.7-0.3-1.5-0.4-2.3-0.4c-0.9,0-1.6,0.2-2.3,0.7c-0.7,0.5-1.1,1.2-1.1,2.3
	v0.6h8V34h-8v18.8h-7.5V34h-4.5v-7.8h4.5v-1.6c0-3,0.8-5.3,2.4-7c1.6-1.7,3.9-2.5,6.8-2.5c1.9,0,3.5,0.3,4.7,0.9
	c1.2,0.6,2.1,1.3,2.7,2.2l-1.5,6V24.2z"/>
<rect x="107.5" y="15.7" class="st2" width="7.5" height="37"/>
<polygon class="st2" points="127.5,26.1 133.9,41 140.3,26.1 148.5,26.1 132.5,63.6 124.4,63.6 129.9,50.6 119.5,26.1 "/>
<path class="st2" d="M170.4,24.2c-0.6-0.6-1.2-1-1.9-1.2c-0.7-0.3-1.5-0.4-2.3-0.4c-0.9,0-1.6,0.2-2.3,0.7c-0.7,0.5-1.1,1.2-1.1,2.3
	v0.6h8V34h-8v18.8h-7.5V34h-4.5v-7.8h4.5v-1.6c0-3,0.8-5.3,2.4-7c1.6-1.7,3.9-2.5,6.8-2.5c1.9,0,3.5,0.3,4.7,0.9
	c1.2,0.6,2.1,1.3,2.7,2.2l-1.5,6V24.2z"/>
<path class="st2" d="M193.7,26.4c1.7,0.7,3.3,1.7,4.6,2.9c1.3,1.2,2.4,2.7,3.2,4.4c0.8,1.7,1.2,3.6,1.2,5.6c0,2-0.4,3.9-1.2,5.6
	c-0.8,1.7-1.8,3.2-3.2,4.4c-1.3,1.2-2.9,2.2-4.6,2.9c-1.7,0.7-3.6,1.1-5.5,1.1c-1.9,0-3.8-0.4-5.5-1.1c-1.7-0.7-3.3-1.7-4.6-2.9
	c-1.3-1.2-2.4-2.7-3.2-4.4c-0.8-1.7-1.2-3.6-1.2-5.6c0-2,0.4-3.9,1.2-5.6c0.8-1.7,1.8-3.2,3.2-4.4c1.3-1.2,2.9-2.2,4.6-2.9
	c1.7-0.7,3.6-1.1,5.5-1.1C190.1,25.3,192,25.7,193.7,26.4 M188.1,45.7c0.9,0,1.8-0.2,2.6-0.5c0.8-0.3,1.5-0.7,2.1-1.2
	c0.6-0.5,1.1-1.2,1.5-1.9c0.4-0.8,0.6-1.6,0.6-2.5c0-0.9-0.2-1.8-0.5-2.5c-0.4-0.8-0.9-1.4-1.5-1.9s-1.3-0.9-2.1-1.2
	c-0.8-0.3-1.7-0.5-2.6-0.5c-0.9,0-1.8,0.2-2.6,0.5c-0.8,0.3-1.5,0.7-2.1,1.2c-0.6,0.5-1.1,1.2-1.5,1.9c-0.4,0.8-0.5,1.6-0.5,2.5
	c0,0.9,0.2,1.7,0.6,2.5c0.4,0.8,0.9,1.4,1.5,1.9c0.6,0.5,1.3,0.9,2.1,1.2c0.8,0.3,1.7,0.5,2.6,0.5L188.1,45.7z"/>
<path class="st2" d="M226.4,26.4c1.7,0.7,3.3,1.7,4.6,2.9c1.3,1.2,2.4,2.7,3.2,4.4c0.8,1.7,1.2,3.6,1.2,5.6c0,2-0.4,3.9-1.2,5.6
	c-0.8,1.7-1.8,3.2-3.2,4.4c-1.3,1.2-2.9,2.2-4.6,2.9c-1.7,0.7-3.6,1.1-5.5,1.1c-1.9,0-3.8-0.4-5.5-1.1c-1.7-0.7-3.3-1.7-4.6-2.9
	c-1.3-1.2-2.4-2.7-3.2-4.4c-0.8-1.7-1.2-3.6-1.2-5.6c0-2,0.4-3.9,1.2-5.6c0.8-1.7,1.8-3.2,3.2-4.4c1.3-1.2,2.9-2.2,4.6-2.9
	c1.7-0.7,3.6-1.1,5.5-1.1C222.8,25.3,224.7,25.7,226.4,26.4 M220.8,45.7c0.9,0,1.8-0.2,2.6-0.5c0.8-0.3,1.5-0.7,2.1-1.2
	c0.6-0.5,1.1-1.2,1.5-1.9c0.4-0.8,0.6-1.6,0.6-2.5c0-0.9-0.2-1.8-0.5-2.5c-0.4-0.8-0.9-1.4-1.5-1.9s-1.3-0.9-2.1-1.2
	c-0.8-0.3-1.7-0.5-2.6-0.5c-0.9,0-1.8,0.2-2.6,0.5c-0.8,0.3-1.5,0.7-2.1,1.2c-0.6,0.5-1.1,1.2-1.5,1.9c-0.4,0.8-0.5,1.6-0.5,2.5
	c0,0.9,0.2,1.7,0.6,2.5c0.4,0.8,0.9,1.4,1.5,1.9c0.6,0.5,1.3,0.9,2.1,1.2c0.8,0.3,1.7,0.5,2.6,0.5L220.8,45.7z"/>
<path class="st2" d="M267.7,15.7v37h-7.2V50c-0.5,1-1.4,1.8-2.7,2.4c-1.4,0.7-3.1,1-5.2,1c-1.8,0-3.5-0.4-5.1-1
	c-1.6-0.7-3.1-1.6-4.3-2.8c-1.2-1.2-2.2-2.7-2.9-4.4c-0.7-1.7-1.1-3.7-1.1-5.7s0.4-4,1.1-5.7c0.7-1.7,1.7-3.2,2.9-4.4
	c1.2-1.2,2.6-2.2,4.3-2.8c1.6-0.7,3.3-1,5.1-1c1.9,0,3.6,0.4,4.9,1c1.4,0.7,2.3,1.5,2.7,2.4V15.7H267.7z M260.2,36.2
	c-0.4-0.9-1.1-1.6-2.3-2.1c-1.2-0.6-2.5-0.9-4.1-0.9c-2.1,0-3.8,0.6-5.1,1.7c-1.3,1.2-2,2.6-2,4.4c0,1.8,0.7,3.3,2,4.4
	c1.3,1.2,3,1.7,5.1,1.7c1.5,0,2.9-0.3,4.1-0.9c1.2-0.6,1.9-1.3,2.3-2.1v-6.2V36.2z"/>
<path class="st2" d="M280.7,42c-4.6-2.3-6.9-5.2-6.9-8.7c0-1.1,0.3-2.2,0.7-3.2c0.5-1,1.1-1.8,1.9-2.5c0.8-0.7,1.8-1.3,2.9-1.7
	c1.1-0.4,2.3-0.6,3.6-0.6c2.1,0,3.9,0.4,5.2,1.1c1.4,0.7,2.4,1.6,3.1,2.6l-1.5,6.4c-1.1-1-2.2-1.6-3.4-2c-1.2-0.4-2.2-0.6-3.1-0.6
	c-0.7,0-1.2,0.1-1.4,0.3c-0.3,0.2-0.4,0.4-0.4,0.6c0,0.3,0.1,0.5,0.3,0.7c0.2,0.2,0.7,0.5,1.3,0.8l2.2,1.1c2.2,1.1,4,2.3,5.1,3.6
	c1.2,1.3,1.8,3,1.8,5c0,1.2-0.2,2.3-0.7,3.4c-0.5,1-1.1,1.9-2,2.7c-0.9,0.8-1.9,1.4-3.1,1.8c-1.2,0.4-2.5,0.6-4,0.6
	c-1.2,0-2.2-0.2-3.3-0.4c-1-0.3-1.9-0.6-2.7-1.1c-0.8-0.5-1.5-1-2-1.5c-0.6-0.6-1-1.1-1.2-1.7l2.1-6.4c0.3,0.4,0.7,0.8,1.1,1.2
	c0.5,0.5,1,0.9,1.6,1.2c0.6,0.4,1.3,0.7,2,0.9c0.7,0.3,1.5,0.4,2.4,0.4c0.7,0,1.2-0.1,1.7-0.3c0.5-0.2,0.7-0.6,0.7-1
	c0-0.4-0.2-0.7-0.5-0.9c-0.4-0.3-0.9-0.6-1.7-0.9l-1.9-1L280.7,42z"/>
<path class="st1" d="M299.6,48.7c0-1.4,0.5-2.5,1.4-3.5c0.9-1,2.1-1.4,3.5-1.4c1.4,0,2.5,0.5,3.5,1.4c1,1,1.4,2.1,1.4,3.5
	c0,1.4-0.5,2.5-1.4,3.4c-1,0.9-2.1,1.4-3.5,1.4c-1.4,0-2.5-0.5-3.4-1.4C300.1,51.2,299.7,50.1,299.6,48.7L299.6,48.7z"/>
<path class="st2" d="M332.8,34.3c-0.4-0.3-0.8-0.5-1.4-0.7c-0.6-0.2-1.3-0.3-2-0.3c-1.3,0-2.4,0.3-3.4,1c-1,0.7-1.6,1.6-2,3v15.5
	h-7.5V26.1h7.2v3.5c0.4-1.3,1.1-2.3,2.1-3.1c1-0.8,2.2-1.2,3.7-1.2c1,0,1.8,0.2,2.6,0.6c0.8,0.4,1.3,0.9,1.6,1.4l-1.1,6.9H332.8z"/>
<path class="st2" d="M348.6,53.7c-1.4,0-2.7-0.3-4-0.7s-2.5-1.2-3.5-2.1c-1-1-1.8-2.2-2.5-3.7c-0.7-1.5-1-3.3-1-5.3V26.2h7.5v14.1
	c0,1.7,0.5,3.1,1.4,4c1,0.9,2.2,1.4,3.7,1.4c1.3,0,2.4-0.4,3.5-1c1-0.7,1.6-1.5,1.8-2.5V26.1h7.5v26.7h-7.2v-2.6
	c-0.4,1-1.1,1.8-2.3,2.4c-1.2,0.6-2.7,0.9-4.6,0.9L348.6,53.7z"/>
</svg>
