<?xml version="1.0" encoding="utf-8"?>
<!-- Generator: Adobe Illustrator 19.0.0, SVG Export Plug-In . SVG Version: 6.00 Build 0)  -->
<svg version="1.1" id="Слой_1" xmlns="http://www.w3.org/2000/svg" xmlns:xlink="http://www.w3.org/1999/xlink" x="0px" y="0px"
	 viewBox="0 0 96.1 62.9" style="enable-background:new 0 0 96.1 62.9;" xml:space="preserve">
<style type="text/css">
	.st0{clip-path:url(#SVGID_2_);fill:#FFFFFF;}
	
		.st1{clip-path:url(#SVGID_2_);fill:none;stroke:#04D959;stroke-width:1.9;stroke-linecap:round;stroke-linejoin:round;stroke-miterlimit:10;}
	.st2{clip-path:url(#SVGID_2_);fill:#04D959;}
	
		.st3{clip-path:url(#SVGID_2_);fill:none;stroke:#04D959;stroke-width:2;stroke-linecap:round;stroke-linejoin:round;stroke-miterlimit:10;}
	.st4{clip-path:url(#SVGID_2_);fill:none;stroke:#04D959;stroke-linecap:round;stroke-linejoin:round;stroke-miterlimit:10;}
	.st5{clip-path:url(#SVGID_2_);fill:none;stroke:#FFFFFF;stroke-linecap:round;stroke-linejoin:round;stroke-miterlimit:10;}
</style>
<g>
	<defs>
		<rect id="SVGID_1_" y="0" width="96.1" height="62.9"/>
	</defs>
	<clipPath id="SVGID_2_">
		<use xlink:href="#SVGID_1_"  style="overflow:visible;"/>
	</clipPath>
	<path class="st0" d="M22.9,19.5c0-0.3,0.1-0.6,0.2-0.8c0.1-0.1,0.1-0.3,0.2-0.4c0.2-0.3,0.2-0.7,0.5-0.9c0.2-0.2,0.4-0.4,0.6-0.6
		c0.5-0.4,1.1-0.6,1.7-0.8c0.8-0.2,1.6-0.3,2.5-0.4c1.2-0.1,2.4-0.1,3.7-0.1c0.6,0,1.2,0,1.8,0.1c0.5,0,1,0,1.5,0.1
		c0.5,0,1.1,0.1,1.6,0.1c0.4,0,0.9,0.1,1.3,0.1c0.5,0.1,1,0.1,1.6,0.2c0.5,0.1,1,0.1,1.5,0.2c0.7,0.1,1.3,0.2,2,0.3
		c0.8,0.1,1.5,0.2,2.3,0.3c1,0.2,2.1,0.3,3.1,0.5c1.7,0.3,3.3,0.7,5,1c0.8,0.2,1.6,0.4,2.4,0.5c0.8,0.2,1.6,0.4,2.4,0.6
		c0.7,0.2,1.4,0.4,2.1,0.6c0.8,0.2,1.5,0.4,2.3,0.7c0.7,0.2,1.5,0.5,2.2,0.7c1.3,0.5,2.5,1,3.7,1.6c0.8,0.4,1.6,0.9,2.3,1.6
		c0.6,0.7,1,1.4,1.1,2.3c0,0.3,0,0.6,0,0.9c-0.1,0.6-0.2,1.2-0.4,1.8c-0.1,0.6-0.3,1.1-0.5,1.7c-0.3,0.8-0.6,1.5-0.9,2.3
		c-0.8,1.8-1.7,3.5-2.9,5.1c-0.7,1-1.5,1.9-2.4,2.8c-0.9,0.9-1.9,1.8-3,2.6c-1.2,0.9-2.4,1.6-3.7,2.3c-1.4,0.7-2.9,1.3-4.4,1.7
		c-1.4,0.4-2.8,0.6-4.3,0.8c-1.2,0.1-2.4,0.2-3.6,0.1c-0.6,0-1.1-0.1-1.7-0.1c-0.3,0-0.5-0.1-0.8-0.1c-0.4-0.1-0.8-0.2-1.3-0.2
		c0,0-0.1,0-0.1,0c-0.3-0.1-0.7-0.1-1-0.2c-0.6-0.2-1.2-0.3-1.8-0.5c-0.8-0.3-1.5-0.6-2.3-0.9c-1.3-0.6-2.6-1.3-3.8-2.1
		c-1.2-0.8-2.4-1.8-3.4-2.8c-0.9-0.9-1.8-1.9-2.6-3c-0.8-1.2-1.6-2.4-2.2-3.7c-0.7-1.5-1.4-3-1.8-4.6c-0.4-1.6-0.7-3.1-0.8-4.8
		c-0.1-1.2-0.1-2.3-0.1-3.5c0-0.6,0.1-1.2,0.1-1.8C22.9,20,22.9,19.7,22.9,19.5"/>
	<path class="st0" d="M54.6,9c0.1-0.5,0.4-1.1,0.6-1.7C55.7,6,56.7,5,57.7,4.1c0.7-0.6,1.4-1,2.3-1.3c0.2-0.1,0.5-0.1,0.7-0.1
		c0.1,0,0.2,0,0.3,0c0.2,0,0.4,0.1,0.6,0.1C61.8,2.9,62,2.9,62.2,3c0.5,0.2,0.8,0.6,1,1c0.1,0.1,0.1,0.2,0.2,0.4
		c0.2,0.3,0.1,0.6,0.2,0.9c0,0.1,0,0.2,0,0.2c0.1,0.4-0.1,0.7-0.2,1c-0.2,0.5-0.5,0.8-0.8,1.1c-0.1,0.1-0.3,0.2-0.5,0.3
		c-0.5,0.2-0.9,0.5-1.3,0.9c-0.2,0.2-0.4,0.5-0.5,0.8c-0.1,0.3-0.2,0.6-0.2,0.9c-0.1,0.6,0.1,1.2,0.3,1.8c0.1,0.4,0.3,0.8,0.5,1.1
		c0.2,0.4,0.3,0.8,0.3,1.2c0,0.2,0,0.5,0,0.7c0,0.2-0.2,0.4-0.2,0.6c-0.1,0.5-0.5,0.8-0.8,1.1c-0.4,0.3-0.8,0.5-1.4,0.5
		c-0.3,0-0.6,0.1-0.8,0c-0.6-0.2-1.2-0.5-1.6-1c-0.2-0.3-0.3-0.6-0.5-0.9c-0.3-0.6-0.6-1.3-0.8-2c-0.3-0.8-0.4-1.7-0.4-2.5
		C54.5,10.4,54.5,9.8,54.6,9"/>
	<path class="st0" d="M56.1,4.6c-0.1,0.3-0.2,0.5-0.3,0.8c-0.2,0.5-0.6,0.9-1.1,1.1c-0.4,0.2-0.9,0.5-1.3,0.8
		c-0.5,0.4-0.8,0.9-0.9,1.5c-0.1,0.5,0,1,0.1,1.5c0.2,0.7,0.4,1.3,0.8,1.9c0.1,0.3,0.2,0.5,0.2,0.8c0,0.1,0,0.3,0,0.4
		c0.1,0.4-0.1,0.7-0.2,1.1c-0.2,0.5-0.5,0.8-0.9,1.1c-0.4,0.3-0.8,0.5-1.4,0.5c-0.3,0-0.5,0.1-0.8,0c-0.7-0.2-1.3-0.5-1.7-1.1
		c-0.2-0.3-0.4-0.7-0.5-1c-0.4-0.9-0.8-1.8-1-2.7c-0.1-0.7-0.2-1.3-0.2-2c0-0.7,0-1.4,0.2-2.1c0.2-0.5,0.4-0.9,0.5-1.4
		c0.4-1.1,1.2-1.9,2-2.7c0.8-0.7,1.7-1.3,2.7-1.7c0.2-0.1,0.5-0.1,0.8-0.1c0.1,0,0.2,0,0.4,0c0.3,0,0.5,0.1,0.7,0.2
		c0.1,0,0.2,0.1,0.3,0.1c0.5,0.2,0.8,0.6,1.1,1.1c0.2,0.4,0.3,0.9,0.3,1.4C56.1,4.3,56.1,4.4,56.1,4.6"/>
	<path class="st0" d="M43,14.8c-0.3-0.1-0.5-0.2-0.8-0.3c-0.5-0.2-0.8-0.6-1.1-1c-0.5-0.9-0.9-1.9-1.2-2.9c-0.2-0.7-0.3-1.5-0.3-2.2
		c0-0.7,0-1.4,0.1-2.1c0.1-0.5,0.3-0.9,0.5-1.4c0.3-0.6,0.5-1.2,0.9-1.7c0.5-0.7,1.2-1.3,1.9-1.9c0.6-0.4,1.2-0.8,1.9-1.1
		C45.3,0,45.6,0,45.9,0c0.1,0,0.2,0,0.3,0c0.3,0,0.5,0.1,0.7,0.2c0.1,0,0.2,0.1,0.3,0.1c0.4,0.2,0.7,0.5,1,0.9
		c0.1,0.2,0.2,0.3,0.2,0.5c0.1,0.3,0.1,0.6,0.1,0.8c0,0.1,0,0.1,0,0.2c0,0.3,0,0.5-0.1,0.7c-0.1,0.2-0.1,0.4-0.2,0.5
		c-0.2,0.5-0.6,0.8-1.1,1.1C46.8,5.4,46.4,5.7,46,6c-0.5,0.4-0.8,0.9-0.9,1.6c-0.1,0.6,0,1.2,0.2,1.8c0.2,0.5,0.4,1,0.6,1.5
		c0.1,0.3,0.2,0.5,0.2,0.8c0,0.1,0,0.3,0,0.4c0.1,0.4-0.2,0.8-0.3,1.2c-0.2,0.6-0.7,0.9-1.2,1.2c-0.4,0.2-0.9,0.2-1.3,0.3
		C43.3,14.8,43.2,14.8,43,14.8"/>
	<path class="st1" d="M25.6,19.3c-2.2,12.2,5.9,24,18.2,26.2c12.2,2.2,24-5.9,26.2-18.2"/>
	<path class="st1" d="M45.9,3c0,0-6.2,2.3-2.5,9.2"/>
	<path class="st1" d="M53.4,4.3c0,0-6.2,2.3-2.5,9.2"/>
	<path class="st1" d="M60.9,5.6c0,0-6.2,2.3-2.5,9.2"/>
	<path class="st2" d="M41.7,33.8c-0.2,1.1-0.9,1.9-1.6,1.8c-0.7-0.1-1-1.1-0.8-2.2c0.2-1.1,0.9-1.9,1.6-1.8
		C41.5,31.7,41.9,32.7,41.7,33.8"/>
	<path class="st2" d="M36.6,35.9c-0.1,0.4,0.3,0.7,0.9,0.8c0.6,0.1,1.1-0.1,1.2-0.5c0.1-0.4-0.3-0.7-0.9-0.8
		C37.2,35.4,36.7,35.6,36.6,35.9"/>
	<path class="st2" d="M52.4,38.8c-0.1,0.4,0.3,0.7,0.9,0.8c0.6,0.1,1.1-0.1,1.2-0.5c0.1-0.4-0.3-0.7-0.9-0.8
		C52.9,38.2,52.4,38.4,52.4,38.8"/>
	<path class="st3" d="M47.6,38.4c0,0-0.4,1.6-1.8,1.5c-0.9,0-1.6-0.9-1.5-1.8L47.6,38.4z"/>
	<path class="st4" d="M43.1,28.7c0,0-1.8-1.4-4-0.1"/>
	<polyline class="st4" points="52.9,34.9 49.8,35.2 52.7,36.5 	"/>
	<ellipse transform="matrix(0.9843 0.1767 -0.1767 0.9843 4.8585 -8.0691)" class="st1" cx="47.7" cy="23.2" rx="22.5" ry="3.4"/>
	<path class="st0" d="M92.7,25.9c0.3-0.2,0.6-0.4,0.9-0.5c0.4-0.2,0.9-0.2,1.3-0.2c0.2,0,0.5,0,0.7,0.1c0.2,0.1,0.4,0.3,0.5,0.5
		c-1.1,0.9-2.2,1.7-3.4,2.6c-1,0.8-2.3,1.9-3.5,2.4c-0.8,0.3-1.5-0.4-1.4-1.2c0-0.8,0.8-1.4,1.3-1.9C90.2,26.9,91.5,26.6,92.7,25.9"
		/>
	<path class="st0" d="M69.9,57.9c0.7,0.8,0.7,1.8-0.4,1.9c-0.7,0.1-1.7-0.9-2.8-2.2c-0.8-1-1-1.2-1.7-2.4c-0.4-0.7-0.9-1.8,0.4-1.2
		C66.8,54.7,68,55.7,69.9,57.9"/>
	<polyline class="st5" points="23.5,30.1 14,32.6 5.3,27.8 	"/>
	<path class="st0" d="M5,29.5c0.3,0,0.7-0.1,0.9-0.3C6,29,6.1,28.7,6.1,28.5c0.1-0.6,0.1-1.3-0.2-1.9c-0.3-0.5-0.8-0.8-1.2-1.1
		c-1.5-0.9-4.4-2.4-4.6-2c-0.2,0.2,0,0.6,0.2,0.8c0.2,0.2,0.5,0.3,0.8,0.4c0.4,0.1,0.7,0.3,1.1,0.4c0.2,0.1,0.5,0.2,0.6,0.5
		c0.2,0.4,0,0.9-0.2,1.3C1.5,29,3.3,29.6,5,29.5"/>
	<path class="st5" d="M49,47.6c2.1,4.4,11,8.9,15.9,6.7"/>
	<path class="st0" d="M57.7,61.1c0.5,0.9,0.3,1.9-0.8,1.8c-0.7-0.1-1.5-1.3-2.3-2.7c-0.6-1.1-0.8-1.4-1.1-2.7
		c-0.2-0.7-0.5-1.9,0.6-1.1C55.4,57.4,56.3,58.6,57.7,61.1"/>
	<path class="st5" d="M39.4,46.8c1.1,4.7,8.9,11,14.1,9.8"/>
	<path class="st5" d="M70.7,32.1c6-0.3,12-0.9,17.9-2"/>
</g>
</svg>
