<?xml version="1.0" encoding="utf-8"?>
<!-- Generator: Adobe Illustrator 19.0.0, SVG Export Plug-In . SVG Version: 6.00 Build 0)  -->
<svg version="1.1" id="Слой_1" xmlns="http://www.w3.org/2000/svg" xmlns:xlink="http://www.w3.org/1999/xlink" x="0px" y="0px"
	 viewBox="0 0 60.3 59.7" style="enable-background:new 0 0 60.3 59.7;" xml:space="preserve">
<style type="text/css">
	.st0{clip-path:url(#SVGID_2_);fill:#FFFFFF;}
	
		.st1{clip-path:url(#SVGID_2_);fill:none;stroke:#04D959;stroke-width:1.9;stroke-linecap:round;stroke-linejoin:round;stroke-miterlimit:10;}
	.st2{clip-path:url(#SVGID_2_);fill:#04D959;}
	
		.st3{clip-path:url(#SVGID_2_);fill:none;stroke:#04D959;stroke-width:2;stroke-linecap:round;stroke-linejoin:round;stroke-miterlimit:10;}
	.st4{clip-path:url(#SVGID_2_);fill:none;stroke:#04D959;stroke-linecap:round;stroke-linejoin:round;stroke-miterlimit:10;}
	.st5{clip-path:url(#SVGID_2_);fill:none;stroke:#FFFFFF;stroke-linecap:round;stroke-miterlimit:10;}
</style>
<g>
	<defs>
		<rect id="SVGID_1_" y="0" width="60.3" height="59.7"/>
	</defs>
	<clipPath id="SVGID_2_">
		<use xlink:href="#SVGID_1_"  style="overflow:visible;"/>
	</clipPath>
	<path class="st0" d="M9.6,19.5c0-0.3,0.1-0.6,0.2-0.8c0.1-0.1,0.1-0.3,0.2-0.4c0.2-0.3,0.2-0.7,0.5-0.9c0.2-0.2,0.4-0.4,0.6-0.6
		c0.5-0.4,1.1-0.6,1.7-0.8c0.8-0.2,1.6-0.3,2.5-0.4c1.2-0.1,2.4-0.1,3.7-0.1c0.6,0,1.2,0,1.8,0.1c0.5,0,1,0,1.5,0.1
		c0.5,0,1.1,0.1,1.6,0.1c0.4,0,0.9,0.1,1.3,0.1c0.5,0.1,1,0.1,1.6,0.2c0.5,0.1,1,0.1,1.5,0.2c0.7,0.1,1.3,0.2,2,0.3
		c0.8,0.1,1.5,0.2,2.3,0.3c1,0.2,2.1,0.3,3.1,0.5c1.7,0.3,3.3,0.7,5,1c0.8,0.2,1.6,0.4,2.4,0.5c0.8,0.2,1.6,0.4,2.4,0.6
		c0.7,0.2,1.4,0.4,2.1,0.6c0.8,0.2,1.5,0.4,2.3,0.7c0.7,0.2,1.5,0.5,2.2,0.7c1.3,0.5,2.5,1,3.7,1.6c0.8,0.4,1.6,0.9,2.3,1.6
		c0.6,0.7,1,1.4,1.1,2.3c0,0.3,0,0.6,0,0.9c-0.1,0.6-0.2,1.2-0.4,1.8c-0.1,0.6-0.3,1.1-0.5,1.7c-0.3,0.8-0.6,1.5-0.9,2.3
		c-0.8,1.8-1.7,3.5-2.9,5.1c-0.7,1-1.5,1.9-2.4,2.8c-0.9,0.9-1.9,1.8-3,2.6c-1.2,0.9-2.4,1.6-3.7,2.3c-1.4,0.7-2.9,1.3-4.4,1.7
		c-1.4,0.4-2.8,0.6-4.3,0.8c-1.2,0.1-2.4,0.2-3.6,0.1c-0.6,0-1.1-0.1-1.7-0.1c-0.3,0-0.5-0.1-0.8-0.1c-0.4-0.1-0.8-0.2-1.3-0.2
		c0,0-0.1,0-0.1,0c-0.3-0.1-0.7-0.1-1-0.2c-0.6-0.2-1.2-0.3-1.8-0.5c-0.8-0.3-1.5-0.6-2.3-0.9c-1.3-0.6-2.6-1.3-3.8-2.1
		c-1.2-0.8-2.4-1.8-3.4-2.8c-0.9-0.9-1.8-1.9-2.6-3c-0.8-1.2-1.6-2.4-2.2-3.7c-0.7-1.5-1.4-3-1.8-4.6c-0.4-1.6-0.7-3.1-0.8-4.8
		c-0.1-1.2-0.1-2.3-0.1-3.5c0-0.6,0.1-1.2,0.1-1.8C9.5,20,9.5,19.7,9.6,19.5"/>
	<path class="st0" d="M41.2,9c0.1-0.5,0.4-1.1,0.6-1.7C42.3,6,43.3,5,44.4,4.1c0.7-0.6,1.4-1,2.3-1.3c0.2-0.1,0.5-0.1,0.7-0.1
		c0.1,0,0.2,0,0.3,0c0.2,0,0.4,0.1,0.6,0.1c0.2,0.1,0.3,0.1,0.5,0.2c0.5,0.2,0.8,0.6,1,1c0.1,0.1,0.1,0.2,0.2,0.4
		c0.2,0.3,0.1,0.6,0.2,0.9c0,0.1,0,0.2,0,0.2c0.1,0.4-0.1,0.7-0.2,1c-0.2,0.5-0.5,0.8-0.8,1.1c-0.1,0.1-0.3,0.2-0.5,0.3
		c-0.5,0.2-0.9,0.5-1.3,0.9c-0.2,0.2-0.4,0.5-0.5,0.8c-0.1,0.3-0.2,0.6-0.2,0.9c-0.1,0.6,0.1,1.2,0.3,1.8c0.1,0.4,0.3,0.8,0.5,1.1
		c0.2,0.4,0.3,0.8,0.3,1.2c0,0.2,0,0.5,0,0.7c0,0.2-0.2,0.4-0.2,0.6c-0.1,0.5-0.5,0.8-0.8,1.1c-0.4,0.3-0.8,0.5-1.4,0.5
		c-0.3,0-0.6,0.1-0.8,0c-0.6-0.2-1.2-0.5-1.6-1c-0.2-0.3-0.3-0.6-0.5-0.9c-0.3-0.6-0.6-1.3-0.8-2c-0.3-0.8-0.4-1.7-0.4-2.5
		C41.1,10.4,41.1,9.8,41.2,9"/>
	<path class="st0" d="M42.8,4.6c-0.1,0.3-0.2,0.5-0.3,0.8c-0.2,0.5-0.6,0.9-1.1,1.1c-0.4,0.2-0.9,0.5-1.3,0.8
		c-0.5,0.4-0.8,0.9-0.9,1.5c-0.1,0.5,0,1,0.1,1.5c0.2,0.7,0.4,1.3,0.8,1.9c0.1,0.3,0.2,0.5,0.2,0.8c0,0.1,0,0.3,0,0.4
		c0.1,0.4-0.1,0.7-0.2,1.1c-0.2,0.5-0.5,0.8-0.9,1.1c-0.4,0.3-0.8,0.5-1.4,0.5c-0.3,0-0.5,0.1-0.8,0c-0.7-0.2-1.3-0.5-1.7-1.1
		c-0.2-0.3-0.4-0.7-0.5-1c-0.4-0.9-0.8-1.8-1-2.7c-0.1-0.7-0.2-1.3-0.2-2c0-0.7,0-1.4,0.2-2.1c0.2-0.5,0.4-0.9,0.5-1.4
		c0.4-1.1,1.2-1.9,2-2.7c0.8-0.7,1.7-1.3,2.7-1.7c0.2-0.1,0.5-0.1,0.8-0.1c0.1,0,0.2,0,0.4,0c0.3,0,0.5,0.1,0.7,0.2
		c0.1,0,0.2,0.1,0.3,0.1c0.5,0.2,0.8,0.6,1.1,1.1c0.2,0.4,0.3,0.9,0.3,1.4C42.8,4.3,42.8,4.4,42.8,4.6"/>
	<path class="st0" d="M29.7,14.8c-0.3-0.1-0.5-0.2-0.8-0.3c-0.5-0.2-0.8-0.6-1.1-1c-0.5-0.9-0.9-1.9-1.2-2.9
		c-0.2-0.7-0.3-1.5-0.3-2.2c0-0.7,0-1.4,0.1-2.1c0.1-0.5,0.3-0.9,0.5-1.4c0.3-0.6,0.5-1.2,0.9-1.7c0.5-0.7,1.2-1.3,1.9-1.9
		c0.6-0.4,1.2-0.8,1.9-1.1C31.9,0,32.2,0,32.6,0c0.1,0,0.2,0,0.3,0c0.3,0,0.5,0.1,0.7,0.2c0.1,0,0.2,0.1,0.3,0.1
		c0.4,0.2,0.7,0.5,1,0.9c0.1,0.2,0.2,0.3,0.2,0.5c0.1,0.3,0.1,0.6,0.1,0.8c0,0.1,0,0.1,0,0.2c0,0.3,0,0.5-0.1,0.7
		c-0.1,0.2-0.1,0.4-0.2,0.5c-0.2,0.5-0.6,0.8-1.1,1.1C33.4,5.4,33,5.7,32.6,6c-0.5,0.4-0.8,0.9-0.9,1.6c-0.1,0.6,0,1.2,0.2,1.8
		c0.2,0.5,0.4,1,0.6,1.5c0.1,0.3,0.2,0.5,0.2,0.8c0,0.1,0,0.3,0,0.4c0.1,0.4-0.2,0.8-0.3,1.2c-0.2,0.6-0.7,0.9-1.2,1.2
		c-0.4,0.2-0.9,0.2-1.3,0.3C29.9,14.8,29.8,14.8,29.7,14.8"/>
	<path class="st1" d="M12.2,19.3c-2.2,12.2,5.9,24,18.2,26.2c12.2,2.2,24-5.9,26.2-18.2"/>
	<path class="st1" d="M32.5,3c0,0-6.2,2.3-2.5,9.2"/>
	<path class="st1" d="M40,4.3c0,0-6.2,2.3-2.5,9.2"/>
	<path class="st1" d="M47.5,5.6c0,0-6.2,2.3-2.5,9.2"/>
	<path class="st2" d="M28.3,33.8c-0.2,1.1-0.9,1.9-1.6,1.8c-0.7-0.1-1-1.1-0.8-2.2c0.2-1.1,0.9-1.9,1.6-1.8
		C28.1,31.7,28.5,32.7,28.3,33.8"/>
	<path class="st2" d="M39.5,35.8c-0.2,1.1-0.9,1.9-1.6,1.8c-0.7-0.1-1-1.1-0.8-2.2c0.2-1.1,0.9-1.9,1.6-1.8
		C39.3,33.7,39.7,34.7,39.5,35.8"/>
	<path class="st2" d="M23.2,35.9c-0.1,0.4,0.3,0.7,0.9,0.8c0.6,0.1,1.1-0.1,1.2-0.5c0.1-0.4-0.3-0.7-0.9-0.8
		C23.8,35.4,23.3,35.6,23.2,35.9"/>
	<path class="st2" d="M39,38.8c-0.1,0.4,0.3,0.7,0.9,0.8c0.6,0.1,1.1-0.1,1.2-0.5c0.1-0.4-0.3-0.7-0.9-0.8
		C39.6,38.2,39,38.4,39,38.8"/>
	<path class="st3" d="M33.7,38.5c0,0-0.5,1.5-1.9,1.4c-0.9-0.1-1.5-1-1.4-1.9L33.7,38.5z"/>
	<path class="st4" d="M37.7,30c0,0,2.4-0.7,3.7,1.6"/>
	<path class="st4" d="M29.7,28.5c0,0-1.9-1.3-4,0.2"/>
	<ellipse transform="matrix(0.9843 0.1767 -0.1767 0.9843 4.6482 -5.7065)" class="st1" cx="34.4" cy="23.2" rx="22.5" ry="3.4"/>
	<line class="st5" x1="35" y1="48.3" x2="34.2" y2="58.2"/>
	<path class="st0" d="M42.1,59.7c1.3-0.1,2.3-0.9,1.4-1.9C42.9,57,41.1,57,39,57.1c-1.6,0.1-2,0.1-3.7,0.5c-1,0.2-2.5,0.8-0.8,1.3
		C36.4,59.6,38.4,59.9,42.1,59.7"/>
	<line class="st5" x1="27.8" y1="48.3" x2="24" y2="58.2"/>
	<path class="st0" d="M15.3,59.5c-1.5-0.1-2.6-0.9-1.6-2c0.6-0.7,2.7-0.7,5.1-0.5c1.8,0.1,2.3,0.1,4.1,0.6c1.1,0.3,2.7,0.8,0.8,1.4
		C21.6,59.6,19.4,59.8,15.3,59.5"/>
	<path class="st5" d="M9.8,29c0,0-8.6-6.7-6.2-18.9"/>
	<path class="st0" d="M4,10.8c1.6-0.3,3-1.6,3.5-3.2c0-0.1,0.1-0.2,0-0.3C7.4,7.1,7,7.2,6.9,7.4C6.2,7.9,5.6,8.4,5,9
		C4.5,8.2,4.2,7.3,4.3,6.3c0-0.4,0.1-0.9,0-1.3C4.1,4.2,3.5,3.6,2.9,3.1C2.6,2.9,2.3,2.7,2,2.8C1.9,2.9,1.8,3,1.7,3.1
		C1.5,3.3,1.3,3.5,1.1,3.7c-0.5,0.6-1,1.2-1.1,2c-0.1,0.8,0.2,1.5,0.6,2.2c0.6,1,1.3,1.8,2.2,2.6"/>
	<path class="st5" d="M57.5,30.7c4.4,9,1.7,14.1-0.9,18"/>
	<path class="st0" d="M57,51.2c0.4-1,1.8-3.4,0.6-4.2c-0.6-0.4-1.2-0.2-1.6,0.2c-0.7,0.2-1.4,0.5-2.1,1c-0.1,0.1-0.2,0.2-0.3,0.3
		c-0.2,0.3-0.1,0.6-0.1,1c0.1,0.3,0.1,0.6,0.3,0.9c-0.2,0.4-0.4,0.8-0.5,1.3c-0.1,0.2-0.1,0.5,0,0.7c0.1,0.3,0.4,0.6,0.7,0.7
		c0.3,0.2,0.7,0.3,1,0.3c0.5,0,1-0.3,1.3-0.7C56.7,52.2,56.9,51.7,57,51.2"/>
</g>
</svg>
