<?xml version="1.0" encoding="utf-8"?>
<!-- Generator: Adobe Illustrator 19.0.0, SVG Export Plug-In . SVG Version: 6.00 Build 0)  -->
<svg version="1.1" id="Слой_1" xmlns="http://www.w3.org/2000/svg" xmlns:xlink="http://www.w3.org/1999/xlink" x="0px" y="0px"
	 viewBox="0 0 67.6 61.9" style="enable-background:new 0 0 67.6 61.9;" xml:space="preserve">
<style type="text/css">
	.st0{clip-path:url(#SVGID_2_);fill:#FFFFFF;}
	
		.st1{clip-path:url(#SVGID_2_);fill:none;stroke:#04D959;stroke-width:1.9;stroke-linecap:round;stroke-linejoin:round;stroke-miterlimit:10;}
	.st2{clip-path:url(#SVGID_2_);fill:#04D959;}
	.st3{clip-path:url(#SVGID_2_);fill:none;stroke:#04D959;stroke-linecap:round;stroke-linejoin:round;stroke-miterlimit:10;}
	.st4{clip-path:url(#SVGID_2_);fill:none;stroke:#FFFFFF;stroke-linecap:round;stroke-miterlimit:10;}
</style>
<g>
	<defs>
		<rect id="SVGID_1_" y="0" width="67.6" height="61.9"/>
	</defs>
	<clipPath id="SVGID_2_">
		<use xlink:href="#SVGID_1_"  style="overflow:visible;"/>
	</clipPath>
	<path class="st0" d="M59.5,4.5C59,4,58.4,3.7,57.7,3.7c-0.6,0-1.1,0.2-1.6,0.5c0.8-1,0.7-2.5-0.2-3.5C55.3,0.3,54.7,0,54,0
		s-1.4,0.3-1.9,0.8l-5.5,5.5c-1,1-1,2.7,0,3.7c0.5,0.5,1.2,0.8,1.9,0.8c0.7,0,1.3-0.2,1.8-0.7c-0.7,1-0.6,2.4,0.3,3.3
		c0.5,0.5,1.2,0.8,1.9,0.8s1.4-0.3,1.9-0.8l5.2-5.2C60.6,7.2,60.6,5.5,59.5,4.5"/>
	<path class="st0" d="M50.7,13.8c0,0.1,0.1,0.1,0.1,0.2c0.9,0.8,1.8,1.6,2.8,2.4c0.3,0.2,0.5,0.6,0.7,0.9c0.1,0.1,0.1,0.3,0.1,0.4
		c0.2,1,0.2,0.7,0,1.7c-0.1,0.6-0.5,1-0.9,1.3c-0.3,0.3-0.7,0.4-1.1,0.5c-0.1,0-0.2,0.1-0.4,0.1c0,0,0,0,0,0c0,0,0.1,0.1,0.1,0.1
		c0.2,0,0.4,0.1,0.6,0.1c0.5,0.1,0.8,0.4,1.2,0.8c0.1,0.1,0.1,0.2,0.2,0.2c0.2,0.2,0.3,0.5,0.4,0.8c0.2,0.9,0.2,0.6,0,1.6
		c-0.3,1.8-0.7,3.6-1,5.3c-0.4,1.9-0.7,3.9-1.1,5.8c-0.4,1.9-0.7,3.9-1.1,5.8c-0.3,1.9-0.7,3.7-1,5.6c-0.1,0.5-0.2,0.9-0.3,1.4
		c-0.1,0.5-0.4,0.8-0.7,1.2c-0.1,0.1-0.3,0.3-0.5,0.4c-0.1,0.1-0.2,0.1-0.3,0.1c-0.2,0.1-0.5,0.1-0.7,0.2c-0.2,0-0.4,0.1-0.5,0.1
		c-8.6,0-17.3,0-25.9,0c-0.3,0-0.5,0-0.8-0.1c-0.1,0-0.2,0-0.2-0.1c-0.5-0.1-0.9-0.3-1.2-0.6c-0.3-0.3-0.6-0.7-0.7-1.1
		c-0.2-1.1-0.4-2.2-0.6-3.3c-0.3-1.6-0.6-3.3-0.9-4.9c-0.3-1.6-0.6-3.1-0.9-4.7c-0.3-1.6-0.6-3.3-0.9-4.9c-0.3-1.6-0.6-3.1-0.9-4.7
		c-0.3-1.6-0.6-3.1-0.9-4.7c-0.1-0.7-0.3-1.4-0.4-2.1c0-0.1,0-0.1,0-0.2c0-0.2,0.1-0.4,0.1-0.6c0.1-0.5,0.4-1,0.8-1.3
		c1.1-1,2.3-2.1,3.4-3.1c1.4-1.3,2.8-2.5,4.2-3.8c2-1.8,4-3.6,6.1-5.4c0.4-0.4,0.8-0.8,1.3-1.1c0.1,0,0.2-0.1,0.2-0.1
		c0.4-0.1,0.9-0.3,1.3-0.3c2.4,0,4.8,0,7.2,0c0.2,0,0.5,0.1,0.7,0.1c0.5,0.1,1,0.4,1.4,0.7c2.2,1.9,4.4,3.8,6.6,5.8
		c1.4,1.2,2.7,2.4,4.1,3.5c0,0,0.1,0.1,0.1,0.1c0,0,0,0,0.1,0C50.5,13.7,50.6,13.8,50.7,13.8L50.7,13.8z"/>
	<line class="st1" x1="29.4" y1="38.6" x2="25.1" y2="44.1"/>
	<polyline class="st1" points="51.8,24.2 47.3,48.5 20.6,48.5 15.4,19.4 30.2,5.9 37.6,5.9 51.8,18.5 	"/>
	<line class="st1" x1="54" y1="2.7" x2="48.5" y2="8.1"/>
	<line class="st1" x1="57.7" y1="6.3" x2="52.5" y2="11.5"/>
	<line class="st1" x1="24.2" y1="19.8" x2="44.4" y2="19.8"/>
	<path class="st2" d="M29.2,27.9c0,1.1-0.5,2.1-1.2,2.1c-0.7,0-1.2-0.9-1.2-2.1c0-1.1,0.5-2.1,1.2-2.1
		C28.6,25.8,29.2,26.8,29.2,27.9"/>
	<path class="st2" d="M40.5,27.9c0,1.1-0.5,2.1-1.2,2.1c-0.7,0-1.2-0.9-1.2-2.1c0-1.1,0.5-2.1,1.2-2.1C40,25.8,40.5,26.8,40.5,27.9"
		/>
	<path class="st2" d="M24.5,30.9c0,0.4,0.5,0.7,1.1,0.7c0.6,0,1.1-0.3,1.1-0.7c0-0.4-0.5-0.7-1.1-0.7C25,30.2,24.5,30.5,24.5,30.9"
		/>
	<path class="st2" d="M40.5,30.9c0,0.4,0.5,0.7,1.1,0.7c0.6,0,1.1-0.3,1.1-0.7c0-0.4-0.5-0.7-1.1-0.7C41,30.2,40.5,30.5,40.5,30.9"
		/>
	<path class="st2" d="M36.6,34c0,1.6-1.3,1.2-3,1.2c-1.7,0-3,0.4-3-1.2c0-1.6,1.3-2.8,3-2.8C35.2,31.2,36.6,32.5,36.6,34"/>
	<path class="st3" d="M29.9,22.2c0,0-2.1-1.1-4,0.6"/>
	<path class="st3" d="M41.5,26.1c0,0-1.4-1.8-3.9-1.1"/>
	<path class="st4" d="M14.6,26.8c-0.8,10-5.8,13-10,15"/>
	<path class="st0" d="M3.8,44.2c0.8-0.7,3.3-2,2.6-3.3c-0.3-0.7-0.9-0.8-1.5-0.7c-0.7-0.2-1.5-0.3-2.3-0.2c-0.1,0-0.3,0-0.4,0.1
		c-0.3,0.1-0.4,0.5-0.6,0.8c-0.1,0.3-0.2,0.6-0.2,0.9c-0.4,0.2-0.8,0.5-1.1,0.8C0.2,42.7,0.1,43,0,43.2c-0.1,0.3,0.1,0.7,0.2,1
		C0.4,44.5,0.7,44.8,1,45c0.4,0.3,1,0.2,1.5,0C2.9,44.8,3.4,44.5,3.8,44.2"/>
	<path class="st4" d="M53,26.8c0.8,10,5.8,13,10,15"/>
	<path class="st0" d="M63.9,44.2c-0.8-0.7-3.3-2-2.6-3.3c0.3-0.7,0.9-0.8,1.5-0.7c0.7-0.2,1.5-0.3,2.3-0.2c0.1,0,0.3,0,0.4,0.1
		c0.3,0.1,0.4,0.5,0.6,0.8c0.1,0.3,0.2,0.6,0.2,0.9c0.4,0.2,0.8,0.5,1.1,0.8c0.2,0.2,0.3,0.4,0.4,0.6c0.1,0.3-0.1,0.7-0.2,1
		c-0.2,0.3-0.4,0.6-0.7,0.8c-0.4,0.3-1,0.2-1.5,0C64.7,44.8,64.3,44.5,63.9,44.2"/>
	<line class="st4" x1="38.1" y1="50.5" x2="37.3" y2="60.4"/>
	<path class="st0" d="M45.1,61.8c1.3-0.1,2.3-0.9,1.4-1.9c-0.6-0.7-2.4-0.7-4.5-0.6c-1.6,0.1-2,0.1-3.7,0.5c-1,0.2-2.5,0.8-0.8,1.3
		C39.5,61.8,41.4,62,45.1,61.8"/>
	<line class="st4" x1="29.7" y1="50.5" x2="30.4" y2="60.4"/>
	<path class="st0" d="M22.6,61.8c-1.3-0.1-2.3-0.9-1.4-1.9c0.6-0.7,2.4-0.7,4.5-0.6c1.6,0.1,2,0.1,3.7,0.5c1,0.2,2.5,0.8,0.8,1.3
		C28.2,61.8,26.3,62,22.6,61.8"/>
</g>
</svg>
