<?xml version="1.0" encoding="utf-8"?>
<!-- Generator: Adobe Illustrator 19.0.0, SVG Export Plug-In . SVG Version: 6.00 Build 0)  -->
<svg version="1.1" id="Слой_1" xmlns="http://www.w3.org/2000/svg" xmlns:xlink="http://www.w3.org/1999/xlink" x="0px" y="0px"
	 viewBox="0 0 360.9 62.3" style="enable-background:new 0 0 360.9 62.3;" xml:space="preserve">
<style type="text/css">
	.st0{clip-path:url(#SVGID_2_);fill:#04D959;}
	.st1{clip-path:url(#SVGID_2_);fill:#FFFFFF;}
	.st2{clip-path:url(#SVGID_2_);}
</style>
<g>
	<defs>
		<rect id="SVGID_1_" y="0" width="360.9" height="62.3"/>
	</defs>
	<clipPath id="SVGID_2_">
		<use xlink:href="#SVGID_1_"  style="overflow:visible;"/>
	</clipPath>
	<path class="st0" d="M62.3,31.2c0,17.2-14,31.2-31.2,31.2S0,48.4,0,31.2S14,0,31.2,0S62.3,14,62.3,31.2"/>
	<path class="st0" d="M22.3,48.4c-0.5,0-1-0.1-1.4-0.3c-1.4-0.6-2.2-1.9-2.2-3.4V21.6c0-2,1.6-3.6,3.6-3.6h23.2c2,0,3.6,1.6,3.6,3.6
		c0,1-0.4,2-1.1,2.6l-6.6,6.6V37c0,2-1.6,3.6-3.6,3.6h-6.2l-6.7,6.7C24.2,48,23.3,48.4,22.3,48.4"/>
	<path class="st1" d="M45.5,19.8c1,0,1.8,0.8,1.8,1.8c0,0.5-0.2,1-0.6,1.3l-7.1,7.2v7c0,1-0.8,1.8-1.8,1.8h-7L23.6,46
		c-0.3,0.3-0.8,0.5-1.3,0.5c-0.2,0-0.5,0-0.7-0.1c-0.7-0.3-1.1-0.9-1.1-1.7V21.6c0-1,0.8-1.8,1.8-1.8H45.5L45.5,19.8 M45.5,16.1
		L45.5,16.1H22.3c-3,0-5.5,2.5-5.5,5.5v23.2c0,2.2,1.3,4.2,3.4,5c0.7,0.3,1.4,0.4,2.1,0.4c1.5,0,2.8-0.6,3.9-1.6l6.1-6.1h5.5
		c3,0,5.5-2.5,5.5-5.5v-5.5l6.1-6.1c1.1-1,1.7-2.5,1.7-3.9C50.9,18.6,48.5,16.1,45.5,16.1"/>
	<polygon class="st1" points="40.5,30.1 21.4,19.8 41,39.3 41,29.6 41,29.6 	"/>
	<polygon class="st1" points="21.5,19.9 21.5,19.9 21.4,19.8 	"/>
	<path class="st1" d="M31.2,39.3L31.2,39.3L31.2,39.3z"/>
	<path class="st2" d="M99.5,22.2c-0.6-0.6-1.2-1-1.9-1.2c-0.7-0.3-1.5-0.4-2.3-0.4c-0.9,0-1.6,0.2-2.3,0.7c-0.7,0.5-1.1,1.2-1.1,2.3
		v0.6h8V32h-8v18.8h-7.5V32h-4.5v-7.8h4.5v-1.6c0-3,0.8-5.3,2.4-7c1.6-1.7,3.9-2.5,6.8-2.5c1.9,0,3.5,0.3,4.7,0.9s2.1,1.3,2.7,2.2
		l-1.5,6V22.2z"/>
	<rect x="105.5" y="13.7" class="st2" width="7.5" height="37"/>
	<polygon class="st2" points="125.5,24.1 131.9,39 138.3,24.1 146.5,24.1 130.5,61.6 122.4,61.6 127.9,48.6 117.5,24.1 	"/>
	<path class="st2" d="M168.4,22.2c-0.6-0.6-1.2-1-1.9-1.2c-0.7-0.3-1.5-0.4-2.3-0.4c-0.9,0-1.6,0.2-2.3,0.7
		c-0.7,0.5-1.1,1.2-1.1,2.3v0.6h8V32h-8v18.8h-7.5V32h-4.5v-7.8h4.5v-1.6c0-3,0.8-5.3,2.4-7s3.9-2.5,6.8-2.5c1.9,0,3.5,0.3,4.7,0.9
		c1.2,0.6,2.1,1.3,2.7,2.2l-1.5,6V22.2z"/>
	<path class="st2" d="M191.7,24.4c1.7,0.7,3.3,1.7,4.6,2.9c1.3,1.2,2.4,2.7,3.2,4.4c0.8,1.7,1.2,3.6,1.2,5.6c0,2-0.4,3.9-1.2,5.6
		c-0.8,1.7-1.8,3.2-3.2,4.4c-1.3,1.2-2.8,2.2-4.6,2.9c-1.7,0.7-3.6,1.1-5.5,1.1c-1.9,0-3.8-0.4-5.5-1.1c-1.7-0.7-3.3-1.7-4.6-2.9
		c-1.3-1.2-2.4-2.7-3.2-4.4c-0.8-1.7-1.2-3.6-1.2-5.6c0-2,0.4-3.9,1.2-5.6c0.8-1.7,1.8-3.2,3.2-4.4c1.3-1.2,2.8-2.2,4.6-2.9
		c1.7-0.7,3.6-1.1,5.5-1.1C188.1,23.3,190,23.7,191.7,24.4 M186.1,43.7c0.9,0,1.8-0.2,2.6-0.5c0.8-0.3,1.5-0.7,2.1-1.2
		c0.6-0.5,1.1-1.2,1.5-1.9c0.4-0.8,0.6-1.6,0.6-2.5c0-0.9-0.2-1.8-0.5-2.5c-0.4-0.8-0.9-1.4-1.5-1.9c-0.6-0.5-1.3-0.9-2.1-1.2
		c-0.8-0.3-1.7-0.5-2.6-0.5s-1.8,0.2-2.6,0.5c-0.8,0.3-1.5,0.7-2.1,1.2c-0.6,0.5-1.1,1.2-1.5,1.9c-0.4,0.8-0.5,1.6-0.5,2.5
		c0,0.9,0.2,1.7,0.6,2.5c0.4,0.8,0.9,1.4,1.5,1.9c0.6,0.5,1.3,0.9,2.1,1.2c0.8,0.3,1.7,0.5,2.6,0.5L186.1,43.7z"/>
	<path class="st2" d="M224.4,24.4c1.7,0.7,3.3,1.7,4.6,2.9c1.3,1.2,2.4,2.7,3.2,4.4c0.8,1.7,1.2,3.6,1.2,5.6c0,2-0.4,3.9-1.2,5.6
		c-0.8,1.7-1.8,3.2-3.2,4.4c-1.3,1.2-2.8,2.2-4.6,2.9c-1.7,0.7-3.6,1.1-5.5,1.1c-1.9,0-3.8-0.4-5.5-1.1c-1.7-0.7-3.3-1.7-4.6-2.9
		c-1.3-1.2-2.4-2.7-3.2-4.4c-0.8-1.7-1.2-3.6-1.2-5.6c0-2,0.4-3.9,1.2-5.6c0.8-1.7,1.8-3.2,3.2-4.4c1.3-1.2,2.8-2.2,4.6-2.9
		c1.7-0.7,3.6-1.1,5.5-1.1C220.8,23.3,222.7,23.7,224.4,24.4 M218.8,43.7c0.9,0,1.8-0.2,2.6-0.5c0.8-0.3,1.5-0.7,2.1-1.2
		c0.6-0.5,1.1-1.2,1.5-1.9c0.4-0.8,0.6-1.6,0.6-2.5c0-0.9-0.2-1.8-0.5-2.5c-0.4-0.8-0.9-1.4-1.5-1.9c-0.6-0.5-1.3-0.9-2.1-1.2
		c-0.8-0.3-1.7-0.5-2.6-0.5s-1.8,0.2-2.6,0.5c-0.8,0.3-1.5,0.7-2.1,1.2c-0.6,0.5-1.1,1.2-1.5,1.9c-0.4,0.8-0.5,1.6-0.5,2.5
		c0,0.9,0.2,1.7,0.6,2.5c0.4,0.8,0.9,1.4,1.5,1.9c0.6,0.5,1.3,0.9,2.1,1.2c0.8,0.3,1.7,0.5,2.6,0.5L218.8,43.7z"/>
	<path class="st2" d="M265.7,13.7v37h-7.2V48c-0.5,1-1.4,1.8-2.7,2.4c-1.4,0.7-3.1,1-5.2,1c-1.8,0-3.5-0.4-5.1-1
		c-1.6-0.7-3.1-1.6-4.3-2.8c-1.2-1.2-2.2-2.7-2.9-4.4c-0.7-1.7-1.1-3.7-1.1-5.7s0.4-4,1.1-5.7c0.7-1.7,1.7-3.2,2.9-4.4
		c1.2-1.2,2.6-2.2,4.3-2.8c1.6-0.7,3.3-1,5.1-1c1.9,0,3.6,0.4,4.9,1c1.4,0.7,2.3,1.5,2.7,2.4V13.7H265.7z M258.2,34.2
		c-0.4-0.9-1.1-1.6-2.3-2.1c-1.2-0.6-2.5-0.9-4.1-0.9c-2.1,0-3.8,0.6-5.1,1.7c-1.3,1.2-2,2.6-2,4.4c0,1.8,0.7,3.3,2,4.4
		c1.3,1.2,3,1.7,5.1,1.7c1.5,0,2.9-0.3,4.1-0.9c1.2-0.6,1.9-1.3,2.3-2.1v-6.2V34.2z"/>
	<path class="st2" d="M278.7,40c-4.6-2.3-6.9-5.2-6.9-8.7c0-1.1,0.3-2.2,0.7-3.2c0.5-1,1.1-1.8,1.9-2.5c0.8-0.7,1.8-1.3,2.9-1.7
		c1.1-0.4,2.3-0.6,3.6-0.6c2.1,0,3.9,0.4,5.2,1.1c1.4,0.7,2.4,1.6,3.1,2.6l-1.5,6.4c-1.1-1-2.2-1.6-3.4-2c-1.2-0.4-2.2-0.6-3.1-0.6
		c-0.7,0-1.2,0.1-1.4,0.3c-0.3,0.2-0.4,0.4-0.4,0.6c0,0.3,0.1,0.5,0.3,0.7c0.2,0.2,0.7,0.5,1.3,0.8l2.2,1.1c2.2,1.1,4,2.3,5.1,3.6
		c1.2,1.3,1.8,2.9,1.8,5c0,1.2-0.2,2.3-0.7,3.4c-0.5,1-1.1,1.9-2,2.7c-0.9,0.8-1.9,1.4-3.1,1.8c-1.2,0.4-2.5,0.6-4,0.6
		c-1.2,0-2.2-0.2-3.3-0.4c-1-0.3-1.9-0.6-2.7-1.1c-0.8-0.5-1.5-1-2-1.5c-0.6-0.6-1-1.1-1.2-1.7l2.1-6.4c0.3,0.4,0.7,0.8,1.1,1.2
		c0.5,0.5,1,0.9,1.6,1.2c0.6,0.4,1.3,0.7,2,0.9c0.7,0.3,1.5,0.4,2.4,0.4c0.7,0,1.2-0.1,1.7-0.3c0.5-0.2,0.7-0.6,0.7-1
		c0-0.4-0.2-0.7-0.5-0.9c-0.4-0.3-0.9-0.6-1.7-0.9l-1.9-1L278.7,40z"/>
	<path class="st0" d="M297.6,46.7c0-1.4,0.5-2.5,1.4-3.5c0.9-1,2.1-1.4,3.5-1.4c1.4,0,2.5,0.5,3.5,1.4c1,1,1.4,2.1,1.4,3.5
		c0,1.4-0.5,2.5-1.4,3.4c-1,0.9-2.1,1.4-3.5,1.4c-1.4,0-2.5-0.5-3.4-1.4C298.1,49.2,297.7,48.1,297.6,46.7L297.6,46.7z"/>
	<path class="st2" d="M330.8,32.3c-0.4-0.3-0.8-0.5-1.4-0.7c-0.6-0.2-1.3-0.3-2-0.3c-1.3,0-2.4,0.3-3.4,1c-1,0.7-1.6,1.6-2,2.9v15.5
		h-7.5V24.1h7.2v3.5c0.4-1.3,1.1-2.3,2.1-3.1c1-0.8,2.2-1.2,3.7-1.2c1,0,1.8,0.2,2.6,0.6c0.8,0.4,1.3,0.9,1.6,1.4l-1.1,6.9H330.8z"
		/>
	<path class="st2" d="M346.6,51.7c-1.4,0-2.7-0.3-4-0.7s-2.5-1.2-3.5-2.1c-1-1-1.8-2.2-2.5-3.7c-0.7-1.5-1-3.3-1-5.3V24.2h7.5v14.1
		c0,1.7,0.5,3.1,1.4,4c1,0.9,2.2,1.4,3.7,1.4c1.3,0,2.4-0.4,3.5-1c1-0.7,1.6-1.5,1.8-2.5V24.1h7.5v26.7h-7.2v-2.6
		c-0.4,1-1.1,1.8-2.3,2.4c-1.2,0.6-2.7,0.9-4.6,0.9L346.6,51.7z"/>
</g>
</svg>
