<svg id="Слой_1" xmlns="http://www.w3.org/2000/svg" viewBox="0 0 36.1 54.1"><style>.st0{fill:#04d959}</style><path class="st0" d="M36.1 32.7c.1-.5-.3-1-.8-1.1-.5-.1-1 .3-1.1.8-1 8.2-7.9 14.5-16.2 14.5-8.3 0-15.1-6.2-16.1-14.4-.1-.5-.5-.9-1.1-.8-.5.1-.9.5-.8 1.1 1.1 9.1 8.9 16.1 18.1 16.1s17-7 18-16.2zm-30.9 16l-2.7 3.8c-.3.4-.2 1 .2 1.3.2.2.4.3.6.3.3 0 .6-.1.8-.4l2.7-3.8c.3-.4.2-1-.2-1.3-.5-.4-1.1-.3-1.4.1zm25.8 0c-.3-.4-.9-.5-1.3-.2s-.5.9-.2 1.3l2.7 3.8c.2.3.5.4.8.4.2 0 .4-.1.5-.2.4-.3.5-.9.2-1.3L31 48.7z"/><path class="st0" d="M3 28.6c.2.2.3.2.4.3 1.3 1 3 1.9 5 2.5.2 0 .4.1.5.1 2.7.8 5.9 1.3 9.3 1.3 9.8 0 17.6-3.8 17.6-8.8s-7.7-8.8-17.6-8.8c-9.9 0-17.6 4.1-17.6 9 0 1.6.9 3.1 2.4 4.4zm15.2-11.2c9.4 0 15.6 3.5 15.6 6.8 0 3.1-5.7 6.5-14.3 6.8l9.6-6.6c.4-.3.5-.9.2-1.3s-.9-.5-1.3-.2l-11.8 8.2c-1.9-.1-3.6-.3-5.1-.7l11.3-7.9c.4-.3.5-.9.2-1.3s-.9-.5-1.3-.2L8.8 29.6c-1.3-.4-2.4-1-3.3-1.5l8.8-6.1c.4-.3.5-.9.2-1.3s-.9-.5-1.3-.2L3.9 27c-.9-.9-1.3-1.8-1.3-2.7 0-3.4 6.2-6.9 15.6-6.9zm-6.5-6c.2 0 .4-.1.6-.2.4-.3.5-.9.1-1.3-1.4-1.7-2-3.4-1.7-4.9.4-2.1 2.2-3.2 2.3-3.2.4-.3.6-.9.3-1.3s-.9-.6-1.3-.3c-.1.1-2.6 1.6-3.2 4.5-.4 2 .3 4.2 2.1 6.4.2.2.5.3.8.3zm7.6 0c.2 0 .4-.1.6-.2.4-.3.5-.9.1-1.3-1.4-1.7-2-3.4-1.7-4.9.4-2 2.2-3.2 2.3-3.2.4-.3.6-.9.3-1.3s-.8-.6-1.3-.3c-.1.1-2.6 1.6-3.2 4.5-.4 2 .3 4.2 2.1 6.4.2.2.5.3.8.3zm7.6 0c.2 0 .4-.1.6-.2.4-.3.5-.9.1-1.3-1.4-1.7-2-3.4-1.7-4.9.4-2.1 2.2-3.2 2.3-3.2.4-.3.6-.9.3-1.3-.3-.5-.9-.6-1.3-.3-.1 0-2.6 1.6-3.1 4.5-.4 2 .3 4.2 2.1 6.4.1.2.4.3.7.3z"/></svg>