<svg id="Слой_1" xmlns="http://www.w3.org/2000/svg" viewBox="0 0 75.4 47.1"><style>.st0{fill:#04d959}</style><path class="st0" d="M31.3 11.4c.1 0 .3 0 .7-.3.4-.3.4-.9.1-1.3-1.4-1.8-2-3.4-1.7-4.8.4-2 2.3-3.2 2.3-3.2.4-.3.6-.9.3-1.3s-.8-.6-1.3-.3c-.1.1-2.7 1.6-3.2 4.5-.4 2 .3 4.2 2.1 6.4.3.3.5.3.7.3zM10.9 34.9c.3 0 .6-.2.8-.1 2.4-3.9 5.9-6.1 9.7-6.1 1.4 0 2.6.3 3.8.8.4.2 1 0 1.2-.4 3.1-5.2 7.6-8.2 12.5-8.2 4 0 7.8 1.9 10.7 5.5.2.3.6.4 1 .3.5-.2 1.3-.3 1.9-.3 4.4 0 8.5 3 10.8 8 .3.5.8.7 1.3.5.5-.3.7-.8.5-1.3-2.7-5.8-7.4-9.2-12.6-9.2-.6 0-1.2.1-1.8.2-3.3-3.7-7.4-5.8-11.8-5.8-5.3 0-10.3 3.1-13.7 8.5-1.2-.5-2.5-.7-3.8-.7-4.4 0-8.5 2.5-11.3 6.9-.3.4-.1 1 .3 1.3.2.1.3.1.5.1z"/><circle class="st0" cx="19.5" cy="34.6" r="1.8"/><circle class="st0" cx="51.7" cy="32.1" r="1.8"/><circle class="st0" cx="37.6" cy="27.7" r="1.8"/><circle class="st0" cx="30.8" cy="34.6" r="1.8"/><circle class="st0" cx="43" cy="36.3" r="1.8"/><path class="st0" d="M46.3 11.4c.1 0 .3 0 .7-.3.4-.3.4-.9.1-1.3-1.4-1.8-2-3.4-1.7-4.8.4-2 2.3-3.2 2.3-3.2.4-.3.6-.9.3-1.3s-.8-.6-1.3-.3c-.1.1-2.7 1.6-3.2 4.5-.4 2 .3 4.2 2.1 6.4.3.3.5.3.7.3zm-7.9 0c.1 0 .3 0 .7-.3s.4-.9.1-1.3c-1.4-1.8-2-3.4-1.7-4.9.4-2 2.3-3.2 2.3-3.2.4-.3.6-.9.3-1.3s-.8-.6-1.3-.3c-.1.1-2.7 1.6-3.2 4.6-.4 2 .3 4.2 2.1 6.4.3.3.5.3.7.3zm36.9 22.7c-.3-.4-.9-.5-1.3-.2-9.6 7.3-22.5 11.3-36.2 11.3-13.6 0-26.5-4-36.3-11.3-.4-.3-1-.2-1.3.2-.3.4-.2 1 .2 1.3 10.1 7.5 23.4 11.7 37.5 11.7 14.1 0 27.4-4.2 37.2-11.7.4-.3.5-.9.2-1.3z"/></svg>