<svg id="Слой_1" xmlns="http://www.w3.org/2000/svg" xmlns:xlink="http://www.w3.org/1999/xlink" viewBox="0 0 360.9 62.3"><style>.st0{clip-path:url(#SVGID_2_);fill:#04d959}.st1{fill:#fff}.st1,.st2{clip-path:url(#SVGID_2_)}</style><defs><path id="SVGID_1_" d="M0 0h360.9v62.3H0z"/></defs><clipPath id="SVGID_2_"><use xlink:href="#SVGID_1_" overflow="visible"/></clipPath><path class="st0" d="M62.3 31.2c0 17.2-14 31.2-31.2 31.2S0 48.4 0 31.2 14 0 31.2 0s31.1 14 31.1 31.2"/><path class="st0" d="M22.3 48.4c-.5 0-1-.1-1.4-.3-1.4-.6-2.2-1.9-2.2-3.4V21.6c0-2 1.6-3.6 3.6-3.6h23.2c2 0 3.6 1.6 3.6 3.6 0 1-.4 2-1.1 2.6l-6.6 6.6V37c0 2-1.6 3.6-3.6 3.6h-6.2l-6.7 6.7c-.7.7-1.6 1.1-2.6 1.1"/><path class="st1" d="M45.5 19.8c1 0 1.8.8 1.8 1.8 0 .5-.2 1-.6 1.3l-7.1 7.2v7c0 1-.8 1.8-1.8 1.8h-7L23.6 46c-.3.3-.8.5-1.3.5-.2 0-.5 0-.7-.1-.7-.3-1.1-.9-1.1-1.7V21.6c0-1 .8-1.8 1.8-1.8h23.2m0-3.7H22.3c-3 0-5.5 2.5-5.5 5.5v23.2c0 2.2 1.3 4.2 3.4 5 .7.3 1.4.4 2.1.4 1.5 0 2.8-.6 3.9-1.6l6.1-6.1h5.5c3 0 5.5-2.5 5.5-5.5v-5.5l6.1-6.1c1.1-1 1.7-2.5 1.7-3.9-.2-2.9-2.6-5.4-5.6-5.4"/><path class="st1" d="M40.5 30.1L21.4 19.8 41 39.3v-9.7zm-19-10.2l-.1-.1zm9.7 19.4z"/><path class="st2" d="M99.5 22.2c-.6-.6-1.2-1-1.9-1.2-.7-.3-1.5-.4-2.3-.4-.9 0-1.6.2-2.3.7-.7.5-1.1 1.2-1.1 2.3v.6h8V32h-8v18.8h-7.5V32h-4.5v-7.8h4.5v-1.6c0-3 .8-5.3 2.4-7 1.6-1.7 3.9-2.5 6.8-2.5 1.9 0 3.5.3 4.7.9s2.1 1.3 2.7 2.2l-1.5 6zm6-8.5h7.5v37h-7.5zm20 10.4l6.4 14.9 6.4-14.9h8.2l-16 37.5h-8.1l5.5-13-10.4-24.5zm42.9-1.9c-.6-.6-1.2-1-1.9-1.2-.7-.3-1.5-.4-2.3-.4-.9 0-1.6.2-2.3.7-.7.5-1.1 1.2-1.1 2.3v.6h8V32h-8v18.8h-7.5V32h-4.5v-7.8h4.5v-1.6c0-3 .8-5.3 2.4-7s3.9-2.5 6.8-2.5c1.9 0 3.5.3 4.7.9 1.2.6 2.1 1.3 2.7 2.2l-1.5 6zm23.3 2.2c1.7.7 3.3 1.7 4.6 2.9 1.3 1.2 2.4 2.7 3.2 4.4.8 1.7 1.2 3.6 1.2 5.6 0 2-.4 3.9-1.2 5.6-.8 1.7-1.8 3.2-3.2 4.4-1.3 1.2-2.8 2.2-4.6 2.9-1.7.7-3.6 1.1-5.5 1.1s-3.8-.4-5.5-1.1c-1.7-.7-3.3-1.7-4.6-2.9-1.3-1.2-2.4-2.7-3.2-4.4-.8-1.7-1.2-3.6-1.2-5.6 0-2 .4-3.9 1.2-5.6.8-1.7 1.8-3.2 3.2-4.4 1.3-1.2 2.8-2.2 4.6-2.9 1.7-.7 3.6-1.1 5.5-1.1s3.8.4 5.5 1.1m-5.6 19.3c.9 0 1.8-.2 2.6-.5s1.5-.7 2.1-1.2c.6-.5 1.1-1.2 1.5-1.9.4-.8.6-1.6.6-2.5 0-.9-.2-1.8-.5-2.5-.4-.8-.9-1.4-1.5-1.9s-1.3-.9-2.1-1.2c-.8-.3-1.7-.5-2.6-.5s-1.8.2-2.6.5-1.5.7-2.1 1.2c-.6.5-1.1 1.2-1.5 1.9-.4.8-.5 1.6-.5 2.5 0 .9.2 1.7.6 2.5.4.8.9 1.4 1.5 1.9s1.3.9 2.1 1.2c.8.3 1.7.5 2.6.5h-.2zm38.3-19.3c1.7.7 3.3 1.7 4.6 2.9 1.3 1.2 2.4 2.7 3.2 4.4.8 1.7 1.2 3.6 1.2 5.6 0 2-.4 3.9-1.2 5.6-.8 1.7-1.8 3.2-3.2 4.4-1.3 1.2-2.8 2.2-4.6 2.9-1.7.7-3.6 1.1-5.5 1.1s-3.8-.4-5.5-1.1c-1.7-.7-3.3-1.7-4.6-2.9-1.3-1.2-2.4-2.7-3.2-4.4-.8-1.7-1.2-3.6-1.2-5.6 0-2 .4-3.9 1.2-5.6.8-1.7 1.8-3.2 3.2-4.4 1.3-1.2 2.8-2.2 4.6-2.9 1.7-.7 3.6-1.1 5.5-1.1s3.8.4 5.5 1.1m-5.6 19.3c.9 0 1.8-.2 2.6-.5s1.5-.7 2.1-1.2c.6-.5 1.1-1.2 1.5-1.9.4-.8.6-1.6.6-2.5 0-.9-.2-1.8-.5-2.5-.4-.8-.9-1.4-1.5-1.9s-1.3-.9-2.1-1.2c-.8-.3-1.7-.5-2.6-.5s-1.8.2-2.6.5-1.5.7-2.1 1.2c-.6.5-1.1 1.2-1.5 1.9-.4.8-.5 1.6-.5 2.5 0 .9.2 1.7.6 2.5.4.8.9 1.4 1.5 1.9s1.3.9 2.1 1.2c.8.3 1.7.5 2.6.5h-.2zm46.9-30v37h-7.2V48c-.5 1-1.4 1.8-2.7 2.4-1.4.7-3.1 1-5.2 1-1.8 0-3.5-.4-5.1-1-1.6-.7-3.1-1.6-4.3-2.8-1.2-1.2-2.2-2.7-2.9-4.4-.7-1.7-1.1-3.7-1.1-5.7s.4-4 1.1-5.7c.7-1.7 1.7-3.2 2.9-4.4 1.2-1.2 2.6-2.2 4.3-2.8 1.6-.7 3.3-1 5.1-1 1.9 0 3.6.4 4.9 1 1.4.7 2.3 1.5 2.7 2.4V13.7h7.5zm-7.5 20.5c-.4-.9-1.1-1.6-2.3-2.1-1.2-.6-2.5-.9-4.1-.9-2.1 0-3.8.6-5.1 1.7-1.3 1.2-2 2.6-2 4.4 0 1.8.7 3.3 2 4.4 1.3 1.2 3 1.7 5.1 1.7 1.5 0 2.9-.3 4.1-.9 1.2-.6 1.9-1.3 2.3-2.1v-6.2zm20.5 5.8c-4.6-2.3-6.9-5.2-6.9-8.7 0-1.1.3-2.2.7-3.2.5-1 1.1-1.8 1.9-2.5.8-.7 1.8-1.3 2.9-1.7 1.1-.4 2.3-.6 3.6-.6 2.1 0 3.9.4 5.2 1.1 1.4.7 2.4 1.6 3.1 2.6l-1.5 6.4c-1.1-1-2.2-1.6-3.4-2-1.2-.4-2.2-.6-3.1-.6-.7 0-1.2.1-1.4.3-.3.2-.4.4-.4.6 0 .3.1.5.3.7.2.2.7.5 1.3.8l2.2 1.1c2.2 1.1 4 2.3 5.1 3.6 1.2 1.3 1.8 2.9 1.8 5 0 1.2-.2 2.3-.7 3.4-.5 1-1.1 1.9-2 2.7-.9.8-1.9 1.4-3.1 1.8-1.2.4-2.5.6-4 .6-1.2 0-2.2-.2-3.3-.4-1-.3-1.9-.6-2.7-1.1-.8-.5-1.5-1-2-1.5-.6-.6-1-1.1-1.2-1.7l2.1-6.4c.3.4.7.8 1.1 1.2.5.5 1 .9 1.6 1.2.6.4 1.3.7 2 .9.7.3 1.5.4 2.4.4.7 0 1.2-.1 1.7-.3.5-.2.7-.6.7-1s-.2-.7-.5-.9c-.4-.3-.9-.6-1.7-.9l-1.9-1 .1.1z"/><path class="st0" d="M297.6 46.7c0-1.4.5-2.5 1.4-3.5.9-1 2.1-1.4 3.5-1.4s2.5.5 3.5 1.4c1 1 1.4 2.1 1.4 3.5s-.5 2.5-1.4 3.4c-1 .9-2.1 1.4-3.5 1.4s-2.5-.5-3.4-1.4c-1-.9-1.4-2-1.5-3.4z"/><path class="st2" d="M330.8 32.3c-.4-.3-.8-.5-1.4-.7-.6-.2-1.3-.3-2-.3-1.3 0-2.4.3-3.4 1s-1.6 1.6-2 2.9v15.5h-7.5V24.1h7.2v3.5c.4-1.3 1.1-2.3 2.1-3.1 1-.8 2.2-1.2 3.7-1.2 1 0 1.8.2 2.6.6.8.4 1.3.9 1.6 1.4l-1.1 6.9h.2zm15.8 19.4c-1.4 0-2.7-.3-4-.7s-2.5-1.2-3.5-2.1c-1-1-1.8-2.2-2.5-3.7s-1-3.3-1-5.3V24.2h7.5v14.1c0 1.7.5 3.1 1.4 4 1 .9 2.2 1.4 3.7 1.4 1.3 0 2.4-.4 3.5-1 1-.7 1.6-1.5 1.8-2.5V24.1h7.5v26.7h-7.2v-2.6c-.4 1-1.1 1.8-2.3 2.4-1.2.6-2.7.9-4.6.9l-.3.2z"/></svg>