<svg id="Слой_1" xmlns="http://www.w3.org/2000/svg" viewBox="0 0 60.9 57"><style>.st0{fill:#fff}</style><path class="st0" d="M51.9 57H9c-5 0-9-4.1-9-9V9c0-5 4.1-9 9-9h35.1c5 0 9 4.1 9 9v1.2H10.3v1.4h42c4.8.3 8.6 4.2 8.6 9V48c0 5-4 9-9 9zM9 2.5C5.4 2.5 2.5 5.4 2.5 9v39c0 3.6 2.9 6.5 6.5 6.5h42.8c3.6 0 6.5-2.9 6.5-6.5V20.7c0-3.4-2.7-6.3-6.2-6.5H9.9c-1.2 0-2.2-1-2.2-2.2v-2c0-1.2 1-2.2 2.2-2.2h40.5c-.6-3-3.2-5.3-6.4-5.3H9zm39.9 37H47c-2.3 0-4.2-1.9-4.2-4.2v-1.9c0-2.3 1.9-4.2 4.2-4.2h1.9c2.3 0 4.2 1.9 4.2 4.2v1.9c0 2.3-1.9 4.2-4.2 4.2zM47 31.7c-.9 0-1.7.8-1.7 1.7v1.9c0 .9.8 1.7 1.7 1.7h1.9c.9 0 1.7-.8 1.7-1.7v-1.9c0-.9-.8-1.7-1.7-1.7H47z"/></svg>