<svg xmlns="http://www.w3.org/2000/svg" viewBox="136.3 259.6 18.3 18.3"><path d="M145.4 259.6c-5.1 0-9.1 4.1-9.1 9.1 0 5.1 4.1 9.1 9.1 9.1s9.2-4.1 9.2-9.1-4.1-9.1-9.2-9.1zm1 15.2c-.2.2-.5.4-.9.4s-.7-.1-.9-.4c-.2-.2-.4-.6-.4-.9 0-.4.1-.7.4-.9.2-.2.6-.4.9-.4.4 0 .7.1.9.4.2.2.4.5.4.9s-.2.7-.4.9zm1.9-9c-.1.3-.3.5-.5.7-.2.2-.4.4-.7.6l-.9.6c-.3.2-.5.3-.7.4-.2.1-.3.2-.4.3-.1.1-.2.2-.2.3 0 .1-.1.2-.1.3 0 .2.1.3.2.4.1.1.4.2.6.2.3 0 .6-.1.9-.2.3-.2.6-.4.9-.7l.3 1.6c-.2.3-.5.6-.9.8-.4.3-.9.4-1.5.4-.4 0-.7-.1-1-.2-.3-.1-.6-.3-.8-.5-.2-.2-.4-.5-.5-.7-.1-.3-.2-.6-.2-.9 0-.5.2-.9.5-1.4.3-.5.9-.9 1.7-1.5.5-.3.9-.6 1.1-.8.2-.2.3-.4.3-.6s-.1-.4-.3-.6c-.2-.1-.5-.2-.8-.2-.5 0-1 .1-1.4.4-.4.2-.8.5-1.1.9l-.4-1.5v.1c.1-.2.3-.4.5-.6.2-.2.4-.4.7-.5.3-.2.5-.3.9-.4.3-.1.7-.1 1-.1.9 0 1.7.2 2.2.7.5.5.8 1.1.8 1.9-.1.2-.1.5-.2.8z"/></svg>