<svg id="Слой_1" xmlns="http://www.w3.org/2000/svg" xmlns:xlink="http://www.w3.org/1999/xlink" viewBox="0 0 67.6 61.9"><style>.st0{fill:#fff}.st0,.st1,.st2,.st3,.st4{clip-path:url(#SVGID_2_)}.st1{stroke:#04d959;stroke-width:1.9;stroke-linecap:round;stroke-linejoin:round;stroke-miterlimit:10;fill:none}.st2{fill:#04d959}.st3,.st4{fill:none;stroke-linecap:round;stroke-miterlimit:10}.st3{stroke-linejoin:round;stroke:#04d959}.st4{stroke:#fff}</style><defs><path id="SVGID_1_" d="M0 0h67.6v61.9H0z"/></defs><clipPath id="SVGID_2_"><use xlink:href="#SVGID_1_" overflow="visible"/></clipPath><path class="st0" d="M59.5 4.5c-.5-.5-1.1-.8-1.8-.8-.6 0-1.1.2-1.6.5.8-1 .7-2.5-.2-3.5C55.3.3 54.7 0 54 0s-1.4.3-1.9.8l-5.5 5.5c-1 1-1 2.7 0 3.7.5.5 1.2.8 1.9.8s1.3-.2 1.8-.7c-.7 1-.6 2.4.3 3.3.5.5 1.2.8 1.9.8s1.4-.3 1.9-.8l5.2-5.2c1-1 1-2.7-.1-3.7m-8.8 9.3c0 .1.1.1.1.2.9.8 1.8 1.6 2.8 2.4.3.2.5.6.7.9.1.1.1.3.1.4.2 1 .2.7 0 1.7-.1.6-.5 1-.9 1.3-.3.3-.7.4-1.1.5-.1 0-.2.1-.4.1l.1.1c.2 0 .4.1.6.1.5.1.8.4 1.2.8.1.1.1.2.2.2.2.2.3.5.4.8.2.9.2.6 0 1.6-.3 1.8-.7 3.6-1 5.3-.4 1.9-.7 3.9-1.1 5.8-.4 1.9-.7 3.9-1.1 5.8-.3 1.9-.7 3.7-1 5.6-.1.5-.2.9-.3 1.4-.1.5-.4.8-.7 1.2-.1.1-.3.3-.5.4-.1.1-.2.1-.3.1-.2.1-.5.1-.7.2-.2 0-.4.1-.5.1H21.4c-.3 0-.5 0-.8-.1-.1 0-.2 0-.2-.1-.5-.1-.9-.3-1.2-.6-.3-.3-.6-.7-.7-1.1l-.6-3.3c-.3-1.6-.6-3.3-.9-4.9-.3-1.6-.6-3.1-.9-4.7-.3-1.6-.6-3.3-.9-4.9-.3-1.6-.6-3.1-.9-4.7-.3-1.6-.6-3.1-.9-4.7-.1-.7-.3-1.4-.4-2.1v-.2c0-.2.1-.4.1-.6.1-.5.4-1 .8-1.3 1.1-1 2.3-2.1 3.4-3.1 1.4-1.3 2.8-2.5 4.2-3.8 2-1.8 4-3.6 6.1-5.4.4-.4.8-.8 1.3-1.1.1 0 .2-.1.2-.1.4-.1.9-.3 1.3-.3h7.2c.2 0 .5.1.7.1.5.1 1 .4 1.4.7 2.2 1.9 4.4 3.8 6.6 5.8 1.4 1.2 2.7 2.4 4.1 3.5l.1.1h.1c-.1-.2 0-.1.1-.1z"/><path class="st1" d="M29.4 38.6l-4.3 5.5m26.7-19.9l-4.5 24.3H20.6l-5.2-29.1L30.2 5.9h7.4l14.2 12.6M54 2.7l-5.5 5.4m9.2-1.8l-5.2 5.2m-28.3 8.3h20.2"/><path class="st2" d="M29.2 27.9c0 1.1-.5 2.1-1.2 2.1s-1.2-.9-1.2-2.1c0-1.1.5-2.1 1.2-2.1.6 0 1.2 1 1.2 2.1m11.3 0c0 1.1-.5 2.1-1.2 2.1s-1.2-.9-1.2-2.1c0-1.1.5-2.1 1.2-2.1s1.2 1 1.2 2.1m-16 3c0 .4.5.7 1.1.7.6 0 1.1-.3 1.1-.7 0-.4-.5-.7-1.1-.7-.6 0-1.1.3-1.1.7m16 0c0 .4.5.7 1.1.7.6 0 1.1-.3 1.1-.7 0-.4-.5-.7-1.1-.7-.6 0-1.1.3-1.1.7M36.6 34c0 1.6-1.3 1.2-3 1.2s-3 .4-3-1.2 1.3-2.8 3-2.8c1.6 0 3 1.3 3 2.8"/><path class="st3" d="M29.9 22.2s-2.1-1.1-4 .6m15.6 3.3s-1.4-1.8-3.9-1.1"/><path class="st4" d="M14.6 26.8c-.8 10-5.8 13-10 15"/><path class="st0" d="M3.8 44.2c.8-.7 3.3-2 2.6-3.3-.3-.7-.9-.8-1.5-.7-.7-.2-1.5-.3-2.3-.2-.1 0-.3 0-.4.1-.3.1-.4.5-.6.8-.1.3-.2.6-.2.9-.4.2-.8.5-1.1.8-.1.1-.2.4-.3.6-.1.3.1.7.2 1 .2.3.5.6.8.8.4.3 1 .2 1.5 0 .4-.2.9-.5 1.3-.8"/><path class="st4" d="M53 26.8c.8 10 5.8 13 10 15"/><path class="st0" d="M63.9 44.2c-.8-.7-3.3-2-2.6-3.3.3-.7.9-.8 1.5-.7.7-.2 1.5-.3 2.3-.2.1 0 .3 0 .4.1.3.1.4.5.6.8.1.3.2.6.2.9.4.2.8.5 1.1.8.2.2.3.4.4.6.1.3-.1.7-.2 1-.2.3-.4.6-.7.8-.4.3-1 .2-1.5 0-.7-.2-1.1-.5-1.5-.8"/><path class="st4" d="M38.1 50.5l-.8 9.9"/><path class="st0" d="M45.1 61.8c1.3-.1 2.3-.9 1.4-1.9-.6-.7-2.4-.7-4.5-.6-1.6.1-2 .1-3.7.5-1 .2-2.5.8-.8 1.3 2 .7 3.9.9 7.6.7"/><path class="st4" d="M29.7 50.5l.7 9.9"/><path class="st0" d="M22.6 61.8c-1.3-.1-2.3-.9-1.4-1.9.6-.7 2.4-.7 4.5-.6 1.6.1 2 .1 3.7.5 1 .2 2.5.8.8 1.3-2 .7-3.9.9-7.6.7"/></svg>