<svg id="Слой_1" xmlns="http://www.w3.org/2000/svg" viewBox="0 0 47.1 41.7"><style>.st0{fill:#04d959}</style><path class="st0" d="M38.9 28.2c-.5-.1-1 .2-1.1.7l-2.3 10.9h-4.6l1.2-10.6c.1-.5-.3-1-.8-1.1s-1 .3-1.1.8l-1.3 10.9h-4.6V29.1c0-.5-.4-1-1-1s-1 .4-1 1v10.8h-4.8L16.4 29c-.1-.5-.5-.9-1-.8s-.9.5-.8 1l1.2 10.6h-4.2l-2.5-11c-.1-.5-.6-.8-1.1-.7-.5.1-.8.6-.7 1.1L9.9 41c.1.4.5.7.9.7h25.4c.4 0 .8-.3.9-.8l2.5-11.7c.1-.4-.2-.9-.7-1zM23.6 0C10.4 0 0 7.5 0 16.9c0 4.8 3.8 8.8 8.6 8.8 3.3 0 6.2-1.9 7.6-4.7 1.4 2.8 4.2 4.7 7.4 4.7s6-1.9 7.4-4.7c1.4 2.8 4.3 4.7 7.6 4.7 4.7 0 8.5-3.9 8.5-8.8C47.1 7.5 36.8 0 23.6 0zm15 23.7c-3.7 0-6.6-3.1-6.6-6.8 0-.5-.4-1-1-1s-1 .4-1 1c0 3.8-2.9 6.8-6.5 6.8s-6.4-3.1-6.4-6.8c0-.5-.4-1-1-1s-1 .4-1 1c0 3.8-3 6.8-6.6 6.8s-6.6-3.1-6.6-6.8C2 8.7 11.7 2 23.6 2c12.1 0 21.6 6.6 21.6 14.9 0 3.8-2.9 6.8-6.6 6.8z"/></svg>