<svg xmlns="http://www.w3.org/2000/svg" viewBox="0 0 62.1 27.6"><path fill="#FFF" d="M5.1 27.1c-.4 0-.7-.2-.8-.6-.2-.5 0-1.1.5-1.3L57.9.6c.9-.4 1.9.1 2.2 1 .4.9-.1 2-.9 2.4L5.5 27c-.1.1-.3.1-.4.1z"/><path fill="#010101" d="M60.7 2.3c0 .9-.5 1.8-1.3 2.1L5.7 27.5c-.2.1-.4.1-.6.1-.6 0-1.1-.4-1.3-.9-.3-.7.1-1.6.8-1.9L57.7.2c.5-.2 1.1-.2 1.7 0 .6.2 1 .7 1.2 1.3 0 .2.1.5.1.8zm-56 23.8v.2c.1.2.2.3.4.3h.2L59 3.5c.6-.3.9-1.1.6-1.7-.1-.3-.4-.6-.7-.7-.3-.1-.6-.1-.9 0L5 25.7c-.2 0-.3.2-.3.4z"/><path fill="#FFF" d="M1 16c-.3-.1-.5-.5-.5-.9 0-.5.5-1 1-1l58.5-1c.9 0 1.7.8 1.6 1.8 0 1-.8 1.8-1.8 1.8l-58.4-.6c-.1 0-.3 0-.4-.1z"/><path fill="#010101" d="M62.1 14.8v.1c-.1 1.2-1.1 2.3-2.3 2.3l-58.4-.6c-.2 0-.4 0-.6-.1-.5-.2-.8-.8-.8-1.3 0-.9.7-1.5 1.5-1.5L60 12.6c.6 0 1.1.2 1.5.6.4.4.6.9.6 1.6zM1 15.2c0 .2.1.4.2.4h.2l58.4.5c.7 0 1.3-.6 1.3-1.3l.5-.1h-.5c0-.3-.1-.7-.4-.9-.2-.2-.5-.3-.8-.3L1.5 14.6c-.3 0-.5.3-.5.6z"/></svg>