<svg id="Слой_1" xmlns="http://www.w3.org/2000/svg" viewBox="0 0 44.2 47.7"><style>.st0{fill:#04d959}</style><path class="st0" d="M32.9 47.8H6.2c-.5 0-.9-.3-.9-.8L.1 17.9c-.1-.4 0-.7.3-.9L15.1 3.5c.2-.2.4-.3.6-.3h7.4c.2 0 .5.1.6.2L38 16.1c.4.3.4.9.1 1.3-.3.4-.9.4-1.3.1l-14-12.4h-6.7L2 18l5 27.8h25.1l4.4-23.5c.1-.5.6-.9 1.1-.8s.9.6.8 1.1L33.8 47c0 .4-.4.8-.9.8zm1.5-40.7c-.2 0-.5-.1-.7-.3-.4-.4-.4-1 0-1.3L38.8.4c.4-.4.9-.3 1.3 0 .4.4.4 1 0 1.3L35 6.8c-.1.2-.4.3-.6.3zm3.6 3.6c-.2 0-.4 0-.6-.2-.4-.4-.4-1 0-1.3L42.5 4c.4-.4.9-.4 1.3 0s.4 1 0 1.3l-5.1 5.2c-.2.2-.5.2-.7.2z"/><path class="st0" d="M30 19.1H9.8c-.5 0-1-.4-1-1s.4-1 1-1H30c.5 0 1 .4 1 1s-.5 1-1 1zm-1.8 22.5c-.2 0-.4-.1-.6-.2L7.1 24.7c-.4-.3-.5-.9-.1-1.3.3-.4.9-.5 1.3-.1L28.8 40c.4.3.5.9.1 1.3-.2.2-.4.3-.7.3z"/><path class="st0" d="M10.7 42c-.2 0-.4-.1-.6-.2-.4-.3-.5-.9-.2-1.3l6.9-8.9c.3-.4.9-.5 1.3-.2s.5.9.2 1.3l-6.9 8.9c-.1.2-.4.4-.7.4z"/></svg>