<svg id="Слой_1" xmlns="http://www.w3.org/2000/svg" viewBox="0 0 45.1 44.2"><style>.st0{fill:#04d959}</style><path class="st0" d="M20.3 30.4c-.7 0-1.3.6-1.3 1.3 0 .7.6 1.3 1.3 1.3s1.3-.6 1.3-1.3c0-.7-.6-1.3-1.3-1.3zm0 1.9c-.3 0-.6-.2-.6-.6 0-.4.2-.7.6-.7.4 0 .7.4.7.7 0 .3-.4.6-.7.6zm4.4-15.9c.7 0 1.3-.6 1.3-1.3s-.6-1.3-1.3-1.3-1.3.6-1.3 1.3.6 1.3 1.3 1.3zm0-2c.4 0 .7.2.7.6 0 .4-.3.7-.7.7-.4 0-.7-.4-.7-.7 0-.3.3-.6.7-.6z"/><path class="st0" d="M44.4 19c-1.3-4.8-4.5-8.4-7.4-11.3C33.7 4.5 28.8 2 22.5.3c-5.9-1.4-9.3 3.1-10.2 5.6C11.9 7 1.9 31.6.7 36c-1.2 4.7-.4 7.2-.4 7.3.1.3.2.5.5.6.4.2 1 .3 1.7.3 5.3 0 18.4-4.9 31.3-10.1 2.3-1 4.1-1.7 5.3-2.1 7.3-2.8 6.5-8.7 5.3-13zm-5.8 11.3c-1.2.4-3.1 1.2-5.4 2.1-8.2 3.3-27 10.7-31.2 10-.1-.9-.2-2.9.5-5.9C3.7 32.3 14 6.9 14 6.6c.1-.2 2.3-5.8 8-4.4 6 1.6 10.6 4 13.7 7 2.8 2.8 5.8 6.1 7 10.5 1.7 5.8.5 8.9-4.1 10.6z"/><path class="st0" d="M10.7 24.6c-.4-.2-1 0-1.2.5-.2.4 0 1 .5 1.2 1.2.5 2.1 1.4 2.6 2.6s.5 2.5 0 3.7-1.4 2.1-2.6 2.6-2.5.5-3.7 0c-.4-.2-1 0-1.2.5-.2.4 0 1 .5 1.2.8.3 1.6.5 2.5.5.8 0 1.7-.2 2.6-.5 1.6-.7 2.9-2 3.6-3.6.7-1.6.7-3.4 0-5.1-.7-1.6-2-2.9-3.6-3.6zm29.5-4.1c-.5-.2-1.1-.1-1.3.4-2 3.7-5.7 6-9.8 6-6 0-10.9-4.9-10.9-10.9 0-3.3 1.4-6.3 3.9-8.4.4-.3.4-.9.1-1.3-.3-.4-.9-.4-1.3-.1-2.8 2.4-4.5 6-4.5 9.8 0 7 5.8 12.8 12.9 12.8 4.8 0 9.2-2.6 11.3-7 .2-.5.1-1.1-.4-1.3z"/><path class="st0" d="M28.4 23.9c2.8-1.1 4.6-2.7 5.3-4.8.9-3-.9-5.9-1-6-.3-.5-.9-.6-1.3-.3-.5.3-.6.9-.3 1.3 0 0 1.4 2.2.7 4.4-.5 1.5-1.9 2.7-4.2 3.6-.4.2-.7.7-.5 1.2.3.7 1.2.6 1.3.6z"/></svg>