<svg xmlns="http://www.w3.org/2000/svg" viewBox="5.1 343.2 22 12.5"><path d="M18.8 352.7c.8-.3 1.8 1.7 2.9 2.5.8.6 1.5.4 1.5.4h2.9s1.5-.1.8-1.3c-.1-.1-.4-.9-2.2-2.5-1.8-1.7-1.6-1.4.6-4.4 1.4-1.8 1.9-2.9 1.7-3.4-.2-.4-1.2-.3-1.2-.3h-3.3s-.2 0-.4.1-.3.4-.3.4-.5 1.4-1.2 2.6c-1.5 2.5-2.1 2.6-2.3 2.5-.6-.4-.4-1.5-.4-2.2 0-2.4.4-3.4-.7-3.7-.4-.1-.6-.1-1.5-.2-1.2 0-2.2 0-2.7.3-.4.2-.7.6-.5.6s.7.1 1 .5c.3.5.3 1.5.3 1.5s.2 2.9-.5 3.2c-.4.2-1.1-.3-2.4-2.5-.7-1.2-1.2-2.5-1.2-2.5s-.1-.2-.3-.4c-.2-.2-.5-.2-.5-.2H5.8s-.5 0-.6.2c-.2.2 0 .6 0 .6s2.5 5.8 5.3 8.7c2.6 2.7 5.5 2.5 5.5 2.5h1.3s.4 0 .6-.3c.2-.2.2-.6.2-.6s-.2-1.8.7-2.1z"/></svg>