<svg id="Слой_1" xmlns="http://www.w3.org/2000/svg" xmlns:xlink="http://www.w3.org/1999/xlink" viewBox="0 0 43.6 58.6"><style>.st0{clip-path:url(#SVGID_2_);fill:#fff}.st1{fill:none;stroke:#04d959;stroke-width:1.9;stroke-linecap:round;stroke-linejoin:round;stroke-miterlimit:10}.st1,.st2,.st3{clip-path:url(#SVGID_2_)}.st2{stroke:#04d959;stroke-width:1.304;stroke-linecap:round;stroke-linejoin:round;stroke-miterlimit:10;fill:none}.st3{fill:#04d959}.st4{stroke-width:1.192;stroke-linejoin:round}.st4,.st5,.st6{clip-path:url(#SVGID_2_);fill:none;stroke:#04d959;stroke-miterlimit:10}.st5{stroke-linejoin:round;stroke-width:1.197}.st6{stroke-width:1.106;stroke-linecap:round}.st6,.st7{stroke-linejoin:round}.st7,.st8{clip-path:url(#SVGID_2_);fill:none;stroke:#fff;stroke-linecap:round;stroke-miterlimit:10}</style><defs><path id="SVGID_1_" d="M0 0h43.6v58.6H0z"/></defs><clipPath id="SVGID_2_"><use xlink:href="#SVGID_1_" overflow="visible"/></clipPath><path class="st0" d="M38.4 0H7.6C5.8 0 4.3 1.5 4.3 3.3v1.5c0 1.7 1.2 3 2.8 3.3-.1.3-.1.5-.1.8l3.4 35.9c.2 1.7 1.6 3 3.3 3h19.1c1.7 0 3.2-1.3 3.3-3.1l2.8-35.9V8c1.6-.3 2.8-1.6 2.8-3.3V3.3c0-1.8-1.5-3.3-3.3-3.3"/><path class="st1" d="M9.9 9.4H36l-2.9 35.8H13.4zm2.2 8.9h22.7m-22 18.3h20.4M7.1 5.5V2.7h31.8v2.8"/><path class="st2" d="M25.3 30.4c0 .9-.8 1.6-1.7 1.6-.5 0-.9-.2-1.2-.5"/><path class="st3" d="M21.2 27.1h-5.9l-1.2-4.3 8 .6z"/><path class="st4" d="M21.2 27.1h-5.9l-1.2-4.3 8 .6z"/><path class="st3" d="M25.1 27.1h6l1.2-4.3-8 .6z"/><path class="st5" d="M25.1 27.1h6l1.2-4.3-8 .6z"/><path class="st6" d="M21.2 23.5h4.1"/><path class="st7" d="M9.2 22.7c-.2.8-6 11.9-6 11.9l-.7-11.5"/><path class="st0" d="M.4 21.2C-.2 20 0 17.5.2 16.3.5 15 2.1 13 1.8 15.2c1.6-1.1.2 3.2.2 3.6.7-1 1.2-1.6 2.4-1.6.5 0 1.9-.1 1.7.8-.1 1.1-1.6.5-2.1.8-1.2.9-.4 1.6.6 1.4.8-.2.7-2.5 2.1-2 1.1.4-3.3 8.2-6.3 3m39.8 14.4c0 .2-.1.4.1.6.1.2.3.2.5.3.7.2 1.4.5 2 .7.1 0 .2.1.2.1.1.2-.1.4-.2.5-1 .6-2.3.3-3.5-.1-1-.4-2-.8-2.5-1.7-.3-.6-.4-1.4-.3-2.1.1-.5.2-1 .6-1.3.3-.3.7-.4 1.1-.5.5-.1 2.6-.5 2.8.2.1.3-.4 1.2-.5 1.5l-.3 1.8"/><path class="st8" d="M36.6 24s12.5 4.8 2.9 9.5"/><path class="st0" d="M1.6 14.2c.8 0 2.2.3 2.6 1 .4.8-.7 1.6-.9 2.4-.2.6-.5 1.4-1 1.8-.4.4-1.3.3-1.6-.2"/><path class="st8" d="M28.1 47.2l-.8 9.9"/><path class="st0" d="M35.1 58.6c1.3-.1 2.3-.9 1.4-1.9-.5-.8-2.3-.8-4.5-.7-1.6.1-2 .1-3.7.5-1 .2-2.5.8-.8 1.3 2 .7 3.9.9 7.6.8"/><path class="st8" d="M19.6 47.2l.8 9.9"/><path class="st0" d="M12.6 58.6c-1.3-.1-2.3-.9-1.4-1.9.6-.7 2.4-.7 4.5-.6 1.6.1 2 .1 3.7.5 1 .2 2.5.8.8 1.3-2 .6-3.9.8-7.6.7"/></svg>