<svg id="Слой_1" xmlns="http://www.w3.org/2000/svg" xmlns:xlink="http://www.w3.org/1999/xlink" viewBox="0 0 60.3 59.7"><style>.st0{fill:#fff}.st0,.st1,.st2{clip-path:url(#SVGID_2_)}.st1{stroke:#04d959;stroke-width:1.9;stroke-linecap:round;stroke-linejoin:round;stroke-miterlimit:10;fill:none}.st2{fill:#04d959}.st3{stroke:#04d959;stroke-width:2;stroke-linejoin:round}.st3,.st4,.st5{clip-path:url(#SVGID_2_);fill:none;stroke-linecap:round;stroke-miterlimit:10}.st4{stroke-linejoin:round;stroke:#04d959}.st5{stroke:#fff}</style><defs><path id="SVGID_1_" d="M0 0h60.3v59.7H0z"/></defs><clipPath id="SVGID_2_"><use xlink:href="#SVGID_1_" overflow="visible"/></clipPath><path class="st0" d="M9.6 19.5c0-.3.1-.6.2-.8.1-.1.1-.3.2-.4.2-.3.2-.7.5-.9l.6-.6c.5-.4 1.1-.6 1.7-.8.8-.2 1.6-.3 2.5-.4 1.2-.1 2.4-.1 3.7-.1.6 0 1.2 0 1.8.1.5 0 1 0 1.5.1.5 0 1.1.1 1.6.1.4 0 .9.1 1.3.1.5.1 1 .1 1.6.2.5.1 1 .1 1.5.2.7.1 1.3.2 2 .3.8.1 1.5.2 2.3.3 1 .2 2.1.3 3.1.5 1.7.3 3.3.7 5 1 .8.2 1.6.4 2.4.5l2.4.6 2.1.6c.8.2 1.5.4 2.3.7.7.2 1.5.5 2.2.7 1.3.5 2.5 1 3.7 1.6.8.4 1.6.9 2.3 1.6.6.7 1 1.4 1.1 2.3v.9c-.1.6-.2 1.2-.4 1.8-.1.6-.3 1.1-.5 1.7-.3.8-.6 1.5-.9 2.3-.8 1.8-1.7 3.5-2.9 5.1-.7 1-1.5 1.9-2.4 2.8-.9.9-1.9 1.8-3 2.6-1.2.9-2.4 1.6-3.7 2.3-1.4.7-2.9 1.3-4.4 1.7-1.4.4-2.8.6-4.3.8-1.2.1-2.4.2-3.6.1-.6 0-1.1-.1-1.7-.1-.3 0-.5-.1-.8-.1-.4-.1-.8-.2-1.3-.2h-.1c-.3-.1-.7-.1-1-.2-.6-.2-1.2-.3-1.8-.5-.8-.3-1.5-.6-2.3-.9-1.3-.6-2.6-1.3-3.8-2.1-1.2-.8-2.4-1.8-3.4-2.8-.9-.9-1.8-1.9-2.6-3-.8-1.2-1.6-2.4-2.2-3.7-.7-1.5-1.4-3-1.8-4.6-.4-1.6-.7-3.1-.8-4.8-.1-1.2-.1-2.3-.1-3.5 0-.6.1-1.2.1-1.8 0-.8 0-1.1.1-1.3M41.2 9c.1-.5.4-1.1.6-1.7.5-1.3 1.5-2.3 2.6-3.2.7-.6 1.4-1 2.3-1.3.2-.1.5-.1.7-.1h.3c.2 0 .4.1.6.1.2.1.3.1.5.2.5.2.8.6 1 1 .1.1.1.2.2.4.2.3.1.6.2.9v.2c.1.4-.1.7-.2 1-.2.5-.5.8-.8 1.1-.1.1-.3.2-.5.3-.5.2-.9.5-1.3.9-.2.2-.4.5-.5.8-.1.3-.2.6-.2.9-.1.6.1 1.2.3 1.8.1.4.3.8.5 1.1.2.4.3.8.3 1.2v.7c0 .2-.2.4-.2.6-.1.5-.5.8-.8 1.1-.4.3-.8.5-1.4.5-.3 0-.6.1-.8 0-.6-.2-1.2-.5-1.6-1-.2-.3-.3-.6-.5-.9-.3-.6-.6-1.3-.8-2-.3-.8-.4-1.7-.4-2.5-.2-.7-.2-1.3-.1-2.1"/><path class="st0" d="M42.8 4.6c-.1.3-.2.5-.3.8-.2.5-.6.9-1.1 1.1-.4.2-.9.5-1.3.8-.5.4-.8.9-.9 1.5-.1.5 0 1 .1 1.5.2.7.4 1.3.8 1.9.1.3.2.5.2.8v.4c.1.4-.1.7-.2 1.1-.2.5-.5.8-.9 1.1-.4.3-.8.5-1.4.5-.3 0-.5.1-.8 0-.7-.2-1.3-.5-1.7-1.1-.2-.3-.4-.7-.5-1-.4-.9-.8-1.8-1-2.7-.1-.7-.2-1.3-.2-2s0-1.4.2-2.1c.2-.5.4-.9.5-1.4.4-1.1 1.2-1.9 2-2.7.8-.7 1.7-1.3 2.7-1.7.2-.1.5-.1.8-.1h.4c.3 0 .5.1.7.2.1 0 .2.1.3.1.5.2.8.6 1.1 1.1.2.4.3.9.3 1.4.2.2.2.3.2.5"/><path class="st0" d="M29.7 14.8c-.3-.1-.5-.2-.8-.3-.5-.2-.8-.6-1.1-1-.5-.9-.9-1.9-1.2-2.9-.2-.7-.3-1.5-.3-2.2 0-.7 0-1.4.1-2.1.1-.5.3-.9.5-1.4.3-.6.5-1.2.9-1.7.5-.7 1.2-1.3 1.9-1.9.6-.4 1.2-.8 1.9-1.1.3-.2.6-.2 1-.2h.3c.3 0 .5.1.7.2.1 0 .2.1.3.1.4.2.7.5 1 .9.1.2.2.3.2.5.1.3.1.6.1.8v.2c0 .3 0 .5-.1.7-.1.2-.1.4-.2.5-.2.5-.6.8-1.1 1.1-.4.4-.8.7-1.2 1-.5.4-.8.9-.9 1.6-.1.6 0 1.2.2 1.8l.6 1.5c.1.3.2.5.2.8v.4c.1.4-.2.8-.3 1.2-.2.6-.7.9-1.2 1.2-.4.2-.9.2-1.3.3h-.2"/><path class="st1" d="M12.2 19.3c-2.2 12.2 5.9 24 18.2 26.2 12.2 2.2 24-5.9 26.2-18.2M32.5 3s-6.2 2.3-2.5 9.2m10-7.9s-6.2 2.3-2.5 9.2m10-7.9s-6.2 2.3-2.5 9.2"/><path class="st2" d="M28.3 33.8c-.2 1.1-.9 1.9-1.6 1.8-.7-.1-1-1.1-.8-2.2.2-1.1.9-1.9 1.6-1.8.6.1 1 1.1.8 2.2m11.2 2c-.2 1.1-.9 1.9-1.6 1.8-.7-.1-1-1.1-.8-2.2.2-1.1.9-1.9 1.6-1.8.6.1 1 1.1.8 2.2m-16.3.1c-.1.4.3.7.9.8.6.1 1.1-.1 1.2-.5.1-.4-.3-.7-.9-.8-.6 0-1.1.2-1.2.5M39 38.8c-.1.4.3.7.9.8.6.1 1.1-.1 1.2-.5.1-.4-.3-.7-.9-.8-.6-.1-1.2.1-1.2.5"/><path class="st3" d="M33.7 38.5s-.5 1.5-1.9 1.4c-.9-.1-1.5-1-1.4-1.9l3.3.5z"/><path class="st4" d="M37.7 30s2.4-.7 3.7 1.6m-11.7-3.1s-1.9-1.3-4 .2"/><ellipse transform="rotate(10.177 34.365 23.246)" class="st1" cx="34.4" cy="23.2" rx="22.5" ry="3.4"/><path class="st5" d="M35 48.3l-.8 9.9"/><path class="st0" d="M42.1 59.7c1.3-.1 2.3-.9 1.4-1.9-.6-.8-2.4-.8-4.5-.7-1.6.1-2 .1-3.7.5-1 .2-2.5.8-.8 1.3 1.9.7 3.9 1 7.6.8"/><path class="st5" d="M27.8 48.3L24 58.2"/><path class="st0" d="M15.3 59.5c-1.5-.1-2.6-.9-1.6-2 .6-.7 2.7-.7 5.1-.5 1.8.1 2.3.1 4.1.6 1.1.3 2.7.8.8 1.4-2.1.6-4.3.8-8.4.5"/><path class="st5" d="M9.8 29s-8.6-6.7-6.2-18.9"/><path class="st0" d="M4 10.8c1.6-.3 3-1.6 3.5-3.2 0-.1.1-.2 0-.3-.1-.2-.5-.1-.6.1-.7.5-1.3 1-1.9 1.6-.5-.8-.8-1.7-.7-2.7 0-.4.1-.9 0-1.3-.2-.8-.8-1.4-1.4-1.9-.3-.2-.6-.4-.9-.3l-.3.3-.6.6c-.5.6-1 1.2-1.1 2-.1.8.2 1.5.6 2.2.6 1 1.3 1.8 2.2 2.6"/><path class="st5" d="M57.5 30.7c4.4 9 1.7 14.1-.9 18"/><path class="st0" d="M57 51.2c.4-1 1.8-3.4.6-4.2-.6-.4-1.2-.2-1.6.2-.7.2-1.4.5-2.1 1l-.3.3c-.2.3-.1.6-.1 1 .1.3.1.6.3.9-.2.4-.4.8-.5 1.3-.1.2-.1.5 0 .7.1.3.4.6.7.7.3.2.7.3 1 .3.5 0 1-.3 1.3-.7.4-.5.6-1 .7-1.5"/></svg>