<svg xmlns="http://www.w3.org/2000/svg" width="612.08" height="612.08" viewBox="0 0 612.08 612.08"><path d="M237.939 0C106.567 0 .047 106.52.047 237.893s106.52 237.893 237.893 237.893c50.518 0 97.368-15.757 135.879-42.597v-.028l176.433 176.433c3.274 3.274 8.479 3.358 11.839 0l47.55-47.551c3.274-3.274 3.106-8.703 0-11.838L433.235 373.8c26.84-38.539 42.597-85.39 42.597-135.907C475.832 106.52 369.312 0 237.939 0zm0 419.811c-100.475 0-181.918-81.443-181.918-181.918S137.465 55.975 237.939 55.975s181.918 81.443 181.918 181.918-81.443 181.918-181.918 181.918z"/><path d="M251.933 139.937h-27.987v83.962h-83.962v27.987h83.962v83.963h27.987v-83.963h83.963v-27.987h-83.963z"/></svg>