<svg xmlns="http://www.w3.org/2000/svg" xmlns:xlink="http://www.w3.org/1999/xlink" preserveAspectRatio="xMidYMid" width="119" height="97" viewBox="0 0 119 97">
  <defs>
    <style>
      .cls-1, .cls-2 {
        font-size: 33.3924px;
      }

      .cls-2, .cls-3 {
        fill: #fff;
      }

      .cls-2 {
        font-family: "GothamPro-Bold";
        font-weight: bold;
      }

      .cls-3 {
        fill-rule: evenodd;
      }
    </style>
  </defs>
  <g>
    <text transform="translate(95 24) scale(1.22 1.21)" class="cls-1"><tspan class="cls-2">+</tspan></text>
    <path d="M93.730,58.334 C80.047,64.479 66.349,70.592 52.653,76.709 C49.942,77.920 47.194,77.898 44.503,76.701 C31.071,70.729 17.644,64.747 4.235,58.725 C1.108,57.321 -0.385,54.269 0.099,50.420 C1.540,51.108 2.913,51.783 4.303,52.423 C18.144,58.796 31.998,65.139 45.815,71.561 C47.769,72.469 49.452,72.472 51.413,71.554 C66.130,64.665 80.885,57.856 95.632,51.029 C96.045,50.838 96.492,50.722 96.930,50.569 C97.783,53.444 96.249,57.203 93.730,58.334 ZM93.737,38.958 C80.087,45.051 66.455,51.183 52.790,57.243 C51.510,57.812 50.048,57.975 48.395,58.397 C46.785,57.885 44.971,57.489 43.309,56.753 C30.240,50.969 17.207,45.105 4.146,39.305 C1.858,38.290 0.425,36.690 0.326,34.188 C0.227,31.680 1.535,29.997 3.764,28.832 C16.959,21.935 30.152,15.033 43.291,8.031 C46.990,6.059 50.343,6.032 54.103,8.057 C67.000,15.005 80.008,21.748 92.989,28.540 C95.188,29.690 96.799,31.143 96.837,33.840 C96.870,36.219 95.992,37.952 93.737,38.958 ZM89.396,33.186 C76.542,26.287 63.675,19.410 50.838,12.479 C49.233,11.612 47.860,11.715 46.305,12.554 C33.572,19.425 20.815,26.253 8.071,33.103 C7.655,33.327 7.296,33.655 6.766,34.039 C7.513,34.413 7.977,34.679 8.467,34.885 C21.091,40.189 33.723,45.474 46.337,50.802 C48.003,51.505 49.510,51.394 51.150,50.701 C63.709,45.394 76.289,40.136 88.860,34.857 C89.340,34.655 89.790,34.383 90.537,33.999 C89.956,33.582 89.696,33.347 89.396,33.186 ZM5.594,72.423 C19.001,78.597 32.423,84.740 45.808,90.960 C47.908,91.936 49.743,91.750 51.774,90.800 C66.381,83.968 81.018,77.196 95.648,70.411 C96.066,70.218 96.512,70.087 96.953,69.924 C97.806,72.977 96.200,76.618 93.464,77.845 C79.943,83.912 66.407,89.946 52.892,96.025 C49.980,97.334 47.149,97.303 44.258,96.006 C30.844,89.993 17.416,84.011 4.006,77.988 C1.021,76.648 -0.404,73.642 0.102,69.836 C1.963,70.714 3.772,71.584 5.594,72.423 Z" class="cls-3"/>
  </g>
</svg>
