<svg xmlns="http://www.w3.org/2000/svg" xmlns:xlink="http://www.w3.org/1999/xlink" preserveAspectRatio="xMidYMid" width="98" height="98.03" viewBox="0 0 98 98.03">
  <defs>
    <style>
      .cls-1 {
        fill: #fff;
        fill-rule: evenodd;
      }
    </style>
  </defs>
  <path d="M95.981,29.981 C95.725,30.238 95.469,30.495 95.211,30.750 C93.632,32.319 93.154,32.323 91.503,30.784 C91.373,30.662 91.225,30.560 90.691,30.098 C90.406,30.565 90.153,31.056 89.826,31.492 C89.534,31.879 89.160,32.205 88.803,32.579 C89.538,33.666 91.181,34.483 89.812,36.054 C89.090,36.882 88.256,36.619 86.371,35.020 C86.005,35.367 85.632,35.735 85.243,36.085 C84.874,36.417 84.487,36.730 83.707,37.393 C84.573,38.052 85.315,38.512 85.927,39.106 C87.204,40.345 87.182,41.031 85.919,42.297 C82.204,46.021 78.481,49.736 74.762,53.455 C69.599,58.616 64.438,63.779 59.274,68.938 C57.825,70.385 57.216,70.384 55.777,68.946 C55.328,68.498 54.865,68.060 54.453,67.578 C52.489,65.283 52.517,62.153 54.530,59.901 C55.133,59.226 55.797,58.605 56.438,57.963 C58.339,56.062 58.477,55.189 57.238,52.595 C56.897,52.916 56.565,53.214 56.250,53.528 C48.327,61.444 40.417,69.373 32.469,77.263 C31.736,77.990 31.612,78.606 31.786,79.620 C32.034,81.066 31.853,82.582 31.951,84.061 C31.991,84.663 32.134,85.365 32.491,85.814 C33.220,86.731 34.137,87.497 34.954,88.346 C35.795,89.220 35.789,90.111 34.912,90.963 C32.702,93.110 30.490,95.256 28.269,97.392 C27.428,98.200 26.454,98.221 25.770,97.333 C23.895,94.897 21.672,94.611 18.642,94.959 C9.222,96.043 1.220,86.578 3.469,77.340 C3.765,76.124 3.645,75.316 2.675,74.536 C1.938,73.943 1.306,73.214 0.648,72.526 C-0.173,71.667 -0.247,70.773 0.623,69.898 C2.831,67.680 5.044,65.469 7.260,63.261 C8.075,62.449 8.929,62.447 9.792,63.194 C9.928,63.313 10.074,63.429 10.182,63.572 C11.739,65.630 13.577,66.960 16.351,66.121 C16.756,65.998 17.299,66.044 17.691,66.214 C19.441,66.970 20.522,66.190 21.749,64.948 C29.330,57.270 37.001,49.680 44.641,42.059 C44.990,41.710 45.324,41.346 45.879,40.766 C44.581,40.516 43.503,40.254 42.409,40.136 C42.096,40.102 41.684,40.428 41.409,40.685 C40.316,41.707 39.313,42.828 38.179,43.799 C35.917,45.736 32.796,45.739 30.614,43.734 C27.667,41.025 27.288,40.842 30.331,37.832 C38.778,29.479 47.149,21.050 55.551,12.651 C57.303,10.899 57.748,10.901 59.535,12.700 C59.980,13.148 60.389,13.631 60.865,14.154 C61.761,13.305 62.480,12.625 63.231,11.915 C62.482,10.787 60.712,9.818 62.275,8.357 C63.701,7.023 64.569,8.701 65.495,9.331 C66.280,8.614 67.032,7.926 67.827,7.199 C67.583,6.923 67.351,6.653 67.109,6.392 C66.042,5.237 66.045,4.522 67.165,3.375 C67.893,2.629 68.612,1.867 69.401,1.189 C71.200,-0.359 73.641,-0.393 75.519,1.068 C75.983,1.428 76.419,1.829 76.835,2.244 C83.220,8.619 89.602,14.998 95.980,21.380 C98.650,24.051 98.646,27.313 95.981,29.981 ZM22.140,69.159 C21.181,70.125 20.289,70.446 19.011,69.935 C17.230,69.223 15.395,69.142 13.570,69.828 C12.654,70.173 11.898,69.968 11.239,69.258 C10.391,68.344 9.522,67.449 8.712,66.599 C7.056,68.253 5.584,69.722 3.938,71.366 C4.505,71.880 5.064,72.478 5.712,72.955 C7.342,74.156 7.481,75.519 6.869,77.443 C5.713,81.080 6.480,84.542 8.883,87.530 C11.967,91.365 16.600,92.734 21.324,91.183 C22.760,90.712 23.836,90.872 24.843,91.996 C25.498,92.727 26.270,93.353 27.133,94.161 C28.610,92.541 30.000,91.017 31.514,89.356 C30.720,88.612 29.836,87.769 28.935,86.945 C28.212,86.285 28.035,85.520 28.383,84.612 C29.067,82.835 29.007,81.041 28.309,79.305 C27.754,77.925 28.118,76.974 29.154,75.947 C37.715,67.459 46.226,58.920 54.751,50.395 C55.125,50.021 55.483,49.631 55.839,49.258 C54.371,46.706 52.471,44.745 50.217,43.082 C49.338,42.433 48.802,42.416 47.966,43.260 C39.382,51.918 30.731,60.509 22.140,69.159 ZM57.551,15.758 C49.239,24.069 40.831,32.476 32.419,40.886 C33.689,42.230 34.981,42.337 36.409,41.019 C37.474,40.037 38.528,39.029 39.478,37.938 C40.388,36.893 41.420,36.669 42.749,36.841 C52.786,38.135 60.418,45.969 61.385,56.149 C61.455,56.885 61.030,57.822 60.540,58.424 C59.571,59.613 58.382,60.619 57.309,61.724 C55.877,63.198 55.930,64.434 57.374,65.841 C65.835,57.382 74.249,48.970 82.499,40.722 C74.196,32.414 65.787,23.999 57.551,15.758 ZM65.647,14.429 C64.960,15.079 64.212,15.786 63.530,16.431 C69.609,22.508 75.719,28.616 81.734,34.629 C82.451,34.007 83.248,33.317 83.934,32.723 C77.740,26.526 71.665,20.450 65.647,14.429 ZM68.133,11.801 C74.229,17.894 80.340,24.003 86.335,29.996 C87.068,29.369 87.870,28.684 88.550,28.103 C82.353,21.907 76.278,15.832 70.158,9.713 C69.507,10.384 68.791,11.122 68.133,11.801 ZM93.638,23.664 C87.264,17.285 80.885,10.910 74.506,4.536 C72.728,2.760 71.989,2.830 70.507,4.812 C78.162,12.453 85.807,20.084 93.463,27.726 C95.124,26.450 95.211,25.239 93.638,23.664 ZM62.136,42.450 C58.526,42.500 55.528,39.556 55.516,35.950 C55.504,32.338 58.472,29.377 62.083,29.399 C65.634,29.421 68.556,32.347 68.572,35.898 C68.588,39.445 65.684,42.401 62.136,42.450 ZM62.076,32.664 C60.300,32.646 58.781,34.151 58.782,35.927 C58.783,37.649 60.221,39.131 61.944,39.185 C63.720,39.241 65.269,37.769 65.306,35.991 C65.343,34.215 63.856,32.682 62.076,32.664 ZM49.579,50.807 C49.554,51.096 49.152,51.366 48.897,51.621 C44.092,56.431 39.290,61.243 34.465,66.032 C34.012,66.483 33.411,66.784 33.117,66.989 C31.560,66.947 30.836,65.720 31.410,64.635 C31.596,64.285 31.906,63.990 32.192,63.704 C36.996,58.893 41.804,54.088 46.615,49.285 C46.871,49.030 47.148,48.622 47.433,48.607 C48.095,48.570 49.001,48.500 49.372,48.875 C49.734,49.242 49.634,50.150 49.579,50.807 ZM17.651,88.561 C13.101,88.430 9.577,84.796 9.654,80.313 C9.732,75.799 13.396,72.210 17.861,72.274 C22.457,72.340 25.991,75.995 25.903,80.590 C25.816,85.095 22.095,88.689 17.651,88.561 ZM17.753,75.539 C15.069,75.559 12.937,77.699 12.923,80.387 C12.909,83.137 15.089,85.321 17.825,85.299 C20.520,85.277 22.631,83.153 22.645,80.450 C22.660,77.695 20.493,75.519 17.753,75.539 Z" class="cls-1"/>
</svg>
