<?xml version="1.0" encoding="utf-8"?>
<!-- Generator: Adobe Illustrator 19.0.0, SVG Export Plug-In . SVG Version: 6.00 Build 0)  -->
<svg version="1.1" id="Слой_1" xmlns="http://www.w3.org/2000/svg" xmlns:xlink="http://www.w3.org/1999/xlink" x="0px" y="0px"
	 viewBox="0 0 41 34.2" style="enable-background:new 0 0 41 34.2;" xml:space="preserve">
<style type="text/css">
	.st0{clip-path:url(#SVGID_2_);}
</style>
<g>
	<defs>
		<rect id="SVGID_1_" y="0" width="41" height="34.2"/>
	</defs>
	<clipPath id="SVGID_2_">
		<use xlink:href="#SVGID_1_"  style="overflow:visible;"/>
	</clipPath>
	<path class="st0" d="M40.7,5.6c-0.3-0.3-0.7-0.5-1.1-0.5H11.5c-0.8,0-1.4,0.6-1.4,1.4c0,0.8,0.6,1.4,1.4,1.4h26.3l-3.4,13.9H13.5
		L7.2,2.7C7.1,2.3,6.8,2,6.4,1.8L1.9,0.1C1.2-0.2,0.4,0.2,0.1,0.9c-0.3,0.7,0.1,1.5,0.8,1.8l3.9,1.5l6.3,19.5c0.2,0.6,0.7,1,1.3,1
		h23.2c0.6,0,1.2-0.4,1.3-1.1l4-16.7C41.1,6.4,41,6,40.7,5.6"/>
	<path class="st0" d="M14.3,26.2c-2.2,0-4,1.8-4,4s1.8,4,4,4s4-1.8,4-4S16.5,26.2,14.3,26.2 M14.3,31.4c-0.7,0-1.2-0.5-1.2-1.2
		c0-0.7,0.5-1.2,1.2-1.2s1.2,0.5,1.2,1.2C15.5,30.9,15,31.4,14.3,31.4"/>
	<path class="st0" d="M32.6,26.2c-2.2,0-4,1.8-4,4s1.8,4,4,4c2.2,0,4-1.8,4-4S34.7,26.2,32.6,26.2 M32.6,31.4
		c-0.7,0-1.2-0.5-1.2-1.2c0-0.7,0.5-1.2,1.2-1.2c0.7,0,1.2,0.5,1.2,1.2C33.7,30.9,33.2,31.4,32.6,31.4"/>
</g>
</svg>
