<?xml version="1.0" encoding="utf-8"?>
<!-- Generator: Adobe Illustrator 19.0.0, SVG Export Plug-In . SVG Version: 6.00 Build 0)  -->
<svg version="1.1" id="Слой_1" xmlns="http://www.w3.org/2000/svg" xmlns:xlink="http://www.w3.org/1999/xlink" x="0px" y="0px"
	 viewBox="211.5 32.8 424.3 407.2" style="enable-background:new 211.5 32.8 424.3 407.2;" xml:space="preserve">
<g>
	<path d="M572.5,63.7h-31V45.1c0-6.7-5.7-12.4-12.4-12.4c-6.7,0-12.4,5.7-12.4,12.4v18.6H329.6V45.1c0-6.7-5.7-12.4-12.4-12.4
		c-6.7,0-12.4,5.7-12.4,12.4v18.6h-31c-34.3,0-62.4,28.1-62.4,62.4v251.4c0,34.3,28.1,62.4,62.4,62.4h299.5
		c34.3,0,62.4-28.1,62.4-62.4V126.1C634.9,91.8,606.8,63.7,572.5,63.7z M235.8,126.1c0-20.5,16.7-37.6,37.6-37.6h31V118
		c0,6.7,5.7,12.4,12.4,12.4c6.7,0,12.4-5.7,12.4-12.4V88.5h187.2V118c0,6.7,5.7,12.4,12.4,12.4c6.7,0,12.4-5.7,12.4-12.4V88.5h31
		c20.5,0,37.6,16.7,37.6,37.6v28.6H235.8V126.1z M610.1,377.6c0,20.5-16.7,37.6-37.6,37.6H273.4c-20.5,0-37.6-16.7-37.6-37.6V179.4
		h374.3V377.6z"/>
	<path d="M418.2,250.9h9.5c8.1,0,14.3-6.2,14.3-14.3v-9.5c0-8.1-6.2-14.3-14.3-14.3h-9.5c-8.1,0-14.3,6.2-14.3,14.3v9.5
		C403.9,244.7,410.6,250.9,418.2,250.9z"/>
	<path d="M490.6,250.9h9.5c8.1,0,14.3-6.2,14.3-14.3v-9.5c0-8.1-6.2-14.3-14.3-14.3h-9.5c-8.1,0-14.3,6.2-14.3,14.3v9.5
		C476.3,244.7,482.5,250.9,490.6,250.9z"/>
	<path d="M562.5,250.9h9.5c8.1,0,14.3-6.2,14.3-14.3v-9.5c0-8.1-6.2-14.3-14.3-14.3h-9.5c-8.1,0-14.3,6.2-14.3,14.3v9.5
		C548.2,244.7,554.9,250.9,562.5,250.9z"/>
	<path d="M273.9,308h9.5c8.1,0,14.3-6.2,14.3-14.3v-9.5c0-8.1-6.2-14.3-14.3-14.3h-9.5c-8.1,0-14.3,6.2-14.3,14.3v9.5
		C259.6,301.8,266.3,308,273.9,308z"/>
	<path d="M346.3,308h9.5c8.1,0,14.3-6.2,14.3-14.3v-9.5c0-8.1-6.2-14.3-14.3-14.3h-9.5c-8.1,0-14.3,6.2-14.3,14.3v9.5
		C332,301.8,338.2,308,346.3,308z"/>
	<path d="M418.2,308h9.5c8.1,0,14.3-6.2,14.3-14.3v-9.5c0-8.1-6.2-14.3-14.3-14.3h-9.5c-8.1,0-14.3,6.2-14.3,14.3v9.5
		C403.9,301.8,410.6,308,418.2,308z"/>
	<path d="M490.6,308h9.5c8.1,0,14.3-6.2,14.3-14.3v-9.5c0-8.1-6.2-14.3-14.3-14.3h-9.5c-8.1,0-14.3,6.2-14.3,14.3v9.5
		C476.3,301.8,482.5,308,490.6,308z"/>
	<path d="M562.5,308h9.5c8.1,0,14.3-6.2,14.3-14.3v-9.5c0-8.1-6.2-14.3-14.3-14.3h-9.5c-8.1,0-14.3,6.2-14.3,14.3v9.5
		C548.2,301.8,554.9,308,562.5,308z"/>
	<path d="M273.9,369.9h9.5c8.1,0,14.3-6.2,14.3-14.3v-9.5c0-8.1-6.2-14.3-14.3-14.3h-9.5c-8.1,0-14.3,6.2-14.3,14.3v9.5
		C259.6,363.7,266.3,369.9,273.9,369.9z"/>
	<path d="M346.3,369.9h9.5c8.1,0,14.3-6.2,14.3-14.3v-9.5c0-8.1-6.2-14.3-14.3-14.3h-9.5c-8.1,0-14.3,6.2-14.3,14.3v9.5
		C332,363.7,338.2,369.9,346.3,369.9z"/>
	<path d="M418.2,369.9h9.5c8.1,0,14.3-6.2,14.3-14.3v-9.5c0-8.1-6.2-14.3-14.3-14.3h-9.5c-8.1,0-14.3,6.2-14.3,14.3v9.5
		C403.9,363.7,410.6,369.9,418.2,369.9z"/>
</g>
</svg>
