<?xml version="1.0" encoding="utf-8"?>
<!-- Generator: Adobe Illustrator 19.2.0, SVG Export Plug-In . SVG Version: 6.00 Build 0)  -->
<svg version="1.1" id="Слой_1" xmlns="http://www.w3.org/2000/svg" xmlns:xlink="http://www.w3.org/1999/xlink" x="0px" y="0px"
	 viewBox="0 0 47.1 41.7" style="enable-background:new 0 0 47.1 41.7;" xml:space="preserve">
<style type="text/css">
	.st0{fill:#04D959;}
</style>
<g>
	<path class="st0" d="M38.9,28.2c-0.5-0.1-1,0.2-1.1,0.7l-2.3,10.9h-4.6l1.2-10.6c0.1-0.5-0.3-1-0.8-1.1s-1,0.3-1.1,0.8l-1.3,10.9
		h-4.6V29.1c0-0.5-0.4-1-1-1s-1,0.4-1,1v10.8h-4.8L16.4,29c-0.1-0.5-0.5-0.9-1-0.8s-0.9,0.5-0.8,1l1.2,10.6h-4.2l-2.5-11
		C9,28.3,8.5,28,8,28.1c-0.5,0.1-0.8,0.6-0.7,1.1L9.9,41c0.1,0.4,0.5,0.7,0.9,0.7h25.4c0.4,0,0.8-0.3,0.9-0.8l2.5-11.7
		C39.7,28.8,39.4,28.3,38.9,28.2z"/>
	<path class="st0" d="M23.6,0C10.4,0,0,7.5,0,16.9c0,4.8,3.8,8.8,8.6,8.8c3.3,0,6.2-1.9,7.6-4.7c1.4,2.8,4.2,4.7,7.4,4.7
		s6-1.9,7.4-4.7c1.4,2.8,4.3,4.7,7.6,4.7c4.7,0,8.5-3.9,8.5-8.8C47.1,7.5,36.8,0,23.6,0z M38.6,23.7c-3.7,0-6.6-3.1-6.6-6.8
		c0-0.5-0.4-1-1-1s-1,0.4-1,1c0,3.8-2.9,6.8-6.5,6.8s-6.4-3.1-6.4-6.8c0-0.5-0.4-1-1-1s-1,0.4-1,1c0,3.8-3,6.8-6.6,6.8
		s-6.6-3.1-6.6-6.8C2,8.7,11.7,2,23.6,2c12.1,0,21.6,6.6,21.6,14.9C45.2,20.7,42.3,23.7,38.6,23.7z"/>
</g>
</svg>
