<?xml version="1.0" encoding="utf-8"?>
<!-- Generator: Adobe Illustrator 19.0.0, SVG Export Plug-In . SVG Version: 6.00 Build 0)  -->
<svg version="1.1" id="Layer_1" xmlns="http://www.w3.org/2000/svg" xmlns:xlink="http://www.w3.org/1999/xlink" x="0px" y="0px"
	 viewBox="0 0 11 19.7" style="enable-background:new 0 0 11 19.7;" xml:space="preserve">
<g>
	<polygon points="11,19.7 11,19.7 11,19.7 	"/>
	<path d="M10.3,0.3c0-0.1,0-0.1-0.1-0.2C9.8,0.1,9.4,0,9,0C8.5,0,8,0,7.5,0C6.8,0,6,0.1,5.4,0.4C4.6,0.8,4,1.4,3.6,2.2
		C3.2,2.9,3,3.7,3,4.5C3,5.3,3,6.1,3,7c0,0.2,0,0.2-0.2,0.2c-0.9,0-1.8,0-2.6,0C0,7.2,0,7.2,0,7.3c0,1.1,0,2.2,0,3.2
		c0,0,0,0.1,0,0.1c0.1,0,0.1,0,0.2,0c0.9,0,1.7,0,2.6,0c0.2,0,0.2,0,0.2,0.2c0,2.9,0,5.7,0,8.6c0,0.1,0,0.1,0,0.2h3.7
		c0-0.1,0-0.1,0-0.2c0-2.9,0-5.7,0-8.6c0-0.2,0-0.2,0.2-0.2c0.4,0,0.9,0,1.3,0c0.5,0,0.9,0,1.4,0c0.1,0,0.2,0,0.2-0.1
		c0-0.2,0-0.4,0.1-0.6C9.8,9.6,9.9,9.1,10,8.7c0.1-0.4,0.1-0.9,0.2-1.3c0-0.2,0-0.2-0.2-0.2c-1,0-2.1,0-3.1,0c-0.1,0-0.2,0-0.2-0.1
		c0-0.8,0-1.7,0-2.5c0-0.7,0.3-1.1,1-1.2C8,3.3,8.2,3.3,8.5,3.3c0.5,0,1.1,0,1.6,0c0.1,0,0.1,0,0.1-0.1C10.3,2.2,10.3,1.2,10.3,0.3z
		"/>
</g>
</svg>
