<?xml version="1.0" encoding="utf-8"?>
<!-- Generator: Adobe Illustrator 19.2.0, SVG Export Plug-In . SVG Version: 6.00 Build 0)  -->
<svg version="1.1" id="Слой_1" xmlns="http://www.w3.org/2000/svg" xmlns:xlink="http://www.w3.org/1999/xlink" x="0px" y="0px"
	 viewBox="0 0 36.1 54.1" style="enable-background:new 0 0 36.1 54.1;" xml:space="preserve">
<style type="text/css">
	.st0{fill:#04D959;}
</style>
<g>
	<path class="st0" d="M36.1,32.7c0.1-0.5-0.3-1-0.8-1.1c-0.5-0.1-1,0.3-1.1,0.8c-1,8.2-7.9,14.5-16.2,14.5
		c-8.3,0-15.1-6.2-16.1-14.4c-0.1-0.5-0.5-0.9-1.1-0.8c-0.5,0.1-0.9,0.5-0.8,1.1c1.1,9.1,8.9,16.1,18.1,16.1S35.1,41.9,36.1,32.7z"
		/>
	<path class="st0" d="M5.2,48.7l-2.7,3.8c-0.3,0.4-0.2,1,0.2,1.3c0.2,0.2,0.4,0.3,0.6,0.3c0.3,0,0.6-0.1,0.8-0.4l2.7-3.8
		c0.3-0.4,0.2-1-0.2-1.3C6.1,48.2,5.5,48.3,5.2,48.7z"/>
	<path class="st0" d="M31,48.7c-0.3-0.4-0.9-0.5-1.3-0.2c-0.4,0.3-0.5,0.9-0.2,1.3l2.7,3.8c0.2,0.3,0.5,0.4,0.8,0.4
		c0.2,0,0.4-0.1,0.5-0.2c0.4-0.3,0.5-0.9,0.2-1.3L31,48.7z"/>
	<path class="st0" d="M3,28.6c0.2,0.2,0.3,0.2,0.4,0.3c1.3,1,3,1.9,5,2.5c0.2,0,0.4,0.1,0.5,0.1c2.7,0.8,5.9,1.3,9.3,1.3
		c9.8,0,17.6-3.8,17.6-8.8s-7.7-8.8-17.6-8.8c-9.9,0-17.6,4.1-17.6,9C0.6,25.8,1.5,27.3,3,28.6z M18.2,17.4c9.4,0,15.6,3.5,15.6,6.8
		c0,3.1-5.7,6.5-14.3,6.8l9.6-6.6c0.4-0.3,0.5-0.9,0.2-1.3c-0.3-0.4-0.9-0.5-1.3-0.2l-11.8,8.2c-1.9-0.1-3.6-0.3-5.1-0.7l11.3-7.9
		c0.4-0.3,0.5-0.9,0.2-1.3c-0.3-0.4-0.9-0.5-1.3-0.2L8.8,29.6c-1.3-0.4-2.4-1-3.3-1.5l8.8-6.1c0.4-0.3,0.5-0.9,0.2-1.3
		c-0.3-0.4-0.9-0.5-1.3-0.2L3.9,27c-0.9-0.9-1.3-1.8-1.3-2.7C2.6,20.9,8.8,17.4,18.2,17.4z"/>
	<path class="st0" d="M11.7,11.4c0.2,0,0.4-0.1,0.6-0.2c0.4-0.3,0.5-0.9,0.1-1.3c-1.4-1.7-2-3.4-1.7-4.9c0.4-2.1,2.2-3.2,2.3-3.2
		c0.4-0.3,0.6-0.9,0.3-1.3C13,0.1,12.4-0.1,12,0.2c-0.1,0.1-2.6,1.6-3.2,4.5c-0.4,2,0.3,4.2,2.1,6.4C11.1,11.3,11.4,11.4,11.7,11.4z
		"/>
	<path class="st0" d="M19.3,11.4c0.2,0,0.4-0.1,0.6-0.2c0.4-0.3,0.5-0.9,0.1-1.3c-1.4-1.7-2-3.4-1.7-4.9c0.4-2,2.2-3.2,2.3-3.2
		c0.4-0.3,0.6-0.9,0.3-1.3c-0.3-0.4-0.8-0.6-1.3-0.3c-0.1,0.1-2.6,1.6-3.2,4.5c-0.4,2,0.3,4.2,2.1,6.4C18.7,11.3,19,11.4,19.3,11.4z
		"/>
	<path class="st0" d="M26.9,11.4c0.2,0,0.4-0.1,0.6-0.2c0.4-0.3,0.5-0.9,0.1-1.3c-1.4-1.7-2-3.4-1.7-4.9c0.4-2.1,2.2-3.2,2.3-3.2
		c0.4-0.3,0.6-0.9,0.3-1.3c-0.3-0.5-0.9-0.6-1.3-0.3c-0.1,0-2.6,1.6-3.1,4.5c-0.4,2,0.3,4.2,2.1,6.4C26.3,11.3,26.6,11.4,26.9,11.4z
		"/>
</g>
</svg>
