<?xml version="1.0" encoding="utf-8"?>
<!-- Generator: Adobe Illustrator 18.0.0, SVG Export Plug-In . SVG Version: 6.00 Build 0)  -->
<!DOCTYPE svg PUBLIC "-//W3C//DTD SVG 1.1//EN" "http://www.w3.org/Graphics/SVG/1.1/DTD/svg11.dtd">
<svg version="1.1" id="Слой_1" xmlns="http://www.w3.org/2000/svg" xmlns:xlink="http://www.w3.org/1999/xlink" x="0px" y="0px"
	 viewBox="0 0 53.4 53.4" enable-background="new 0 0 53.4 53.4" xml:space="preserve">
<path fill="#010101" d="M52.5,48.3L37.4,33.2c2.6-3.5,4.1-7.8,4.1-12.4C41.6,9.3,32.3,0,20.8,0S0,9.3,0,20.8s9.3,20.8,20.8,20.8
	c4.7,0,9-1.6,12.4-4.1l15.1,15.1c1.2,1.2,3,1.2,4.2,0C53.7,51.3,53.7,49.5,52.5,48.3z M20.8,35.6c-8.2,0-14.8-6.7-14.8-14.8
	S12.6,5.9,20.8,5.9s14.8,6.7,14.8,14.8S29,35.6,20.8,35.6z"/>
<g>
	<path d="M18.4,11.5h4.7v6.8h7v5.1h-7v6.8h-4.7v-6.8h-7v-5.1h7V11.5z"/>
</g>
</svg>
