<?xml version="1.0" encoding="iso-8859-1"?>
<!-- Generator: Adobe Illustrator 16.0.0, SVG Export Plug-In . SVG Version: 6.00 Build 0)  -->
<!DOCTYPE svg PUBLIC "-//W3C//DTD SVG 1.1//EN" "http://www.w3.org/Graphics/SVG/1.1/DTD/svg11.dtd">
<svg version="1.1" id="Capa_1" xmlns="http://www.w3.org/2000/svg" xmlns:xlink="http://www.w3.org/1999/xlink" x="0px" y="0px"
	 width="612.08px" height="612.08px" viewBox="0 0 612.08 612.08" style="enable-background:new 0 0 612.08 612.08;"
	 xml:space="preserve">
<g>
	<g>
		<path d="M237.939,0C106.567,0,0.047,106.52,0.047,237.893c0,131.373,106.52,237.893,237.893,237.893
			c50.518,0,97.368-15.757,135.879-42.597v-0.028l176.433,176.433c3.274,3.274,8.479,3.358,11.839,0l47.55-47.551
			c3.274-3.274,3.106-8.703,0-11.838L433.235,373.8c26.84-38.539,42.597-85.39,42.597-135.907C475.832,106.52,369.312,0,237.939,0z
			 M237.939,419.811c-100.475,0-181.918-81.443-181.918-181.918S137.465,55.975,237.939,55.975s181.918,81.443,181.918,181.918
			S338.414,419.811,237.939,419.811z"/>
		<polygon points="251.933,139.937 223.946,139.937 223.946,223.899 139.984,223.899 139.984,251.886 223.946,251.886 
			223.946,335.849 251.933,335.849 251.933,251.886 335.896,251.886 335.896,223.899 251.933,223.899 		"/>
	</g>
</g>
<g>
</g>
<g>
</g>
<g>
</g>
<g>
</g>
<g>
</g>
<g>
</g>
<g>
</g>
<g>
</g>
<g>
</g>
<g>
</g>
<g>
</g>
<g>
</g>
<g>
</g>
<g>
</g>
<g>
</g>
</svg>
