<?xml version="1.0" encoding="utf-8"?>
<!-- Generator: Adobe Illustrator 19.0.0, SVG Export Plug-In . SVG Version: 6.00 Build 0)  -->
<svg version="1.1" id="Logo" xmlns="http://www.w3.org/2000/svg" xmlns:xlink="http://www.w3.org/1999/xlink" x="0px" y="0px"
	 viewBox="-37 169 20.2 20.1" style="enable-background:new -37 169 20.2 20.1;" xml:space="preserve">
<style type="text/css">
	.st0{fill:#292421;}
</style>
<g>
	<path class="st0" d="M-26.9,170.8c2.7,0,3,0,4.1,0.1c1,0,1.5,0.2,1.9,0.3c0.5,0.2,0.8,0.4,1.2,0.7c0.4,0.4,0.6,0.7,0.7,1.2
		c0.1,0.4,0.3,0.9,0.3,1.9c0,1.1,0.1,1.4,0.1,4.1c0,2.7,0,3-0.1,4.1c0,1-0.2,1.5-0.3,1.9c-0.2,0.5-0.4,0.8-0.7,1.2
		c-0.4,0.4-0.7,0.6-1.2,0.7c-0.4,0.1-0.9,0.3-1.9,0.3c-1.1,0-1.4,0.1-4.1,0.1s-3,0-4.1-0.1c-1,0-1.5-0.2-1.9-0.3
		c-0.5-0.2-0.8-0.4-1.2-0.7c-0.4-0.4-0.6-0.7-0.7-1.2c-0.1-0.4-0.3-0.9-0.3-1.9c0-1.1-0.1-1.4-0.1-4.1c0-2.7,0-3,0.1-4.1
		c0-1,0.2-1.5,0.3-1.9c0.3-0.5,0.5-0.8,0.8-1.2c0.4-0.4,0.7-0.6,1.2-0.7c0.3-0.1,0.9-0.3,1.9-0.4C-29.9,170.8-29.6,170.8-26.9,170.8
		 M-26.9,169c-2.7,0-3.1,0-4.1,0.1c-1.1,0-1.8,0.2-2.4,0.5c-0.7,0.2-1.3,0.5-1.8,1.1c-0.6,0.5-0.9,1.1-1.2,1.7
		c-0.2,0.7-0.4,1.4-0.5,2.5c0,1.1-0.1,1.4-0.1,4.1s0,3.1,0.1,4.1c0,1.1,0.2,1.8,0.5,2.4c0.3,0.7,0.6,1.2,1.2,1.8
		c0.6,0.6,1.1,0.9,1.8,1.2c0.6,0.2,1.4,0.4,2.4,0.5c1.1,0,1.4,0.1,4.1,0.1s3.1,0,4.1-0.1c1.1,0,1.8-0.2,2.4-0.5
		c0.7-0.3,1.2-0.6,1.8-1.2c0.6-0.6,0.9-1.1,1.2-1.8c0.2-0.6,0.4-1.4,0.5-2.4c0-1.1,0.1-1.4,0.1-4.1s0-3.1-0.1-4.1
		c0-1.1-0.2-1.8-0.5-2.4c-0.3-0.7-0.6-1.2-1.2-1.8c-0.6-0.6-1.1-0.9-1.8-1.2c-0.6-0.2-1.4-0.4-2.4-0.5C-23.8,169-24.2,169-26.9,169
		L-26.9,169z"/>
	<path class="st0" d="M-26.9,173.9c-2.8,0-5.1,2.3-5.1,5.1s2.3,5.1,5.1,5.1s5.1-2.3,5.1-5.1S-24.1,173.9-26.9,173.9z M-26.9,182.3
		c-1.8,0-3.3-1.5-3.3-3.3s1.5-3.3,3.3-3.3s3.3,1.5,3.3,3.3S-25.1,182.3-26.9,182.3z"/>
	<circle class="st0" cx="-21.5" cy="173.7" r="1.2"/>
</g>
</svg>
