<?xml version="1.0" encoding="utf-8"?>
<!-- Generator: Adobe Illustrator 19.2.0, SVG Export Plug-In . SVG Version: 6.00 Build 0)  -->
<svg version="1.1" id="Слой_1" xmlns="http://www.w3.org/2000/svg" xmlns:xlink="http://www.w3.org/1999/xlink" x="0px" y="0px"
	 viewBox="0 0 33.8 44.6" style="enable-background:new 0 0 33.8 44.6;" xml:space="preserve">
<style type="text/css">
	.st0{fill:#04D959;}
</style>
<g>
	<path class="st0" d="M30,6.9H3.9C3.6,6.9,3.4,7,3.2,7.2C3.1,7.4,3,7.6,3,7.9l3.5,35.8c0,0.5,0.4,0.9,0.9,0.9h19.7
		c0.5,0,0.9-0.4,0.9-0.9l2.9-35.8c0-0.3,0-0.5-0.2-0.7C30.5,7,30.3,6.9,30,6.9z M8.3,42.7l-0.7-6.8h19.2l-0.5,6.8H8.3z M27,33.9H7.4
		L5.9,17.7h22.4L27,33.9z M28.5,15.7H5.7L5,8.8h24L28.5,15.7z"/>
	<path class="st0" d="M32.8,0H1C0.4,0,0,0.5,0,1v2.9c0,0.6,0.4,1,1,1c0.6,0,1-0.5,1-1v-2h29.8v2c0,0.6,0.5,1,1,1s1-0.5,1-1V1
		C33.8,0.4,33.3,0,32.8,0z"/>
</g>
</svg>
