<svg xmlns="http://www.w3.org/2000/svg" xmlns:xlink="http://www.w3.org/1999/xlink" preserveAspectRatio="xMidYMid" width="17" height="26" viewBox="0 0 17 26">
  <defs>
    <style>
      .cls-1 {
        fill: #fff;
        fill-rule: evenodd;
      }
    </style>
  </defs>
  <path d="M15.948,12.827 C14.592,16.276 12.811,19.507 10.956,22.699 C10.406,23.644 9.839,24.581 9.259,25.508 C8.849,26.163 8.135,26.167 7.730,25.509 C5.218,21.435 2.828,17.292 1.039,12.828 C0.537,11.575 0.068,10.297 0.009,8.925 C-0.092,6.591 0.648,4.531 2.219,2.839 C4.506,0.375 7.341,-0.538 10.580,0.305 C13.859,1.158 15.913,3.365 16.768,6.684 C16.920,7.272 16.955,7.891 17.000,8.198 C16.993,10.031 16.494,11.439 15.948,12.827 ZM8.757,1.754 C4.881,1.602 1.653,4.764 1.701,8.693 C1.716,9.860 2.137,10.942 2.555,12.009 C3.747,15.054 5.294,17.920 6.897,20.756 C7.403,21.652 7.928,22.535 8.479,23.485 C8.588,23.319 8.654,23.228 8.710,23.130 C9.396,21.940 10.099,20.759 10.761,19.555 C12.259,16.835 13.730,14.096 14.734,11.141 C15.022,10.294 15.274,9.380 15.271,8.499 C15.257,4.860 12.342,1.894 8.757,1.754 ZM8.490,13.513 C5.814,13.506 3.648,11.304 3.663,8.608 C3.679,5.926 5.848,3.745 8.499,3.747 C11.161,3.749 13.345,5.969 13.330,8.656 C13.315,11.340 11.143,13.521 8.490,13.513 ZM8.488,5.470 C6.784,5.470 5.386,6.887 5.380,8.620 C5.375,10.369 6.771,11.793 8.499,11.800 C10.188,11.806 11.602,10.373 11.609,8.646 C11.616,6.899 10.211,5.469 8.488,5.470 Z" class="cls-1"/>
</svg>
