<?xml version="1.0" encoding="utf-8"?>
<!-- Generator: Adobe Illustrator 19.0.0, SVG Export Plug-In . SVG Version: 6.00 Build 0)  -->
<svg version="1.1" id="Слой_1" xmlns="http://www.w3.org/2000/svg" xmlns:xlink="http://www.w3.org/1999/xlink" x="0px" y="0px"
	 viewBox="0 0 358.5 358.5" style="enable-background:new 0 0 358.5 358.5;" xml:space="preserve">
<style type="text/css">
	.st0{clip-path:url(#SVGID_2_);fill-rule:evenodd;clip-rule:evenodd;}
	.st1{clip-path:url(#SVGID_2_);}
</style>
<polygon points="102.3,287.3 110.5,293.1 107.7,297 99.5,291.2 94.1,298.8 89.6,295.6 102.6,277.3 119.8,289.4 116.8,293.5 
	104.2,284.6 "/>
<path d="M136.4,315.6l-8.8-3.3l-4,3.7l-5.7-2.1l18.7-17.1l3.2,1.2l3,25.2L137,321L136.4,315.6z M131.3,308.8l4.5,1.7l-0.5-5.6
	L131.3,308.8z"/>
<polygon points="178.1,315.8 170.7,324.3 164.8,314.8 163.9,326.9 158.6,326.5 160.3,304 164.5,304.3 171.4,316.2 180,305.5 
	184.2,305.8 182.5,328.3 177.2,327.9 "/>
<rect x="200.5" y="303.5" transform="matrix(-0.9875 0.1579 -0.1579 -0.9875 453.8167 593.5839)" width="5.6" height="22.6"/>
<polygon points="218.6,300 223.8,298 230,314.1 243.7,308.8 245.6,313.8 226.7,321 "/>
<polygon points="268.9,299.2 264.5,302.3 258.2,293.5 242.7,290.2 248.7,285.9 257.7,288 258.6,278.9 264.7,274.5 262.6,290.3 "/>
<g>
	<defs>
		<rect id="SVGID_1_" width="358.5" height="358.5"/>
	</defs>
	<clipPath id="SVGID_2_">
		<use xlink:href="#SVGID_1_"  style="overflow:visible;"/>
	</clipPath>
	<path class="st0" d="M161,136.3c1.1,1.7,4.1,1.6,5.2,3.4c-2.8,0.3-3.9-2.2-6.1-2.5c-2.8-0.3-5.7,2-9.2,0.3
		c-4-4.9-8.6-7.6-11.4-13.2c-1.7-3.5-1.2-8.3-2.2-12.6c2.2,1,4.6,0.8,7.1,1.2c6.7,1.2,11.3,7.1,15.1,12c0.8,0.3,0.6,1.4,1.8,1.2
		C162.7,129.3,163.3,133.4,161,136.3 M144.7,120.9c0.1-2.8-0.2-5.2-0.9-7.1c-0.8,0-1.5,0-1.8-0.3c-0.4,1.4,0.8,2.9,0.3,3.4
		c-0.7-0.8-0.4-2.7-1.2-3.4c-0.2,0.8-2.1-1-2.5,0C140.9,115.8,142.5,118.6,144.7,120.9 M148.4,125.5c0.3-3-0.7-7.2-1.2-10.4
		c-0.9-0.2-1.6-0.6-2.5-0.9C145.1,118.8,145.1,123.8,148.4,125.5 M138.9,116.6c1-0.4,1.6,1.2,2.2,0.3c-1-0.4-1.1-1.8-2.2-2.2
		C138.9,115.9,139.2,115.6,138.9,116.6 M152.1,130.1c-0.4-6.7,0.4-12.7-4.3-14.7C149.2,120.4,147.9,128,152.1,130.1 M139.2,120.6
		c1.1,0.8,3.6,1.8,5.2,0.9c-1.4-1.5-2.9-4.7-5.5-4C139.6,118.3,139,119.4,139.2,120.6 M152.4,130.7c1.2,0.8,1.9,2,3.4,2.5
		c-0.6-6.7-0.1-13-4.6-15.7C152.2,121.7,152.8,126.8,152.4,130.7 M157.6,125.2c-0.3-1.8-1.9-4.1-3.1-4c2.7,4-0.7,12.3,4,14.1
		c0.4-4-0.8-7.9-0.3-10.1c1.3,2.7-0.2,8.2,1.2,10.8C163.6,133.4,160.5,125.7,157.6,125.2 M147.8,125.8c-1.4-2.5-3.8-3.9-7.7-4
		C139.9,125.8,145.8,126.9,147.8,125.8 M151.8,131.1c-0.9-1.7-2.3-3.1-3.7-4.3c-2.4,0.2-4.2-0.3-5.8-0.9
		C143.6,129.1,146,131.5,151.8,131.1 M152.4,131.4c-1.2,0.7-6-0.6-6.5-0.3c1.5,0.7,2.2,2.3,3.7,3.1c1.9-0.1,4.5,0.4,5.5-0.6
		C153.8,133.3,153.6,131.9,152.4,131.4 M150.6,134.7c0.8,2.6,5.1,1.8,7.1,0.6C156,133.4,153.6,134.9,150.6,134.7 M154.6,137.2
		c1.2-0.5,3.4-0.1,4.3-0.9C158.1,136,154.4,136.7,154.6,137.2"/>
	<path class="st0" d="M227.7,177.1c-0.7,0.6-0.4,2.2-0.9,3.1C225,180,226.2,175.9,227.7,177.1"/>
	<path class="st0" d="M127.5,190c1,1-0.4,2.3,0.9,3.7c-1.4-0.5-0.9-1-2.5-0.3c0.3-1.6,0.7-1.7,0-3.1
		C126.9,190.2,127.2,191.1,127.5,190"/>
	<path class="st0" d="M116.8,199h0.9c-0.5,1.8,1.1,1.6,0.9,3.1c-1.5,0.6-1.8-0.5-3.1-0.9C116,200.5,116.5,199.9,116.8,199"/>
	<path class="st0" d="M127.8,208.8c0.7,0.3,1.9,0.2,2.5,0.6c-1.5,1,0.1,1.5-0.3,2.5c-1.3-0.7-0.9-0.2-2.5,0
		C128.1,210.3,127.7,209.9,127.8,208.8"/>
	<path class="st0" d="M163.5,214.6c1.4-1,1.7,1.5,3.4,0.3c0.5,0.5-0.1,1.2-0.3,1.8c-0.9-0.4-2.5-0.1-3.1-0.9
		C163.6,215.7,164.2,214.7,163.5,214.6"/>
	<path class="st0" d="M117.4,216.5c1.3-0.1,0.6,1.8,2.2,1.5c0,0.6-0.4,0.6-0.3,1.2c-1.1,0.1-1.7-0.3-2.5-0.6
		C117,217.9,117,217.1,117.4,216.5"/>
	<path class="st0" d="M145.6,218.6c1.8,0.1,2.4,1.5,3.1,2.8c-0.9,0.4-2.8-0.3-3.7-0.9C145.2,219.5,146.4,219.9,145.6,218.6"/>
	<path class="st0" d="M164.4,224.5c-0.2,1.3-1.7,1.4-3.1,1.5c0.3-0.9-0.4-0.8-0.3-1.5C162.1,223.8,163.9,224.3,164.4,224.5"/>
	<path class="st0" d="M180.4,228.1c-0.5,1.2-1.7,3.1-3.4,2.2C177.5,228.9,178.6,226.6,180.4,228.1"/>
	<path class="st0" d="M129.7,228.5c1.1,0.3,0.9,2,2.8,1.5c-0.5,1.1,0.2,0.8,0.3,1.8C130,231.7,128.6,230.5,129.7,228.5"/>
	<path class="st0" d="M200.6,229.7c-0.1,1.6-4,2.8-3.7,0.3C198.2,230.1,199,228.5,200.6,229.7"/>
	<path class="st0" d="M142.9,234.3c1.4,0,2.1,0.7,3.4,0.9v1.2c-1.5-0.2-1.6-0.1-2.8-0.3C143.6,235.2,142.8,235.2,142.9,234.3"/>
	<path class="st0" d="M212.6,234.6c1.3,0.8,1.3,0.3,2.8,0c0.2,0.6,0.8,0.9,0.6,1.8c-1.1,0.4-2.3,0.6-3.7,0.6
		C212.7,235.9,212,235.6,212.6,234.6"/>
	<path class="st0" d="M155.2,235.5c1.3,0.3,2.2,1.1,3.7,1.2c-0.3,0.4-0.3,1.1-0.6,1.5c-0.9-0.3-1.8-0.7-3.1-0.6V235.5z"/>
	<path class="st0" d="M230.1,236.1h0.9c0.3,0.6,0.4,1.4,0.6,2.1c-1,0.2-1.3,1-2.5,0.9c0.1-1.3-0.9-1-0.3-2.1
		C229.9,237.5,230,237.2,230.1,236.1"/>
	<path class="st0" d="M192.3,241.7c-1.1,0.3-1.9,1.2-3.1,0.6c1-0.9,0-0.8,0-2.1C190.9,241,192.6,238.5,192.3,241.7"/>
	<path class="st0" d="M131.8,242.9c1.4-0.1,2,0.6,3.1,0c0.1,0.8,0.8,1.1,0.9,1.8c-1.4-0.2-2.3,0.2-3.4,0.3
		C132.1,244.1,132.4,244,131.8,242.9"/>
	<path class="st0" d="M175.8,243.2h0.9c0.4,0.9-0.2,1.1,0.9,1.5c0,1.5-2.5,0.6-3.4,1.2c-0.2-0.8-1.2-1.5-0.6-2.2
		C174.3,244,175.9,244.6,175.8,243.2"/>
	<path class="st0" d="M205.6,243.2c0.7,0.9,0.2,1,1.2,1.5c-0.5,1.1-2.6,0.7-4,0.9v-1.5C204.1,244.2,204.3,243.7,205.6,243.2"/>
	<path class="st0" d="M218.5,245.4v1.8c-1.2-0.1-1.1,1.1-2.5,0.9c-0.5-0.5,0.5-1.2-0.9-1.2C215.6,245.8,217.3,245.8,218.5,245.4"/>
	<path class="st0" d="M149.9,247.5c1.4,0,1.8,0.9,3.4,0.6c0.5,2.1-1.6,1.5-3.1,1.5C149.8,248.8,150.3,248.7,149.9,247.5"/>
	<path class="st0" d="M182.5,250.9c1.1,0,1,1.2,1.5,1.8c-0.9,0.5-1.9,0.7-3.4,0.6c0.2-0.9-0.5-0.9-0.3-1.8
		C181.4,252,182,251.6,182.5,250.9"/>
	<path class="st0" d="M166.5,251.8c0.4,1-0.1,1.3,1.2,1.5c-1,1.4-1.7,0.5-3.4,0.9c0.2-1-0.2-1.4-0.3-2.2
		C164.8,251.8,165.4,252.2,166.5,251.8"/>
	<path class="st0" d="M191.1,252.1c1.3-0.1,1.2,0.4,2.1,0c0.5,0.2-0.1,1.5,0.9,1.2C193.7,254.8,190.9,254.4,191.1,252.1"/>
	<path class="st0" d="M232,118.8c1.6,0.4,5.4-2.6,7.7-0.6c-0.7,1.1-2.6,0.2-4.9,0.9c-7.5,2.4-15.8,7.8-23.7,10.1
		c0.3,2.3-1,3.1-1.8,4.3c4,1.5,6.4,4.5,6.5,9.8c10.4-5.5,15.9-15.9,23.3-24.3c0,2.7-2.2,5-4,7.1c-5.2,5.8-10.6,13.6-17.5,17.5
		c-0.7,0.1-1.3,0.6-1.8,0c-2.4,9.7-6.2,18-14.7,21.5c-0.7-2.8-2.2-4.7-3.1-7.4c-2.1,3.2-4.4,6.2-5.2,10.1c-1.6,7.8,4,16,8,20.9
		c1.2-11.1,2.1-20.9,13.8-24c1.5-0.2,2,0.5,3.4,0.3c0.6-0.9,0.8-2,1.5-2.8c-2-3.4-1.8-10.7-1.2-15.7c-0.2-0.9-1-1.1-1.8-1.2
		c4.7-2.4,2.1,6,2.5,10.1c0.3-12.5,9.2-20.6,15.4-28c2.8-3.3,5.8-6.2,8.6-9.2c2.9-3,5.7-6.2,8.9-8.6c-3.4,5.4-9.5,10.4-14.7,16.3
		c-2.4,2.7-5,5.7-7.4,8.6c-5.7,6.9-11.3,15.5-8.9,27.7c0.7-0.1,1.3-0.4,1.8-0.6c2.3-15.7,20.6-15.5,34.4-12
		c-3.2,2.5-3.4,7.2-6.8,8.9c0.2,0.3,0.7,0.3,0.6,0.9c-0.9,0.6-2.3,0.8-2.8,1.8c5.7,0.4,11.6,0.7,16.3,3.4
		c-3.7,8.7-13.9,12.3-23,12.9c-3.3-0.7-6.4-1.6-8.6-3.4c-9.6,1.2,5,6.8,5.8,9.5c5.6-1.8,9.9,0.1,13.8,2.2c2.5,4.6,7.1,8.7,8.6,14.7
		c0.8,3.2,0.3,6.7,1.5,9.5c-2.7-0.5-7.7,0.3-10.1-0.9c2.2-3,0.2-8.9-2.5-10.8c-0.9,2.6,0.3,5.7,0,8.6c0.1,0.9,2,0.6,1.8,2.5
		c-7.1-2.4-10.8-7.5-15.7-13.2c-1.9-4.5-0.6-8.6,1.5-12c-6.9-5.8-14.7-10.7-17.5-20.6c-1,0.1-0.6,1.6-1.2,2.2
		c3.4,5.1,1.2,9.4-0.6,13.8c-0.9,2.2-1.5,5.2-2.8,6.8c-2.5,3.2-6.6,5.3-9.5,6.8c1.9,2.7,5.2,4,7.1,6.8c-0.4-2.7,1.7-5.8,0.3-7.7
		c1.3-1.1,1-2.7,1.5-4c1.5-3.3,7.4-8.7,11.1-8.3c3.3,0.4,6.1,7.4,5.8,11.4c-0.1,1-0.7,3.4-1.2,4.9c-1.7,5.3-5.6,10-8.6,13.5
		c2.1,1.6,3-0.1,4.6-0.3c6.4-0.8,11.9,2.3,12.6,7.4c0.5,3.6-2.1,8.8-6.8,9.5c7.2,5.2,2.4,19-8.9,16.3c-0.9,5.3-7.3,11.1-13.8,8.3
		c-1.9-0.8-2.9-3.8-6.5-2.5c1.2,8.9-10.6,10.3-14.8,5.8c-3.2,2.8-11.9,2.5-13.8-1.2c-3.5,5.8-14.2,4.2-16.3-1.8
		c-5.8,3.7-13.5,0.5-14.4-5.8c-5.1,5.4-17,2.2-16.9-5.8c-9.2,2.2-14.7-10.4-7.4-15.1c-5.9-1.6-7.4-13.7,0-14.7
		c-8.2-3-7.9-18.7,3.1-18.4c-1.4-11.2,15.3-13.1,18.1-4.3c3.8-0.9,5,1.7,9.2,1.2c15.2-1.7,25.3-8,33.8-17.5
		c5.3-5.9,7.4-13.9,13.2-19.1c0.5-2.3,0.5-4.5,1.8-6.5c-1.4-5.1,3-11,9.2-12c0.7-1.4,1.9-2.2,2.5-3.7c-14.9,4.7-37.1,12-56.2,13.2
		c-1.4,0.1-3.6-0.4-4.6,0c-1.6,0.7-2.1,3.7-4,4.3c3.2,1,4,5.7,3.4,8.9c-1,5.3-12.9,13.6-20.6,14.4c-2.8,0.3-4.3,0.3-6.1,0.3
		c1.5-2.4,0.1-5.3,0.9-8.3c0.4-1.7,1.8-2.8,2.2-4.9c3.4-3.4,7.9-6.9,10.4-10.1c5-2.1,9.9,0.6,12.3-4.3c-10.1-2-18.5,3-24.9,6.8
		c1,2.9,2.5,9.6-0.6,11.4v1.8c-4.6,7.4-11.1,14.5-20,16.6c-0.7-4.3-1.8-7.9-1.5-11.7c1.8-5.7,5.6-10,7.7-15.7
		c3.5-2.5,8.6-6.2,13.8-3.4c6.5-3.7,14-7.9,23.7-7.4c-1.2-1.5-3.5-1.8-5.2-2.8c-4.8,4.6-13.3,0.5-17.2-2.5
		c-6.1-4.5-8.5-13.4-9.8-19.4c2.2,1.1,6.7,1.1,9.2,0.9c2.7,1.3,5.6,2.6,8.6,4.9c4.2,3.2,10.9,7,9.5,15.1c2.2,1.4,5.3,1.9,7.1,3.7
		c16.1,0.4,28.2-3.1,40.6-6.5c-1.3-1.8-3.8-2.4-5.8-3.4c-3.6,3.3-9.1,2.3-12.6-0.9c-3.9-3.5-9-8.7-10.1-15.1
		c0.5-2.4,0.9-6.4-0.3-8.9c3.3,0.3,5.8,1.3,8.6,2.5c7.2,2.9,19.5,10.9,15.1,21.5c1.8,1.5,5,1.5,5.8,4c6.5-2.4,13-4.8,19.7-7.1
		c-3-1.3-8.7,0.8-12.9-1.2c-1.4-0.7-4.5-3-6.1-4.3c-2.7-2.2-5.6-4.5-7.1-7.1c-1.5-2.6-2-6.4-4.6-8.3c2.6-0.1,5.9-0.9,8.3-0.9
		c6.2,0,11.1,3.2,16.6,5.5c3,3.2,7.6,8.6,4.6,14.1c3.5,2.9,8.6-1.6,13.5-3.4c1-0.4,2.2-0.3,3.1-0.6c3.4-1.2,6.3-4,9.8-5.5
		c1.7-0.8,3.4-0.9,4.9-1.8c3.5-2,6-4.9,8.9-6.1C244.5,113.4,238.2,116.1,232,118.8 M191.4,113.2c-1.2-2.1-2-7.1-5.2-5.2
		C187.9,109.8,188.5,112.7,191.4,113.2 M181.3,107.4c1.6,1.7,4.8,3.4,6.8,3.7C186.6,108.5,185,107.2,181.3,107.4 M195.1,114.8
		c-1.2-2-1.8-4.6-2.8-6.8c-1.3,0.4-2.4-0.9-3.1,0C191,110.3,191.8,115.1,195.1,114.8 M182.5,111.1c1.7-0.3,3.6,0.7,4.3,0.3
		c-1.9-0.8-4.3-2.7-5.8-2.8C181.7,109.3,182.1,110.2,182.5,111.1 M199.1,116.9c-1.2-2-1.8-4.7-2.5-7.4c-1.7-0.3-2.7-1.3-3.7-0.9
		C194.5,111.7,195.3,117.1,199.1,116.9 M203.1,120.3c-0.4-2.9-1.6-5.2-1.8-8.3c-1.3-0.5-2.8-2-4.3-1.8
		C198.5,114.1,199.2,118.7,203.1,120.3 M167.1,112.9c-0.8-1,0.4-3.9-1.8-3.4c-0.2,0.4,0.4,1.6-0.3,1.5c0-0.8,0-1.5-0.3-1.8
		c-0.6-0.1-2-1-2.5-0.3C164,109.9,165.4,113,167.1,112.9 M161.9,111.1c0.8-0.3,1.7,0.9,2.1,0c-0.9-0.4-1.2-1.4-2.1-1.8V111.1z
		 M169.9,116.3v-4.9c-0.9-0.3-1.3-1-2.5-0.9C166.9,113.7,168.2,115.3,169.9,116.3 M170.2,116.9c0.8,0.9,1.5,1.8,2.5,2.5
		c0.2-2.4-0.3-5.5,0-7.1c-0.9,0-1.3-0.5-2.5-0.9C170.2,113.5,170.9,115.1,170.2,116.9 M161.6,112c-0.1,2,3.4,2.1,4.9,1.5
		C165.5,112.5,163.7,110.9,161.6,112 M185.6,116.9c2.1-0.9,4.9-1.2,6.5-2.8c-2.2-1.4-5.8-3-9.2-2.2
		C184.2,113.8,184.6,114.9,185.6,116.9 M203.7,121.8c0,0.2,0,0.4-0.3,0.3c-2.5,0.9-5.6,1.2-7.7,2.5c2.4,3.3,7.2,0.5,10.1-0.9
		c-2.4-2.9-5.7-5-8.9-7.1c-2.9,1-6,1.7-8.6,3.1c1.3,0.2,1.6,1.5,2.8,1.8c3.1-0.4,6.7-1.9,8.9-2.1c-2.2,1.3-5.3,1.9-8.3,2.5
		C194,126.3,200.4,121.7,203.7,121.8 M205.9,123.1c0.1-1.9-1.3-5.1-0.6-7.4c1.1,3.6,0.2,7.7,2.1,9.2c2.5-5.1-2-11.2-5.5-12.3
		C202.7,116.6,203.1,121,205.9,123.1 M175.8,123.4c0.5-3.5,0-7.3-0.6-9.8c-1.1,0.2-1.2-0.7-2.1-0.6
		C173.3,117.4,172.5,121.5,175.8,123.4 M162.2,116.9c2.3,0,5.3,0.9,7.4,0c-2-2.8-3.3-2.9-7.7-2.8
		C162.3,115.4,161.3,115.6,162.2,116.9 M186.2,117.5c0.9,0,0.8,0.9,1.2,1.2c3.6,0.1,5.4-1.6,8.3-2.2
		C193.6,112.8,189.3,116.3,186.2,117.5 M178.8,126.8c0.3-5,1.2-10.5-2.8-11.7C177.1,118.9,174.6,125.6,178.8,126.8 M162.5,119.7
		c2.1,1.4,6.2,0.8,9.5,0.9c0.5-4.2-7.1-2.7-10.1-3.1C162.8,118.2,161.9,119,162.5,119.7 M169.9,128.6c-1-0.9-0.2,0.7,0.9,0.3
		c1.3,3.3,7.2,1.8,10.4,1.5c-0.7-1.2-1.8-2.1-3.1-2.8C174.9,128.9,173.2,128.8,169.9,128.6 M181.6,129.5c1.2-3,0.7-9.7-2.2-11.4
		c0,3.2,0.1,6.5-0.3,9.2C179.8,128.3,180.5,129,181.6,129.5 M118.6,122.1c0.1-1.2-0.7-1.5-0.6-2.8c-1,0.3-1.9-1.1-2.5-0.3
		C116.5,120.2,117.4,121.3,118.6,122.1 M124.1,128c-0.7-3.3-2.3-5.7-3.4-8.6c-1.1,0.1-1.7-0.1-2.5-0.3
		C118.8,123.4,121.8,125.4,124.1,128 M134.3,135.4c-1.5-4.8-3.2-9.5-6.1-12.9c0.2-0.1,0.6,0,0.6-0.3c-1.2-0.2-2.5-2-3.7-1.2
		C129.4,124.5,127.4,134.3,134.3,135.4 M121.4,119.4c2.4,4.7,2.9,11.3,8,13.2C127.5,127.5,127.1,120.2,121.4,119.4 M118.9,123.7
		c-0.9-0.9-1.9-3.3-3.1-2.8C116.8,121.9,116.8,123.8,118.9,123.7 M163.2,121.2c1.6,0.6,1.5,2.5,2.8,3.1c2.5,1.1,7.1,0.6,9.5-0.3
		c-1.1-0.9-1.5-2.6-2.8-3.4C170.3,122.2,164.6,120.3,163.2,121.2 M134.6,135.7c1,0.7,2.4,1.1,3.7,1.5c-0.5-4.2-3-8-4.3-10.4
		c1.4,1.3,2.5,3.1,3.4,5.2c0.8,2,0.5,5.4,3.1,5.8c1.3-3.8-1.5-6.1-2.5-8.6c-3.4-2.1-5.8-5.3-8.9-6.1
		C132,126.2,133.4,130.8,134.6,135.7 M182.8,130.7c1.3-1.7,1.4-6.6-0.3-8C183.4,125.7,181.2,128,182.8,130.7 M123.5,128.3
		c-2.2-2.6-3.8-4.3-6.8-4.9C117.4,126.4,119.6,129.6,123.5,128.3 M167.1,125.2c0.4,3.9,6.9,3.1,10.8,2.5
		C177,122.7,171.6,126.1,167.1,125.2 M200,126.8c2.5,0.6,6.2,0.4,7.1-1.5C205.2,124,201.7,125.7,200,126.8 M128.4,132.6
		c-2.4-2.2-5.1-4.1-9.5-4.3C119.4,131.6,123.8,134,128.4,132.6 M173,131.7c0.9,0.2,2.1,0,1.8,1.2c3.3,0.4,6.1,0.2,7.4-2.1
		C179.5,131.4,175.8,131.1,173,131.7 M133,135.7c-2.1-2.5-8.5-2.2-11.4-2.8C123.7,135.7,128.4,138.6,133,135.7 M200.3,143.3
		c1.6-4,8.1-3.2,8-8.9C203.2,134.9,199.5,139.6,200.3,143.3 M213.9,144.6c1.8-3.5-1.3-10.1-5.2-9.8
		C209.3,138.9,212.6,142.1,213.9,144.6 M128.1,137.8c2.8,1.9,7.1,2.3,9.8,0C134.9,135.6,131.6,136.3,128.1,137.8 M133.4,140.3
		c2.7,0.5,6.6-1,5.5-2.2C137.2,139,135.2,139.5,133.4,140.3 M199.1,147c3-2.3,10.5-3.5,8.3-8.9C204.2,140.6,200.1,142.3,199.1,147
		 M208.3,141.8c2.2,1.6,2.8,4.8,4.6,6.8c1.2-4.1-1.8-8.1-4.3-10.4C208.8,139.6,208.5,140.7,208.3,141.8 M207.4,146.1
		c1.8,2,2.6,5,4.3,7.1c1.7-4.2-0.8-7.9-3.4-10.4C208,143.9,207.6,144.9,207.4,146.1 M206.8,143c-3.2,2.7-8.8,3.4-8.6,8.6
		c3.2-1.3,5.4-3.6,8.6-4.9C206.6,145.5,208.4,143.6,206.8,143 M209.6,156.2c2.5-2.8-0.1-7.3-2.5-8.9
		C205,150.9,208.4,153.4,209.6,156.2 M199.4,159c0.5,0.1,0.7,0.5,0.6,1.2c1.7-1,4.6-2.6,4-4.9C202.9,157,200.3,157.2,199.4,159
		 M204.9,151.6c-2.2,1.1-4.5,3.7-6.5,4c2.2-1.7,4.3-3.5,7.1-4.6c0-1.3,0.4-2.3,0.6-3.4c-3,1.6-6,3.2-8.3,5.5
		c0.3,1.9,0.6,3.9,1.8,4.9C201.3,156,206,155.4,204.9,151.6 M142,150.4c1.7,1.8-0.2,8.5,0.9,11.7c0.7-1.2,1.9-1.8,2.8-2.8
		c-0.8-3-0.6-7.2-1.5-10.1c-0.5-0.9-1.4,2-2.2,0.9c0.1-0.9,1.5-0.4,1.2-1.5c-1.8-0.9-4.7,0.2-5.5-0.3c-0.2,1.7-4,2.6-3.7,2.8
		C136.8,150.4,139.5,150.8,142,150.4 M146.3,157.8c2.6-0.8,2.5-9.6-1.8-9.5C145.5,151,144.9,155.4,146.3,157.8 M238.4,149.5
		c-4.3-1.1-6.1,5.2-8,8.6c1.5-0.4,2.5-1.2,4-1.5C234.9,153.3,236.9,151.7,238.4,149.5 M235,156.2c4.9-0.3,5.4-4.9,8-7.4
		c-0.9,0.4-2.2,0.4-2.8-0.3C238,150.6,235.9,152.8,235,156.2 M240,154.4c4-0.2,6-2.4,7.4-5.2C243.1,147.9,241.2,151.6,240,154.4
		 M111.2,152.3c1.8,0,3.6-0.1,4.9,0.3c1-0.9,2.2-1.7,3.1-2.8C116,148.4,113.4,150.8,111.2,152.3 M245.5,152.9
		c2.8,0.1,4.3-1.2,4.9-3.4C247.4,148.1,246.7,151.5,245.5,152.9 M120.1,150.1c0.3,2.4,1.7,6.3,2.1,9.5c2-1.9,1.1-8.4-1.2-9.8
		C120.6,149.8,120.4,149.9,120.1,150.1 M250.1,151.9c1-0.9,3.2-0.7,4-1.8C252.2,149.1,249.2,150.3,250.1,151.9 M226.8,160.2
		c0.8-0.9,2.5-0.9,3.4-1.8c0.6-3.6,2.7-5.7,4.3-8.3C230.1,151.5,226.8,155.6,226.8,160.2 M118.9,150.7c-0.5,1-2,1.1-2.1,2.5
		c1.5,3.5,1.6,8.4,3.1,12C123.2,161.7,121.4,154.3,118.9,150.7 M130.3,154.7c2.3-0.5,5.9-1.1,8.3-0.6c0.1-1.4,2.5-1.9,1.8-3.1
		C134.9,150.6,132.4,152.4,130.3,154.7 M250.1,152.6c1.1,0,1.8,0.5,2.8,0.6c-0.1-0.9,2.3-1.9,0.9-2.1
		C252.9,151.8,251,151.8,250.1,152.6 M138.6,165.5c5.4-2.1,2.9-8.7,3.7-14.1C137,152,139.6,160.6,138.6,165.5 M205.3,154.4
		c1.2,1.1,1.6,2.9,2.8,4c2-2.2-0.6-5.6-2.1-7.1C206.1,152.8,205.2,153.1,205.3,154.4 M224,161.5c3.3-1.7,2.8-7.2,5.8-9.2
		C226.2,153.4,223.9,157.5,224,161.5 M246.1,153.8c1.8,0.3,5.4,3,6.5,0.3C251.1,152.5,247.9,152.3,246.1,153.8 M108.2,157.2
		c1.4-0.4,3.2-0.3,4.9-0.3c0.4-1.8,2.1-2.2,2.5-4C110.3,152,108.7,154.9,108.2,157.2 M117.1,169.2c3.8-3.3,0.7-11.8-1.2-15.7
		C111.6,157.2,116.1,164.3,117.1,169.2 M193.9,180.5c-2.1-4.6-3.5-7.5-2.8-12.3c0.8-5,6.4-10.1,5.8-14.4
		c-5.4,4.9-7.5,12.9-12.3,18.4c-4.7,3.8-8.3,7.8-13.5,11.1c-5.6,3.6-11.6,3.9-18.4,5.5c-0.9,0.2-1.8,0.8-2.8,0.9
		c-3.9,0.3-6.5-2.8-8.9-0.6c3.1,0.3,5.7,1.1,7.7,2.5c-1.7,2.8-6.3,4.4-6.8,7.4c4.6-5.1,11.7-9.4,20-9.8c-0.1,6.4-2.1,11.9-7.7,14.1
		c0.7-0.2,2.3-0.8,2.5,0.3c0.4,2.5-1.7,5.3-0.3,6.8c0-4.3,0.9-8,3.7-10.1c2.5-4.1,0.9-9.4,4.3-12.3c1.3-1.1,3.7-1.5,5.5-2.5
		c5.5-3,9.5-7.4,14.1-10.8c0.2,9.3-3.6,20.7-10.1,24.6c10.5-1.7,5.7,11.5,6.8,18.1c0.6-3-1.2-7.9,2.1-9.5c2.5,0.6,3.9,2.4,4.9,4.6
		c3.3-2.6,6.6,1.9,9.2,3.7c-1.9-4.7-8.6-5.2-12.6-8.6c-3-2.6-3.7-7-5.8-10.4c1.7-3.3,4.3-6.9,5.5-11.4c1.2-4.6,0.3-10.5,4.3-12.9
		C191.1,174.3,192,179.2,193.9,180.5 M240.6,154.7c2.3,1.5,8.1,4.6,10.8,1.8C248.4,154.6,244.7,153.1,240.6,154.7 M126.9,158.1
		c2.7-0.6,5.7-0.6,8.6,0c0.6-1.4,2-2.1,2.5-3.7C132.9,154.2,128.7,155,126.9,158.1 M133.4,160.9c-0.3,2.8-0.7,5.4-1.5,7.7
		c4.8-0.6,2.2-6.7,4.3-9.8c-0.2,3.3-1,6.1-0.9,8.9c0.5-0.9,2.3-0.5,2.8-1.5c0.3-2.4,1.2-7.6,0.3-11.1
		C136.6,157.5,135.8,159,133.4,160.9 M204.3,157.5c1,0.8,1.3,2.2,2.2,3.1c1.6-1.7,0-4.1-1.5-5.2C205,156.3,204.1,156.4,204.3,157.5
		 M244.6,157.2c-3.7-1.2-6.1-2.8-9.2-0.3c4.2,1.1,9.2,4.9,14.1,2.5C248.8,157.8,246.5,157.8,244.6,157.2 M245.8,161.8
		c-0.5-0.1-0.2-0.7,0-0.9c-3.6-1.3-7.9-1.9-10.8-4c-3.2,1.1-5.9,2.7-8.6,4.3c4,2.5,10.9,4.3,14.1,1.2c-3.6-0.8-7.2-1.6-9.8-3.4
		C235.8,160.7,241.3,162.7,245.8,161.8 M104.8,162.7c1.7-0.5,2.7-1.6,5.2-1.2c0.5-1.4,2.6-3,2.2-4.3
		C107.5,156.8,106.1,159.7,104.8,162.7 M114.3,172.2c0.5-0.8,1.1-1.6,2.2-1.8c-1.1-4.4-1.5-9.3-3.7-12.6
		C109.2,162,112.9,167.4,114.3,172.2 M125.1,161.5c3-0.1,9.2,0.4,9.8-3.1C131.1,157.7,125.5,157.7,125.1,161.5 M202.5,163
		c1.3-0.3,1.8-1.4,3.1-1.8c0-1.5-0.6-2.5-1.5-3.1C203.6,159.8,202.9,161.2,202.5,163 M200.3,161.2c0.6,0.3,0.9,0.9,0.9,1.8
		c1.2-0.6,2.1-3,1.5-4.3C202.2,159.8,200.8,160,200.3,161.2 M224.3,162.4c1.2,0.8,3,2.8,5.2,3.1c2,0.3,6.1-0.2,6.1-0.6
		C231.3,164.9,227.6,160.4,224.3,162.4 M124.4,162.4c0.1,1.2,0.3,1.1-0.3,1.8c3.3-0.1,6.9-0.1,8-2.5
		C129.3,161.7,126.8,161.9,124.4,162.4 M102.3,168.5c1.6-0.8,2.9-1.8,5.2-1.8c0.6-1.7,1.7-2.8,2.2-4.6
		C104.3,161.9,103.3,164.8,102.3,168.5 M108.2,166.4c1.3,2.5,1.9,5.7,2.8,8.6c1.3-0.6,2.3-1.6,2.8-3.1c-1.6-2.8-2-6.8-3.4-9.8
		C109.6,163.5,108.9,165,108.2,166.4 M128.7,169.5c1,0.1,1.3-0.5,2.5-0.3c0.6-2,1.8-5,1.2-7.1C130.3,163.6,129.8,166.8,128.7,169.5
		 M251.6,162.7c-4-1.3-6.9,2.8-8,5.2C247.9,167.8,249.4,164.8,251.6,162.7 M248.6,166.7c3.4-0.4,6.1-1.5,8-3.4
		c-1.3-0.2-2.7-0.4-4-0.6C251.2,164,249.4,164.9,248.6,166.7 M221.2,163.3c1,5.1,3.8,8.5,6.5,12c1.4-0.4,2.9-2.1,4.3-1.5
		c-0.6-3,1.4-5.7,2.8-7.7C227.9,168.4,224.9,161.6,221.2,163.3 M242.4,163c-3.7,1.2-5.3,4.5-7.1,7.7
		C239.1,169.5,240.3,165.8,242.4,163 M239,169.5c3.8-1,5.7-3.9,7.7-6.8C242.8,162.7,239.8,166.5,239,169.5 M261.2,164.5
		c-1.1-0.6-2.7-0.6-3.7-1.2c-0.8,0.8-2.1,1.2-2.8,2.2C256.9,165.3,260.1,164.9,261.2,164.5 M232.9,172.2c2.7-1.9,4.6-6.3,6.1-8.3
		C235.8,165.5,234,168.5,232.9,172.2 M124.4,164.9c-0.2,1.2-0.7,3.6,0,4.6c1.1-1.8,5.2-3.8,4.6-5.2
		C127.7,164.6,126.1,164.8,124.4,164.9 M255,166.4c1.8,0.6,3.5,1.4,5.5,1.8c0.8-1,1.8-1.9,2.5-3.1C260.3,165.6,257,165.3,255,166.4
		 M124.7,169.8c1.5,0.2,2.1-0.3,3.4-0.3c0-1.3,2.4-3.2,0.9-4C128,167.2,126,168.1,124.7,169.8 M218.8,175.6c1.6-3.1,0-8.3-1.8-9.5
		c-4.8-0.7-10,2.5-10.8,5.8c3.8-1.5,7.1-3.5,11.1-4.9C215.9,169.1,218.4,172.5,218.8,175.6 M249.2,167.3c3.3,1,5.3,3.3,9.2,3.7
		c0.6-0.9,1.6-1.3,1.8-2.5C256.1,167.9,253.4,164.8,249.2,167.3 M108.2,176.2c1.5,0.2,1.7-0.8,2.5-1.2c-1.1-2.4-1.5-5.7-2.8-8
		C106,169.7,106.9,173.5,108.2,176.2 M102,172.5c1.3-0.4,2-1.5,3.7-1.5c0.7-1.1,0.9-2.6,1.5-3.7C103.8,167.4,101.5,169.4,102,172.5
		 M243.7,168.5c2.9,1.9,6.6,3.1,9.8,4.6c-5.6-0.3-9.8-6.9-15.1-2.8c4,1.6,7.5,3.5,12,4.6c1.6-1.7,5.6-1.4,7.4-3.7
		C252.4,170.6,249.3,165.5,243.7,168.5 M204.3,175.6c4.1-1.7,9.9-3.5,10.8-7.4C211.3,170.7,205.5,171.5,204.3,175.6 M217.2,179
		c1.8-2.6,0.2-7.4-1.2-10.1C213.3,171.5,216.9,175.5,217.2,179 M235,172.2c3.7,1.6,8.9,5.8,13.5,2.8
		C243.9,174.6,238.5,168.1,235,172.2 M102.3,172.8c0.1,2.3,0.7,2.6,1.2,4.6c0.3-1.8,2.5-4.8,1.5-5.8
		C104.1,172,103.3,172.5,102.3,172.8 M103.9,178.1c1.4,0,3-0.4,3.7-1.8c-0.4-1.6-0.9-3.2-1.5-4.6
		C105.6,174.1,104.6,175.9,103.9,178.1 M215.4,184.2c2.1-3.7,0.9-9.4-1.2-12.3C211.2,175.1,214.3,180.6,215.4,184.2 M202.8,183.6
		c3.1-1.9,7-2.9,7.7-7.1C207.9,178.6,201.3,179.4,202.8,183.6 M212.9,172.2c-3.5,2.2-10.2,3.2-9.5,7.7
		C206.8,177.6,211.5,176.5,212.9,172.2 M233.5,172.5c0,0.4-0.4,0.4-0.3,0.9c1.7,1.4,5.8,4.2,8,2.1
		C238.4,175,236.1,172.4,233.5,172.5 M180.1,197.7c1.1,2.8,3.4,4.4,4,7.7c2.7,2.8,6.8,3.8,10.1,6.1c2.7,1.9,4.1,4.9,7.4,5.8
		c-1.6-8.4,3.9-15.8,0.6-21.8c-1.7-3.2-4.8-6.4-7.1-10.1c-2.3-3.9-4.7-7.6-6.5-11.1h-0.9C185.8,182.8,184.1,191.4,180.1,197.7
		 M212.6,187.3c3.6-2.3,0.4-8.5-0.6-11.7C209,179.2,211.1,183.4,212.6,187.3 M176.4,182.7c-2.9,2.1-9.1,4-11.4,6.5
		c-2.6,2.8-1.4,7.7-3.7,11.4c-1.5,2.4-4.5,5.1-3.4,9.2c1.8-3.3,4.2-6.1,9.5-5.8c0.3-0.2-0.2-1.4,0.6-1.8
		c8.7-4.5,13.8-12.7,15.1-24.6c0.5-0.1,0-0.5-0.3-0.6C180.5,178.8,179,180.8,176.4,182.7 M210.2,190c0-1.8,1.5-0.9,1.8-1.8
		c-0.6-2.6-1-5.6-2.5-7.4C207.4,183.7,208.4,187.3,210.2,190 M202.2,184.2c0.2,1.3-0.5,1.6-0.3,2.8c3.3-0.9,6.1-2.3,6.8-5.8
		C206.1,181.8,204.7,183.6,202.2,184.2 M214.8,195.9c2.5-4.6,9.1-6.6,9.5-12.3C219.8,186.4,214.2,189.9,214.8,195.9 M228.6,197.1
		c2.7-4.9-0.8-9.7-3.4-13.5C220.9,188.6,226.4,192.7,228.6,197.1 M225.5,181.4c-3.7,0.7-8.6,3.7-9.2,7.4
		C218.5,186.7,223.1,184.3,225.5,181.4 M230.4,191c-0.8-3.8-1.4-7.9-4.6-9.2C226.7,185.5,228.3,188.5,230.4,191 M123.8,191.3
		c0.7,7.5,15,10.4,16.3,1.5c1-6.8-3.6-11.4-10.1-9.8C126.5,183.8,123.4,187,123.8,191.3 M238.7,184.8c0.4,1.8,2.4,0.6,3.7,0.6
		c2,0,4.3,0.8,6.5,0C245.5,184,242.6,184.1,238.7,184.8 M201.9,187.9c-0.2,1.5,0.6,2.1,0.9,3.1c1.6-1.1,4.8-3.8,3.7-5.5
		C205.3,186.6,203.2,186.8,201.9,187.9 M208,191.6c2-1.4,0.7-4.7-0.6-6.1C206.3,187.7,206.6,189.8,208,191.6 M238.1,195.9
		c-0.1,1,0,1.9,0.6,2.2c-0.9-4.2,1.1-9.8-0.6-12.6C236.7,187.7,234.7,194.1,238.1,195.9 M240.3,186.4c1.1,4.7,6.6,2.8,12.3,3.4
		c0.4-1.7-2.4-1.3-1.2-2.8C247.2,186.2,244.9,185.7,240.3,186.4 M197.3,186.7c1.5,2.9,3.7,5.1,5.5,7.7
		C202,190.8,199,189.3,197.3,186.7 M240,199.9c1.2,0.1,1.8,0.9,2.1,1.8c-1.2-3.6,2.1-11.9-2.8-14.7
		C239.2,191.5,238.6,196.2,240,199.9 M205.6,192.8c0.2-0.6,0.8-0.8,1.5-0.9c0.1-1.4-0.3-2.2-0.9-2.8
		C206.1,190.3,205,192,205.6,192.8 M226.4,202c4-4.5-1.3-9.4-3.7-12.9C220,194.1,223.9,198.3,226.4,202 M214.5,199.9
		c2.5-3.5,6.9-5.2,7.7-10.4C219,192,213.6,195.2,214.5,199.9 M203.1,191c0.2,1.5,0.6,1.5,0.6,2.8c1.1-0.4,1.9-2.8,1.2-4
		C204.4,190.3,203.8,190.6,203.1,191 M148.7,194.7c-1.3,4.6,0.1,10.7-4,13.5c1.1-0.1,1.8-0.7,3.1-0.6c1-5.2,8.1-4.8,10.8-8.6
		c1.5-2.2,1.6-5.7,1.8-8.9C156.5,191.6,151.5,192,148.7,194.7 M245.8,194c2.8-0.8,8.1-0.5,9.8-0.6c-0.1-1.5-1.8-1.5-1.8-3.1
		c-3.3-0.3-7.8-0.3-10.4-0.3C243.6,192,245.2,192.5,245.8,194 M135.8,199.6c1.3,0.3,2.2,1.1,3.4,1.5c1.4-4.2,4.8-6.5,7.7-9.2
		c-1.8-0.4-2.7-1.8-5.2-1.5C141.9,195.6,139.1,197.9,135.8,199.6 M245.2,204.2c-0.3-4.3,1.5-11.5-2.5-13.2
		C242.5,194.1,241.1,204.5,245.2,204.2 M123.5,209.1c-0.3-5.7,2.6-8.3,6.4-9.8c-3.4-0.9-5.6-3-6.8-6.1
		C112,193,113.2,209.1,123.5,209.1 M245.8,195.3v10.1c1.3-0.2,1.6,1.7,3.4,1.8C248.8,202.6,250.5,196.8,245.8,195.3 M248.9,197.4
		c4.3,0,5.6-0.2,9.2,0c-0.3-1.4-1.1-2.4-1.8-3.4c-2.1,0.2-6.9-0.3-9.5,0.3C247,195.8,248.4,196.1,248.9,197.4 M214.2,204.2
		c2.9-2.3,6.1-5.8,6.1-9.8C218.4,197.8,213.1,198.7,214.2,204.2 M214.8,207.6c2.4-1.1,4.3-4.3,3.7-7.4
		C217.3,202.8,213.6,203.5,214.8,207.6 M224.6,205.7c0-1.3,0.7-1.9,1.2-2.8c-1.7-2.7-2.8-6-4.6-8.6
		C218.3,199.1,222.4,202.5,224.6,205.7 M211.4,199.9c-2.1-1.7-3.8-3.7-6.5-4.9c-0.4,0.3-0.6,0.9-1.5,0.6c0.5,1.3,0.5,3,1.2,4
		C205.6,196.7,209.9,200.5,211.4,199.9 M141.6,204.2c2.1-1.9,6.3-3.3,4.9-7.7C144.4,198.3,139.6,201.1,141.6,204.2 M252.9,201.7
		c1.8-0.6,4.5-0.2,6.8-0.3c-0.9-1.4-0.5-2.1-1.2-3.4c-3-0.8-6.7,0.3-8.6-0.3C250.5,199.4,252,200.2,252.9,201.7 M204.9,204.2
		c3.5-0.4,6.2,1.6,8.3,1.5c0.1-0.4-0.5-2.7,0-3.4c-2.4-0.9-4.5-2.2-7.4-2.8C205.5,201.1,205.2,202.6,204.9,204.2 M218.5,211.9
		c0.1-1.5,2-1.3,2.5-2.5c-1-0.9-2.2-3.4-1.8-4.6c0.7,1.3,0.8,3.3,2.2,4c1-1,2-1.9,2.5-3.4c-1.3-2-2.6-4-4-5.8
		C218.7,202.9,217.6,207.7,218.5,211.9 M179.7,208.5c2.3-8.4-6.8-10.7-9.8-4.6c3.5,1,6.2,2.8,7.1,6.5
		C178,209.9,178.9,209.2,179.7,208.5 M125.1,208.5c0.7,7.7,13.6,9.8,15.7,2.2c0.5-1.8-0.5-3.3,0.3-5.2
		C137.9,197.9,124.2,199.4,125.1,208.5 M142.6,209.4c1.7-2,4.4-4.8,4-8C144.1,203.5,141.3,205.9,142.6,209.4 M253.8,202
		c0.8,2.2,2.8,3.2,6.1,2.8c0.6-1.5-0.2-1.8-0.6-3.1C257.1,201.9,256.4,201.8,253.8,202 M253.5,209.1c1.1,0.5,0.8-0.2,1.8-0.3
		c0-1.4-0.1-3,0.3-4c-0.9-0.4-1.2-1.4-2.2-1.8V209.1z M149,207.6c0.9-1.6,3.8-2.8,4-4C151.7,204.7,148.9,206,149,207.6 M155.5,204.5
		c-1.4-0.1-3.6,1.7-4.6,3.1c1.4,0.3,2.5,1,4,1.2C154.6,206.9,155.5,206.2,155.5,204.5 M159.5,210c-1.3,6,4.8,9.9,9.8,8.9
		c8.2-1.6,7.8-15.9-3.4-13.8C162.3,205.8,159.9,208,159.5,210 M260.6,208.2v-3.1h-3.4C257.7,206.7,259.5,207.1,260.6,208.2
		 M211.7,215.5c0.6-2,2.9-2.4,3.7-4.3c-1.1-4-4.7-5.6-9.5-5.8C207.3,209.3,210.7,211.3,211.7,215.5 M255.9,209.1
		c1.1,0.5,2.5-0.3,4.3,0c-1-1.7-2.9-2.4-4.3-3.7V209.1z M215.4,208.8c0.9,1.1,0.9,3,2.1,3.7c0.1-2.2,0.7-4.4,0-6.8
		C216.9,206.8,215.7,207.3,215.4,208.8 M203.7,217.7c0.8-0.2,1.7-0.3,2.1-0.9c0-3.9,2.4-7.8-1.2-10.4
		C203.7,210.1,204.3,213.6,203.7,217.7 M202.5,214c-0.1,1.7,0.5,0.4,0.3-0.6v-3.1c0.1-0.2,0.6-2.3,0-1.8
		C202.4,210,202.5,212.1,202.5,214 M154.9,222.3c6.2-4.2,1.1-16.6-8.3-13.2C134.9,213.1,146,228.4,154.9,222.3 M181.9,217.7
		c2.9,1,3.8,5.6,4.3,8c-0.1-5.3,2.4-14.2-3.4-16.6C182,211.2,181.9,215.7,181.9,217.7 M124.7,223.8c0.5-3.8,2.4-6.2,6.1-6.8
		c-2.7-1.8-5.9-3.1-6.8-6.8C113.2,207.9,113.7,226.6,124.7,223.8 M178.5,210.6c-2.3,1-2,4.8-3.7,6.4h4
		C178.8,216.3,179.9,211.7,178.5,210.6 M234.4,222.6c0.5-1.6-0.7-1.5-0.9-2.5c1.4,0.4,1-1.1,1.8-1.2c0.6,0.5,0.5,1.6,1.5,1.5
		c0.8-4-0.3-6.6-2.2-8c-7.4-5.3-19.4,3.5-12.3,11.1c3.5,3.8,12.9,2.5,13.8-2.5C235.4,221.4,235.6,222.6,234.4,222.6 M207.1,216.8
		c0.4-0.7,2.1-0.1,3.1-0.3c0.4-1.8-0.8-4-2.2-4.9C208,213.4,206,214.8,207.1,216.8 M217.2,214c-0.6-0.1-0.2-1.2-1.2-0.9
		c-1.4,1.1-2.6,2.3-3.4,4c2.7,1,4.5,2.9,5.2,5.8c0.7,0.3,1.5,0.5,2.5,0.6c-2.4-3.8-1.5-8.6,1.2-11.7
		C219,210.9,219.1,213.5,217.2,214 M188.3,213.4c0.4,2.4,2.8,2.8,4,4.3c0.9-0.6,2.6-0.5,3.1-1.5C193.1,215,191.7,211.8,188.3,213.4
		 M135.8,216.8c1.8,0.1,3.2,0.7,4.3,1.5c-0.5-1,0-2.9-0.6-3.7C138.6,215.7,136.7,215.7,135.8,216.8 M202.8,218.6
		c0.6-0.9,0.1-2.6-0.3-3.4C202.7,216.3,202.1,218.1,202.8,218.6 M187.7,220.5c1.2-0.6,2.4-1.3,3.1-2.5c-0.9-0.9-1.6-1.8-3.1-2.2
		C187.3,217.8,188.1,218.6,187.7,220.5 M157.6,223.8c1,3.1,6.1,4.7,9.5,2.8c-0.3-2.9,0.4-4.7,1.2-6.5c-4.7,0.4-6.8-1.8-9.2-3.7
		C159.2,219.5,156.7,221.1,157.6,223.8 M204,227.8c1.5-4.5-1.8-10.2-6.5-10.4c-4.1-0.2-7.2,3.1-9.5,5.5
		C185.7,235.1,201.5,235.3,204,227.8 M127.8,219.9c-3,3.3-1.5,10.1,1.2,12c6.6,4.6,15.1-1.8,12.9-8.9c-0.6-1.9-2.6-3.5-3.4-4
		c-1.4-0.9-3-1.2-5.5-0.9C130.6,218.3,128.9,218.7,127.8,219.9 M203.7,219.9c1.8,1,1.9,3.9,2.8,5.8c1.6-2.8,5.6-3,9.5-3.4
		C214.4,217.5,207.5,216.4,203.7,219.9 M169.6,229.7c3.9,5.9,14.5,2.8,14.8-4.3c0.2-4.9-3.3-7.4-8.6-6.8
		C169.7,219.3,166.4,224.8,169.6,229.7 M140.4,233.1c1,4.1,5.4,6,9.2,4c-1.1-2.2-2.3-7.3,0-10.1c1.2-0.4,2.2-1.5,3.7-2.2
		c0.9-0.4,3-0.1,2.8-1.2c-2.5,1.3-10,2.1-12.3-0.9C144.5,227.9,142.5,230.5,140.4,233.1 M205.9,227.8c-3,5.6,3,11.5,9.8,10.4
		c4.5-0.7,7-4.7,6.8-8.9c-0.3-4.8-4.2-5.5-8.3-5.5C210.6,223.9,207,225.6,205.9,227.8 M118.6,234.3c0.2-2.5,2.4-1.6,2.8,0.9
		c-1.1,1-1.8-1.3-2.8-0.3c1.5,2.3,4.9,4.5,8.3,3.1c0.5-2,1.7-3.2,2.8-4.6c-3.5-0.9-4.6-4.2-5.2-8C120,224.6,115.8,229.9,118.6,234.3
		 M156.7,225.7c-4.3-0.7-7.7,3.4-6.8,7.7c2.2,10.3,20.9,6.1,14.4-4.3C160.4,229.7,159,226,156.7,225.7 M186.5,227.8
		c-0.2-0.5-0.2-1.3-0.6-1.5C185.5,226.7,185.2,228.3,186.5,227.8 M224,227.2c0.7,3.6-0.4,8.4-3.1,10.4c1.4,0.4,1.6,2.1,2.2,3.4
		C236.7,245.4,238,223.5,224,227.2 M167.1,233.4c0.8,0.4,2-0.9,3.1-1.2c-1.5-0.8-2-2.5-3.1-3.7C165.8,229.4,167.8,231.2,167.1,233.4
		 M181.6,238.9c2.7,7.2,17.7,6.4,14.1-4.3c-4-0.7-6.9-2.5-8.9-5.2C183.6,231.5,180,234.7,181.6,238.9 M197.6,234.6
		c1.6,3.5-0.2,6.7-1.8,9.2c3.2,5.3,17.9,4.6,15.1-4.6c-4.4-0.7-6.5-3.7-7.4-8C202.1,233,199.7,233.7,197.6,234.6 M167.8,234.9
		c-0.7,2.4-1.8,2.4-2.1,4.3c-1.5,8.4,15.4,11.7,15.4,2.2c0-2-2.4-5.6-0.9-8C176.3,235.4,170.3,231.7,167.8,234.9 M138.9,233.7
		c-2.2,0.7-5,1.4-7.7,0.6c-5.7,4.5-1.4,12.3,4.9,12.6c5.3,0.3,7.1-3.7,9.2-7.7C142.1,238.4,139.5,237,138.9,233.7 M150.9,238.3
		c-2.1,1.1-4.6,1.8-5.5,4c-1.7,8,7.4,11.6,12.3,7.4c0.1-2.3,1.2-3.7,1.8-5.5c1.3-1.7,4.8-1.2,4.6-4.3
		C161.1,242,153.4,241,150.9,238.3 M219.4,238.3c-1.5,1.2-4,1.4-6.5,1.5c0.2,4.4-1.9,6.5-4.9,7.7
		C212.8,255.1,226.7,245.1,219.4,238.3 M174.2,248.7c0,6.1,8.6,8.2,12.9,4.6c-1.8-2.1-1.5-6.8,0.3-8.6c-2.3-0.1-3.2-1.5-4.9-2.1
		C181.4,246.3,178.9,248.6,174.2,248.7 M163.8,242.9c-7.2,2.8-4.3,14.8,5.5,12.6c1.3-0.8,2.5-1.8,3.4-3.1c0.2-1.7-0.4-2.5-0.3-4
		C167.8,248.3,166.7,244.7,163.8,242.9 M194.2,244.1c-1.2,1.3-3.8,0.9-5.2,1.2c-7.4,10.1,14.2,15.2,12.3,3.1
		C197.7,248.2,196.3,245.8,194.2,244.1"/>
	<path class="st0" d="M190.5,136.3c-0.4,1.2-0.7,2.5-1.5,3.4c0.3,0.5,1.3,0.3,1.8,0.6c2.2,2,3.3,6.4,3.7,9.2c-2.8,4-3.3,9.9-8,12.6
		c-1.6,4.1-6.9,4.6-10.4,6.8c0.1-1-0.5-1.3-0.3-2.5c-4.6-5.2-1.6-15.4,2.8-20c-0.1-4.1,4.3-6.3,9.2-6.5
		C188.4,139.5,188.6,136.5,190.5,136.3 M180.4,144c0,0.1,0.9,1.8-0.6,1.2c1.3,0.4,4.7-2.4,7.4-2.8c-0.2-0.9,1.1-0.4,0.6-1.5
		C184.5,141.3,181.6,141.6,180.4,144 M188.3,141.2c-0.1,3.3,3,6,4,9.2C194.2,148.3,192.1,140.5,188.3,141.2 M177.6,149.8
		c3.1-0.9,4.9-3.1,8.3-3.7c0-1.2,1.5-2.5,0.9-3.4C183,144.5,178.7,146,177.6,149.8 M185.9,147c-2,3.8,1.8,7.1,3.1,10.4
		C192.2,154.3,188.1,149.4,185.9,147 M191.1,153.5c1.8-3.8-1.5-7.8-3.7-10.4c0.1,1.5-0.9,1.9-0.9,3.4
		C188.2,148.6,189.2,151.5,191.1,153.5 M175.4,154.4c2.6-2.1,8.9-3.2,10.1-7.7C181,148.4,176.5,150.1,175.4,154.4 M174.8,158.4
		c3-2.6,9.3-3.4,8.9-8.3C180.8,152.8,174.1,153.9,174.8,158.4 M183.1,154.4c1.5,1.8,1.6,5,3.4,6.5c1-0.5,1.5-1.6,2.2-2.5
		c-1.7-2.3-1.7-6.3-4.3-7.7C184.3,152.3,183.2,152.9,183.1,154.4 M181.9,155.3c-2.4,0.9-7.9,2.4-7.1,5.8c1.8,0.2,3.2-2.5,5.8-2.5
		C180.8,157.3,181.6,156.6,181.9,155.3 M181,159c1.2,1.1,1.8,2.9,2.2,4.9c4.4-1.2,1.2-6.9-0.6-8.9C182.2,156.5,181.6,157.8,181,159
		 M176.4,164.5c1.6-1.2,4.1-3.3,3.7-5.5C178.3,160.3,173.1,161.9,176.4,164.5 M179.1,163c0,1.4-1.6,2.7-0.9,3.7
		c1.6-0.7,3.2-1.3,4.6-2.2c-0.5-1.8-0.6-4.1-2.1-4.9c-0.3,1.1-0.5,2.1-1.2,2.8c0.1,1,2,2.5,0.6,3.1C179.8,164.6,180,163.3,179.1,163
		 M176.7,164.5c0,0.8-0.2,1.8,0.6,1.8c0.2-1.1,0.9-1.8,1.2-2.8C177.4,163.5,177.8,164.7,176.7,164.5"/>
	<path class="st0" d="M167.5,141.8c0.4-0.1,0.6,0.1,0.6,0.3c0.1,1.4-1.1,1.4-1.2,2.5c0.7,0.5,1.6,0.9,2.5,1.2
		c2.1,2.4,3.5,9.7,0,11.7v1.8c-4.5,5.1-7.9,11.1-16.6,12c-1.1,0.3-1.3,1.3-2.8,1.2c-1.9-6.6-1.4-13.2,2.8-16.6
		c-0.2-0.3-0.3-0.7-0.3-1.2c3.9-4.2,4.3-9.3,12.6-10.1C166.1,144,166.7,142.8,167.5,141.8 M165.3,146.7c-2.9-2.3-6.6,1.4-8,3.1
		C160,148.8,163.2,148.3,165.3,146.7 M168.1,158.4c0.5-0.4-0.3-2.6,1.5-2.5c-0.6-3.6-2.2-6.2-3.1-9.5
		C162.5,147.4,167.1,155.9,168.1,158.4 M170.2,154.1c0.1-3.6-0.4-8.2-3.4-7.7C168.3,148.6,168.2,152.4,170.2,154.1 M154.9,153.8
		c2.6-0.2,4-1.5,6.8-1.5c0.4-1.3,2-2.9,1.5-4C159.3,149.5,156,150.6,154.9,153.8 M165,163c3.6-3.4,0.8-9.8-0.9-13.8
		C161.3,153,163.9,158.7,165,163 M160.4,155.9c0.5-0.7,1.9-3.3,1.2-3.1C161.3,153.8,160,155.3,160.4,155.9 M161,152.9
		c-6.3-0.1-10.7,5-9.8,9.2c1.8-0.9,3.8-1.7,6.1-2.2c0.8-0.8,1-2.1,1.5-3.1c-2.6,0.5-4.7,1.5-6.8,2.5
		C154.4,156.5,160.6,157.5,161,152.9 M161.9,166.1c4.2-2.2,1-8.4,0-12.3C160.1,156.5,161.1,162.4,161.9,166.1 M157.6,160.6
		c-0.5,1.7,1.2-1.3,0.6-0.3c0.8-1.3,1-2.5,1.8-3.7C158.5,158.1,157.8,160.1,157.6,160.6 M158.5,168.2c1.2-0.2,1.8-1.1,2.5-1.8
		c0-3.2,0-6.6-0.9-8.9C157.8,160,158.5,163.7,158.5,168.2 M149.9,163c0.5,1-0.1,1.2,0,2.5c2.5-0.3,6.6-1.6,7.1-4.9
		C154.3,161,152.2,162.1,149.9,163 M155.5,169.8c0.8-0.3,1.6-0.7,2.5-0.9c0-2.3,0.9-5.3-0.6-6.8
		C155.7,163.7,156.3,167.4,155.5,169.8 M149.9,166.7c0.1,1.7,0.6,2.9,0.9,4.3c1.6-2.1,3-4.4,4.3-6.8
		C153.2,164.8,151.7,165.9,149.9,166.7 M152.4,170.4c1.3,0.2,2.1-0.2,2.8-0.6c-0.3-1.8,1.3-3.2,0.3-4.6
		C154.4,166.9,153,168.2,152.4,170.4"/>
	<path class="st0" d="M33.6,147.1c1.3-3.7,2.9-8.5,4.5-13.1c1.9-5.4,3.4-10.8,7.2-11.7c2.1-0.5,5,0.7,6,2.6c0.8,1.6,0.7,3.5,0.2,5.8
		c2.1-3.8,4.3-6.9,8.5-5.7c6.5,1.9,4.6,9.3,2.4,15.6c-1.4,4.1-3,8.7-4.5,13.2c-0.3,0.9-0.4,1.5-0.8,1.4c-0.5-0.1-0.2-0.5-0.1-1
		c0.7-2.5,2-4.7,0.9-6.3c-5.4-1.9-11.8-4.1-17.6-6.1c-0.8-0.3-1.8-0.8-2.5-0.9c-2.1-0.1-2.5,4.5-3.7,6.3c-0.1,0-0.2-0.1-0.3-0.1
		C33.7,147.3,33.6,147.2,33.6,147.1 M45.7,128.6c-3.8-1-6.1,1.9-6.9,6.3c3.3,1.2,6.7,2.3,10,3.5C51.3,133.4,49.9,129.7,45.7,128.6
		 M61.9,133.7c-1.7-2.6-6.3-3.7-8.5-2.1c-1.8,1.3-3,4.5-3.6,7.1c3.7,1.3,7.4,2.6,11.1,3.8C62.6,139.2,63.3,135.8,61.9,133.7"/>
	<path class="st0" d="M61,86.8c0.1-0.2,0.3-0.4,0.4-0.6c2.7,1.3,5.2,2.5,8.1,3.4c0.4,0.1,2.4,0.5,2.3,1c-0.1,0.7-1.1,0.2-1.6,0.1
		c-3.6-0.7-7.4-1.3-10.1,2c-1.1,1.4-1.4,2.4-2.6,4c3.2,2.1,6.4,4.2,9.6,6.3c3.1-3.4,1.6-5.9-1.1-8.2c-0.1-0.1-0.7-0.2-0.5-0.6
		c0.3-0.8,1,0,1.3,0.2c2.9,1.9,5.8,3.8,8.9,5.8c0.5,0.3,1.2,0.6,0.8,1.1c-0.4,0.4-0.9-0.2-1.4-0.4c-2.4-1.1-5.4-1-7,2.8
		c3,2,5.9,3.9,8.9,5.9c1.5-2.3,2.6-3.6,3.9-5.8c2.1-3.7,0.2-6.8-2.2-9.7c-0.3-0.4-0.9-0.9-0.4-1.2c0.4-0.2,0.9,0.5,1.1,0.7
		c1.6,1.6,3.5,3.5,5.4,5.1c0.6,0.5,2.3,1.6,2.2,2c-0.1,0.7-1,0.4-1.4,0.4c-1.3,0.1-2.2,0.7-3.2,1.9c-1.9,2.5-4,6.1-6.1,9.3
		c-1.6,2.4-3.7,5.7-5.4,8.1c-0.3,0.5-0.5,0.9-0.8,0.7c-0.5-0.3-0.1-0.5,0.2-1c1.2-2.1,3.3-4.4,2.4-6c-5.3-3.5-10.3-6.8-15.6-10.3
		c-0.7-0.5-1.6-1.3-2.2-1.5c-0.8-0.3-2.1,0.9-2.8,1.8c-0.3,0.4-1.3,2.1-1.9,2.9c-0.3,0.4-0.3,0.7-0.7,0.5c-0.5-0.2-0.1-0.4,0.1-0.9
		c1.2-2.2,3.5-5.2,4.8-7.2c1.8-2.7,4.1-5.9,5.4-8.2C60.9,89.6,61.4,88,61,86.8"/>
	<path class="st0" d="M76.2,73c7-4.7,16.2-15.6,23-15.8c1.9-0.1,3.8,0.6,5.3,2.9c2.1,3.1,0.4,6.3-1.6,9.2c3.6,1.7,8.6,4.2,12.6,1.7
		c0.9-0.6,1.7-1.4,2.1-2.1c0.5-0.9,0.4-2.3,1.1-2.2c0.6,0.1,0.3,1.1,0.1,1.8c-0.4,2.6-1.8,6.1-5.5,7.9c-4.7,2.3-9.8-0.7-14.1-3.7
		c-1.3,1-2.5,1.7-3.7,2.6c1.5,2.1,3,3.8,4.6,5.8c0.5,0.6,1,1.5,1.4,1.8c1.2,0.8,3.3-0.9,4.7-2.1c0.5-0.4,1.1-1.1,1.4-0.8
		c0.4,0.4,0,0.5-0.4,0.9c-2.1,2-4.7,3.8-6.8,5.5c-2.1,1.7-4.4,3.8-6.9,5.6c-0.5,0.3-0.6,0.6-0.9,0.3c-0.4-0.4,0.3-0.8,0.9-1.3
		c1.8-1.4,3.2-2.5,3.1-4.2c-3.7-4.5-8-9.9-11.9-14.8c-0.6-0.7-1.1-1.7-1.7-2.1c-0.8-0.5-2.4,0.3-3.2,0.9c-1.2,0.8-2.3,2-3.4,2.6
		c-0.1-0.1-0.2-0.2-0.2-0.3C76.2,73.1,76.2,73.1,76.2,73 M100.6,68c0.3-2.9-2.6-6.7-5.6-7.1c-2-0.3-4.8,1.3-7.1,3.7
		c-0.2,0.2-0.1,0.4-0.3,0.6c0.6,1.5,2.1,3,3.4,4.6c1.3,1.6,2.7,3.3,3.9,4.8C97.9,72.7,100.4,70.6,100.6,68"/>
	<path class="st0" d="M118.1,45.4c7.9-2,19.9-9,26.2-7.1c1.7,0.5,3.3,1.8,3.9,4.3c0.9,3.6-1.7,5.9-4.5,7.9c2.7,2.8,6.6,6.7,11,5.6
		c1.1-0.2,2-0.7,2.6-1.3c0.7-0.6,1.1-1.9,1.7-1.7c0.5,0.2-0.1,1.1-0.5,1.7c-1.2,2.3-3.6,5.1-7.6,5.5c-5.1,0.5-8.8-3.8-11.7-7.9
		c-1.5,0.6-2.8,0.7-4.2,1.2c0.7,2.4,1.5,4.4,2.4,6.8c0.3,0.7,0.4,1.7,0.8,2.1c0.8,1.1,3.3,0.2,5-0.4c0.6-0.2,1.3-0.7,1.6-0.2
		c0.2,0.4-0.2,0.4-0.7,0.6c-2.5,1.1-5.5,2-8,2.9c-2.5,0.9-5.2,2.1-8.1,2.9c-0.5,0.2-0.7,0.4-0.9,0c-0.2-0.5,0.6-0.6,1.2-0.9
		c2.1-0.7,3.7-1.3,4.2-2.8c-1.9-5.3-4.2-11.7-6.2-17.4c-0.3-0.8-0.5-1.9-0.9-2.5c-0.5-0.8-2.3-0.5-3.3-0.2c-1.4,0.4-2.7,1.1-3.9,1.3
		c0-0.1-0.1-0.2-0.1-0.4C118.1,45.6,118,45.5,118.1,45.4 M142.2,48.7c1.2-2.5-0.3-7-2.9-8.3c-1.8-0.9-4.8-0.3-7.7,1.1
		c-0.3,0.1-0.2,0.3-0.5,0.4c0.1,1.5,1,3.4,1.6,5.3c0.7,1.9,1.4,3.9,2,5.7C138.1,52.2,141.1,51.1,142.2,48.7"/>
	<path class="st0" d="M158,33c5.2,0.2,10.6-0.7,16-0.4c0.5,0,0.6-0.1,0.7,0.3c0.1,0.6-0.6,0.4-1.3,0.4c-1.3,0-2.9,0-3.1,0.8
		c-0.2,0.9,1.2,2.4,1.6,3.1c1.8,2.9,3.6,5.7,5.4,8.6c2-2.8,3.7-5.7,5.6-8.7c0.4-0.6,1.8-2.2,1.6-3.1c-0.2-1-1.9-0.9-3.4-0.8
		c-0.7,0-1.3,0.2-1.3-0.3c-0.1-0.5,0.6-0.4,1.2-0.4c3.2-0.1,6.1-0.1,9.7-0.2c0.7,0,1.2-0.2,1.2,0.3c0.1,0.5-0.5,0.4-1.2,0.4
		c-2.3,0.1-3.7,0.2-4.7,1.5c-1.4,1.7-2.5,4-3.9,6.1c-1.3,2.1-2.6,4.3-3.8,6.1c0.1,2.7,0.1,4.3,0.2,6.9c0,0.7-0.1,1.6,0.1,2.1
		c0.5,1.3,3.1,1.2,4.9,1.2c0.6,0,1.5-0.2,1.6,0.3c0.1,0.5-0.3,0.4-0.8,0.4c-2.8,0.3-6,0.1-8.6,0.2c-2.9,0.1-5.5,0.3-8.7,0.2
		c-0.3,0-0.8,0.1-0.9-0.3c-0.1-0.6,0.7-0.4,1.5-0.4c2.2-0.1,4.2-0.1,4.9-1.4c-0.4-2,0.3-4.6-0.2-6.7c-0.2-0.9-1.7-2.7-2.3-3.6
		c-1.6-2.5-3-4.8-4.5-7.2c-0.8-1.2-1.5-2.5-2.3-3.5c-1-1.1-3.2-1.4-5.4-1.3c0-0.1,0-0.3,0-0.4C158,33.2,157.9,33.1,158,33"/>
	<path class="st0" d="M197.2,32.3c5.1,1.8,10.8,2.7,16.1,4.7c0.5,0.2,0.7,0.1,0.7,0.5c-0.1,0.6-0.7,0.2-1.4,0
		c-1.4-0.4-3.1-1.1-3.6-0.2c-0.5,0.8,0.1,3.6,0.2,4.3c0.5,4.2,0.8,8.1,1.2,12.3c3.1-4,6.2-8.1,9.3-12.3c1.5-0.1,2.8-0.4,4.2-0.5
		c0.6,5.7,1.3,11.4,2,17c3.1-4.4,6.4-8.7,9.4-13.3c-0.5-1-2.5-1.4-4.2-1.9c-0.5-0.2-1-0.1-0.9-0.6c0.1-0.6,0.7-0.2,1.4,0
		c3.3,1,6.3,1.8,9.7,2.8c0.7,0.2,1.3,0.2,1.2,0.7c-0.1,0.5-0.7,0.2-1.2,0.1c-1.6-0.4-3.7-1.1-4.7-0.3c-0.7,0.5-1.2,1.7-1.9,2.6
		c-4,5.4-8.2,11-12.2,16.4c-0.3,0.4-0.4,1-1,1.2c-0.4-0.2-0.4-0.8-0.5-1.2c-0.8-6.2-1.7-12.7-2.6-19c-3.9,4.8-7.7,10-11.6,14.9
		c-0.2,0.3-0.5,0.7-0.9,0.8c-0.5-0.3-0.4-1.1-0.4-1.6c-0.7-5.9-1.5-11.8-2.2-18c-0.2-1.9-0.3-4.7-1.3-6.2c-0.9-1.3-3.2-2-5.2-2.6
		c0-0.1,0.1-0.2,0.1-0.4C197.1,32.4,197.1,32.3,197.2,32.3"/>
	<path class="st0" d="M263,57.6c3.7,2.2,6.1,4.8,7.5,7.5c1.8,3.5,2.2,8.1-0.9,12.4c-3,4.1-7.1,5.4-11.3,4.9
		c-4.7-0.6-9.3-3.5-12.5-7.1c-3-3.4-4.4-7.4-3.1-11.6c1.3-4.6,5.6-7.8,8.7-8.5c1.8-0.4,3.6-0.4,5.6-0.1
		C258.8,55.5,260.9,56.3,263,57.6 M260.5,57.4c-7.1-1.1-16.4,11-12.9,18c1.2,2.4,4.1,4.6,6.9,4.7c5.6,0.3,12.4-7.6,12.9-13.7
		c0.3-3-0.9-6.3-4.9-8.2C261.8,57.8,261.1,57.5,260.5,57.4"/>
	<path class="st0" d="M296.8,87.9c2.8,3.3,4.3,6.4,4.8,9.4c0.7,3.9-0.4,8.4-4.7,11.5c-4.1,3-8.4,3-12.2,1.2c-4.3-2-7.8-6.2-9.7-10.6
		c-1.8-4.1-1.9-8.4,0.6-12c2.7-3.9,7.8-5.7,10.9-5.4c1.9,0.2,3.5,0.7,5.3,1.7C293.4,84.6,295.1,86.1,296.8,87.9 M294.4,86.9
		c-6.4-3.3-19,5.3-17.8,13.1c0.4,2.7,2.5,5.6,5.1,6.6c5.2,2,14.1-3.4,16.5-9.1c1.2-2.8,1.1-6.2-2.1-9.3
		C295.6,87.7,295,87.2,294.4,86.9"/>
	<path class="st0" d="M312.3,114.1c2.1,6.6,5.9,13.6,7.2,19.8c1.4,6.5,0,12.9-7,15.2c-8.3,2.8-13.6-2.4-16.9-11.1
		c-1.6-4.3-3.4-9.1-5.2-13.8c-0.1-0.1-0.3-0.7-0.4-1c-0.2-0.5-0.3-0.6,0-0.8c0.5-0.2,0.4,0.2,0.7,0.7c0.9,2.2,1.4,4.7,3.2,5.2
		c6.3-2.2,12.8-4.8,19.2-7.2c1.1-1.4-0.3-3.8-1-6.1c-0.1-0.2-0.4-0.7-0.1-0.8c0.1,0,0.1-0.1,0.2-0.1
		C312.2,114.1,312.3,114,312.3,114.1 M297,139.7c0.9,2,2.5,3.9,4.3,4.7c2.8,1.1,7.8-0.2,11.5-2c4.6-2.2,6.3-5.4,5.3-10
		c-0.4-1.8-1.3-5.3-2.8-5.6c-6.4,2.3-13.2,4.9-19.5,7.4C295.3,135.9,296.2,137.9,297,139.7"/>
	<path class="st1" d="M179.2,358.5C80.4,358.5,0,278.1,0,179.2S80.4,0,179.2,0c98.8,0,179.2,80.4,179.2,179.2
		S278.1,358.5,179.2,358.5 M179.2,4.3C82.8,4.3,4.3,82.8,4.3,179.2c0,96.4,78.5,174.9,174.9,174.9s174.9-78.5,174.9-174.9
		C354.1,82.8,275.7,4.3,179.2,4.3"/>
	<path class="st1" d="M286.2,275l-2.6-2.3c22.3-25.4,34.6-57.9,34.6-91.8c0-5-0.3-10-0.8-14.9l3.4-0.4c0.5,5,0.8,10.2,0.8,15.3
		C321.6,215.6,309,249,286.2,275"/>
	<path class="st1" d="M72.4,275.2c-23-26-35.6-59.5-35.6-94.2c0-5.1,0.3-10.3,0.8-15.3l3.4,0.4c-0.5,4.9-0.8,10-0.8,15
		c0,33.9,12.3,66.5,34.7,91.9L72.4,275.2z"/>
</g>
</svg>
