<?xml version="1.0" encoding="utf-8"?>
<!-- Generator: Adobe Illustrator 19.0.0, SVG Export Plug-In . SVG Version: 6.00 Build 0)  -->
<svg version="1.1" id="Слой_1" xmlns="http://www.w3.org/2000/svg" xmlns:xlink="http://www.w3.org/1999/xlink" x="0px" y="0px"
	 viewBox="220.9 62.4 400 351.5" style="enable-background:new 220.9 62.4 400 351.5;" xml:space="preserve">
<path d="M338.1,62.4c-30,0-60,11.4-82.9,34.3c-45.7,45.7-45.7,120.5,0,166.2L411.4,410c2.9,2.4,6.2,3.8,10,3.8c3.3,0,7.1-1.4,10-3.8
	l156.2-147.2C610,240,621,209.5,621,179.5s-11.4-60-34.3-82.9c-20.5-20.5-46.7-29.5-73.3-29.5c-32.9,0-66.7,13.8-91.9,38.6
	c0,0-0.5,0.5-1,0.5c-0.5,0-0.5,0-1-0.5C397.6,83.8,367.6,62.4,338.1,62.4L338.1,62.4z"/>
</svg>
