<?xml version="1.0" encoding="utf-8"?>
<!-- Generator: Adobe Illustrator 19.2.0, SVG Export Plug-In . SVG Version: 6.00 Build 0)  -->
<svg version="1.1" id="Слой_1" xmlns="http://www.w3.org/2000/svg" xmlns:xlink="http://www.w3.org/1999/xlink" x="0px" y="0px"
	 viewBox="0 0 63.7 46.7" style="enable-background:new 0 0 63.7 46.7;" xml:space="preserve">
<style type="text/css">
	.st0{fill:#04D959;}
</style>
<g>
	<path class="st0" d="M63.3,38.2c-0.4-0.3-1-0.2-1.3,0.2c-4.9,6.9-16.9,6.4-17,6.4H18.7c-0.1,0-12.1,0.5-17-6.4
		c-0.3-0.4-0.9-0.5-1.3-0.2c-0.4,0.3-0.5,0.9-0.2,1.3C5,46.2,15.1,46.7,18,46.7c0.4,0,0.7,0,0.8,0h26.3c0.5,0,13.1,0.5,18.6-7.2
		C63.8,39.1,63.7,38.5,63.3,38.2z"/>
	<path class="st0" d="M43.1,29.4c-0.5,0.2-0.8,0.7-0.6,1.2c0.2,0.5,0.7,0.8,1.2,0.6c0.4-0.1,9.4-2.9,13.1,6.2
		c0.2,0.4,0.5,0.6,0.9,0.6c0.1,0,0.2,0,0.4-0.1c0.5-0.2,0.7-0.8,0.5-1.2C54.2,26,43.2,29.4,43.1,29.4z"/>
	<path class="st0" d="M51.7,38.2c0.2,0.3,0.5,0.4,0.8,0.4c0.2,0,0.4,0,0.5-0.2c0.4-0.3,0.6-0.9,0.3-1.3c-2.3-3.5-6.2-3.5-6.3-3.4
		c-0.5,0-0.9,0.4-0.9,1c0,0.5,0.4,0.9,1,0.9C47.1,35.6,50,35.6,51.7,38.2z"/>
	<path class="st0" d="M15.9,38.8c-0.5,0.2-0.8,0.7-0.6,1.2c0.1,0.4,0.5,0.6,0.9,0.6c0.1,0,0.2,0,0.3-0.1c0.1,0,6.3-2.2,13.2,0
		c0.5,0.2,1-0.1,1.2-0.6s-0.1-1-0.6-1.2C22.8,36.4,16.2,38.7,15.9,38.8z"/>
	<path class="st0" d="M35.8,40.1c0.2,0.3,0.5,0.5,0.9,0.5c0.1,0,0.3,0,0.4-0.1c0.5-0.2,0.7-0.8,0.4-1.3c-0.1-0.3-3.7-7.4-14.4-7.5
		C12.4,31.6,8.6,38,8.5,38.2c-0.3,0.5-0.1,1,0.3,1.3c0.5,0.3,1,0.1,1.3-0.3c0.1-0.2,3.4-5.6,13-5.5C32.6,33.7,35.7,39.9,35.8,40.1z"
		/>
	<path class="st0" d="M5,37.1c0.5,0.2,1,0,1.2-0.5c0.1-0.4,3.7-8.9,17.6-8.6c13.9,0.3,17.6,11.5,17.7,12c0.1,0.4,0.5,0.7,0.9,0.7
		c0.1,0,0.2,0,0.3,0c0.5-0.2,0.8-0.7,0.6-1.2c0-0.1-4.2-13.1-19.5-13.4C8.5,25.8,4.6,35.4,4.4,35.9C4.2,36.3,4.5,36.9,5,37.1z"/>
	<path class="st0" d="M34.8,9.3h18.4c0.5,0,1-0.4,1-1c0-0.6-0.4-1-1-1H34.8c-0.5,0-1,0.4-1,1C33.8,8.9,34.3,9.3,34.8,9.3z"/>
	<path class="st0" d="M9.3,10.3H9.2c-0.5,0-0.9,0.3-0.9,0.9c0,0.6,0.4,1,1,1h3.4v9.9c0,0.5,0.4,1,1,1c0.6,0,1-0.4,1-1V1
		c0-0.5-0.4-1-1-1c-0.6,0-1,0.4-1,1v3.4H9.3c-0.5,0-1,0.4-1,1c0,0.6,0.4,1,1,1h3.4v3.9H9.3z"/>
	<path class="st0" d="M19,21.8c0.5,0,1-0.4,1-1V1c0-0.5-0.4-1-1-1c-0.6,0-1,0.4-1,1v19.8C18,21.3,18.5,21.8,19,21.8z"/>
	<path class="st0" d="M24.3,21.8c0.5,0,1-0.4,1-1v-8.3h0.8h0.4h0.7c2.3,0,4.1-1.8,4.1-4.1s-1.8-4.2-4.1-4.2h-0.7h-0.4h-0.8V1
		c0-0.5-0.4-1-1-1c-0.6,0-1,0.4-1,1v19.8C23.3,21.3,23.8,21.8,24.3,21.8z M26.5,6.1h0.6c1.3,0,2.2,1,2.2,2.3s-1,2.2-2.2,2.2h-0.6H26
		h-0.8V6.1H26H26.5z"/>
	<circle class="st0" cx="47.6" cy="39.8" r="0.9"/>
</g>
</svg>
