<?xml version="1.0" encoding="utf-8"?>
<!-- Generator: Adobe Illustrator 19.0.0, SVG Export Plug-In . SVG Version: 6.00 Build 0)  -->
<svg version="1.1" id="Слой_1" xmlns="http://www.w3.org/2000/svg" xmlns:xlink="http://www.w3.org/1999/xlink" x="0px" y="0px"
	 viewBox="0 0 46.7 29.8" style="enable-background:new 0 0 46.7 29.8;" xml:space="preserve">
<style type="text/css">
	.st0{fill:#010101;}
</style>
<g>
	<path class="st0" d="M27.3,16.6c-0.2,0-0.3,0.1-0.4,0.2l0,0c0,0-1.4,1.3-3.6,1.3s-3.6-1.3-3.6-1.3l0,0c-0.1-0.1-0.3-0.2-0.4-0.2
		c-2.7,0-4.8,0.9-6.3,2.6c-3.1,3.6-2.3,9.7-2.3,10c0.1,0.3,0.3,0.6,0.6,0.6h24c0.3,0,0.6-0.3,0.6-0.6c0.1-0.3,0.9-6.3-2.3-10
		C32.2,17.5,30,16.6,27.3,16.6z M25.9,18.8L23.4,24l-2.5-5.2c0.7,0.3,1.5,0.5,2.5,0.5C24.4,19.3,25.2,19.1,25.9,18.8z M34.8,28.5
		H11.9c-0.1-1.5-0.3-5.8,2.1-8.4c1.2-1.4,2.9-2.1,5-2.2l3.8,7.9c0.2,0.4,0.9,0.4,1.1,0l3.8-7.9c2.1,0.1,3.8,0.8,5,2.2
		C35,22.7,34.9,27,34.8,28.5z"/>
	<path class="st0" d="M23.3,15.1c3.8,0,6.9-3.1,6.9-6.9s-3.1-6.9-6.9-6.9s-6.9,3.1-6.9,6.9S19.5,15.1,23.3,15.1z M23.3,2.6
		c3.1,0,5.7,2.5,5.7,5.7s-2.5,5.7-5.7,5.7s-5.7-2.5-5.7-5.7S20.2,2.6,23.3,2.6z"/>
	<path class="st0" d="M44.9,12.7c-1.1-1.3-2.6-1.9-4.6-1.9c-0.1,0-0.1,0-0.2,0.1c0,0,0,0-0.1,0s-0.1,0.1-0.2,0.1l0,0
		c-0.1,0.1-0.9,0.9-2.4,0.9c-1.5,0-2.4-0.8-2.4-0.9l0,0C35,11,34.9,11,34.9,10.9h-0.1c-0.1,0-0.1-0.1-0.2-0.1l0,0l0,0
		c-3,0-5,1.5-5.9,4.3c-0.1,0.3,0.1,0.7,0.4,0.8c0.3,0.1,0.7-0.1,0.8-0.4c0.7-2.1,2.1-3.3,4.3-3.4l2.6,5.5c0.2,0.4,0.9,0.4,1.1,0
		l2.6-5.5c1.4,0.1,2.5,0.6,3.3,1.4c1.5,1.7,1.5,4.5,1.4,5.7h-9c-0.4,0-0.6,0.3-0.6,0.6s0.3,0.6,0.6,0.6H46c0.3,0,0.6-0.3,0.6-0.6
		C46.6,19.8,47.2,15.4,44.9,12.7z M37.5,15.9l-1.4-3c0.4,0.1,0.9,0.2,1.4,0.2c0.6,0,1-0.1,1.4-0.2L37.5,15.9z"/>
	<path class="st0" d="M37.5,10.2c2.8,0,5.1-2.3,5.1-5.1S40.3,0,37.5,0s-5.1,2.3-5.1,5.1S34.7,10.2,37.5,10.2z M37.5,1.3
		c2.1,0,3.8,1.7,3.8,3.8S39.6,9,37.5,9c-2.1,0-3.8-1.8-3.8-3.8S35.4,1.3,37.5,1.3z"/>
	<path class="st0" d="M10.8,19.9c0-0.4-0.3-0.6-0.6-0.6H1.3c-0.1-1.2-0.1-4,1.4-5.7c0.8-0.9,1.9-1.4,3.3-1.4l2.6,5.5
		c0.2,0.4,0.9,0.4,1.1,0l2.6-5.5c2.2,0.1,3.6,1.3,4.3,3.4c0.1,0.3,0.4,0.5,0.8,0.4c0.3-0.1,0.5-0.4,0.4-0.8
		c-0.9-2.8-2.9-4.3-5.9-4.3l0,0l0,0c-0.1,0-0.1,0-0.2,0.1h-0.1c-0.1,0-0.1,0.1-0.1,0.1l0,0c0,0-0.9,0.9-2.4,0.9S7,11.2,6.9,11.1l0,0
		c-0.1-0.1-0.1-0.1-0.1-0.1H6.7c-0.1,0-0.1-0.1-0.2-0.1l0,0l0,0c-1.9,0-3.5,0.6-4.6,1.9c-2.4,2.6-1.8,7-1.8,7.2
		c0.1,0.3,0.3,0.6,0.6,0.6h9.5C10.5,20.5,10.8,20.2,10.8,19.9z M10.6,12.9l-1.4,3l-1.4-3c0.4,0.1,0.9,0.2,1.4,0.2
		C9.7,13.2,10.2,13.1,10.6,12.9z"/>
	<path class="st0" d="M9.2,10.2c2.8,0,5.1-2.3,5.1-5.1S12,0,9.2,0S4.1,2.3,4.1,5.1S6.4,10.2,9.2,10.2z M9.2,1.3
		C11.2,1.3,13,3,13,5.1S11.3,9,9.2,9S5.3,7.3,5.3,5.1S7.1,1.3,9.2,1.3z"/>
</g>
</svg>
