<svg xmlns="http://www.w3.org/2000/svg" xmlns:xlink="http://www.w3.org/1999/xlink" preserveAspectRatio="xMidYMid" width="24.031" height="21" viewBox="0 0 24.031 21">
  <defs>
    <style>
      .cls-1 {
        fill: #fff;
        fill-rule: evenodd;
      }
    </style>
  </defs>
  <path d="M23.789,8.309 C23.596,9.178 22.942,9.517 21.659,9.686 C21.803,10.707 21.944,11.729 22.091,12.750 C22.295,14.154 22.522,15.555 22.706,16.962 C22.964,18.929 21.074,20.943 18.838,20.966 C14.294,21.012 9.749,21.017 5.206,20.965 C2.784,20.937 1.063,18.877 1.398,16.569 C1.704,14.453 2.018,12.337 2.326,10.222 C2.355,10.020 2.364,9.815 2.385,9.587 C2.224,9.566 2.113,9.549 2.001,9.537 C0.928,9.434 0.238,8.771 0.107,7.715 C-0.283,4.586 0.765,2.685 4.168,1.407 C9.346,-0.536 14.655,-0.402 19.885,1.421 C21.225,1.887 22.318,2.736 23.182,3.856 C24.242,5.233 24.128,6.778 23.789,8.309 ZM3.460,17.409 C3.643,18.353 4.397,18.931 5.478,18.933 C8.800,18.938 12.122,18.935 15.444,18.935 C16.532,18.935 17.620,18.952 18.708,18.930 C19.822,18.907 20.744,18.013 20.610,17.051 C20.266,14.577 19.877,12.108 19.526,9.634 C19.479,9.308 19.341,9.199 19.026,9.142 C18.359,9.022 17.698,8.865 17.039,8.705 C15.854,8.419 15.295,7.725 15.289,6.554 C15.288,6.403 15.342,6.230 15.284,6.105 C15.206,5.935 15.064,5.697 14.916,5.670 C12.892,5.304 10.864,5.315 8.760,5.699 C8.760,5.971 8.761,6.195 8.759,6.419 C8.748,7.716 8.266,8.335 6.984,8.652 C6.345,8.810 5.700,8.946 5.053,9.065 C4.725,9.125 4.575,9.241 4.525,9.599 C4.181,12.074 3.803,14.544 3.441,17.016 C3.422,17.144 3.435,17.281 3.460,17.409 ZM20.125,3.847 C19.488,3.468 18.777,3.170 18.060,2.961 C14.669,1.966 11.216,1.884 7.750,2.498 C6.265,2.761 4.799,3.123 3.533,4.025 C2.305,4.900 1.918,6.031 2.277,7.531 C3.724,7.240 5.174,6.948 6.661,6.649 C6.661,6.371 6.659,6.147 6.662,5.923 C6.680,4.617 7.248,3.899 8.559,3.660 C10.951,3.224 13.348,3.242 15.732,3.739 C16.616,3.922 17.173,4.463 17.323,5.341 C17.396,5.767 17.393,6.204 17.429,6.702 C18.862,7.005 20.315,7.312 21.803,7.627 C22.084,5.709 21.689,4.778 20.125,3.847 ZM9.850,13.829 C10.640,13.843 11.297,14.490 11.295,15.253 C11.293,16.033 10.593,16.694 9.786,16.679 C8.998,16.664 8.354,16.019 8.355,15.247 C8.355,14.442 9.017,13.814 9.850,13.829 ZM9.841,12.587 C9.030,12.602 8.352,11.947 8.355,11.152 C8.357,10.368 8.989,9.748 9.795,9.738 C10.615,9.729 11.300,10.379 11.296,11.164 C11.291,11.922 10.626,12.572 9.841,12.587 ZM14.243,13.830 C15.046,13.835 15.675,14.439 15.692,15.220 C15.709,16.013 15.056,16.672 14.246,16.679 C13.444,16.686 12.754,16.026 12.752,15.252 C12.751,14.471 13.429,13.825 14.243,13.830 ZM14.275,12.587 C13.471,12.609 12.777,11.970 12.755,11.187 C12.734,10.409 13.403,9.745 14.214,9.737 C15.041,9.730 15.693,10.356 15.693,11.156 C15.693,11.928 15.061,12.565 14.275,12.587 Z" class="cls-1"/>
</svg>
