<?xml version="1.0" encoding="utf-8"?>
<!-- Generator: Adobe Illustrator 19.2.0, SVG Export Plug-In . SVG Version: 6.00 Build 0)  -->
<svg version="1.1" id="Слой_1" xmlns="http://www.w3.org/2000/svg" xmlns:xlink="http://www.w3.org/1999/xlink" x="0px" y="0px"
	 viewBox="0 0 75.4 47.1" style="enable-background:new 0 0 75.4 47.1;" xml:space="preserve">
<style type="text/css">
	.st0{fill:#04D959;}
</style>
<g>
	<path class="st0" d="M31.3,11.4c0.1,0,0.3,0,0.7-0.3c0.4-0.3,0.4-0.9,0.1-1.3c-1.4-1.8-2-3.4-1.7-4.8c0.4-2,2.3-3.2,2.3-3.2
		c0.4-0.3,0.6-0.9,0.3-1.3c-0.3-0.4-0.8-0.6-1.3-0.3c-0.1,0.1-2.7,1.6-3.2,4.5c-0.4,2,0.3,4.2,2.1,6.4
		C30.9,11.4,31.1,11.4,31.3,11.4z"/>
	<path class="st0" d="M10.9,34.9c0.3,0,0.6-0.2,0.8-0.1c2.4-3.9,5.9-6.1,9.7-6.1c1.4,0,2.6,0.3,3.8,0.8c0.4,0.2,1,0,1.2-0.4
		c3.1-5.2,7.6-8.2,12.5-8.2c4,0,7.8,1.9,10.7,5.5c0.2,0.3,0.6,0.4,1,0.3c0.5-0.2,1.3-0.3,1.9-0.3c4.4,0,8.5,3,10.8,8
		c0.3,0.5,0.8,0.7,1.3,0.5c0.5-0.3,0.7-0.8,0.5-1.3c-2.7-5.8-7.4-9.2-12.6-9.2c-0.6,0-1.2,0.1-1.8,0.2c-3.3-3.7-7.4-5.8-11.8-5.8
		c-5.3,0-10.3,3.1-13.7,8.5c-1.2-0.5-2.5-0.7-3.8-0.7c-4.4,0-8.5,2.5-11.3,6.9c-0.3,0.4-0.1,1,0.3,1.3
		C10.6,34.9,10.7,34.9,10.9,34.9z"/>
	<circle class="st0" cx="19.5" cy="34.6" r="1.8"/>
	<circle class="st0" cx="51.7" cy="32.1" r="1.8"/>
	<circle class="st0" cx="37.6" cy="27.7" r="1.8"/>
	<circle class="st0" cx="30.8" cy="34.6" r="1.8"/>
	<circle class="st0" cx="43" cy="36.3" r="1.8"/>
	<path class="st0" d="M46.3,11.4c0.1,0,0.3,0,0.7-0.3c0.4-0.3,0.4-0.9,0.1-1.3c-1.4-1.8-2-3.4-1.7-4.8c0.4-2,2.3-3.2,2.3-3.2
		c0.4-0.3,0.6-0.9,0.3-1.3c-0.3-0.4-0.8-0.6-1.3-0.3c-0.1,0.1-2.7,1.6-3.2,4.5c-0.4,2,0.3,4.2,2.1,6.4
		C45.9,11.4,46.1,11.4,46.3,11.4z"/>
	<path class="st0" d="M38.4,11.4c0.1,0,0.3,0,0.7-0.3s0.4-0.9,0.1-1.3c-1.4-1.8-2-3.4-1.7-4.9c0.4-2,2.3-3.2,2.3-3.2
		c0.4-0.3,0.6-0.9,0.3-1.3s-0.8-0.6-1.3-0.3c-0.1,0.1-2.7,1.6-3.2,4.6c-0.4,2,0.3,4.2,2.1,6.4C38,11.4,38.2,11.4,38.4,11.4z"/>
	<path class="st0" d="M75.3,34.1c-0.3-0.4-0.9-0.5-1.3-0.2c-9.6,7.3-22.5,11.3-36.2,11.3c-13.6,0-26.5-4-36.3-11.3
		c-0.4-0.3-1-0.2-1.3,0.2c-0.3,0.4-0.2,1,0.2,1.3c10.1,7.5,23.4,11.7,37.5,11.7c14.1,0,27.4-4.2,37.2-11.7
		C75.5,35.1,75.6,34.5,75.3,34.1z"/>
</g>
</svg>
