<?xml version="1.0" encoding="utf-8"?>
<!-- Generator: Adobe Illustrator 19.0.0, SVG Export Plug-In . SVG Version: 6.00 Build 0)  -->
<svg version="1.1" id="Слой_1" xmlns="http://www.w3.org/2000/svg" xmlns:xlink="http://www.w3.org/1999/xlink" x="0px" y="0px"
	 viewBox="0 0 54.3 14.3" style="enable-background:new 0 0 54.3 14.3;" xml:space="preserve">
<style type="text/css">
	.st0{fill:#010101;}
</style>
<g>
	<g>
		<path class="st0" d="M54.3,7.1c0,1.3-1.1,2.3-2.4,2.3L22.5,9.1c-0.8,3.5-3.8,5.2-9.1,5.2H1.9c-1.1,0-1.9-0.9-1.9-1.9
			s0.9-1.9,1.9-1.9l10.8,0c0.4,0,0.8-0.3,0.8-0.7s-0.3-0.7-0.8-0.7H1.9C0.9,9.1,0,8.2,0,7.2s0.9-1.9,1.9-1.9h10.8
			c0.4,0,0.8-0.3,0.8-0.7c0-0.4-0.3-0.7-0.8-0.7l-10.8,0C0.9,3.8,0,3,0,1.9S0.9,0,1.9,0l11.5,0c5.3,0,8.3,1.7,9.1,5.2l29.3-0.4
			C53.2,4.8,54.3,5.9,54.3,7.1z M1.2,12.4c0,0.4,0.3,0.7,0.8,0.7h11.5c6.5,0,7.7-2.7,8-4.7c0-0.3,0.3-0.5,0.6-0.5l29.8,0.4
			c0.7,0,1.3-0.5,1.3-1.2S52.5,6,51.8,6L22,6.4c-0.3,0-0.5-0.2-0.6-0.5c-0.3-2-1.5-4.7-8-4.7H1.9c-0.4,0-0.8,0.3-0.8,0.7
			s0.3,0.7,0.8,0.7l10.8,0c1.1,0,1.9,0.9,1.9,1.9s-0.9,1.9-1.9,1.9H1.9c-0.4,0-0.8,0.3-0.8,0.7c0,0.4,0.3,0.7,0.8,0.7h10.8
			c1.1,0,1.9,0.9,1.9,1.9s-0.9,1.9-1.9,1.9l-10.8,0C1.5,11.7,1.2,12,1.2,12.4z"/>
	</g>
</g>
</svg>
