<?xml version="1.0" encoding="utf-8"?>
<!-- Generator: Adobe Illustrator 19.0.0, SVG Export Plug-In . SVG Version: 6.00 Build 0)  -->
<svg version="1.1" id="Слой_1" xmlns="http://www.w3.org/2000/svg" xmlns:xlink="http://www.w3.org/1999/xlink" x="0px" y="0px"
	 viewBox="0 0 60.9 57" style="enable-background:new 0 0 60.9 57;" xml:space="preserve">
<style type="text/css">
	.st0{fill:#FFFFFF;}
</style>
<g>
	<path class="st0" d="M51.9,57H9c-5,0-9-4.1-9-9V9c0-5,4.1-9,9-9h35.1c5,0,9,4.1,9,9v1.2H10.3v1.4h42c4.8,0.3,8.6,4.2,8.6,9V48
		C60.9,53,56.9,57,51.9,57z M9,2.5C5.4,2.5,2.5,5.4,2.5,9V48c0,3.6,2.9,6.5,6.5,6.5h42.8c3.6,0,6.5-2.9,6.5-6.5V20.7
		c0-3.4-2.7-6.3-6.2-6.5l-42.2,0c-1.2,0-2.2-1-2.2-2.2V10c0-1.2,1-2.2,2.2-2.2h40.5c-0.6-3-3.2-5.3-6.4-5.3H9z M48.9,39.5H47
		c-2.3,0-4.2-1.9-4.2-4.2v-1.9c0-2.3,1.9-4.2,4.2-4.2h1.9c2.3,0,4.2,1.9,4.2,4.2v1.9C53.1,37.6,51.2,39.5,48.9,39.5z M47,31.7
		c-0.9,0-1.7,0.8-1.7,1.7v1.9c0,0.9,0.8,1.7,1.7,1.7h1.9c0.9,0,1.7-0.8,1.7-1.7v-1.9c0-0.9-0.8-1.7-1.7-1.7H47z"/>
</g>
</svg>
