<?xml version="1.0" encoding="utf-8"?>
<!-- Generator: Adobe Illustrator 19.2.0, SVG Export Plug-In . SVG Version: 6.00 Build 0)  -->
<svg version="1.1" id="Слой_1" xmlns="http://www.w3.org/2000/svg" xmlns:xlink="http://www.w3.org/1999/xlink" x="0px" y="0px"
	 viewBox="0 0 46 39.9" style="enable-background:new 0 0 46 39.9;" xml:space="preserve">
<style type="text/css">
	.st0{fill:#04D959;}
</style>
<path class="st0" d="M45.2,20.9c-0.5-0.1-1,0.2-1.1,0.7c-0.2,0.8-0.5,1.6-0.8,2.4c-3,8.4-11.1,14-20,14C11.8,37.9,2.5,28.9,2,17.6
	h43c0.5,0,1-0.4,1-1s-0.4-1-1-1h-2.5c1.9-5.1,1.1-14.3,1-14.7C43.4,0.4,43,0,42.5,0h-0.1c-0.1,0-0.1,0-0.2,0
	c-0.5,0-11.7,0.1-17.9,6.4c-1.5,1.5-2.5,3.2-3.2,5.2C17.6,5.3,6.5,3.8,5.9,3.8L5.1,3.7L4.9,4.4c-1.2,4.2-0.7,9.3-0.5,11.2H1
	c-0.5,0-1,0.4-1,1c0,12.8,10.4,23.3,23.3,23.3c9.7,0,18.5-6.1,21.8-15.2c0.3-0.8,0.6-1.7,0.8-2.6C46,21.5,45.7,21,45.2,20.9z
	 M25.6,7.7c5-5,13.9-5.7,16.1-5.8c0.2,2.6,0.5,10.1-1.3,13.7H31c3.3-2.9,5.1-6.8,5.2-7c0.2-0.5,0-1-0.5-1.3c-0.5-0.2-1,0-1.3,0.5
	c0,0-2.2,5-6.2,7.5c-0.1,0.1-0.5,0.3-0.5,0.3h-5.5C22.4,12.5,23.5,9.9,25.6,7.7z M6.5,5.8c3.1,0.5,13.6,2.9,13.8,9.9h-5.4
	c-0.8-2-2.7-4.2-2.8-4.3c-0.3-0.4-0.9-0.4-1.3-0.1c-0.4,0.3-0.4,0.9-0.1,1.3c0.4,0.5,1.5,1.8,2.1,3H6.3C6.1,14.2,5.7,9.6,6.5,5.8z"
	/>
</svg>
