<svg xmlns="http://www.w3.org/2000/svg" xmlns:xlink="http://www.w3.org/1999/xlink" preserveAspectRatio="xMidYMid" width="19" height="19" viewBox="0 0 19 19">
  <defs>
    <style>
      .cls-1 {
        fill: #b4b4b4;
        fill-rule: evenodd;
      }
    </style>
  </defs>
  <path d="M12.949,7.779 C12.949,10.606 10.636,12.907 7.791,12.907 C4.945,12.907 2.612,10.606 2.612,7.779 C2.612,4.933 4.926,2.630 7.791,2.630 C10.636,2.630 12.949,4.952 12.949,7.779 L12.949,7.779 ZM14.161,12.134 C15.038,10.871 15.504,9.325 15.504,7.779 C15.504,3.519 12.078,-0.001 7.791,-0.001 C3.503,-0.001 -0.000,3.519 -0.000,7.779 C-0.000,12.040 3.503,15.479 7.791,15.479 C9.346,15.479 10.902,14.991 12.191,14.127 L16.983,18.999 L19.000,16.968 L14.161,12.134 L14.161,12.134 Z" class="cls-1"/>
</svg>
