<?xml version="1.0" encoding="utf-8"?>
<!-- Generator: Adobe Illustrator 19.0.0, SVG Export Plug-In . SVG Version: 6.00 Build 0)  -->
<svg version="1.1" id="Слой_1" xmlns="http://www.w3.org/2000/svg" xmlns:xlink="http://www.w3.org/1999/xlink" x="0px" y="0px"
	 viewBox="0 0 54.3 16.2" style="enable-background:new 0 0 54.3 16.2;" xml:space="preserve">
<style type="text/css">
	.st0{fill:#010101;}
</style>
<g>
	<g>
		<path class="st0" d="M9.6,4.2c0,0.3-0.2,0.5-0.4,0.6c-3,0.7-3.9,1.7-5,3.6C4,8.6,3.6,8.7,3.4,8.5C3.1,8.4,3,8,3.1,7.7
			c1.2-2.1,2.4-3.3,5.7-4.1C9.2,3.5,9.5,3.7,9.6,4C9.6,4.1,9.6,4.1,9.6,4.2z"/>
	</g>
	<g>
		<path class="st0" d="M54.3,8.1c0,1.3-1.1,2.3-2.4,2.3L22.4,10c-1.1,3.7-5.1,6.1-10.3,6.1C5.4,16.2,0,12.5,0,8.1
			C0,3.6,5.4,0,12.1,0c5.3,0,9.3,2.4,10.3,6.1l29.4-0.4C53.2,5.7,54.3,6.8,54.3,8.1z M1.2,8.1c0,3.7,5,6.9,10.9,6.9
			c4.9,0,8.6-2.2,9.3-5.6c0.1-0.3,0.3-0.5,0.6-0.5l29.9,0.4c0.7,0,1.3-0.5,1.3-1.2s-0.6-1.2-1.3-1.2L22,7.3c-0.3,0-0.5-0.2-0.6-0.5
			c-0.7-3.4-4.4-5.6-9.3-5.6C6.2,1.2,1.2,4.3,1.2,8.1z"/>
	</g>
</g>
</svg>
