<?xml version="1.0" encoding="utf-8"?>
<!-- Generator: Adobe Illustrator 18.0.0, SVG Export Plug-In . SVG Version: 6.00 Build 0)  -->
<!DOCTYPE svg PUBLIC "-//W3C//DTD SVG 1.1//EN" "http://www.w3.org/Graphics/SVG/1.1/DTD/svg11.dtd">
<svg version="1.1" id="Слой_1" xmlns="http://www.w3.org/2000/svg" xmlns:xlink="http://www.w3.org/1999/xlink" x="0px" y="0px"
	 viewBox="0 0 62.1 27.6" enable-background="new 0 0 62.1 27.6" xml:space="preserve">
<g>
	<g>
		<g>
			<path fill="#FFFFFF" d="M5.1,27.1c-0.4,0-0.7-0.2-0.8-0.6c-0.2-0.5,0-1.1,0.5-1.3L57.9,0.6c0.9-0.4,1.9,0.1,2.2,1
				c0.4,0.9-0.1,2-0.9,2.4L5.5,27C5.4,27.1,5.2,27.1,5.1,27.1L5.1,27.1z"/>
			<path fill="#010101" d="M60.7,2.3c0,0.9-0.5,1.8-1.3,2.1L5.7,27.5c-0.2,0.1-0.4,0.1-0.6,0.1c-0.6,0-1.1-0.4-1.3-0.9
				c-0.3-0.7,0.1-1.6,0.8-1.9L57.7,0.2c0.5-0.2,1.1-0.2,1.7,0c0.6,0.2,1,0.7,1.2,1.3C60.6,1.7,60.7,2,60.7,2.3z M4.7,26.1
				c0,0.1,0,0.1,0,0.2c0.1,0.2,0.2,0.3,0.4,0.3c0.1,0,0.1,0,0.2,0L59,3.5c0.6-0.3,0.9-1.1,0.6-1.7c-0.1-0.3-0.4-0.6-0.7-0.7
				c-0.3-0.1-0.6-0.1-0.9,0L5,25.7C4.8,25.7,4.7,25.9,4.7,26.1z"/>
		</g>
	</g>
	<g>
		<g>
			<path fill="#FFFFFF" d="M1,16c-0.3-0.1-0.5-0.5-0.5-0.9c0-0.5,0.5-1,1-1L60,13.1c0.9,0,1.7,0.8,1.6,1.8c0,1-0.8,1.8-1.8,1.8
				L1.4,16.1C1.3,16.1,1.1,16.1,1,16L1,16z"/>
			<path fill="#010101" d="M62.1,14.8l0,0.1c-0.1,1.2-1.1,2.3-2.3,2.3L1.4,16.6c-0.2,0-0.4,0-0.6-0.1C0.3,16.3,0,15.7,0,15.2
				c0-0.9,0.7-1.5,1.5-1.5L60,12.6c0.6,0,1.1,0.2,1.5,0.6C61.9,13.6,62.1,14.1,62.1,14.8z M1,15.2c0,0.2,0.1,0.4,0.2,0.4
				c0.1,0,0.1,0,0.2,0l58.4,0.5c0.7,0,1.3-0.6,1.3-1.3l0.5-0.1h-0.5c0-0.3-0.1-0.7-0.4-0.9c-0.2-0.2-0.5-0.3-0.8-0.3L1.5,14.6
				C1.2,14.6,1,14.9,1,15.2C1,15.2,1,15.2,1,15.2z"/>
		</g>
	</g>
</g>
</svg>
