<?xml version="1.0" encoding="utf-8"?>
<!-- Generator: Adobe Illustrator 19.0.0, SVG Export Plug-In . SVG Version: 6.00 Build 0)  -->
<svg version="1.1" id="Слой_1" xmlns="http://www.w3.org/2000/svg" xmlns:xlink="http://www.w3.org/1999/xlink" x="0px" y="0px"
	 viewBox="0 0 62.1 27.6" style="enable-background:new 0 0 62.1 27.6;" xml:space="preserve">
<style type="text/css">
	.st0{fill:#FFFFFF;stroke:#010101;stroke-miterlimit:10;}
</style>
<g>
	<g>
		<path class="st0" d="M5.1,27.1c-0.4,0-0.7-0.2-0.8-0.6c-0.2-0.5,0-1.1,0.5-1.3L57.9,0.6c0.9-0.4,1.9,0.1,2.2,1
			c0.4,0.9-0.1,2-0.9,2.4L5.5,27C5.4,27.1,5.2,27.1,5.1,27.1L5.1,27.1z"/>
	</g>
	<g>
		<path class="st0" d="M1,16c-0.3-0.1-0.5-0.5-0.5-0.9c0-0.5,0.5-1,1-1L60,13.1c0.9,0,1.7,0.8,1.6,1.8c0,1-0.8,1.8-1.8,1.8L1.4,16.1
			C1.3,16.1,1.1,16.1,1,16L1,16z"/>
	</g>
</g>
</svg>
