<?xml version="1.0" encoding="utf-8"?>
<!-- Generator: Adobe Illustrator 19.2.0, SVG Export Plug-In . SVG Version: 6.00 Build 0)  -->
<svg version="1.1" id="Слой_1" xmlns="http://www.w3.org/2000/svg" xmlns:xlink="http://www.w3.org/1999/xlink" x="0px" y="0px"
	 viewBox="0 0 47.1 44.2" style="enable-background:new 0 0 47.1 44.2;" xml:space="preserve">
<style type="text/css">
	.st0{fill:#04D959;}
</style>
<g>
	<path class="st0" d="M17.4,11.4c0.2,0,0.4,0,0.7-0.3c0.4-0.3,0.4-0.9,0.1-1.3c-1.4-1.8-2-3.4-1.7-4.9c0.4-2,2.3-3.2,2.3-3.2
		c0.4-0.3,0.6-0.9,0.3-1.3c-0.3-0.4-0.8-0.6-1.3-0.3c-0.1,0.1-2.7,1.6-3.2,4.5c-0.4,2.1,0.3,4.2,2.1,6.4
		C16.8,11.3,17.1,11.4,17.4,11.4z"/>
	<path class="st0" d="M25,11.4c0.2,0,0.4,0,0.7-0.3c0.4-0.3,0.4-0.9,0.1-1.3c-1.4-1.8-2-3.4-1.7-4.9c0.4-2,2.3-3.2,2.3-3.2
		c0.4-0.3,0.6-0.9,0.3-1.3c-0.3-0.4-0.8-0.6-1.3-0.3c-0.1,0.1-2.7,1.6-3.2,4.5c-0.4,2,0.3,4.2,2.1,6.4C24.4,11.3,24.7,11.4,25,11.4z
		"/>
	<path class="st0" d="M32.6,11.4c0.2,0,0.4,0,0.7-0.3c0.4-0.3,0.4-0.9,0.1-1.3c-1.4-1.8-2-3.4-1.7-4.9c0.4-2,2.3-3.2,2.3-3.2
		c0.4-0.3,0.6-0.9,0.3-1.3C34,0,33.5-0.2,33,0.1c-0.1,0.1-2.7,1.6-3.2,4.5c-0.4,2,0.3,4.2,2.1,6.4C32,11.3,32.3,11.4,32.6,11.4z"/>
	<path class="st0" d="M47,20.3C47,20.3,47,20.3,47,20.3c-1.3-3.7-19.6-4-23.4-4c-3.8,0-21.1,0.3-23.3,3.7C0.1,20.2,0,20.5,0,20.7
		c0,13,10.6,23.5,23.6,23.5c12.9,0,23.5-10.6,23.5-23.5C47.1,20.6,47.1,20.5,47,20.3z M23.6,18.3c12,0,19.9,1.3,21.4,2.4
		c-1.5,1.1-9.4,2.5-21.4,2.5S3.7,21.8,2.2,20.7C3.7,19.6,11.6,18.3,23.6,18.3z M23.6,42.2c-11.2,0-20.5-8.5-21.5-19.5
		c5.1,2.2,18.4,2.4,21.5,2.4c3.1,0,16.2-0.2,21.4-2.4C44,33.6,34.8,42.2,23.6,42.2z"/>
</g>
</svg>
