<?xml version="1.0" encoding="utf-8"?>
<!-- Generator: Adobe Illustrator 19.2.0, SVG Export Plug-In . SVG Version: 6.00 Build 0)  -->
<svg version="1.1" id="Слой_1" xmlns="http://www.w3.org/2000/svg" xmlns:xlink="http://www.w3.org/1999/xlink" x="0px" y="0px"
	 viewBox="0 0 54.9 34.4" style="enable-background:new 0 0 54.9 34.4;" xml:space="preserve">
<style type="text/css">
	.st0{fill:#04D959;}
</style>
<g>
	<path class="st0" d="M26,15.4c6.4,0,11.4-3.2,11.4-7.4s-5-7.4-11.4-7.4S14.6,3.8,14.6,8S19.6,15.4,26,15.4z M26,2.7
		c5.1,0,9.4,2.4,9.4,5.4s-4.3,5.4-9.4,5.4s-9.4-2.5-9.4-5.4C16.6,5.2,20.9,2.7,26,2.7z"/>
	<path class="st0" d="M26.1,9.8c0.9,0,4-0.2,4-1.9c0-1.8-3-1.9-4-1.9s-4,0.2-4,1.9C22.1,9.7,25.2,9.8,26.1,9.8z"/>
	<path class="st0" d="M11.1,18c-0.3-0.5-0.8-0.7-1.3-0.5l-9.2,4.3c-0.5,0.3-0.7,0.8-0.5,1.3c0.2,0.3,0.5,0.5,0.9,0.5
		c0.1,0,0.3-0.1,0.4,0l9.2-4.3C11.1,19,11.3,18.5,11.1,18z"/>
	<path class="st0" d="M41.4,4.7c0.1,0,0.3-0.1,0.5-0.2l5.6-2.7c0.4-0.3,0.6-0.8,0.4-1.3c-0.3-0.4-0.8-0.6-1.3-0.4l-5.7,2.8
		c-0.4,0.3-0.6,0.8-0.4,1.3C40.7,4.5,41,4.7,41.4,4.7z"/>
	<path class="st0" d="M54.9,10.8c-0.2-0.5-0.7-0.8-1.2-0.6L4,27.9c-0.5,0.2-0.8,0.7-0.6,1.2c0.1,0.4,0.5,0.6,0.9,0.6
		c0.1,0,0.2,0,0.3,0l31.3-11.1v7.6c-0.1,0.2-0.8,6.3-9.7,6.3c-4.3,0-6.7-1.4-8-2.6c-0.3-0.4-0.9-0.4-1.3,0c-0.4,0.3-0.4,0.9,0,1.3
		c1.6,1.5,4.4,3.2,9.4,3.2c10.6,0,11.5-8,11.6-8.1v-8.5L54.3,12C54.8,11.8,55.1,11.3,54.9,10.8z"/>
	<path class="st0" d="M15.3,20.6c0.5,0,1-0.5,1-1v-4.4c0-0.6-0.4-1-1-1c-0.6,0-1,0.5-1,1v4.4C14.3,20.2,14.8,20.6,15.3,20.6z"/>
</g>
</svg>
