<?xml version="1.0" encoding="utf-8"?>
<!-- Generator: Adobe Illustrator 18.0.0, SVG Export Plug-In . SVG Version: 6.00 Build 0)  -->
<!DOCTYPE svg PUBLIC "-//W3C//DTD SVG 1.1//EN" "http://www.w3.org/Graphics/SVG/1.1/DTD/svg11.dtd">
<svg version="1.1" id="Слой_1" xmlns="http://www.w3.org/2000/svg" xmlns:xlink="http://www.w3.org/1999/xlink" x="0px" y="0px"
	 viewBox="0 0 36.2 38.9" enable-background="new 0 0 36.2 38.9" xml:space="preserve">
<g>
	<path d="M35.1,24.8c-1.6-4.1-8.3-6.7-9-6.9c-0.7-0.3-1.4,0.1-1.7,0.7c-1.4,3-3.7,4.7-6.2,4.7c-2.5,0-4.8-1.7-6.1-4.7
		c-0.3-0.7-1.1-1-1.7-0.7c-0.8,0.3-7.5,2.9-9,6.9c-1,2.5-0.9,3.9-0.9,6.3c0,0.4,0,0.9,0,1.3c0,0.8,0.6,1.4,1.4,1.4
		c0.8,0,1.4-0.6,1.4-1.4c0-0.4,0-0.9,0-1.3c0-2.1-0.1-3.2,0.7-5.3c0.8-2,4.2-3.9,6.3-4.9c1.9,3.3,4.8,5.2,8,5.2
		c3.3,0,6.2-1.9,8.1-5.2c2.1,0.9,5.5,2.8,6.3,4.9c0.6,1.6,0.9,5,1,10.3H1.4c-0.8,0-1.4,0.6-1.4,1.4c0,0.8,0.6,1.4,1.4,1.4h33.5
		c0.8,0,1.4-0.6,1.4-1.4C36.2,33.3,36.1,27.5,35.1,24.8"/>
	<g>
		<path d="M18.1,19.2c-5.3,0-9.6-4.3-9.6-9.6c0-5.3,4.3-9.6,9.6-9.6s9.6,4.3,9.6,9.6C27.7,14.9,23.4,19.2,18.1,19.2z M18.1,2.9
			c-3.7,0-6.7,3-6.7,6.7s3,6.7,6.7,6.7s6.7-3,6.7-6.7S21.8,2.9,18.1,2.9z"/>
	</g>
</g>
<rect y="0" fill="none" width="36.2" height="38.9"/>
</svg>
