<?xml version="1.0" encoding="utf-8"?>
<!-- Generator: Adobe Illustrator 19.0.0, SVG Export Plug-In . SVG Version: 6.00 Build 0)  -->
<svg version="1.1" id="Layer_1" xmlns="http://www.w3.org/2000/svg" xmlns:xlink="http://www.w3.org/1999/xlink" x="0px" y="0px"
	 viewBox="5.1 343.2 22 12.5" style="enable-background:new 5.1 343.2 22 12.5;" xml:space="preserve">
<path d="M18.8,352.7c0.8-0.3,1.8,1.7,2.9,2.5c0.8,0.6,1.5,0.4,1.5,0.4h2.9c0,0,1.5-0.1,0.8-1.3c-0.1-0.1-0.4-0.9-2.2-2.5
	c-1.8-1.7-1.6-1.4,0.6-4.4c1.4-1.8,1.9-2.9,1.7-3.4c-0.2-0.4-1.2-0.3-1.2-0.3h-3.3c0,0-0.2,0-0.4,0.1c-0.2,0.1-0.3,0.4-0.3,0.4
	s-0.5,1.4-1.2,2.6c-1.5,2.5-2.1,2.6-2.3,2.5c-0.6-0.4-0.4-1.5-0.4-2.2c0-2.4,0.4-3.4-0.7-3.7c-0.4-0.1-0.6-0.1-1.5-0.2
	c-1.2,0-2.2,0-2.7,0.3c-0.4,0.2-0.7,0.6-0.5,0.6s0.7,0.1,1,0.5c0.3,0.5,0.3,1.5,0.3,1.5s0.2,2.9-0.5,3.2c-0.4,0.2-1.1-0.3-2.4-2.5
	c-0.7-1.2-1.2-2.5-1.2-2.5s-0.1-0.2-0.3-0.4c-0.2-0.2-0.5-0.2-0.5-0.2H5.8c0,0-0.5,0-0.6,0.2c-0.2,0.2,0,0.6,0,0.6s2.5,5.8,5.3,8.7
	c2.6,2.7,5.5,2.5,5.5,2.5h1.3c0,0,0.4,0,0.6-0.3c0.2-0.2,0.2-0.6,0.2-0.6S17.9,353,18.8,352.7z"/>
</svg>
