<?xml version="1.0" encoding="utf-8"?>
<!-- Generator: Adobe Illustrator 19.2.0, SVG Export Plug-In . SVG Version: 6.00 Build 0)  -->
<svg version="1.1" id="Слой_1" xmlns="http://www.w3.org/2000/svg" xmlns:xlink="http://www.w3.org/1999/xlink" x="0px" y="0px"
	 viewBox="0 0 44.2 47.7" style="enable-background:new 0 0 44.2 47.7;" xml:space="preserve">
<style type="text/css">
	.st0{fill:#04D959;}
</style>
<g>
	<g>
		<g>
			<path class="st0" d="M32.9,47.8H6.2c-0.5,0-0.9-0.3-0.9-0.8L0.1,17.9c-0.1-0.4,0-0.7,0.3-0.9L15.1,3.5c0.2-0.2,0.4-0.3,0.6-0.3
				h7.4c0.2,0,0.5,0.1,0.6,0.2L38,16.1c0.4,0.3,0.4,0.9,0.1,1.3c-0.3,0.4-0.9,0.4-1.3,0.1l-14-12.4h-6.7L2,18l5,27.8h25.1l4.4-23.5
				c0.1-0.5,0.6-0.9,1.1-0.8s0.9,0.6,0.8,1.1L33.8,47C33.8,47.4,33.4,47.8,32.9,47.8z"/>
		</g>
	</g>
	<g>
		<g>
			<path class="st0" d="M34.4,7.1c-0.2,0-0.5-0.1-0.7-0.3c-0.4-0.4-0.4-1,0-1.3l5.1-5.1c0.4-0.4,0.9-0.3,1.3,0c0.4,0.4,0.4,1,0,1.3
				L35,6.8C34.9,7,34.6,7.1,34.4,7.1z"/>
		</g>
	</g>
	<g>
		<g>
			<path class="st0" d="M38,10.7c-0.2,0-0.4,0-0.6-0.2c-0.4-0.4-0.4-1,0-1.3L42.5,4c0.4-0.4,0.9-0.4,1.3,0c0.4,0.4,0.4,1,0,1.3
				l-5.1,5.2C38.5,10.7,38.2,10.7,38,10.7z"/>
		</g>
	</g>
</g>
<g>
	<path class="st0" d="M30,19.1H9.8c-0.5,0-1-0.4-1-1s0.4-1,1-1H30c0.5,0,1,0.4,1,1S30.5,19.1,30,19.1z"/>
</g>
<g>
	<path class="st0" d="M28.2,41.6c-0.2,0-0.4-0.1-0.6-0.2L7.1,24.7c-0.4-0.3-0.5-0.9-0.1-1.3c0.3-0.4,0.9-0.5,1.3-0.1L28.8,40
		c0.4,0.3,0.5,0.9,0.1,1.3C28.7,41.5,28.5,41.6,28.2,41.6z"/>
</g>
<g>
	<path class="st0" d="M10.7,42c-0.2,0-0.4-0.1-0.6-0.2c-0.4-0.3-0.5-0.9-0.2-1.3l6.9-8.9c0.3-0.4,0.9-0.5,1.3-0.2s0.5,0.9,0.2,1.3
		l-6.9,8.9C11.3,41.8,11,42,10.7,42z"/>
</g>
</svg>
