<svg id="Слой_1" xmlns="http://www.w3.org/2000/svg" xmlns:xlink="http://www.w3.org/1999/xlink" viewBox="0 0 41 34.2"><style>.st0{clip-path:url(#SVGID_2_)}</style><defs><path id="SVGID_1_" d="M0 0h41v34.2H0z"/></defs><clipPath id="SVGID_2_"><use xlink:href="#SVGID_1_" overflow="visible"/></clipPath><path class="st0" d="M40.7 5.6c-.3-.3-.7-.5-1.1-.5H11.5c-.8 0-1.4.6-1.4 1.4 0 .8.6 1.4 1.4 1.4h26.3l-3.4 13.9H13.5L7.2 2.7c-.1-.4-.4-.7-.8-.9L1.9.1C1.2-.2.4.2.1.9c-.3.7.1 1.5.8 1.8l3.9 1.5 6.3 19.5c.2.6.7 1 1.3 1h23.2c.6 0 1.2-.4 1.3-1.1l4-16.7c.2-.5.1-.9-.2-1.3M14.3 26.2c-2.2 0-4 1.8-4 4s1.8 4 4 4 4-1.8 4-4-1.8-4-4-4m0 5.2c-.7 0-1.2-.5-1.2-1.2s.5-1.2 1.2-1.2 1.2.5 1.2 1.2-.5 1.2-1.2 1.2m18.3-5.2c-2.2 0-4 1.8-4 4s1.8 4 4 4 4-1.8 4-4-1.9-4-4-4m0 5.2c-.7 0-1.2-.5-1.2-1.2s.5-1.2 1.2-1.2 1.2.5 1.2 1.2c-.1.7-.6 1.2-1.2 1.2"/></svg>