<svg id="Слой_1" xmlns="http://www.w3.org/2000/svg" viewBox="0 0 54.9 34.4"><style>.st0{fill:#04d959}</style><path class="st0" d="M26 15.4c6.4 0 11.4-3.2 11.4-7.4S32.4.6 26 .6 14.6 3.8 14.6 8s5 7.4 11.4 7.4zm0-12.7c5.1 0 9.4 2.4 9.4 5.4s-4.3 5.4-9.4 5.4-9.4-2.5-9.4-5.4c0-2.9 4.3-5.4 9.4-5.4z"/><path class="st0" d="M26.1 9.8c.9 0 4-.2 4-1.9 0-1.8-3-1.9-4-1.9s-4 .2-4 1.9c0 1.8 3.1 1.9 4 1.9zm-15 8.2c-.3-.5-.8-.7-1.3-.5L.6 21.8c-.5.3-.7.8-.5 1.3.2.3.5.5.9.5.1 0 .3-.1.4 0l9.2-4.3c.5-.3.7-.8.5-1.3zM41.4 4.7c.1 0 .3-.1.5-.2l5.6-2.7c.4-.3.6-.8.4-1.3-.3-.4-.8-.6-1.3-.4l-5.7 2.8c-.4.3-.6.8-.4 1.3.2.3.5.5.9.5zm13.5 6.1c-.2-.5-.7-.8-1.2-.6L4 27.9c-.5.2-.8.7-.6 1.2.1.4.5.6.9.6h.3l31.3-11.1v7.6c-.1.2-.8 6.3-9.7 6.3-4.3 0-6.7-1.4-8-2.6-.3-.4-.9-.4-1.3 0-.4.3-.4.9 0 1.3 1.6 1.5 4.4 3.2 9.4 3.2 10.6 0 11.5-8 11.6-8.1v-8.5L54.3 12c.5-.2.8-.7.6-1.2zm-39.6 9.8c.5 0 1-.5 1-1v-4.4c0-.6-.4-1-1-1s-1 .5-1 1v4.4c0 .6.5 1 1 1z"/></svg>