<svg id="Слой_1" xmlns="http://www.w3.org/2000/svg" viewBox="0 0 63.7 46.7"><style>.st0{fill:#04d959}</style><path class="st0" d="M63.3 38.2c-.4-.3-1-.2-1.3.2-4.9 6.9-16.9 6.4-17 6.4H18.7c-.1 0-12.1.5-17-6.4-.3-.4-.9-.5-1.3-.2s-.5.9-.2 1.3C5 46.2 15.1 46.7 18 46.7h27.1c.5 0 13.1.5 18.6-7.2.1-.4 0-1-.4-1.3z"/><path class="st0" d="M43.1 29.4c-.5.2-.8.7-.6 1.2.2.5.7.8 1.2.6.4-.1 9.4-2.9 13.1 6.2.2.4.5.6.9.6.1 0 .2 0 .4-.1.5-.2.7-.8.5-1.2-4.4-10.7-15.4-7.3-15.5-7.3z"/><path class="st0" d="M51.7 38.2c.2.3.5.4.8.4.2 0 .4 0 .5-.2.4-.3.6-.9.3-1.3-2.3-3.5-6.2-3.5-6.3-3.4-.5 0-.9.4-.9 1 0 .5.4.9 1 .9 0 0 2.9 0 4.6 2.6zm-35.8.6c-.5.2-.8.7-.6 1.2.1.4.5.6.9.6.1 0 .2 0 .3-.1.1 0 6.3-2.2 13.2 0 .5.2 1-.1 1.2-.6s-.1-1-.6-1.2c-7.5-2.3-14.1 0-14.4.1z"/><path class="st0" d="M35.8 40.1c.2.3.5.5.9.5.1 0 .3 0 .4-.1.5-.2.7-.8.4-1.3-.1-.3-3.7-7.4-14.4-7.5-10.7-.1-14.5 6.3-14.6 6.5-.3.5-.1 1 .3 1.3.5.3 1 .1 1.3-.3.1-.2 3.4-5.6 13-5.5 9.5 0 12.6 6.2 12.7 6.4z"/><path class="st0" d="M5 37.1c.5.2 1 0 1.2-.5.1-.4 3.7-8.9 17.6-8.6 13.9.3 17.6 11.5 17.7 12 .1.4.5.7.9.7h.3c.5-.2.8-.7.6-1.2 0-.1-4.2-13.1-19.5-13.4-15.3-.3-19.2 9.3-19.4 9.8-.2.4.1 1 .6 1.2zM34.8 9.3h18.4c.5 0 1-.4 1-1s-.4-1-1-1H34.8c-.5 0-1 .4-1 1s.5 1 1 1zm-25.5 1h-.1c-.5 0-.9.3-.9.9 0 .6.4 1 1 1h3.4v9.9c0 .5.4 1 1 1s1-.4 1-1V1c0-.5-.4-1-1-1s-1 .4-1 1v3.4H9.3c-.5 0-1 .4-1 1s.4 1 1 1h3.4v3.9H9.3zM19 21.8c.5 0 1-.4 1-1V1c0-.5-.4-1-1-1s-1 .4-1 1v19.8c0 .5.5 1 1 1zm5.3 0c.5 0 1-.4 1-1v-8.3h1.9c2.3 0 4.1-1.8 4.1-4.1s-1.8-4.2-4.1-4.2h-1.9V1c0-.5-.4-1-1-1s-1 .4-1 1v19.8c0 .5.5 1 1 1zm2.2-15.7h.6c1.3 0 2.2 1 2.2 2.3s-1 2.2-2.2 2.2h-1.9V6.1h1.3z"/><circle class="st0" cx="47.6" cy="39.8" r=".9"/></svg>