<svg id="Слой_1" xmlns="http://www.w3.org/2000/svg" viewBox="0 0 54.3 14.3"><style>.st0{fill:#010101}</style><path class="st0" d="M54.3 7.1c0 1.3-1.1 2.3-2.4 2.3l-29.4-.3c-.8 3.5-3.8 5.2-9.1 5.2H1.9c-1.1 0-1.9-.9-1.9-1.9s.9-1.9 1.9-1.9h10.8c.4 0 .8-.3.8-.7s-.3-.7-.8-.7H1.9C.9 9.1 0 8.2 0 7.2s.9-1.9 1.9-1.9h10.8c.4 0 .8-.3.8-.7 0-.4-.3-.7-.8-.7H1.9C.9 3.8 0 3 0 1.9S.9 0 1.9 0h11.5c5.3 0 8.3 1.7 9.1 5.2l29.3-.4c1.4 0 2.5 1.1 2.5 2.3zM1.2 12.4c0 .4.3.7.8.7h11.5c6.5 0 7.7-2.7 8-4.7 0-.3.3-.5.6-.5l29.8.4c.7 0 1.3-.5 1.3-1.2S52.5 6 51.8 6L22 6.4c-.3 0-.5-.2-.6-.5-.3-2-1.5-4.7-8-4.7H1.9c-.4 0-.8.3-.8.7s.3.7.8.7h10.8c1.1 0 1.9.9 1.9 1.9s-.9 1.9-1.9 1.9H1.9c-.4 0-.8.3-.8.7 0 .4.3.7.8.7h10.8c1.1 0 1.9.9 1.9 1.9s-.9 1.9-1.9 1.9H1.9c-.4.1-.7.4-.7.8z"/></svg>