<svg id="Слой_1" xmlns="http://www.w3.org/2000/svg" viewBox="0 0 47.1 44.2"><style>.st0{fill:#04d959}</style><path class="st0" d="M17.4 11.4c.2 0 .4 0 .7-.3.4-.3.4-.9.1-1.3-1.4-1.8-2-3.4-1.7-4.9.4-2 2.3-3.2 2.3-3.2.4-.3.6-.9.3-1.3s-.8-.6-1.3-.3c-.1.1-2.7 1.6-3.2 4.5-.4 2.1.3 4.2 2.1 6.4.1.3.4.4.7.4zm7.6 0c.2 0 .4 0 .7-.3.4-.3.4-.9.1-1.3-1.4-1.8-2-3.4-1.7-4.9.4-2 2.3-3.2 2.3-3.2.4-.3.6-.9.3-1.3s-.8-.6-1.3-.3c-.1.1-2.7 1.6-3.2 4.5-.4 2 .3 4.2 2.1 6.4.1.3.4.4.7.4zm7.6 0c.2 0 .4 0 .7-.3.4-.3.4-.9.1-1.3-1.4-1.8-2-3.4-1.7-4.9.4-2 2.3-3.2 2.3-3.2.4-.3.6-.9.3-1.3s-.8-.6-1.3-.3c-.1.1-2.7 1.6-3.2 4.5-.4 2 .3 4.2 2.1 6.4.1.3.4.4.7.4zM47 20.3c-1.3-3.7-19.6-4-23.4-4-3.8 0-21.1.3-23.3 3.7-.2.2-.3.5-.3.7 0 13 10.6 23.5 23.6 23.5 12.9 0 23.5-10.6 23.5-23.5 0-.1 0-.2-.1-.4zm-23.4-2c12 0 19.9 1.3 21.4 2.4-1.5 1.1-9.4 2.5-21.4 2.5S3.7 21.8 2.2 20.7c1.5-1.1 9.4-2.4 21.4-2.4zm0 23.9c-11.2 0-20.5-8.5-21.5-19.5 5.1 2.2 18.4 2.4 21.5 2.4 3.1 0 16.2-.2 21.4-2.4-1 10.9-10.2 19.5-21.4 19.5z"/></svg>