<svg xmlns="http://www.w3.org/2000/svg" viewBox="0 0 36.2 38.9"><path d="M35.1 24.8c-1.6-4.1-8.3-6.7-9-6.9-.7-.3-1.4.1-1.7.7-1.4 3-3.7 4.7-6.2 4.7s-4.8-1.7-6.1-4.7c-.3-.7-1.1-1-1.7-.7-.8.3-7.5 2.9-9 6.9-1 2.5-.9 3.9-.9 6.3v1.3c0 .8.6 1.4 1.4 1.4.8 0 1.4-.6 1.4-1.4v-1.3c0-2.1-.1-3.2.7-5.3.8-2 4.2-3.9 6.3-4.9 1.9 3.3 4.8 5.2 8 5.2 3.3 0 6.2-1.9 8.1-5.2 2.1.9 5.5 2.8 6.3 4.9.6 1.6.9 5 1 10.3H1.4c-.8 0-1.4.6-1.4 1.4 0 .8.6 1.4 1.4 1.4h33.5c.8 0 1.4-.6 1.4-1.4-.1-4.2-.2-10-1.2-12.7"/><path d="M18.1 19.2c-5.3 0-9.6-4.3-9.6-9.6S12.8 0 18.1 0s9.6 4.3 9.6 9.6-4.3 9.6-9.6 9.6zm0-16.3a6.7 6.7 0 1 0 0 13.4 6.7 6.7 0 0 0 0-13.4z"/><path fill="none" d="M0 0h36.2v38.9H0z"/></svg>